<?xml version="1.0" encoding="UTF-8"?>
<svg id="Back_Mountains" xmlns="http://www.w3.org/2000/svg" xmlns:xlink="http://www.w3.org/1999/xlink" viewBox="0 0 310.46 215.71">
  <defs>
    <style>
      .cls-1 {
        fill: url(#linear-gradient-2);
      }

      .cls-2 {
        fill: #e9eedc;
      }

      .cls-3 {
        fill: none;
      }

      .cls-4 {
        clip-path: url(#clippath-1);
      }

      .cls-5 {
        fill: url(#linear-gradient);
      }

      .cls-6 {
        clip-path: url(#clippath);
      }
    </style>
    <clipPath id="clippath">
      <rect class="cls-3" x="22.05" y="23.3" width="261.76" height="169.12"/>
    </clipPath>
    <linearGradient id="linear-gradient" x1="155.09" y1="129.98" x2="155.09" y2="91.93" gradientTransform="translate(0 204.08) scale(1 -1)" gradientUnits="userSpaceOnUse">
      <stop offset="0" stop-color="#56889b"/>
      <stop offset=".24" stop-color="#749da8"/>
      <stop offset=".75" stop-color="#c1d3c9"/>
      <stop offset="1" stop-color="#e9efdb"/>
    </linearGradient>
    <clipPath id="clippath-1">
      <rect class="cls-3" x="22.05" y="23.3" width="261.76" height="169.12"/>
    </clipPath>
    <linearGradient id="linear-gradient-2" x1="187.57" y1="119.72" x2="187.57" y2="81.23" xlink:href="#linear-gradient"/>
  </defs>
  <rect class="cls-2" x="22.31" y="116.75" width="261.5" height="13.79"/>
  <g>
    <g class="cls-6">
      <path class="cls-5" d="M13.81,86.33c1.48-.27,1.69.53,2.91,1.04,2.57,1.07,4.17,1.44,7.07,1.16,2.42-.23,4.88-.5,7.21-1.19.67-.2.64-.41,1.12-.79.56-.45,1.31-.73,1.98-1.01,1.06-.44,1.92-.94,2.85-1.6,1.6-1.14,3.79-1.88,5.82-2.01.72-.04,1.19.06,1.82.37.8.4,1.66.42,2.49.73,1.45.55,3.05,1,4.31,1.94,1.32.98,2.79,1.62,4.53,1.61,1.77,0,3.51.19,5.28.25.69.03,1.3.25,1.99.28,1.12.04,2.09-.32,3.15-.56.63-.14,1.08-.15,1.74-.21.79-.08,1.49-.36,2.31-.28.63.06,1.12.33,1.74.46.89.2,1.83.37,2.73.52,1.05.18,2.29.31,3.35.31.89,0,1.64.29,2.48.52.65.18,1.33.28,1.97.51.71.26,1.23.51,2.01.53.9.03,1.91.1,2.79-.06,1.13-.2,1.98-1.01,2.96-1.51.55-.28,1.06-.57,1.63-.82,1.04-.45,2.14-.8,3.2-1.21.86-.33,1.7-.72,2.53-1.1,1.45-.67,2.8-1.56,4.18-2.32.78-.43,1.32-1.11,2.25-1.24,1.79-.26,2.5.98,3.67,1.95,2.17,1.81,5.37,2.04,7.64,3.74.9.67,2,.98,3.08,1.39.88.33,1.66.9,2.5,1.31.87.42,1.84.39,2.8.39,1.1,0,1.77-.12,2.75.37.18.09.33.16.53.22.5.16.99.26,1.49.47,1.15.47,2.32.98,3.6,1.01,1.14.03,2.26.18,3.19-.41.9-.57,1.9-1.04,2.75-1.65.19-.14.25-.36.49-.48.25-.12,1-.09,1.28-.06.32.03.6.16.9.21.46.08.97-.02,1.42.11.57.16,1.09.55,1.67.73.65.2,1.24.49,1.94.52,1.05.05,2.1.17,3.15.22,1.02.05,1.9.4,2.9.54,2.06.28,4.19.6,6.27.71,2.62.14,5.07-.72,7.67-.79,1.81-.05,3.61.08,5.41.27.53.06,1.15.05,1.65.21.08.03.14.1.23.12.4.11.83.01,1.24-.02,1.4-.12,2.71-.53,4.07-.78.26-.05.49-.07.73-.17.78-.33,1.53-.73,2.3-1.09.5-.23.92-.4,1.48-.45.92-.08,1.92.1,2.71.57.85.5,1.69,1.01,2.56,1.49.85.47,1.6,1.44,2.62,1.63.37.07.71-.02,1.07-.1,1.23-.28,2.46-.15,3.72-.2.63-.03,1.12-.23,1.72-.41.86-.27,1.79-.26,2.6-.62.72-.32,1.41-.81,2.14-1.1.28-.11.66-.14.98-.22.24-.06.8-.25,1.08-.12.05.02.06.12.1.15.55.36,1.25.42,1.84.71.6.29.87.55,1.57.59.27.01.58,0,.83.14.17.09.24.23.4.31.41.19.87.11,1.14.51.09.13.03.24.15.38.18.2.58.18.83.22.43.07.74.22,1.14.34.56.16,1.34.03,1.91.03,1.5,0,3.04-.38,4.44-.89.42-.15.83-.31,1.26-.44.94-.27,1.93-.54,2.92-.59,1.02-.05,2-.31,3.03-.3.29,0,.63.04.92.01.39-.03.74-.19,1.12-.27.66-.14,1.18-.24,1.79-.48.4-.16.85-.18,1.27-.32.49-.17.99-.33,1.48-.51,1.07-.39,2.18-.76,3.21-1.24.94-.43,2-.59,2.91-1.06.7-.36,1.48-.75,2.12-1.18.65-.44,1.14-1.1,1.56-1.72.3-.45.39-.74,1.01-.76.55-.02,1.19-.05,1.73.08.7.16,1.18.44,1.79.78.59.34,1.08.42,1.75.51.51.07,1.04.18,1.55.12.47-.06.86-.16,1.34-.15,1.28,0,2.49-.28,3.77-.29,1.39,0,2.83-.51,4.15-.85.96-.25,1.83-.87,2.84-.93.34-.02.71,0,1.05,0,.35.01.62.15.95.29.49.21.83.61,1.37.79.65.21,1.31.29,1.94.55.45.18.96.23,1.39.43.25.12.42.33.69.41.45.15.79.25,1.23.45.39.18.91.42,1.34.48.54.08,1.18-.01,1.72-.01h1.8c.71,0,1.54-.1,2.24,0,.29.04.26.07.48.15.27.1.57.19.86.29.61.21,1.21.47,1.79.74.98.46,2.03.99,3.14,1.04,1.6.06,3.23.49,4.77.85.64.15,1.28.28,1.92.44.47.11.83.28,1.32.19.5-.1.9-.12,1.41-.05.2.03,1.75.25,1.76.44.27,3.94-.54,8.05-.53,12.05,0,2.73-.73,5.7-.14,8.39.48,2.21,2.25,4.12,2.65,6.32-4.44.01-7.7-.52-12.26-.52H12.96l.86-30.43Z"/>
    </g>
    <g class="cls-4">
      <path class="cls-1" d="M273.88,126.28c-2.48-.49-4.89-1.58-7.09-3.21-.89-.66-1.78-1.41-2.77-1.61-.93-.18-1.86.15-2.79.29-2.74.4-5.45-.85-8.06-2.08-3.91-1.85-7.81-3.7-11.72-5.54-2.48-1.18-5.12-2.36-7.68-1.61-2.22.65-4.18,2.72-6.44,2.99-3.11.38-5.92-2.69-9.03-3.09-3.3-.42-6.7,2.19-9.84.72-2.04-.96-3.37-3.37-5.11-4.97-1.96-1.8-3.92-1.25-5.97-2.48-1.56-.93-2.62-2.95-4.03-4.23-2.12-1.94-4.65-3.03-7.03-4.18-3.29-1.58-6.65-3.38-9.12-6.79-.9-1.25-1.73-2.75-2.95-3.27-2.79-1.2-4.98,3.22-7.46,5.35-3.38,2.91-7.84,1.51-11.61,3.29-4.52,2.13-7.59,8.59-12.26,9.94-2.27.66-4.65,0-6.92.63-4.89,1.35-7.96,8.08-12.37,11.31-3.02,2.21-6.53,2.68-9.89,3.49-4.26,1.04-8.45,2.7-12.46,4.96,9.21,2.41,19.36,1,28.73,1h123.58c3.85,0,7.71-.08,11.56,0,1.31.03,2.61.32,3.9.25,1.5-.07,3.37-1.49,4.85-1.16Z"/>
    </g>
  </g>
</svg>