<?xml version="1.0" encoding="UTF-8"?>
<svg id="Layer_1" data-name="Layer 1" xmlns="http://www.w3.org/2000/svg" viewBox="0 0 531.76 354">
  <defs>
    <style>
      .cls-1 {
        fill: #fefefe;
      }

      .cls-2 {
        fill: #59669c;
      }
    </style>
  </defs>
  <path class="cls-2" d="M219.75,0l.59.52.91-.52h13.5c-.12,2.56,2.63,2,3.79,3.33,5.98,6.87,7.35,15.68,15.77,22.48,14.89,12.02,20,2.21,34.11-1.02,8.6-1.97,13.48.51,20.76,4.65,15.28,8.7,26.47,24.04,38.04,36.96,1.45,1.62,4.22,2.7,5.31,4.44,1.19,1.89,1.38,4.95,2.67,7.08,2.9,4.78,7.63,6.7,9.6,12.9,3.61,11.33.69,16.93,12.95,24.55,16.31,10.12,23.05,5.66,39.64,7.61,5.49.64,6.86,7.52,10.12,11.63,7.42,9.34,20.15,15.43,31.94,16.81,5.63.66,12.69-.51,18.26,1.24,7.54,2.38,12.08,16.48,21.78,18.72,6.77,1.56,11.81-2.94,18.56-.56l13.7,15.59c.07,8.54-9.48,8.03-14.95,10.52-2.95,1.34-7.73,6.11-10.35,6.9-8.03,2.44-6.43,1.15-13.56,6.14-6.71,4.69-12.95,8.25-20.21,12.61-7.78,4.67-17.5,9.8-23.09,17.39-1.47,1.99-2.01,4.51-3.35,6.4-.75,1.06-19.1,15.17-20.27,15.73-1.46.7-2.6.21-4.52,1.48-3.57,2.36-3.58,6.7-5.3,9.7-3.39,5.91-18.82,15.31-25.03,19.97-1.77,1.33-3.05,3.54-4.97,4.78-4.23,2.75-9.68,2.55-14.38,3.62-3.79.86-21.02,20.95-26.02,24.98-3.16,2.55-14.92,10.09-18.42,10.83-4.66.98-9.58.88-14.25,1.5-1.67.22-2.59,1.34-3.75,1.5-2.95.41-5.16-.35-8.4.63-1.68.51-8.57,7.96-10.33,9.89-.85.93-1.88,1.53-1.86,3.01h-10.5c-2.62-8.27-13.13-3.34-19.1-2.97-4.49.27-11.38.38-15.8,0-5.7-.49-14.65-6.42-18.35-10.9-1.91-2.32-2.38-6.41-6.42-7.08-2.03-.34-7.45-.3-9.37.29-2.85.88-4.77,5.48-6.31,5.72-4.95,1.83-21.56-6.82-22.75-11.08-.4-1.42.11-3-.19-4.31-.27-1.17-1.23-1.97-1.43-3.07-.88-4.94,1.14-9.7-6.61-11.39-3.67-.8-8.48-.32-12.37-1.88-6.71-2.68-6.24-5.41-8.96-10.57-1.26-2.38-3.46-6.92-5.09-9.13-8.23-11.14-14.88-8.41-20.71,2.67-6.92,1.55-7.64-4.18-10.78-8.67-.88-1.26-2.4-2.03-3.29-3.46-3.9-6.26-4.87-13.87-11.34-18.66-4-2.97-5.72-2.14-9.43-3.32-1.82-.58-3.41-1.96-5.14-2.36-3.16-.73-6.37.22-9.48-1.02-6.2-2.45-12.62-10.44-19.01-12.49-2.52-.81-6.27-.84-9.22-2.03-11.84-4.78-20.37-17.95-24.53-29.47-1.52-4.19-2.92-9.42-5.26-13.49-2.21-3.84-10.99-9.63-13.95-13.8-1.46-2.05-1.05-5.23-3.34-5.28v-1.5l1.58-2.92c5.6-1.89,10.97.55,16.81-.08,3.23-.35,5.2-2.05,8.95-1.47,2.61.41,6.69,4.74,9.32,6.44,3.56,2.29,7.42,4.02,10.93,6.33,8.99.34,18.02-5.97,22.78-13.31,11.28-17.39,7.77-30.75,31.08-37.99,5.11-1.59,14.19-4.85,18.31-5.74,1.7-.37,3.25.3,5.31-.58,1.8-.77,1.92-2.45,2.98-3.22,4.02-2.92,9.26-4.71,13.34-8.96,9.88-10.26,12.59-32.7,22.16-40.09,11.37-8.78,20.58-12.36,30.57-24.93,10.38-13.06,10.6-26.72,17.03-40.72l7.1-7.52h1.5Z"/>
  <polygon class="cls-1" points="221.25 0 220.34 .52 219.75 0 221.25 0"/>
</svg>