<?xml version="1.0" encoding="UTF-8"?>
<svg id="Layer_1" data-name="Layer 1" xmlns="http://www.w3.org/2000/svg" viewBox="0 0 654.43 104.91">
  <defs>
    <style>
      .cls-1 {
        fill: #4b5995;
      }

      .cls-2 {
        fill: #38477b;
      }
    </style>
  </defs>
  <path class="cls-1" d="M0,8.27c1.99-.32,2.3-2.39,3.87-3,.81-.31,2.17-.49,3.02-.37.76.1,1.09.65,1.92.58,1.32-.12,3.73-1.11,2.98-2.8,1.36.14,3.03-.2,4.33.02,1.11.19,2.4,1.38,3.17,1.59,1.34.38,3.21.37,4.41.64,1.31.3,3.05,1.03,3.78,2.18s.3,2.25,1.74,3.22c2.24,1.52,6.43.36,9.1.72.64.09,5.57,2.07,6.02,2.4.29.22.27.81.58,1.1,3.39,3.2,11.26,5.2,15.71,6.72.59.2,1.03,1.01,1.52,1,.32,0,.77-.49,1.39-.58,7.17-1.01,16.92,1.02,24.13,0,.78-.11,2.57-.93,3.39-1.09,3.01-.59,4.82-.28,7.78-1.47,2.16-.87,4.57-1.36,6.58-2.11,1.42-.54,3.81-3.31,5.06-3.63,1.71-.44,4.49.18,6.37-.09.96-.14,2.15-.99,3.09-1.12,4.23-.57,10.42.94,13.59,3.83,1.12,1.03,1.87,2.38,3.03,3.42,3.98,3.56,8.23,3.92,12.69,5.82s8.51,3.83,12.87,5.64c.67.28,1.01,1.21,2.04.9-.22-2.15,3.14-3.26,3.93-4.68,1.03-1.87,1.24-3.9,2.81-5.82,2.36-2.9,7.04-6.97,10.52-8.26,5.44-2.02,11.75-2.19,17.11-3.93,8.25-2.68,19.07-1.32,27.71-3.7,5.11-1.41,9.18-6.34,14.95-5.23,2.01.39,1.48,2.05,1.88,3.17.19.52,1.67.77.93,2.42-.84,1.87-8.56,2.95-10.69,3.33-10.36,1.85-20.81,2.22-31.03,4.03-4.77.85-13.93,2.35-18.15,4.01s-9.57,7.61-10.3,12.13l-4.6,4.07c.68.08,1.23.5,1.84.68,3.52.99,7.93,1.67,11.22,3.37,1.12.58,2.87,2.42,3.76,2.69.78.24,1.56,0,2.32.2,4.4,1.16,9.35,3.08,13.81,4.42,5.71,1.71,10.96,8.68,17.85,8.51,1.07.92,4.42,1.98,5.18,2.95.17.22.33.54-.07.56l-.59.04c.31,1.14-1.38,1.82-2.29,1.93.08-.53.33-.7.56-1.12l-1.96-.28c-.15,1.19.22,1.54,1.4,1.4-.06.39-.09,1.72,0,2.04.1.39,1.06.3.85,1.03-1.48-.46-.99.81-1.27.86-.81-.04-1.58-.09-2.38.11-1.96.49-1.97,1.97-4.87,1.79-1.42-.09-2.69-.74-4.1-.81l.28-5.03h-1.12s0-2.24,0-2.24c-1.47-.28-2.04,1.88-3.65,1.96.03-.19.05-.73-.02-.81l-3.06-.02,1.4.56c.28.99-.95.38-1.12.56-.22,1.13.42,2.38,1.69,1.68-.04.05.06.31-.07.48-.18.25-.81.23-1.01.83-.37,1.14.52,1.76.46,2.13-.05.34-.73.93-.52,1.58l-3.75-.23c-.38-.26-.07-.87-.16-1.15h.84c.46-.54-.16-1.56-1.12-1.12v.84c-.5.03-1.04-.08-1.52.01-.83.17-3.17,1.07-3.65,1.13-1.99.26-4.55-.24-6.61-.02-.58-2.4,1.48-2.82,3.08-3.93l-.17-.55c-1.92.22-1.05-1.9-1.25-3.21.98-.2.84-.37,1.14-1.27-3.02.75-4-2.86-7.02-2.24.28-.33.18-1.17.74-1.36.61-.21,1.74.05,2.49-.04,2.12-.26,5.55-.44,5.2-3.36h-3.65s1.12-.84,1.12-.84l-1.12-.28c.7-1.37.43-2.18.28-3.64-.99-.18-.78.91-1.96.56.15-1.26-.1-2.22-.57-3.36-.44.4-2.12.53-2.21.61-.09.08.03.55-.11.7-.23.27-.76.32-.93.65-.23.44.47,1.17-.11,1.56l-3.93-.32-.57.32.56,3.48c.18.2,2.09-.91,1.96.56l-.84.56c.74-.04,3.12,2.38,2.8,2.8-1,.42-1.79.22-2.8,0l1.68-.83c-.98.23-.88-.73-1.66-1-.86-.29-2.45-.45-3.39-.68,0,.84.93.51.56,1.68-.79.22-2.18-.92-2.8-.27-.37.39,1.17,1.25,1.34,1.32,1.44.62,3.55.87,5.08,1.53l.19.8,2.09-.02c.01.23.57.64.01.99-.73.34-1.62-.02-2.33.14-.18.04-.2.37-.32.44-.23.14-.61.07-.68.14-.24.25.15,1.37-.1,1.62-.06.06-.45,0-.68.14-1.26.78-1.42.23-2.72.51-3.07.67.97,1.74,1.09,1.89.07.1.14,2.15-.15,2.4-.39.26-8.31.2-9.38.09-.72-.08-5.4-1.64-5.7-2-.6-.73-.3-2.1-.36-3l-3.1-.12c-.33-.23-.38-1.41-.56-1.9-.07-.19-.46-.18-.52-.42-.12-.42-.16-2.43-.31-2.58h-3.07c.07-.58-.12-1.27,0-1.79.06-.26.84-.05.56-.74-2.03-.83-4.64.05-4.21,2.52-1.53-.36-2.52.62-3.93.56l-.04,1.78c-1.15,1.28-3.11.05-4.3-.12-.77-.11-2.88-.09-3.68,0-1.04.11-1.61.79-2.63.55.11-1.03-.19-.86-1.14-.81l.13-.56,6.04-2.93-3.36-.42c.35-.53,1.71-1.06.21-1.11-1.19-.49,2.11-1.57,2.42-1.72.4-.2,1.05-1,1.3-1.08s.77.09,1.18-.07c.46-.18,2.73-1.94,2.18-2.45-.65-.61-1.76,1.04-2.26,1.26-.82.35-1.85-.35-2.79-.14l.56-1.68h-1.96c.8,2.23-1.81,1.41-2.53,2.79.83-.29,2.06.31,2.64.29.18,0,.02-.51.56-.59.64-.09,1.64-.09,2.13.3-1.1.78-2.12.38-3.21.57-.99.17-1.51.88-3.04.54-.07-.02-1.02-.91-1.04-.97-.21-.73,3.31-1.92,3.93-2.38.29-.77-.66-.55-.84-.98-.25-.58,1.08-.33.55-.97-.04-.05-1.32-.08-.27-.71.6-.36,1.71.19,2.25-.56-1.44-.33-3.59.38-4.21-1.54.64.04,1.49-.13,2.05,0,.16.04.36.95,1.31.55l-.28-1.4c2.15-.02.14-.99.04-1.29-.37-1.07.46-3.57-.32-4.95-.92-1.63-1.22-5.25-1.75-7.27-.96-3.68-2.88-9.06-6.47-10.9-.67-.34-4.23-1.56-5-1.73-3.4-.72-3.81.63-6.26.96-1.86.25-5.06-.42-6.69.05-1.09.31-3.66,3.18-4.98,3.71-1.65.66-4.41,1-5.94,1.63-.71.29-1.21,1.15-2.06,1.31-1.07.2-2.61-.21-3.58.02-.21.05-.18.5-.38.55-9.43,2.12-19.65.73-29.43,1.11l-2.93.85c.83-.13,2.9,1.74,3.16,2.31.34.73.07,1.36.21,1.98s1.79,3.77,1.89,4.31c.18.97-.1,1.95.19,2.9.36.53,1.05-.04,1.57.1.64.17.71.83.89.93,2.33,1.27,3.48.12,5.63,3.07.35.47,1.77.62-.1,1.08l-.26,3.48c1.13.09,1.71-.82,2.95-.57.71.15.58,1.17,1.79.89-.05,1.81,2.75.58,3.76.8.23.05.21.52.53.65,2.24.89,4.56.56,6.82.75,3.79.32,7.55.77,11.37.56-.28-1.49.37-.92.82-1.28.38-.3.1-.81.71-.69.67,1.78,2.28,1.04,3.58,1.17.54.06,1.07.53,1.76.52.43,0,2.15-.72,2.38-.99.63-.71.43-1.55-.56-1.26-.23-.75.41-.48.68-.85.29-.4.19-.86.73-1.24.15-.11,1.72-.66,1.88-.67.4-.02.58,1.04,2.19.94,1.08-.07.47-.85.87-.99.82-.28,3.85-.4,4.75-.29.63.08,1.05.57,1.39.57s1.3-.73,2.11-.84c.24,1.55-2.56,1.53-3.49,1.38-1.14-.17-2.57-1.32-3.68.02-.2.39,1.03,1.97.3,3.09-.21.33-.99.08-.7.82.46.04,2.48,1.42,2.53,1.6.55,2.05-.23,1.91-1.41,2.6l-.56-.84c.23,1.12-1.94.29-2.25.56-.12.72.99,1.2,1.54,1.14.6-.07.67-.71.98-.86-.38,1.47,2.73,1.9,2.96,2.22.36.5.37,2.36-.58,2.54s-4.58.13-5.62,0c-.69-.08-1.14-.49-1.69-.55-1.03-.13-2.17.05-3.21-.01-.4-1.76.46-1.85,1.12-3.08,1.55.06.46.37.89,1.07.64,1.05,3.15.23,4,.34,1.03.12,2.42,1.79,2.97-.28-3.62.13-5.98-3.06-9.82-1.4-.07.47.53.26.84.28l-1.4.28c-.23-1.73.95-2.95.56-4.76l-3.37.69c-.29.75-.39,1.6-.55,2.39l-.56-.36-.26.79-1.71.54c1.03.76,2.18.42,2.53-.7l1.12,1.12h-.81s-.06,1.38-.06,1.38l-.78.03c.35,1.36-.62,1.41-.81,1.72-.2.34.05.99-.19,1.36-.34.51-2.05.17-2.69.26-.35,1.31.69,1.31,1.11,1.83.3.38,1.6,2.22,1.64,2.56.04.31-.67,1.15-.55,1.73l-.79.04c-.24.7.75.65.85,1.04.14.58-.1,1.5.01,2.15-1.46.9-2.59,1.02-4.15.25-.2-.1-1.31-1.17-1.4-1.19-.75-.16-1.72.11-2.48,0-.52-.07-.37-.52-.59-.58-.52-.12-2.17.13-2.32-.02.2-1.32-.47-1.36-.95-1.97-.43-.54-.16-1.07-1.22-1.31-2.86-.64-3.9.8-6.1,1.07-1.31.15-2.74-.09-4.05-.05l-.07-.75c-1.92.05.28-1.33,1.02-1.74,1.25-.7,3.12-.49,2.68-2.51-.79-.16-3.32.41-3.61-.46-.55-1.68.43-2.68,1.92-3.19l-.17-.57-2.64-1.29c.16-1.09-.5-2.44.67-2.92l1.02-1.65c-1.52-.81-3.63-.89-3.09-3.08-.11-.16-2.63.77-2.97.84-.74.14-1.08-.27-1.23-.28-.08-.7-1.91-.74-2.19-.49-.13.11-.02.46-.05.49-.03.03-.48-.13-.57.19-.15.55.1,1.44,0,2.05.79,1.04.48-2.14.56-2.24.19,0,.37,0,.56,0-.36,1.18.45,2,.58,2.92.22,1.55-.19,3.58-.02,5.19-1.34-.13-2.22.91-3.65.56-.25,1.16,1.63.11,2.12.82.26.38.25,2.11-.15,2.4-.24.17-2.23.68-2.66.71-1.48.11-1.96-.45-3.09-.59-2.87-.33-6.3.3-9.23-.03l-.34-.22c-.66-2.82,1.98-2.65,3.25-4.22h-5.05c-.07,0-.37-1.01-.54-1.23.09-.53,2.11-1.41,2.38-1.86.3-.48-.97-2.62.96-2.8l-1.96-.27c.03-.46-.04-.94,0-1.4.34.09.67.4,1.12.28l.02-1.11.82-.29-1.12-.28h2.24s-.02-.82-.02-.82c-1.16-.61-2.18.02-3.35.26-.3.68.55.49.58.73.05.36-.27.85-.3,1.23-.22-.06-.58.05-.84,0-.23-.91.71-.24.56-.98-.05-.27-.67.12-.59-.84.07-.74,1.01-.43.86-1.26-.16-.13-3.88.33-2.89-.84.03-.03.83-.05.36-.55-.04-.04-1.07.04-.55-.57.09-.1.67.23.56-.28-2.17.05-1.77-1.46-1.96-2.95-.13-1.03-1.93.4-2.11.71-.32.53,0,1.25-.18,1.79-.13.38-.74.35-.81.65-.14.6.24,1.22-.25,1.93-.68.97-2.63.63-3.67.68.28.55.56,1.69,0,2.1-2.57.86-4.79,1.74-7.6,1.13-1.04-1.8.55-2.12,1.42-3.23-4.32.7-1.67-3.92-2.66-5.6-.59-1-3.03-.28-3.9-.59-.45-.16-.42-.84-.75-1.21-.24-.28-1.02-.47-1.09-.89-.3-1.87,3.43-1.02,3.63-1.22l.28-2.24c-.93.13-1.96-.24-2.47-1.04-.12-.19,0-.54-.06-.65,1.22.12,1.29.06,1.09-1.22l-2.21-.74.28-.84h-1.12c.05-.48-.1-1.05,0-1.5.06-.29.84.01.56-.74-2.42-.38-2.42,2.61-1.68,4.2-.22,0-1.26.78-1.68,0,.24-.07.65.2.56-.27-1.24-.95-2.85-.71-2.67,1.11.32-.45,1.36-.16,1.55-.27l-.26,2.4-3.39.12c-.29,1.59.33,1.8,1.4,2.66.14.69-.72.13-.56.83l.56.56-1.68,1.54,2.4.26c.15.7.43,2.81-.34,3.06l-1.5.04c.09.54.85.33,1.07,1.03.17.55.06,1.29.02,1.87-1.48.96-2.29.46-2.47,2.57-.21.15-4.08.26-4.22.11-.08-.08.05-.64-.06-.91-.16-.38-.54-.36-.71-.58-.14-.18-.02-.61-.12-.69-.19-.16-.72.08-1.02-.12-.12-.08-.04-.44-.08-.46-.56-.42-.54.42-.6.46-.59.41-2.95-.53-3.87-.2-.27-.78.48-.47.55-.57.42-.54-.33-.52-.36-.55-.89-1.07,1.95-.71,2.43-.83.31-.07.16-.55.18-.57.67-.39,4.04-1.8,4.16-2.42-.06-1.91-2.26-.28-3.59-.66l-.56,3.08-2.96-1.38c-.97-3.01,2.19-4.01,4.65-3.66l-.28-.84.84-.56-.84-.42c1.84-.82.64-2.63-.83-3.1-1.01-.32-2.75.24-3.38-.96,1.31.46,3.64-.02,4.71.46.79.36.11,2.35,2.59.23.11-.54-.2-.42-.56-.55-.83-.29-1.93-.4-2.81-.43l.28-3.92-1.96.56.56.83-3.09.56c-.06,1.25,1.54-.18,1.12,1.4-.62,0-.87-.24-.84.56-1.25-.14-2.07-1.08-1.65-2.34.25-.74,1.38-.33,2.01-.52.53-.15,1.07-1.16,1.88-1.07-.99-1.61.95-1.31.56-2.79l-2.83-.13c-.44-.27.47-2.26-1.31-2.62-1.28-.26-1.45.48-2.34.92-.41.2-.97.09-1.1.15.28-1.12-.73-.8-1.4-1.4-.15,1.17.21,1.55,1.4,1.4-.03.01.1.36-.22.54-.64.35-1.35.86-2.02.86-.08-.74-.47-.84-1.12-1.12v1.52c.06.37.83.06,1.12.16.07.02,1.15.88.84,1.12l-.79.05c.04,1.22-.45.62-1.24.85-.93.27-1.11.76-2.17-.06v-15.67ZM241.12,3.73c-.41-.98.44-2.22-1.6-2.19-2.68.04-3.11.94-5.05,1.71-1.41.56-3.36.91-4.7,1.68s-1.33,1.48-3.35,2.03c-5.48,1.5-10.84,1.28-16.37,1.86-6.66.7-13.46,2.4-20,3.84-2.85.63-5.91.83-8.64,2.02-3.28,1.43-9.25,7.29-10.59,10.44-.59,1.39-.38,2.48-1.7,3.76-.59.57-3.21,1.87-2.98,2.74.17.62,1.21.46,1.69.31.44-.14,3.16-2.38,3.62-2.83,1.6-1.59,1.44-4.63,2.91-6.48.24-.3,1.12-.65,1.5-1.02,4.63-4.46,5.12-5.51,11.83-7.1,13.04-3.08,26.3-4.37,39.52-6.21,2.52-.35,5.18-.24,7.75-.67,1.14-.19,6.07-1.36,6.67-2.02.98-1.08-.43-1.76-.49-1.89ZM8.13,15.56h-1.11s0,2.51,0,2.51l1.67-.29c.33-1.15-.86-1.06-.56-2.22ZM32.55,28.15l-.84.14c.26.3.43.51.84.42v-.56ZM50.45,33.24c-.76-.3-1.35.6-1.06,1.34h1.69c.26-.28-.49-1.29-.62-1.34ZM53.88,34.58l-1.08.05c-.46,1.11-.97,2.07.13,3.01l1.5-.27c.34-.79-.5-.81-.55-1.01-.12-.54.06-1.21,0-1.77ZM39.01,34.86c-3.38-.53-3.43,2.86-.05,1.07l.05-1.07ZM23.85,37.66c.2-.36-2.03-1.39-2.52-1.12l.02,1.25-.83.17c-.41,1.13.26,1.94,1.31,1.32.13-.08.19-.57.47-.79.16-.13,1.51-.76,1.55-.83ZM46.86,36.82c-.43.47.85,1.91,1.4.97.12-.61-1.16-1.23-1.4-.97ZM56.96,37.38l-3.09.56v.82c.37.55,2.46-.26,2.89-.54.38-.24.16-.5.19-.84ZM47.42,40.18c-.25-1.6-2.46-1.03-3.65-1.12-.16.75.2.48.55.69,1.18.71,1.73.82,3.09.42ZM117.86,45.5c1.86-1.44-1.71-3.86-1.13-.84l.95-.02.18.86ZM113.64,46.06h-2.52s.28,2.24.28,2.24c.23-.04.76.06.84,0,.6-.48-.97-.51-.56-1.11.29-.32,2.19-.25,1.96-1.12ZM73.24,48.86c-1.31-.04-.58-1.37-.97-1.97-1.23-1-1.17.69-1.27,1.69l-1.96-.28c-.1.85.81.69,1.25,1.15.06.06,1,1.44.55,1.37-.47.19-1.75-.11-1.52.84.7-.42,1.5.11,2.06.01.09-.01.42-1,1.31-.57l-1.12-1.68h1.54s.14-.56.14-.56ZM106.63,46.9h-1.41v.84h1.41v-.84ZM153.03,48.22c-.24-.44-.41-.8-.38-1.32l-.63.28-1.33,2.8c.79-.13,2.15-.49,2.67-1.12s-.27-.55-.32-.64ZM60.33,47.18c-.12-.12-2.84.16-2.52,1.12.98-.07,2.75.49,2.52-1.12ZM150.12,51.37s.35-.87,0-.96c-1.18-1.01-2.61-1.02-.94.35.17.14.56.94.94.61ZM62.57,50.54l-1.8.25c-.99,1.9,2.45.3,1.8-.25ZM85.86,51.1c-1.2-.07-2.2.31-1.96,1.68.06.08,1.55-.72,1.75-.85.39-.26.19-.42.21-.83ZM149,52.22c-.85.07-1.84-.11-2.67,0-.41.05-.87.21-.41.56.85-.07,1.84.11,2.67,0,.41-.05.87-.21.41-.56ZM209.28,52.56c-.84-.86-.94.42-1.26.5-.5.13-1.15-.08-1.64-.22-.76.68.06,1.6-1.25,2.04l.58,1.79c1.66.09,2.95-.93,4.76-.54l-.58-1.73c-1.01-.41-.06-1.29-.59-1.84ZM104.95,53.06l-4.49.84.84.84-.82.59c.53,1.78,1.21.25,2.22.24.1-1.14-1.2.06-.84-1.4,1.15.32,1.08-.87,2.25-.56-.86,1.46,1.24-.23.84-.56ZM181.55,55.3c-1.14.37-2.35-.51-3.24-.55-1.34-.06-1.88-.19-3.06-.3-1.04-.09-2.18.08-3.23.01.06.42.93.7,1.28.82.92.32,5.11,1.33,5.82,1.14.29-.08.27-.67.65-.8.54-.19,1.64.27,1.79-.32ZM192.78,55.3c-.97.15-2.45-.8-3.09.28,1.51-.41,1.7.86,3.09.56v-.84ZM191.28,59.57c.22.24.11.82.51,1.04,1.27-.74,2.74-1.33,3.5-2.66l-5.6.42c-.14.5.58.73.97,1,.19.13.52.09.62.2ZM175.1,58.09h-6.73c-.11.6.28.65.69.86.86.44,4.14,1.08,4.93.67.08-.04,1.3-1.38,1.12-1.53ZM93.44,59.49c-.6-.02-1.19-.02-1.79.03-.28.03-1.32.11-1.29.52,1.18-.38,3.47,1.16,3.09-.56ZM103.54,60.61l-4.21-.28c-.03,1.05,1.24.97,1.94,1.28.34.15.46.59,1,.68.82.14.2-.81.45-1.11.15-.18,1.08.33.81-.57ZM212.7,60.61h-1.12s0,1.4,0,1.4c1.06.17,1.22-.48,1.12-1.4Z"/>
  <path class="cls-2" d="M126.27,40.46c-.8.11-1.77.84-2.11.84s-.76-.49-1.39-.57c-.9-.11-3.93,0-4.75.29-.4.14.21.92-.87.99-1.61.1-1.79-.96-2.19-.94-.16,0-1.73.57-1.88.67-.54.38-.45.84-.73,1.24-.27.37-.91.1-.68.85.99-.28,1.19.55.56,1.26-.24.27-1.95.99-2.38.99-.69,0-1.22-.47-1.76-.52-1.29-.13-2.91.6-3.58-1.17-.62-.12-.33.38-.71.69-.46.36-1.1-.21-.82,1.28-3.82.21-7.58-.24-11.37-.56-2.26-.19-4.57.13-6.82-.75-.32-.13-.3-.6-.53-.65-1.01-.22-3.81,1.01-3.76-.8-1.21.28-1.08-.74-1.79-.89-1.24-.25-1.82.66-2.95.57l.26-3.48c1.87-.46.45-.61.1-1.08-2.15-2.96-3.3-1.8-5.63-3.07-.18-.1-.25-.77-.89-.93-.52-.14-1.21.43-1.57-.1-.29-.95-.01-1.94-.19-2.9-.1-.54-1.75-3.71-1.89-4.31s.12-1.25-.21-1.98c-.26-.56-2.34-2.43-3.16-2.31l2.93-.85c9.78-.38,20,1.01,29.43-1.11.21-.05.17-.5.38-.55.97-.23,2.51.18,3.58-.02.84-.15,1.35-1.02,2.06-1.31,1.53-.63,4.29-.97,5.94-1.63,1.33-.53,3.89-3.39,4.98-3.71,1.63-.47,4.83.2,6.69-.05,2.45-.33,2.86-1.67,6.26-.96.78.16,4.33,1.38,5,1.73,3.59,1.84,5.51,7.22,6.47,10.9.53,2.02.82,5.64,1.75,7.27.78,1.38-.05,3.88.32,4.95.1.3,2.11,1.27-.04,1.29l.28,1.4c-.95.39-1.16-.51-1.31-.55-.56-.13-1.41.03-2.05,0-.74-.04-1.5,0-2.24,0-.29,0-.69-.3-.95-.28-.08,0-.61.82-1.29.84-1.26-.06-3.31-.16-4.49,0ZM137.22,34.58l-1.11.15-3.1,2.36c1.43-.13,2.85-.29,4.16-.88l.05-1.64Z"/>
  <path class="cls-1" d="M255.63,82.44c-.59,1.24-1.78-.81-2.53-.56l1.12-1.4c-.64.37-2.39-.97-1.75-1.4l.6-.02.05-1.23-.83-.17c-.5-1.02.67-1.02.54-1.52l-.56-.42c2.07-.75,4.38-1.17,6.61-.86,4.68.65,9.35.59,14.02,1.13,3.02.35,6.26.84,9.27,1.11,1.53.14,4.8-.32,5.96.2.91.4.84,2.76.94,2.87.08.09.56-.06.72.08s.09.58.24.76c.26.3.65.27.68.31.54.6-.6.51-.74.63-.2.17-1.46,1.39-1.48,1.49-.05.28,1.08,1.44.42,2.37-.93.04-2.18.7-2.84.81-1.62.25-3.12-.46-4.32,1.3-.17.78,2.06,1.57,2.67,1.77l.12,1.98h-3.37s1.96-.56,1.96-.56l-3.08.14c-.8.64.48,1.25,1.11,1.25l-.56-.69.56-.14,4.21,2.1-1.3,1.21-1.79.04c-.18.65.15.47.36.64,1.09.94,2.66,1.27,1.62,3.15-.28.2-5.38.22-6.03.1-.71-.13-1.76-1.1-2.26-1.1-.37,0-.71.49-1.13.54-1.15.15-2.45-.09-3.62.03l-.2-.81c-.11-.12-1.33.05-.79-.6.24-.28,2.98-1.69,3.08-2.11.11-.54-.56-.52-.75-.79-.17-.25-.15-.65-.36-.9-.72-.86-1.93-1.03-.86-2.93.05.26.48.48,0,1.12.19.17,2.81-.56,2.81-.7,0-1-1.56.06-1.97-.14l1.4-1.11-2.24.28c-.07-.53-.65-1.11,0-1.96-1.23.28-1.44-.39-2.25-1l.85-1.8h-2.53c-.09.53.19,1.47-.07,1.89-.06.11-.44.16-.59.37-.21.28-.21.76-.46.96-.27.22-.7.06-.84.13-.32-1.3-1.13-1.26-1.94-.54.22,1.16.77,1.08,1.66.82.14,2.23-2.84,2.3-4.29,2.58-2.06.4-2.82.91-5.06-.13-.16-.63-1.44-.72-1.32-1.19.06-.22,3.16-1.94,3.37-2.66h-3.93l-.56-1.68c2.09.15,3.22-.24,2.81-2.52.3.19,4.63-.37,4.76-.58.48-.79-.38-.99-1.11-.82l.84-1.12c-2.17-.5-3,1.76-5.04,1.42-.09.17.03.44-.01.54ZM287.62,84.12c.1-2.92-1.05-1.13-1.82-1.12-.62,0-1.92-1.71-2.94-.42,1.53.63,3.03,1.66,4.77,1.54ZM261.81,86.36h-3.93l1.25,1.15,2.67-1.15ZM274.15,91.96c-.29-.31-2.16-.51-1.96.41.18.84,2.56.24,1.96-.41ZM281.69,93.96c-.59-.25-1.37-.45-2.01-.31-.2.05-.22.46-.41.53-.46.18-1.39.09-1.47.58,1.08.43,2.01.74,3.21.54.36.06-.25,1.26.99.86l-.32-2.2Z"/>
  <path class="cls-1" d="M607.05,61.54c-1.16,2.21-.42,4.47-.73,6.84-.84.32-.5,1.08-1.44,1.5-1.11.49-2.89-.02-3.54.39-.42.26-.71,1.59-2.24,2.25-1.39.6-3.54.02-5.44.45-1.27.29-2.45,1.21-3.93,1.08-1.91-.18-2.48-1.5-3.42-2.77-.15-.2-.66-.23-.7-.48-.06-.36.46-1.97.73-2.32.21-.27,4.95-4.12,5.26-4.27,2.8-1.29,4.48,1.27,5.96-.21,1.02-1.01-.5-2.69,1.7-4.18,1.34-.9,2.02-1.24,3.4-2.28,2.79-2.12,6.87-.26,5.06,3.45-.19.39-.63.45-.68.56Z"/>
  <path class="cls-1" d="M396.7,88.68c1.03.63.65,2.81.16,3.77-.16.32-.59.34-.64.55-.26,1.19.17,3.12,0,4.43-.3,2.45-4.19,2.9-5.6,4.49-.5.56-.4,1.05-.68,1.43-1.25,1.69-4.31,2.16-5.88.65-.1-.09-1.39-2.14-1.42-2.27-.37-1.41.11-3.22-.23-4.27-.45-1.39-5.55-2.54-2.05-5.22,2.25-1.72,3.23-.91,5.18-1.55.91-.3,1.21-1.27,1.72-1.64,1.66-1.19,5.34-3.07,7.25-1.68.3.22.41.72.75.93.48.3,1.1.18,1.44.38Z"/>
  <path class="cls-1" d="M246.09,73.21s.5-.01.26.68c-.11.33-1.41.59-.82,2.12-.14.15-3.33-.1-4.05.02-.81.14-1.88.99-2.81,1.11-.85.11-4.29.14-5.07,0-.7-.13-.52-.98-1.32-.86l-.21-.54c1.69-.52,2.76-2.68,4.61-2.52l.16-.7c-.1-.22-2.05-.99-2.38-1-1.11-.03-1.41.9-2.03,1.08-1.24.36-2.99.2-2.85-1.43,1.37-1.69,3.93-2.18,4.69-4.31-.03-1.48-2.83-.7-3.04-.92.09-.53-.18-1.48.07-1.9.06-.11.44-.16.59-.38,1.21-1.8,1.07-2.59,3.7-2.21,1.27.18,1.7,1.24,2.64,1.57,3.06,1.07,2.79.87,5.58,2.55,1.01.61,2.38.91,3.35,1.83.16.28.11,3.14.06,3.73-.07.86.14.72-.84.69.01-.28,0-.56,0-.84l-2.22.3-.31,1.51.42-.43c.37-.06.84.08.98.43.43,1.08-1.56.45-1.12,1.82,1.35.34,1.18-.7,1.96-1.4ZM234.03,65.09c-.14-2.59-.82-.86-1.96-.28l1.96.28ZM237.67,65.09c-.58-.07-1.13.03-1.7.12-.4.07-1.56.25-1.67.71,1.64.31-.09,1.81,1.98,1.28,1.2-.3,1.31-.95,1.38-2.12ZM246.51,70.41v.28c.18-.09.18-.19,0-.28Z"/>
  <path class="cls-1" d="M370.87,88.14c.18.17,2.24,2.75,2.32,2.92,1.42,3.05-.81,3.18-2.57,4.54-1.92,1.48-2.15,2.46-5.16,2.79-1.63.18-7.95-1.86-8.67-3.34-.29-.59-.27-1.86.12-2.4.31-.43,3.98-2.58,4.85-3.2.33-.23.47-.74.95-1.08,2.44-1.76,5.79-2.47,8.15-.22Z"/>
  <path class="cls-1" d="M314.17,86.26c-.13.33-.8,1.76-1.01,2.14-1.5,2.67-7.65,1.86-9.66-.09-.06-.06-1.04-1.37-1.08-1.45-.47-1.02-.73-2.87-.04-3.83.38-.52,1.57-.93,1.92-1.44.56-.8.31-2.17,1.99-2.49,2.75-.53,2.72.67,4.42,1.45,1.2.55,2.68.39,3.71,1.62.3,1.35.26,2.81-.25,4.09Z"/>
  <path class="cls-2" d="M182.96,54.74l-2.09.02-.19-.8c-1.52-.66-3.64-.91-5.08-1.53-.17-.07-1.71-.93-1.34-1.32.62-.65,2.02.49,2.8.27.37-1.16-.57-.84-.56-1.68.93.23,2.53.39,3.39.68.78.27.68,1.23,1.66,1l-1.68.83c1.01.22,1.8.42,2.8,0,.31-.43-2.06-2.85-2.8-2.8l.84-.56c.12-1.47-1.79-.36-1.96-.56l-.56-3.48.57-.32,3.93.32c.58-.38-.12-1.12.11-1.56.17-.33.69-.38.93-.65.13-.15.01-.62.11-.7.09-.08,1.77-.21,2.21-.61.47,1.14.71,2.1.57,3.36,1.18.35.97-.74,1.96-.56.15,1.46.42,2.27-.28,3.64l1.12.28-1.12.84h3.65c.36,2.92-3.08,3.1-5.2,3.36-.75.09-1.88-.17-2.49.04-.56.2-.46,1.03-.74,1.36-.13.16-.66-.5-.56,1.12Z"/>
  <path class="cls-1" d="M654.02,61.53c.44.53.56,2.74.23,3.29-2.31,1.48-11.69,4.18-13.08,1-.78-1.79.26-2.4.33-3.67s-.99-2.46-.14-3.76c1.7-2.6,6.83-.31,8.97.81.45.23,3.56,2.16,3.7,2.33Z"/>
  <path class="cls-1" d="M573.77,76.35c1.28,1.38.29,4.32-1.22,5.22-.86.51-2.07.4-2.92.72-.63.24-.98.85-1.47,1.05-.84.34-2.35.34-3.19-.04-1.13-.51-1.79-1.7-1.51-2.92.05-.23.47-.22.55-.39.76-1.49,2.39-3.04,3.96-3.84,1.46-.75,4.59-1.12,5.8.18Z"/>
  <path class="cls-2" d="M10.38,28.43c-.02-.8.22-.56.84-.56.42-1.58-1.19-.14-1.12-1.4l3.09-.56-.56-.83,1.96-.56-.28,3.92c.88.03,1.98.14,2.81.43.36.13.67,0,.56.55-2.48,2.12-1.8.12-2.59-.23-1.08-.49-3.4,0-4.71-.46-.03-.05,0-.18,0-.28Z"/>
  <path class="cls-2" d="M141.15,46.9c-.49-.39-1.48-.39-2.13-.3-.54.08-.38.58-.56.59-.59.02-1.81-.58-2.64-.29.72-1.39,3.32-.56,2.53-2.79h1.96s-.56,1.68-.56,1.68c.94-.22,1.97.49,2.79.14.5-.22,1.61-1.87,2.26-1.26.54.51-1.72,2.27-2.18,2.45-.42.16-.94-.01-1.18.07-.09-.1-.18-.2-.28-.28Z"/>
  <path class="cls-2" d="M111.4,51.1c-.31-.02-.91.2-.84-.28,3.84-1.66,6.2,1.53,9.82,1.4-.55,2.08-1.94.41-2.97.28-.85-.1-3.35.71-4-.34-.43-.7.67-1-.89-1.07-.37-.02-.75.02-1.12,0Z"/>
  <path class="cls-2" d="M28.06,27.03c-.74-1.59-.74-4.57,1.68-4.2.27.75-.5.44-.56.74-.09.45.05,1.02,0,1.5h1.12s-.28.84-.28.84l2.21.74c.2,1.28.14,1.34-1.09,1.22-.05-.1-.22-.17-.28-.28-.45-.76-.49-1.36-1.68-1.12v.56c-.31-.05-.78-.01-1.12,0ZM29.74,25.63c-.39-.2-.75.18-.56.27.39.2.75-.18.56-.27Z"/>
  <path class="cls-2" d="M255.63,82.44c.05-.1-.08-.37.01-.54,2.03.34,2.87-1.92,5.04-1.42l-.84,1.12c.73-.16,1.59.04,1.11.82-.13.2-4.46.77-4.76.58-.04-.03.12-.78-.56-.56Z"/>
  <path class="cls-2" d="M204.84,60.33c-1.27.7-1.91-.55-1.69-1.68.17-.18,1.4.44,1.12-.56l-1.4-.56,3.06.02c.07.08.05.62.02.81-.04.3-.32.58-.28,1.12-.32.08-.4.33-.56.56-.01.02-.16.13-.28.28Z"/>
  <path class="cls-2" d="M246.09,73.21c-.78.7-.61,1.74-1.96,1.4-.44-1.37,1.55-.73,1.12-1.82-.14-.36-.61-.49-.98-.43l-.42.43.31-1.51,2.22-.3c0,.28.02.56,0,.84-.03.51-.27,1.02-.28,1.4Z"/>
  <path class="cls-2" d="M271.35,89.72l2.24-.28-1.4,1.11c.41.2,1.97-.86,1.97.14,0,.14-2.62.87-2.81.7.48-.64.05-.86,0-1.12-.03-.17.02-.38,0-.56Z"/>
  <path class="cls-2" d="M119.82,49.98c-.07.04-.2-.04-.28,0-.31.15-.38.79-.98.86-.56.06-1.66-.42-1.54-1.14.31-.27,2.48.56,2.25-.56l.56.84Z"/>
  <path class="cls-2" d="M25.82,27.59c-.19.11-1.22-.17-1.55.27-.18-1.82,1.43-2.06,2.67-1.11.09.47-.32.2-.56.27-.92.28-.46.5-.56.56Z"/>
  <path class="cls-2" d="M106.63,49.98c-.35,1.12-1.5,1.45-2.53.7l1.71-.54.26-.79.56.36c-.02.09.02.2,0,.28Z"/>
  <path class="cls-2" d="M265.46,88.32c-.1.05-.19.25-.28.28-.89.26-1.44.34-1.66-.82.81-.71,1.62-.76,1.94.54Z"/>
  <path class="cls-1" d="M133.01,39.9c-.12,1.57-1.68.59-2.24.56.68-.02,1.21-.83,1.29-.84.26-.02.66.28.95.28Z"/>
  <path class="cls-2" d="M3.37,21.43c.02.18-.01.38,0,.56-.29-.1-1.06.2-1.13-.16v-1.52c.66.28,1.05.38,1.13,1.12Z"/>
  <path class="cls-2" d="M199.51,63.69v-.84c.97-.44,1.58.58,1.12,1.12h-.84s-.28-.1-.28-.28Z"/>
  <path class="cls-1" d="M29.18,27.03v-.56c1.19-.24,1.23.36,1.68,1.12-.56.06-1.32-.5-1.68-.56Z"/>
  <path class="cls-2" d="M74.92,43.82c-.55-.02-1.13-.03-1.68,0-.19,0-.38,0-.56,0-.08.1.23,3.28-.56,2.24.09-.62-.15-1.5,0-2.05.08-.31.53-.15.57-.19.04-.04-.08-.38.05-.49.29-.25,2.11-.21,2.19.49Z"/>
  <path class="cls-1" d="M205.69,59.49s.39.26.28.56h-.84c.16-.23.25-.47.56-.56Z"/>
  <path class="cls-2" d="M241.12,3.73c.05.13,1.47.81.49,1.89-.6.66-5.53,1.83-6.67,2.02-2.57.43-5.23.32-7.75.67-13.21,1.84-26.48,3.13-39.52,6.21-6.71,1.59-7.19,2.64-11.83,7.1-.38.37-1.26.72-1.5,1.02-1.46,1.85-1.31,4.89-2.91,6.48-.46.45-3.18,2.69-3.62,2.83-.48.15-1.53.31-1.69-.31-.23-.87,2.4-2.17,2.98-2.74,1.32-1.28,1.11-2.36,1.7-3.76,1.34-3.15,7.31-9,10.59-10.44,2.72-1.19,5.79-1.39,8.64-2.02,6.54-1.44,13.34-3.14,20-3.84,5.53-.58,10.89-.36,16.37-1.86,2.03-.56,2.06-1.29,3.35-2.03s3.3-1.12,4.7-1.68c1.94-.77,2.37-1.67,5.05-1.71,2.05-.03,1.19,1.2,1.6,2.19Z"/>
  <path class="cls-2" d="M209.28,52.56c.54.56-.41,1.44.59,1.84l.58,1.73c-1.81-.39-3.09.64-4.76.54l-.58-1.79c1.31-.44.49-1.36,1.25-2.04.49.14,1.14.35,1.64.22.32-.08.43-1.36,1.26-.5Z"/>
  <path class="cls-2" d="M73.24,48.86l-.14.56h-1.54s1.12,1.68,1.12,1.68c-.89-.42-1.22.56-1.31.57-.56.09-1.36-.43-2.06-.01-.23-.95,1.04-.65,1.52-.84.44.07-.49-1.3-.55-1.37-.44-.45-1.34-.29-1.25-1.15l1.96.28c.11-.99.04-2.69,1.27-1.69.39.6-.33,1.93.97,1.97Z"/>
  <path class="cls-2" d="M181.55,55.3c-.15.59-1.25.13-1.79.32-.38.13-.36.73-.65.8-.71.19-4.9-.83-5.82-1.14-.35-.12-1.22-.4-1.28-.82,1.05.07,2.2-.11,3.23-.01,1.18.11,1.72.24,3.06.3.9.04,2.1.92,3.24.55Z"/>
  <path class="cls-2" d="M175.1,58.09c.18.15-1.04,1.48-1.12,1.53-.79.41-4.06-.23-4.93-.67-.4-.21-.8-.25-.69-.86h6.73Z"/>
  <path class="cls-2" d="M13.19,39.62l.56-3.08c1.33.38,3.53-1.25,3.59.66-.11.61-3.49,2.03-4.16,2.42Z"/>
  <path class="cls-2" d="M191.28,59.57c-.09-.1-.43-.07-.62-.2-.4-.27-1.11-.5-.97-1l5.6-.42c-.77,1.32-2.24,1.92-3.5,2.66-.4-.22-.29-.79-.51-1.04Z"/>
  <path class="cls-2" d="M104.95,53.06c.41.33-1.7,2.02-.84.56-1.17-.32-1.1.88-2.25.56-.36,1.45.94.26.84,1.4-1.02,0-1.7,1.54-2.22-.24l.82-.59-.84-.84,4.49-.84Z"/>
  <path class="cls-2" d="M23.85,37.66c-.04.08-1.39.71-1.55.83-.28.22-.34.72-.47.79-1.05.62-1.72-.2-1.31-1.32l.83-.17-.02-1.25c.5-.28,2.73.76,2.52,1.12Z"/>
  <path class="cls-2" d="M53.88,34.58c.07.57-.11,1.23,0,1.77.05.21.89.23.55,1.01l-1.5.27c-1.1-.93-.59-1.9-.13-3.01l1.08-.05Z"/>
  <path class="cls-2" d="M55.84,43.82c.03-.38.35-.87.3-1.23-.03-.23-.88-.04-.58-.73,1.16-.23,2.18-.86,3.35-.26l.02.81h-2.24s1.12.28,1.12.28l-.82.29-.02,1.11c-.45.12-.78-.19-1.12-.28Z"/>
  <path class="cls-2" d="M103.54,60.61c.27.9-.66.39-.81.57-.25.3.37,1.25-.45,1.11-.54-.09-.67-.54-1-.68-.7-.31-1.97-.23-1.94-1.28l4.21.28Z"/>
  <path class="cls-2" d="M153.03,48.22c.05.1.85,0,.32.64s-1.87.99-2.67,1.12l1.33-2.8.63-.28c-.03.51.14.88.38,1.32Z"/>
  <path class="cls-2" d="M47.42,40.18c-1.36.4-1.92.29-3.09-.42-.35-.21-.71.06-.55-.69,1.19.09,3.4-.48,3.65,1.12Z"/>
  <path class="cls-2" d="M39.01,34.86l-.05,1.07c-3.37,1.79-3.33-1.61.05-1.07Z"/>
  <path class="cls-2" d="M8.13,15.56c-.3,1.16.89,1.07.56,2.22l-1.67.29v-2.52s1.11,0,1.11,0Z"/>
  <path class="cls-2" d="M56.96,37.38c-.03.34.18.6-.19.84-.44.29-2.53,1.09-2.88.54v-.82s3.07-.56,3.07-.56Z"/>
  <path class="cls-2" d="M113.64,46.06c.23.87-1.67.81-1.96,1.12-.41.6,1.16.63.56,1.11-.08.06-.61-.04-.84,0l-.28-2.24h2.52Z"/>
  <path class="cls-2" d="M117.86,45.5l-.18-.86-.95.02c-.58-3.02,2.99-.61,1.13.84Z"/>
  <path class="cls-2" d="M60.33,47.18c.22,1.61-1.54,1.05-2.52,1.12-.31-.95,2.4-1.23,2.52-1.12Z"/>
  <path class="cls-2" d="M222.24,58.65c-1.18.14-1.55-.21-1.4-1.4l1.96.28c-.23.42-.48.58-.56,1.12Z"/>
  <path class="cls-2" d="M85.86,51.1c-.02.41.18.57-.21.83-.19.13-1.69.93-1.75.85-.24-1.37.76-1.75,1.96-1.68Z"/>
  <path class="cls-2" d="M192.78,55.3v.84c-1.38.3-1.58-.97-3.09-.56.64-1.08,2.12-.12,3.09-.28Z"/>
  <path class="cls-2" d="M50.45,33.24c.13.05.88,1.06.62,1.34h-1.69c-.29-.74.31-1.64,1.06-1.34Z"/>
  <path class="cls-2" d="M93.44,59.49c.38,1.71-1.9.18-3.09.56-.03-.41,1.01-.5,1.29-.52.6-.06,1.2-.05,1.79-.03Z"/>
  <path class="cls-2" d="M149,52.22c.46.35,0,.51-.41.56-.83.11-1.82-.07-2.67,0-.46-.35,0-.51.41-.56.83-.11,1.82.07,2.67,0Z"/>
  <path class="cls-2" d="M62.57,50.54c.65.56-2.79,2.15-1.8.25l1.8-.25Z"/>
  <path class="cls-2" d="M150.12,51.37c-.38.34-.76-.46-.94-.61-1.67-1.37-.24-1.36.94-.35.34.09.03.93,0,.96Z"/>
  <path class="cls-2" d="M212.7,60.61c.1.92-.06,1.56-1.12,1.4v-1.4s1.12,0,1.12,0Z"/>
  <path class="cls-2" d="M5.61,20.03c-1.19.15-1.55-.23-1.4-1.4.67.59,1.68.28,1.4,1.4Z"/>
  <path class="cls-2" d="M46.86,36.82c.24-.26,1.52.36,1.4.97-.55.94-1.83-.51-1.4-.97Z"/>
  <rect class="cls-2" x="105.23" y="46.9" width="1.41" height=".84"/>
  <path class="cls-2" d="M32.55,28.15v.56c-.41.09-.58-.12-.84-.42l.84-.14Z"/>
  <path class="cls-1" d="M137.22,34.58l-.05,1.64c-1.32.59-2.73.75-4.16.88l3.1-2.36,1.11-.15Z"/>
  <path class="cls-2" d="M281.69,93.96l.32,2.2c-1.24.41-.63-.8-.99-.86-1.21.19-2.13-.11-3.21-.54.08-.49,1.01-.4,1.47-.58.19-.08.21-.49.41-.53.63-.14,1.42.07,2.01.31Z"/>
  <path class="cls-2" d="M287.62,84.12c-1.74.12-3.24-.91-4.77-1.54,1.02-1.3,2.32.43,2.94.42.77,0,1.93-1.8,1.82,1.12Z"/>
  <polygon class="cls-2" points="261.81 86.36 259.13 87.51 257.88 86.36 261.81 86.36"/>
  <path class="cls-2" d="M281.17,91.68l-.56.14.56.69c-.63,0-1.92-.61-1.11-1.25l3.08-.14-1.96.56Z"/>
  <path class="cls-2" d="M274.15,91.96c.6.65-1.78,1.25-1.96.41-.2-.92,1.68-.72,1.96-.41Z"/>
  <path class="cls-2" d="M237.67,65.09c-.07,1.17-.19,1.81-1.38,2.12-2.07.53-.35-.97-1.98-1.28.11-.46,1.27-.64,1.67-.71.57-.09,1.12-.19,1.7-.12Z"/>
  <path class="cls-2" d="M234.03,65.09l-1.96-.28c1.14-.58,1.83-2.31,1.96.28Z"/>
  <path class="cls-2" d="M246.51,70.41c.18.09.18.19,0,.28v-.28Z"/>
  <path class="cls-1" d="M29.74,25.63c.19.1-.16.48-.56.27-.19-.1.16-.48.56-.27Z"/>
</svg>