<?xml version="1.0" encoding="UTF-8"?>
<svg id="Layer_1" data-name="Layer 1" xmlns="http://www.w3.org/2000/svg" viewBox="0 0 1503 498">
  <defs>
    <style>
      .cls-1 {
        fill: #3c4a85;
      }

      .cls-2 {
        fill: #fefefe;
      }
    </style>
  </defs>
  <path class="cls-1" d="M801,0l.59.52.91-.52h13.5c-.1,2.54,2.57,2.01,3.79,3.34,1.72,1.87,4.49,8.42,6.24,11.01,4.22,6.22,12.39,16.38,20.34,17.16,12.26,1.2,21.72-10.81,35-6.5,17.14,5.56,35.24,28.18,47.09,41.41,1.45,1.62,4.22,2.7,5.31,4.44,1.16,1.85,1.44,4.89,2.67,7.08,1.46,2.59,5,5.25,6.63,7.62,5.5,7.94,2.73,16.12,9.04,23.96,4.3,5.35,18.21,12.25,24.95,13.3,6.16.95,19.46-1.2,23.99.76,2.34,1.01,6.07,8.99,8.42,11.83,7.37,8.89,19.78,14.7,31.22,16.03,5.27.61,11.69-.35,16.97,1.03,8.96,2.33,14.88,17.58,23.63,19.13,5.19.92,12-2.85,17.66-1.17,4.2,1.25,10.96,15.79,19.1,17.64,8.59,1.95,26.08-5.87,33.17-11.04.08-.06-.2-1.34.37-1.53l1.88.04c.03,1.31-2.04,1.26-2.25,1.49-.17.2-.15,1.3-.73,1.87-7.59,7.52-25.15,12.58-35.47,9.95-6.19-1.58-12.82-15.87-17.77-17.48-3.75-1.22-4.32.81-7.13,1.2-2.15.3-10.66.27-12.61-.22-1.05-.27-2.64-1.7-3.56-2.44-6.68-5.34-10.01-13.95-18.8-16.45-5.16-1.47-12.24.36-17.53-.47-2.72-.43-13.05-3.92-15.83-5.17-10.51-4.75-15.8-13.87-22.09-22.91-3.64-1.77-19.57.56-25.08-.42-2.39-.42-15.77-6.34-18.35-7.9-1.62-.98-7.51-7.17-8.37-8.88-3.53-7.01-1.13-12.95-6.81-20.94-1.83-2.57-5.41-4.84-6.68-7.57-3.71-7.94-3.26-6.1-8.6-12.4-10.12-11.91-24.68-29.05-38.43-36.57-4.49-2.46-9.28-5.53-14.58-4.5s-13.25,6.34-19,7.24c-1.7.27-10.46.4-11.8.05-.69-.18-.76-1.4-1.35-1.78-4.31-2.79-8.16-4.64-11.59-8.69-5.47-6.46-9.3-19.78-18.68-21.06-6.37-.87-13.49,2.47-16.93,7.88-.33.52-3.43,7.29-3.53,7.72-3.04,13.11-4.46,22.16-13.29,33.21-4.86,6.08-14.92,14.76-21.3,19.2-2.33,1.62-6.31,2.94-8.73,4.77-10.55,7.96-13.08,27.57-21.8,38.2-2.6,3.17-13.21,11.4-16.86,13.14-9.93,4.73-25.07,5.77-34.4,11.35-3.51,2.1-6.38,7.59-9.82,9.31.28-1.11-.28-1.79.71-3.4,7.31-11.94,35.16-14.3,47.98-22.54,17.74-11.4,16.68-23.98,26.02-39.98,4.8-8.22,15.21-11.42,22.4-17.35s18.64-18.18,22.16-26.59,4.42-22.07,9.42-28.83c2.1-2.85,5.65-4.44,7.06-7.56h1.5Z"/>
  <path class="cls-1" d="M1059,498l-3-1.15c-.07-4.15,1.17-4.9,3.75-7.84-1.68-.08-6.08.77-6.02-1.88,2.89-.73.45-1.84.87-3.61.21-.89,1.7-1.5,2.01-2.54,1.42-4.72-1.24-11.51,7.65-9.98v-2.25c-2.09,1.01-11.42,1.37-12.44.02l-.29-5.23,6.65-3.51c.3-1.93-3.36-4.76-3.5-5.22-.41-1.36.05-5.25,1.32-6.3l-4.02-.11c-3.4-3.42-.07-7.63,2.52-10.39l-4.93-.71.44-3.79-3.43-.7c.45-3.88-3.8-10.77-7.83-7.16,3.69,6.87.93,5-2.97,6.76-.88.4-2.33,2.28-3.65,3.1-1.7,1.05-3.74.9-5.06,2.49-.9,1.2,1.19,2.06,1.05,3.23-.56,4.52-4.87,4.68-7.3,6.22-1.58.99-3.23,3.39-5.12,3.87-1.3.34-5.27.53-6.24-.14-2.28-1.59.47-4.52.77-6.09.34-1.81-1.27-8.28-3.33-7.82-4.09.93-1.71,8.79-3.36,11.65-2.43,4.24-12.82,9.53-17.65,8.56-2.39-.47-10.21-8.49-8.64-11.98-.47-.5-8.82,1.7-10.35-3.53-.21-.73-.39-14.21-4.45-7.89-1.49,2.32-3.2,2.65-3.26,2.87-.3,1.06.32,3.08.09,4.47-.21,1.29-.98,2.18-1.11,2.99-.62,3.8.8,8.8-6.01,8.64-8.69-.21-5.03-6.77-4.92-12.04-3.05-.7-4.34,3.69-6.52,4.34-2.99.89-6.27-.52-9.23-.6-1.09-6.59,6.15-7,6-12.74-3.26-.86-1.8,1.71-2.95,2.66-1.35,1.13-2.46-.62-3.66-.95-2.01-.56-3.3-1.49-3.5-1.53-5.68-1.19-10.07,1.15-14.24,1.21-1.87.03-4.14-1.58-5.99-1.37-2.82.32-7.27,2.82-9.79,3.72-9.33,3.35-5.71-3.25-9.38-4.85-1.92-.84-3.79-.05-5.58-.42-2.11-.44-4.15-2.47-7.16-1.46,1.52,1.31,2.7,4.41,2.09,6.3-.4,1.25-4.72,1.92-5.04,3.93-.23,1.48,3.89,2.84,1.08,5.53-4.43,2.66-7.46-2.45-12.37-.36-5.09,2.16-.33,5.86-.13,6.83.17.85-1.36,3.27-1.76,3.27h-12.75c-2.89,0,.45-6.22.28-6.94-.21-.84-1.44-1.72-1.78-2.81-.9-2.88-.95-6.01-2.55-8.68-.41-.68.37-1.47-1.57-1.07l-1.84,9.8-4.17.71c-.77.63,2.52,3.93,2.81,5.05,1.75,6.65-3.15,6.61-4.13,10.5-.64,2.53.35,5.23-.51,7.74l-7.17.71c-.46,3.84,3.1,6.04,5.13,8.73.74,3.88-6.09,3.66-8.54,3.31-1.67-.24-2.59-1.33-3.75-1.5-2.96-.42-10.44.72-12.35-.4-2.06-1.22-1.25-5.91-1.66-8.08-.15-.77-1.36-1.31-1.35-2.42,0-.48,1.48-.26,1.53-.82.13-1.25-1.29-2.82.75-4.8-4.56-.39-7.03-5.2-9.75-8.26.88,3.93-2.69,6.04-4.08,9.05-2.78,6.03-.8,11.52-1.95,17.56-.8,4.2-5.19,3.79-7.92,4.82-1.29.49-2.12,1.88-3.09,2.16-2.23.65-4.99-.34-7.19.31-1.59.47-2.55,3.05-4.07,3.48-1.84.51-3.29-.59-5-.56-2.96.05-5.43,1.91-8.54-.98-3.65-9.64,10.58-10.43,8-18.51-9.28,1.61-7.36-5.58-5.97-11.76l3.81-1.44c-.87-.07-4.22-2.45-4.36-2.81-.4-1.02.28-9.72-.16-10.32-3.04,3.01-9.56-1.52-10.37,4.26-.12.87,1.17,1.77,1.35,2.89,1.21,7.49-3.07,6.36-3.64,8.34.56,4.09,2.1,14.78-1.23,17.48-2.68,2.17-6.54.71-9.52.98-.7.06-1.89,1.17-3.91,1.36-6.15.56-5.41-2.48-8.32-3.04-2.13-.41-7.99.78-9.03-.72-.39-1.61-.82-5.6.02-6.83.42-.61,2.41-.93,3.44-1.81,1.84-1.57,3.7-3.76,5.21-5.66-3.98-.25-7.51,3.28-11.67.79-1.22-3.56-.09-5.79,2.66-7.94v-1.09c-4.3-2.07-7.11-2.67-5.99-8.27h-13.12c-.37,0-1.9,1.79-1.88,2.62.02.96,1.31,1.9,1.51,3.06.67,3.8-1.85,2.99-4.46,3.74-.55.16-1.02,1.08-1.17,1.08h-10.88c.79,2,4.85,2.85,5.63,4.49.59,1.24.13,2.82.59,3.91,1.04,2.52,4.91,6.67,2.42,8.85-3.5,2.77-6.76-1.67-9.81-2.21-11.3-2-14.3,4.4-23.25,5.91-2.93.5-6.11.1-6.96-3.17.68-2.78,5.03-5.67,4.28-8.26-3.5-2.72-8.66-5.2-8.98-10.66-.14-2.44,1.35-2.86,1.57-4.86-2.18.12-4.35.47-4.51-2.25-2.33.52-2.62,3.85-3.77,4.84-.72.62-2.12.49-3.01,1.49-2.15,2.42-1.93,5.23-2.63,7.1-2.09,5.62-4.18,4.48-8.75,5.52-.75.17-1.46,1.06-2.49,1.26-2.59.49-5.25-.08-7.12-1.97.64-3-.31-4.73,2.28-6.98-1.93.61-8.26-.9-8.92-2.73-1.31-3.65,3.31-5.14,2.92-6.64-1.42-1.29-3.19-1.73-3.54-3.87-.23-1.4,1.7-2.15-.98-2.89l3.76-4.5c-4.32-.16-4.58-2.86-3-6.36-2.83,1.19-5.58-1.37-7.18-1.54s-3.97,2.48-6.32,1.54c4.91,10.18-5.32,6.45-6.64,7.62-1.73,1.53-2.05,11.29-1.59,13.73.31,1.66,3.21,3.48,0,3.42,3.67,3.03-1.56,6.07-1.53,7.84.02,1.29,2.35,2.64,1.44,5.17-4.09,3.47-10.62,1.35-14.58,4.96-2.32,3.67,10.18,6.92,4.42,11.15l-5.52.11c-.26.19,2.75,5.07.37,5.99h-15.75c-.79,0-4.37-3.82-4.69-5.06-.75-2.95-.37-8.52.57-11.43-5.28.49-4.75-3.87-3-7.5l-4.91-.04c.37,4.69-5.21,14.47-9.38,16.13-1.63.65-7.79,2.12-9.36,1.95-3.03-.33-4.64-2.55-7.04-3.86l6.68-8.18c-3.76-.37-7.34,1.58-8.96-2.68-.7-1.83,4.43-1.04,5.63-3.33l-.44-5.97c-4.65.73-6.67-2.85-2.97-6.03-2.28.45-2.64-1.09-3.63-2.78l2.12-2.85c-5.85-2.73-3.05-7.62-1.49-12.37-1.97.11-4.16,0-5.66-1.47-2.77-2.72.07-6.51-5.88-5.98-8.78.79-.93,10.84-4.17,13.12-1.19.84-6.3.09-8.5.5-1.86.34-3.16,1.75-4.71,2.04-1.13.21-10.22.89-10.68.62-.23-.13-1.64-2.68-1.58-3.1.12-.76,6.32-7.11,8.09-6.55.63-3.09-1.74-5.45-4.8-5.26s-7.72,6.94-9.25-.19c.34-1.78,11.64-10.84,13.41-13.57.59-.9.92-1.53.71-2.66-4.86,4.38-15.39-.2-13.35-6.96.66-2.19,4.84-3.38,4.35-4.65-5.39-2.62-2.05-6.38-5.23-10.52-3.19-.98-6.52.27-9.72-.78-3.66-1.19-7.68-6.57-11.85-8.4-3.05-1.34-6.83-1.36-9.4-2.6-.91-.44-8.51-5.6-9.91-6.59-3.71-2.62-7.14-8.24-10.97-10.78-2.85-1.89-5.98-2.06-8.67-3.33-5.52-2.61-10.93-6.09-16.95-8.55-2.25-.92-11.89-3.33-12.38-3.75-.32-.28-.38-1.96-1.2-2.91-.28-.32-4.97-3.48-5.79-3.97-6.05-3.64-19.18-6.46-23.16-9.84-1.2-1.02-1.03-7.79-.58-9.55.3-1.17,13.64-16.88,14.83-17.42,2.14-.97,4.68.02,6.93-.57,8.93-2.32,17.71-12.62,25.65-17.1,2.84-1.61,6.72-2.62,9.79-4.46,7.42-4.45,16.7-12.46,25.15-15.35,4.74-1.62,13.81.37,19.13-.37,2.76-.38,6.87-1.07,9.68-1.57,1.98-.35,5.74-3.71,8.5-4.25s5.45.18,7.99-.26c5.95-1.03,12.4-9.96,16.91-13.84,8.06-6.93,17.32-14.69,26.34-20.16,16.58-10.06,22.72-11.03,34.23-28.02,5.25-7.75,10.83-14.47,15.91-22.34,1.33-2.06,9.48-8.51,9.72-9.83-1.88-4.29-7.46-5.16-11-7.59-9.39-6.43-4.84-11.1-10.06-18.44-7.51-10.56-13.35-8.4-20.44,1.07-6.72,8.96-8.72,9.84-15.84,17.16-2.68,2.76-4.62,8.86-9.35,9.02l7.11-9c8.68-5.45,12.41-13.35,18.4-20.6,6.87-8.3,14.2-9.07,20.98-.02,3.55,4.74,2.62,7.46,4.27,12.23,2.16,6.26,10.01,8.51,15.18,11.82,1.42.91,5.82,5.37,6.96,5.81,1.7.66,19.68,1.4,22.75,1.3,3.41-.12,7.2-1.83,10.26-1.39,4.57.65,11.83,10.9,19.68,11.88,17.09,2.13,23.91-12.62,30.16-25.38,1.57-3.21,2.85-8.57,5.48-9.89-4.37,17.32-17.3,42.37-39.19,36.57-.78-.21-11.33-6.98-12.93-8.07-1.44-.98-2.74-3.64-4.55-3.79-1.2-.1-3,1.36-5.16,1.6-5.86.65-9.4-.76-14.34-1.51-2.24-.34-4.79.14-7.08-.03-.46,2.34,2.56,1.88,3.36,3.01.58.81.38,2.31,1.46,3.79,2.97,4.11,13.22,11.33,15.01,14.99.54,1.1.3,2.57.86,3.64,2.49,4.79,2.61,4.95,4.26,9.99,3.81,11.66,11.34,25.14,23.38,29.87,6,2.36,11.3,1.53,16.84,5.66,4.45,3.31,4.73,3.52,9.48,6.27,1.09.63,2.16,2.86,3.35,3.4,2.36,1.07,5.94-.02,8.56.44,1.89.33,3.85,2.38,5.49,2.76,5.1,1.17,6.12.07,11.05,3.95,3.55,2.79,4.36,7.22,6.07,10.43,1.6,2.99,11.2,19.11,13.53,19.52,3.04-1.28,4.87-4.82,7.4-6.69,5.87-4.36,10.94-4.23,15.78,1.47,4.29,5.04,5.02,10.9,8.3,15.7,1.74,2.54,5.45,5.67,8.37,6.63,4.08,1.34,9.26,1.07,13.09,1.91,8,1.74,3.86,7.67,5.09,12.78.14.57,1.34.46,1.47,1.03.28,1.27-.24,2.79.16,4.22.99,3.54,15.64,12.13,18.96,11.78,2.31-.25,4.16-4.51,6.17-5.11,3.74-1.11,10.38.67,14.68-.8,1.46.38,7.87,10.16,11,12.31,1.78,1.22,3.79,1.35,5.57,2.68,1.12.84,2.06,2.81,2.5,2.91,1.83.45,17.03.35,19.39.02,5.04-.71,8.12-2.23,14.21-1.54,5.33.61,6.27,5.23,10.46,4.51,3.19-.55,9.62-10.9,15.76-12.78,2.76-.85,4.42-.35,6.74-.76,13.24-2.33,23.15-3.57,34.83-11.67,6.74-4.68,22.13-24.75,27.09-26.91,2.21-.96,8.15-1.26,10.66-2.09s26.42-18.92,29.86-21.89c5.1-4.39,4.32-4.62,6.38-10.12,1.72-4.62,5.41-4.51,8.41-6.59s19.5-14.06,20.46-15.54c9.28-14.41,9.58-13,23.91-21.09,6.83-3.86,12.9-8.59,19.19-13.06,4.97-3.53,14.86-9.43,20.83-6.58s11.03,8.92,15.92,12.58c9.84,7.37,20.25,13.86,30,21,4.71,3.45,5.92,3.24,10.07,5.68,2.32,1.36,4.02,4.87,5.56,6.06,2.03,1.57,5.89,1.7,7.95,2.93,1.51.9,1.71,2.43,2.92,3.29,1.99,1.41,5.5,1.55,7.57,2.72,2.53,1.43,5.34,5.97,7.94,7.81,4.64,3.29,13.5,5.71,19.09,7.16,12.71,3.31,22.58,3.8,34.45,10.55,4.51,2.57,10.67,8.76,14.13,10.62,6.12,3.27,18.92,4.9,26.31,8.19,7.94,3.53,10.3,10.9,18.19,15.56,4.59,2.72,8.9,1.13,9.7,8.3.89,7.98-2.08,14.05,3.35,21.4,8.07,10.93,15.39,4.96,26.1,6.9,3.89.71,4.15,3.24,6.61,4.64,3.96,2.24,10.06.78,14.57,1.18s9.72,2.7,14.98,1.49c2.18-.42,4.8-4.43,6.77-5.98,2.45-1.93,6.47-4.11,9-6,3-2.26,8.19-8.35,12.2-8.86,3.46-.44,12.51,4.25,16.66,5.5,3.84,1.16,13.29,3.72,16.82,3.31,1.77-.21,3.32-1.29,5.31-1.45,6.31-.52,21.42,1.38,26.09-.91,1.23-.6,1.85-1.85,2.85-2.4,4.64-2.55,10.17-.1,14.41-1.34,6.04-1.77,12.32-6.24,17.98-9.02,3.2-1.57,4.98-3.85,9.55-2.82v41.25c-3.52,3.28-8.5,4.21-9.58,9.55-.43,2.15.16,6.17-.91,7.92-.6.98-3.24.75-3.72,2.5,2.3,3.99,1.15,8.07-.04,12.26,6.29.77,2.66,9.67-3,4.52,1.91,8.85-8.18.37-9,4.14-.32,1.45,11.27,11.43,12.73,13.52.18.42-2.44,3.29-2.65,3.34-.36.09-5.75-2.46-6.92-2.78-2.05-.55-4.16.28-5.94-1.57-5.31,1.21-8.81,5.8-14.48,3.6,1.52-2.08-.73-3.75-.59-4.73.07-.5.95-1.09,1.08-1.78.35-1.92-.71-2.63,1.78-4.73-4.94.82-8.04-2.44-13.09-1.47-2.8.54-5.15,4.52-9.41,2.97,2.67,3.69,4.64,4.12,3.79,9.31-7.07.85-3.63,3.32-6.06,7.93-1.37.18-2.06-1.35-3.31-1.43-.9-.06-7.97.53-9.02.72-2.78.5-5.2,3.94-9.15,4.2-8.64.57,1.92-10.06-.19-12.79-3.71-.6-4.82-.3-6.81-3.82l5.24-1.49c-1.01-1.53-4.22-3.5-4.87-4.91-.49-1.06-.48-7.37-1.35-9.87-.6-1.7-2.45-4.64-4.01-5.72-1.91-.4-7.59,7.14-8.15,8.93-.52,1.66.37,2.55.22,3.9-.47,4.32-4.91,6.52-8.84,6.55,1.09,2.26,7.36,8.94,5.68,11.28-1.95,1.33-4.12.32-6.4,1.12-2.46.86-5.91,6.5-7.28,6.97-2.37.82-8.7.8-9.67-2.09-1.75-5.23,3.63-8.17,4.16-12.79-6.14,2.05-11.33-8.71-3-7.51-.49-3.13-3.64-3.83-3.58-7.29.03-1.65,2.3-1.98,2.1-4.27s-3.49-5.38-5.81-5.57c-2.47-.13-1.32,3.54-2.09,5.15-.55,1.15-3.21,1.92-4.17,3.33-.26.39-2.21,5.06-2.23,5.35-.25,2.96,5.81,10.47,3.44,14.61-.99,1.42-4.65.14-6.44,1.06-1.57.81-1.13,3.21-1.95,3.44-.48.13-9.38.67-9.85.52-2.29-.75-.9-4.68-1.69-6.56.4-.37,2.81.84,2.25-1.12-1.14-2.37-4.84-2.24-5.28-4.52-.67-3.44,3.25-4.38-.7-9-1.22-1.43-4.64-2.45-5.13-3.86-1.27-3.67,2.28-8.72,2.12-12.56-.02-.43-1.21-.38-1.44-1.02-.71-2,.1-4.48-.08-4.63-.53-.45-3.16-.4-4.77-2.38-2.25-2.77-1.69-7.41-4.59-9.65-3.06,2.58-2.32,5.9-3.4,9.31l1.58.81c-1.07,4.24-2.97,5.11-6.68,6.7,3.9,10.89-.73,7.11-6.35,8.8-1.55.47-1.46,2.37-4.57,2.1-4.53-.39-2.94-6.73-8.71-5.25.91,2.43-2.54,12.92-3.92,14.08-1.82,1.54-9.31.66-11.79.14l-1.15-5.98-4.9-.73.76-9c-2.26.45-5.86-.3-6.75-2.64-.66-1.75,3.34-.94,3.68-3.08.27-1.68-2.67-3.18-3.15-4.22-1.05-2.25-1.33-5.58-1.28-8.06-9.1-1.5-4.61,4.72-8.4,9.59l-6.59-.59c.49,9.14,5.98,16.04-7.04,14.9-5.44-.48-5.01-1.94-7.98-3.27-1.95-.88-5.32.41-6.41-1.89-.57-1.2.79-3.19.46-4.72-.19-.87-2.95-.93-3.1-3.18-.1-1.51,2.06-3.86,1.28-6.58-.35-1.21-1.54-1.99-1.83-3.28-.57-2.47.95-6.19-2.66-6.91-3.84,2.31-4.1,7.12-7.15,10.17-.15.9,2.73,3.37,1.1,5.57l-8.68,3.7c2.47,2.38,2.53,4.42,2.29,7.78l-5.25,1.25c-.84.86,2.1,9.03-3.84,12.28-1.44.79-8.18,4.06-9.3,4.19-1.31.16-6.39.22-7.19-.34l-1.53-8.59c-4.26.72-9.05-2.3-7.04-6.8.59-1.33,3.73-2.95,3.97-4.26.36-1.94-3.4-7.62.89-9.65-3.51-.61-3.9-3.21-3-6.37-3.35,1.86-6.89-.64-10.5,0-.05,3.31.51,6.69-1.18,9.7-.56,1-2.38,2.02-2.5,2.78-.07.49,1.76,3.06,1.2,5.3-.43,1.72-1.68,2.11-1.86,2.93-.23,1.07.99,3.69.57,5.89-.39,2.06-2.77,2.91-2.94,3.87-.2,1.17,5.83,4.89,3.14,11.34-1.09,2.61-3.4,2.47-2.41,7.29.64,3.16,3.32,2.26,3.73,2.67.16.16-.93,3.33,0,4.45-7.06-.16-.32,7.18-3.49,8.17-4.2,1.32-5.56-2.87-9.26-2.89.37,1.47,2.78,9.95,3.16,10.33.68.69,3.84.63,4.98,1.02l.86,4.39c-3.69,1.52-8.93-.05-12.22.91s-7.22,6.86-12.05,5.78c-2.64-.82-1.33-13.15,1.77-14.93-2.27.12-11.18,3.33-11.92.31l4.42-9.31c-3.58-.45-7.23.74-10.75.45-1.76-.15-3.26-1.62-5.21-1.1-4.73,1.27-2,9.29-8.04,8.15,2.8,2.96,3.78,4.01,3.76,8.23l-20.53.65-1.6-4.39c-1.1,1.55-7.26,6.32-7.01,7.71.13.72,1.34,1.46,1.46,3.14.51,7.11-5.6,4.71-6.07,6.78,2.9,3.08,1.25,3.78,1.62,6.54.33,2.47,3.06,4.81,2.83,7.61-5.52,2.69-10.59,5.65-15.71,8.71h-6Z"/>
  <path class="cls-1" d="M0,102.75c9.28-6.31,19.76-9.46,29.75-14.87,3.02-1.64,6.19-3.36,9.14-5.11,6.08-3.59,15.62-13.95,22.61-5.91,5.67,6.51,9.94,16.31,17.21,21.79,5.88,4.43,14.53,5.89,20.23,9.77,8.08,5.48,14.26,25.14,25.92,16.82,7.87-5.61,11.73-15.79,17.02-23.48,4.13-6.01,19.53-24.29,25.56-26.94,12.39-5.45,11.97,5.88,18.14,11.46,3.45,3.13,9.33,5.57,13.95,4.13,2.41-.75,3.53-4.46,5.97-3.78-1.68,5.81-11.28,5.88-15.95,4.68-8.28-2.11-10.84-19.05-19.28-15.91s-21.64,20.4-26.9,27.84c-3.52,4.98-6.13,10.96-9.89,15.61-1.44,1.78-9.35,9.83-10.87,10.12-11.96,2.31-16.6-13.03-25.18-19.04-5.33-3.73-14.65-5.78-20.55-10.2-5.35-4-17.34-24.11-21.04-24.75s-3.81,1.41-6.09,2.88c-14.92,9.63-27.02,14.89-42.43,22.82-2.52,1.3-3.27,3.9-7.32,2.8v-.75Z"/>
  <path class="cls-1" d="M1503,221.25v.75c-3.33,2.11-5.18-2.27-7.28-2.84-1.69-.46-3.54.18-5.06-.19-3.87-.95-7.44-3.56-11.67-3.34,0-.69,3.78-1.06,4.67-.97,2.29.21,11.46,2.98,14.22,3.84,1.69.53,3.56,1.86,5.12,2.76Z"/>
  <polygon class="cls-2" points="802.5 0 801.59 .52 801 0 802.5 0"/>
  <path class="cls-1" d="M309.34,69.42c.1.22.8.34,1.08.94,10.66,22.72,16.33,44.01,36.82,60.52,11.75,9.47,25.47.27,35.27,8.98,6.26,5.55,5.53,12.84,7.06,19.94s9.26,15.91,14.66,20.59c.92.8,9.66,5.83,8.26,7.11-1.54.41-2.04-.51-3.03-1.09-6.52-3.85-19.77-16.86-21.52-24.23-1.09-4.58.09-8.09-2.15-13.6-1.55-3.8-4.84-8.33-8.6-10.15-11.3-5.47-20.61,2.77-32.59-7.16-19.58-16.24-26.25-38.61-36.81-60.69-5.59-11.68-8.35-22.49-11.58-34.92-1.72-6.6-6.66-12.34-11.96-16.54-12.19-9.68-16.56,1.39-25.15,8.62-12.05,10.14-19.29,16.93-29.24,29.26-6.53,8.09-13.78,20.45-20.96,27.03-.83.76-1.31,1.76-2.65,1.48l23.27-31.1c8.45-11.76,16.67-18.36,27.34-27.41,10.11-8.59,15.3-20.31,29.65-8.62,4.62,3.76,8.88,8.43,10.62,14.13,3.85,12.6,6.67,24.89,12.22,36.92Z"/>
  <path class="cls-1" d="M1323,205.5c-1.75,1.59-4.21-4.64-6.79-5.58-3.54-1.3-7.55-1.85-10.86-4.14-1.18-.82-12.35-11.96-12.71-12.79-1.99-4.63-1.21-9.44-1.93-13.82-.19-1.14-1.26-1.94-1.42-3.08-.89-6.18,1.48-11.24-2.4-17.1-2.25-3.39-14.34-10.33-18.3-10.95-5.21-.81-12.07.72-17.25,0-3.08-.43-6.5-1.06-9.67-1.58-9.93-1.65-10.49-13.6-20-17.5-5.39-2.21-8.15-1.2-13.01-1.99-1.2-.2-2.07-1.26-3.75-1.5-5.57-.8-8.9,1.64-12.01,6.07-1.96,2.79-10.15,14.92-11.25,17.25-4.32,9.16-8.56,9.33-13.16,16.09-2.51,3.69-4.44,9.34-7.18,13.07-.7.95-6.09,6.54-6.7,6.8-.89.38-1.49-.22-1.11-1.11.45-1.05,4.6-4.44,5.86-6.14,3.64-4.88,6.04-11.49,9.9-16.35,2.75-3.46,7.67-6.72,10.08-10.17,4.43-6.35,8.18-15.57,12.83-21.67,3.86-5.06,6.37-5.8,12.73-5.32,2.93.22,8.86,1.14,11.76,1.73,8.97,1.82,10.06,3.01,15.57,9.93,2.98,3.74,2.02,5.8,7.75,8,15.3,5.89,30.99-1.26,45.55,10.7,8.94,7.35,2.97,26.96,9.09,37.41,3.74,6.4,13.22,13.98,20.1,16.65,1.58.61,3.39-.05,4.96,1.04.67.47,3.87,5.55,3.32,6.05Z"/>
  <path class="cls-1" d="M1476.75,215.26c.06,1.41-3.29.79-3.97.59-2.01-.61-4.33-5.19-7.69-5.81-4.16-.76-9.97.57-14.25,0-6.56-.88-22.74-14.02-28.47-18.78-3.81-3.17-10.85-12.36-15.81-12.76-.65-.05-10.95,4.6-11.96,5.24-1.88,1.2-7.91,7.71-9.74,9.76-1.59,1.79-2.99,5.19-4.85,6.4-3.81,2.46,2.5-6.91,2.99-7.51,6.12-7.67,20.68-19.78,30.35-12.35,11.17,8.59,26.7,27.39,41.33,29.16,4.09.5,8.53-1.26,11.78-.53,3.49.79,5.96,6.8,10.28,6.61Z"/>
  <path class="cls-1" d="M1378.5,201.01c-.25,1.08-1.21,1.72-2.25,1.49v-1.49s2.25,0,2.25,0Z"/>
  <path class="cls-1" d="M1374,204.75c.82.82-.67,2.31-1.49,1.49s.67-2.31,1.49-1.49Z"/>
</svg>