<?xml version="1.0" encoding="UTF-8"?>
<svg id="Layer_1" data-name="Layer 1" xmlns="http://www.w3.org/2000/svg" viewBox="0 0 1920 417">
  <defs>
    <style>
      .cls-1 {
        fill: #f1cad0;
      }

      .cls-2 {
        fill: #cca3b8;
      }

      .cls-3 {
        fill: #876ca5;
      }

      .cls-4 {
        fill: #fefefe;
      }
    </style>
  </defs>
  <path class="cls-3" d="M1919.26,0v156.84c-4.31.6-5.4,6.42-10.71,5.97-.68-.06-.72-2.36-2.44-2.88-2.12-.64-4.73,1.09-6.4-.05l-1.7-3.84c-6.47-.69-4.71,2.52-6.59,4.54-2.45,2.62-4.77-1.92-7.53-2.24-2.17-.25-4.03.99-5.81.74-4.35-.61-8.57-1.92-12.85-2.81-1.18-.24-9.53-1.27-9.87-.91l-1.13,4.47c-4.96-4.15-6.63-1.74-11.13-1.48-2.96.17-7-.5-9.65,0-2.41.46-2.51,3.32-5.96,3.05-1.26-.1-1.92-2.97-5.97-3.09-3.22-.1-5.16,2.18-6.66,2.23-1.89.06-8-3.74-13.33-2.91-4.43.69-6.45,1.01-11.11.64-2.35-.19-4.88-1.18-7.48-.72l-.78,2.29c-3.1-2.31-6.06-1.21-9.59-1.55-4.62-.44-5.68-1.16-11.01.26-4.94,1.31-4.73,1.36-9.8,2.03-1.38.18-2.42,1.94-4.14,1.49.45-5.26-3.74-.47-5.73-.14-1.39.24-5.81-.73-7.19-.41-1.21.28-1.79,2.42-3.77,2.08-.62-.1-.57-1.87-1.62-2.22-1.97-.66-4.79,1.78-7.29,1.43-1.68-.23-3.57-2.47-5.4-2.89l-.98.23c-.53,1.18-2.2,3.69-3.7,2.65-.61-.42.81-3.42-4.29-3.51-9.88-.18-16.99,2.94-28.01,1.25-2.43-.37-7.84-2.76-9.76-2.96-1.38-.15-2.35,1.13-3.71,1.47-2.49.63-4.04-.2-6.57,2.26-1.86-.37-1.38-5.31-6.03-5.24-2.66.04-3.22,2.64-5.52,3.43-.88.3-4.85,1.04-5.72,1.04-2.68.01-3.84-2.91-6.54-2.97-1.39-.03-4.07.77-5.76,1-5.45.75-11.56,1.46-17.27,2.04-1.73.18-9.01.31-10.3-.02-.76-.2-.74-1.52-1.25-1.86-2.51-1.65-5.44,1.29-7.86,1.86-1.64-.03-1.48-1.96-2.72-2.5-4.83-2.1-14.9,4.34-21.6,2.33-1.7-.51-1.88-2.91-4.52-2.82s-5.62,2.98-6.79,2.98c-1.32,0-1.97-2.05-4.42-2.31-2.63-.27-7.34,1.68-8.16,1.47-.95-.24-.91-2.11-1.58-2.21-.91-.14-3.06,1.39-5.09,1.6-2.13.22-8.35-.26-10.29-.96-1.23-.45-1.8-1.99-3.18-2.11-1.59-.13-2.33,1.47-4.21,1.41-2.6-.08-5.98-2.89-6.93-2.88-1.69.01-1.57,1.94-2.61,2.61-2.18,1.38-4.5-.41-3.68,4.87-2.88.85-5.54-4.78-7.69-4.33-2.09,1.21-2.62,3.57-5.34,3.66-1.39.05-.68-1.45-2.16-1.63-3.41-.41-9.18,1-12.67.87-1.72-.06-3.5-1.62-4.37-1.46-1.28.25-1.72,2.54-2.74,3.21-1.09.72-4.92,1.33-6.26,1.17-1.65-2.33,1.94-1.9,1.1-4.46-4.82.39-8.61.17-13.33,1.89-1.25.46-1.11,2.34-3.77,1.53-3.71-1.14-1.15-5.33-3.34-6.39-1.89-.92-.48,3.22-2.23,3.71-1.89.5-2.55-1.71-3.85-2.08-6.76-1.97-15.72,1.6-22.69,3.02-5.26,1.08-2.67.13-6.1-.12-1.5-.11-3.89,1.28-5.4,1.22-1.14-.05-2.01-1.25-3.55-1.37s-3.43.83-4.38.65c-1.13-.21-1.89-2.31-3.22-2.69-1.9-.55-3.37.69-5,.6-1.78-.09-4.02-2.15-6.07-2.2-1.82-.05-2.42,1.44-3.61,1.51-.25.01-.38-2.12-3.72-2.27-2.15-.09-.78,2.31-1.12,3.74l-8.89-.02c-.04-5.73-5.56-1.23-8.61-.77-2.13.32-4.42-.17-6.6.08-1.55.18-2.71,1.56-4.44,1.45-1.88-.12-2.94-2.07-4.47-2.16-2.81-.16-10.64,2.13-13.44,2.09-1.22-.02-2.63-1.26-4.43-1.45-3-.32-5.7,1.09-8.19.85-1.63-.15-2.55-1.4-3.66-1.48-1.6-.11-5.46,1.56-6.67,1.27s-1.62-3.15-3.11-3.43c-.35-.07-6.56.59-7.18.76-1.12.3-2.05,1.74-3.29,1.93-1.37.21-2.81-.83-4.28-.65-1.84.23-7.23,6.14-7.84-.72-2.37,1.65-6.6-.86-8.23.33-1.1.8.16,3.36-2.16,2.65l-1.21-2.93c-4.47,1.8-6.95-.43-11.04-.81.08,5.24-5.76,4.8-9.52,3.59-1.19-.39-1.7-2.04-3.11-2.07-1.16-.02-2.41,1.34-3.8,1.49-1.65.17-9.11-1.67-9.97-.75.11,6.2-1.71,1.54-1.96,1.48-2.18-.53-22.28-2.45-23.52-2.06-1.6.5-1.38,2.27-4.51,2.06-2.82-.19-5.05-2.71-6.84-2.97-2.43-.35-3.99,1.73-5.86,1.53-1.49-.16-2.01-1.75-3.14-2.11-4.01-1.26-5.93,1.47-7.96,1.36-1.4-.08-2.42-1.44-4.42-1.46-2.58-.02-11.26,2.89-11.87,2.81-1.46-.2-3.97-3.69-7.58-3.63-1.8.03-2.91,1.25-4.48,1.49-2.48.37-4.32-.6-6.44-.52-2.58.11-6.3,2.17-8.33,2.03-1.2-.09-2.11-1.13-3.11-1.27s-2.28.84-3.52.47c-.89-.26-1.02-1.67-1.75-2.19-2.49-1.79-2.95.97-4.39,1.32-.21.05-4.06.04-4.27,0-1.64-.38-1.48-2.68-5.28-2.84-6.79-.29-12.7,6.34-21.5,5.21-1.78-.23-3.47-1.53-5.22-1.41-1.83.13-5.58,1.96-8.33,2.17-2.26.17-5.32.5-7.15.6-.49.03-5.54-.42-5.96-.53-.83-.2-.79-1.96-1.67-2.16-.65-.15-2.18.74-3.56.61-2.84-.26-7.78-1.92-9.9-2-2.5-.1-5.61,3.45-8.42,2.79-.13-7.75-4.45-1.42-7.06-1.41-2.76,0-3.11-2.83-5.03-2.87-2.21-.05-5.68,2.08-6.87,2.03s-1.72-1.61-3.35-1.2c-3.69.94-5.03,8.01-12.26,1.94-5.36,4.15-3.3,1.07-5.56-.37-2.5-1.58-9.73,2.48-12.17,1.79-1.07-.3-1-2.91-3.7-2.7-1.78.14-1.66,1.54-2.55,1.97-1.68.82-3.74,1.9-5.39,2.65-2.85,1.31-6.03-.95-8.69-1.67-3.55-.96-9.08-2.86-12.46-3.14s-6.24-.26-9.36,1.04c-.25.1-2.68,1.91-2.75,2.08-.53,1.35,1.97,2.72-.52,2.85s-8.23-3.79-9.7-5.93c-1.94.31-3.85,1.61-4.05,3.67h-1.09c-3.32-5.58-7.3,2.22-9.64,1.48-1.08-.34-.72-2.74-2.22-2.24-2.65.91-7.12,3.94-9.72,3.83-1.1-.05-1.6-2.63-4.07-1.58-1.03-1.79,2.8-2.98,1.49-4.45-.67-.76-3.28,2.27-4.41,2.64-6.19,1.99-6.98-2.6-8.58-2.72-3.03-.23-4.28,2.3-7.42,2.4-7.27.22-23.12-3.88-28.4-.59-.51.31-.66,1.77-1.38,1.96l-4.44-2.93c-1.51-.39-1.38,1.99-2.36,2.23-5.58,1.42-6.14-2.48-8.8-2.98-3.65-.69-6.68,2.38-11.11,1.47-1.66-.34-2.17-1.86-3.12-2.11s-3.14.67-4.94.58c-2.31-.12-4.78-1.13-6.83-2.19-2.18-.04-1.82,4.62-8.1,3.71-3.58-.52-3.72-.56-7.46-.7-3.18-.12-15.67-1.22-17.48-.38-1.12.52-1.97,3.18-3.35,1.1l-1.5-3.71c-1.63-.37-1.63,2.06-1.87,2.22-.78.51-2.42-1.68-4.05-1.51-.43.05-.06,1.62-1.48,1.6-2.4-.03-2.93-2.06-3.84-2.23-.49-.09-3.97,2.22-6.59,2.21s-4.38-1.41-6.7-1.57-4.04.76-5.85.69-7.33-2.16-8.49-.46c-.37.54,0,1.84-.16,2-.53.52-3.67-.72-4.75-.67-1.4.06-2.68,1.17-3.89,1.24-3.5.21-8.78-3.39-13.85-1.88-1.24.37-1.97,2.39-3.11,2.08-.78-.21-.84-2.2-1.56-2.27-3.54-.32-4.16,3.71-4.46,3.81-3.62,1.09-4.86-2.31-7.29-2.28-2.79.04-2.74,2.46-3.89,2.86-2.52.87-6.43-.31-6.31-3.5-3.03-.79-5.57,2.01-8.61,1.9-2.09-.07-3.35-2.02-6.36-1.12-3.47,1.04-2,7.47-6.21-.06-3.86.77-6.8.09-10.31-.08-2.4-.12-6.89.22-8.92-.13s-3.96-2.08-6.71-2.12c-1.7-.03-3.85,1.07-5.03.82-.8-.17-.83-2.06-1.65-2.27-.49-.12-6.69,2.67-8.31,2.8-2.29.18-8.58-1.6-10.09-1.22-1.08.28-1.63,2.09-3.1,2.12s-5.59-2.48-8.19-2.23c-2.16.21-3.03,3.45-5.23,3.75l-1.01-.13c-.84-2.95-2.53-3.46-5.18-2.02l-.49,3.62c-5.43.27-3.57-4.05-6.72-4.49-2.58-.36-4.29,1.31-5.94,2.97-2.65-1.79-2.46-3.31-6.52-3.4-5.28-.12-4.65,3.04-6.17,3.34-5.8-3.05-11.82-.59-17.72.84-.35-4.76-4.14-.56-7.34-.78-4.15-.29-4.05-3.74-6.77-3.76-1.79-.01-3.04,1.44-4.51,1.54-1.59.1-3.22-1.05-5.13-.74-1.63.26-2.18,2.04-3.79,2.28-2.39.35-3.98-1.77-6.58-1.51s-6.41,3.9-9.67,1.55c-.95-.69.4-3.25-2.29-2.32-.43.15-.56,1.52-1.13,1.82-.74.39-5.44,1.9-5.77,1.74-.44-.22.43-1.7-3.53-1.37-2.74.23-4.28,2.16-6.93,1.43-.99-6.86-9.48-1.58-13.87-1.34-4.06.22-10.88-1.7-14.87-1.57-2.96.09-6.14,4.17-8.88-1.45-1.29-.34-2.04,2.51-4.42,2.27-1.61-.16-2.3-2.07-3.11-2.21-.92-.16-1.91,1.63-3.56,1.46-1.22-.13-2.05-1.68-3.7-1.54-1.55.13-5.37,1.96-4.15,4-3.57,1.73-3.22-2.18-2.24-4.72-2.12-.99-4.42,1.48-5.57,1.48-.97,0-1.87-1.3-3-1.46s-8.38-.84-8.8-.71c-1.25.38-.5,3.77-5.47,1.61-1.2-.52-2.46-2.67-3.52-2.41-2.19,4.17-3.46,7.09-8.94,6.77-1.74-.1-1.06-2.19-2.97-2.38-2.15-.21-2.72,2.08-4.49,2.32-2.1.28-5.23-1.29-7.48-1.44-1.45-.09-2.85.88-4.34.7-2.12-.26-3.26-3.38-4.61-3.63-.72-.14-3.41,1.58-5.86,1.46-2.22-.11-3.51-1.55-4.43-1.55-.75,0-4.78,2.34-7.03,2.64-1.43.19-2.94-.7-4.03-.36s-1.07,3.34-4.18,2.17l.67-4.35-4-1.66c-1.64.14-1.78,2.27-3.65,3.11-3.53,1.59-5.62-.42-7.41-.14-.77.12-.48,2.16-2.34,2.36-2.13.22-2.64-1.85-3.87-2.2-1.49-.42-2.94.84-4.16.55-2.35-.55-.86-5.01-5.52-1.65-1.11.8-1.34,2.46-2.74,2.51-2.07.07-3.54-2.66-4.61-2.87-1.33-.26-3.14,1.85-4.47,1.95-1.24.09-2.28-1.22-3.62-1.32-4.12-.28-15.81-1.12-19.28-.77-1.75.18-2.05,2.44-5.22,2.32-1.38-.05-1.3-2.18-3.07-2.18-1.05,0-1.65,1.13-2.26,1.23-.95.15-1.67-1.24-2.79-1.3-1.06-.06-2.35,1.05-3.67.63-1.1-.35-.62-2.13-2.31-2.26-4.36-.33-5.3,2.94-6.68,3.13-5.54.73-5.41-4.91-12.51-.64-1.29.78-.84,2.31-2.36,2.05l-1.9-3.69c-1.64-.03-3.11.73-4.76.75-5.89.09-16.31.18-21.42-.92-2.11-.46-4.78-2.03-6.85-2.83-1.79,2.81,2.75,2.16,1.85,5.21-2.62-.77-6.5.8-8.58.67-1.37-.08-3.35-2.31-5.53-1.41l.69-3.24c-6.21-4.57-3.29,3.63-3.67,3.99-5.38,1.1-3.22-1.86-4.64-3.53-.84-.98-3.71-.94-5.02-.93v2.98c-2.96-1.46-6.54,2.26-9.48-.18-.89-.74-.37-3.43-2.03-2.79-2.33.9-.17,2.55.19,3.51,1.58,4.2-5.14-1.36-5.47-2.83-3.88,2.08-7.73,3.41-12.19,3.77.15-2.68,4.59-2.63,2.59-5.95-4.08.21-5.87.61-7.44,4.48-1.42-1.46-4.49-1.14-5.39-1.67-.52-.31-.3-1.92-2.02-2.12-2.87-.33-2.79,3.34-4.56,3.69-1.43.28-2.8-1.89-3.75-2.03s-1.84,1.46-3.52,1.4c-2-.07-3.52-2.83-5.88-2.3-.64.14-.8,1.64-1.67,2.21-.94.62-2.61.5-3.1,1.01-.7.71-.06,2.99-2.91,3.34-2,.24-6.05-4.84-6.71-5.03-3.37-.94-9.04,2.15-13.99,1.55-1.8-.22-1.08-2.22-2.86-2.27-2.87-.07-6.71,1.88-9.06,2.19-.8.11-9.52-.14-10-.29-.98-.31-1.89-1.64-2.7-1.78-1.08-.19-2.31,1.26-3.64,1.35-1.67.12-2.62-1.16-3.76-1.28-2.26-.25-6.48,1.24-8.86,1.3-1.1.03-8.36-.11-8.8-.19-.99-.19-1.66-2.11-3.06-2.11-2.06,0-2.44,4.74-5.55,3.76.18-4.57-3.83-3-6.23-3.83-1.17-.41-2.37-5.28-4.61.91-6.6.83-12.52-1.15-18.89,1.44V0h1919.26Z"/>
  <path class="cls-2" d="M0,155.35c6.38-2.59,12.3-.6,18.89-1.44,2.24-6.19,3.44-1.32,4.61-.91,2.4.84,6.41-.74,6.23,3.83,3.12.98,3.49-3.76,5.55-3.76,1.4,0,2.07,1.92,3.06,2.11.44.08,7.7.22,8.8.19,2.37-.06,6.59-1.55,8.86-1.3,1.14.12,2.08,1.4,3.76,1.28,1.32-.09,2.55-1.54,3.64-1.35.81.14,1.72,1.46,2.7,1.78.48.15,9.2.4,10,.29,2.35-.32,6.18-2.26,9.06-2.19,1.77.04,1.06,2.05,2.86,2.27,4.95.6,10.62-2.49,13.99-1.55.67.19,4.71,5.27,6.71,5.03,2.86-.34,2.21-2.62,2.91-3.34.5-.5,2.16-.39,3.1-1.01.86-.56,1.03-2.07,1.67-2.21,2.36-.52,3.88,2.23,5.88,2.3,1.68.06,2.6-1.53,3.52-1.4s2.32,2.31,3.75,2.03c1.77-.35,1.69-4.02,4.56-3.69,1.72.2,1.5,1.81,2.02,2.12.9.53,3.97.22,5.39,1.67,1.57-3.87,3.36-4.27,7.44-4.48,2,3.32-2.44,3.28-2.59,5.95,4.46-.35,8.31-1.69,12.19-3.77.33,1.47,7.05,7.02,5.47,2.83-.36-.95-2.52-2.61-.19-3.51,1.66-.64,1.14,2.05,2.03,2.79,2.93,2.44,6.52-1.29,9.47.18v-2.98c1.31-.01,4.19-.05,5.03.93,1.42,1.67-.74,4.63,4.64,3.53.37-.35-2.55-8.56,3.67-3.99l-.69,3.24c2.18-.89,4.16,1.33,5.53,1.41,2.08.13,5.96-1.44,8.58-.67.9-3.05-3.63-2.4-1.85-5.21,2.07.8,4.74,2.37,6.85,2.83,5.1,1.11,15.53,1.01,21.42.92,1.65-.03,3.12-.78,4.76-.75l1.9,3.69c1.52.26,1.07-1.28,2.36-2.05,7.1-4.27,6.97,1.37,12.51.64,1.38-.18,2.32-3.46,6.68-3.13,1.69.13,1.21,1.91,2.31,2.26,1.32.42,2.61-.69,3.67-.63,1.12.06,1.84,1.45,2.79,1.3.61-.1,1.21-1.23,2.26-1.23,1.77,0,1.69,2.13,3.07,2.18,3.18.12,3.48-2.15,5.22-2.32,3.47-.35,15.16.48,19.28.77,1.34.09,2.38,1.41,3.62,1.32,1.34-.1,3.15-2.21,4.47-1.95,1.07.21,2.54,2.94,4.61,2.87,1.4-.05,1.64-1.71,2.74-2.51,4.66-3.36,3.17,1.1,5.52,1.65,1.22.29,2.68-.97,4.16-.55,1.23.35,1.74,2.43,3.87,2.2,1.86-.2,1.56-2.24,2.34-2.36,1.78-.28,3.87,1.73,7.41.14,1.87-.84,2.01-2.98,3.65-3.11l4,1.66-.67,4.35c3.11,1.17,3.08-1.82,4.18-2.17s2.59.55,4.03.36c2.25-.29,6.27-2.64,7.03-2.64.92,0,2.21,1.44,4.43,1.55,2.44.12,5.14-1.59,5.86-1.46,1.35.25,2.49,3.38,4.61,3.63,1.5.18,2.89-.79,4.34-.7,2.24.15,5.38,1.72,7.48,1.44,1.76-.24,2.34-2.53,4.49-2.32,1.91.19,1.22,2.28,2.97,2.38,5.48.32,6.75-2.6,8.94-6.77,1.06-.26,2.31,1.88,3.52,2.41,4.97,2.16,4.21-1.23,5.47-1.61.42-.13,7.71.56,8.8.71s2.04,1.45,3,1.46c1.15,0,3.45-2.47,5.57-1.48-.98,2.54-1.34,6.45,2.24,4.72-1.22-2.04,2.6-3.87,4.15-4,1.66-.14,2.48,1.42,3.7,1.54,1.65.17,2.64-1.61,3.56-1.46.8.14,1.49,2.05,3.11,2.21,2.37.24,3.13-2.61,4.42-2.27,2.75,5.62,5.92,1.54,8.88,1.45,3.99-.13,10.81,1.79,14.87,1.57,4.4-.24,12.88-5.52,13.87,1.34,2.65.73,4.19-1.2,6.93-1.43,3.96-.34,3.08,1.14,3.53,1.37.33.17,5.03-1.35,5.77-1.74.57-.3.7-1.67,1.13-1.82,2.69-.93,1.34,1.63,2.29,2.32,3.26,2.35,6.99-1.28,9.67-1.55s4.19,1.87,6.58,1.51c1.61-.24,2.15-2.02,3.79-2.28,1.92-.31,3.55.85,5.13.74,1.47-.09,2.72-1.55,4.51-1.54,2.72.02,2.62,3.47,6.77,3.76,3.2.22,6.99-3.98,7.34.78,5.9-1.43,11.92-3.89,17.72-.84,1.52-.3.89-3.47,6.17-3.34,4.06.1,3.87,1.62,6.52,3.4,1.66-1.65,3.36-3.33,5.94-2.97,3.15.44,1.29,4.76,6.72,4.49l.49-3.62c2.65-1.44,4.34-.93,5.18,2.02l1.01.13c2.2-.3,3.06-3.54,5.23-3.75,2.59-.25,6.69,2.25,8.19,2.23s2.01-1.84,3.1-2.12c1.51-.39,7.79,1.4,10.09,1.22,1.62-.13,7.82-2.92,8.31-2.8.83.21.85,2.1,1.65,2.27,1.18.25,3.33-.85,5.03-.82,2.76.04,4.62,1.76,6.71,2.12s6.52.01,8.92.13c3.51.18,6.45.85,10.31.08,4.2,7.53,2.74,1.1,6.21.06,3.02-.9,4.28,1.05,6.36,1.12,3.04.11,5.58-2.69,8.61-1.9-.12,3.18,3.79,4.36,6.31,3.5,1.15-.4,1.09-2.82,3.89-2.86,2.43-.03,3.67,3.37,7.29,2.28.31-.09.92-4.13,4.46-3.81.72.07.78,2.06,1.56,2.27,1.14.31,1.87-1.71,3.11-2.08,5.08-1.51,10.36,2.09,13.85,1.88,1.21-.07,2.49-1.18,3.89-1.24,1.08-.05,4.22,1.19,4.75.67.16-.16-.21-1.46.16-2,1.16-1.7,6.62.39,8.49.46s3.58-.85,5.85-.69,4.18,1.56,6.7,1.57,6.1-2.3,6.59-2.21c.91.17,1.44,2.2,3.84,2.23,1.42.02,1.05-1.56,1.48-1.6,1.62-.17,3.27,2.03,4.05,1.51.23-.15.24-2.59,1.87-2.22l1.5,3.71c1.39,2.08,2.23-.58,3.35-1.1,1.81-.84,14.31.26,17.48.38,3.73.14,3.88.18,7.46.7,6.28.91,5.92-3.75,8.1-3.71,2.04,1.05,4.52,2.06,6.83,2.19,1.8.09,3.97-.82,4.94-.58s1.46,1.76,3.12,2.11c4.43.91,7.46-2.16,11.11-1.47,2.65.5,3.22,4.4,8.8,2.98.97-.25.85-2.62,2.36-2.23l4.44,2.93c.72-.19.88-1.65,1.38-1.96,5.27-3.29,21.12.81,28.4.59,3.15-.1,4.39-2.62,7.42-2.4,1.6.12,2.39,4.71,8.58,2.72,1.13-.36,3.74-3.39,4.41-2.64,1.31,1.48-2.52,2.67-1.49,4.45,2.47-1.05,2.97,1.53,4.07,1.58,2.6.11,7.08-2.92,9.72-3.83,1.5-.5,1.14,1.9,2.22,2.24,2.33.74,6.32-7.05,9.64-1.48h1.09c.2-2.06,2.11-3.36,4.05-3.67,1.47,2.15,7.31,6.06,9.7,5.93s0-1.5.52-2.85c.06-.16,2.5-1.97,2.75-2.08,3.13-1.3,5.99-1.32,9.36-1.04s8.91,2.18,12.46,3.14c2.67.72,5.85,2.98,8.69,1.67,1.65-.76,3.71-1.83,5.39-2.65.89-.43.76-1.83,2.55-1.97,2.7-.21,2.63,2.4,3.7,2.7,2.44.69,9.67-3.37,12.17-1.79,2.27,1.43.2,4.52,5.56.37,7.23,6.06,8.57-1,12.26-1.94,1.64-.42,2.15,1.14,3.35,1.2s4.65-2.08,6.87-2.03c1.92.04,2.27,2.88,5.03,2.87,2.61,0,6.93-6.34,7.06,1.41,2.81.65,5.92-2.9,8.42-2.79,2.12.09,7.06,1.75,9.9,2,1.38.13,2.91-.76,3.56-.61.87.2.84,1.96,1.67,2.16.42.1,5.47.55,5.96.53,1.83-.09,4.89-.42,7.15-.6,2.75-.21,6.5-2.04,8.33-2.17s3.44,1.18,5.22,1.41c8.8,1.12,14.71-5.5,21.5-5.21,3.8.16,3.64,2.47,5.28,2.84.21.05,4.06.05,4.27,0,1.45-.35,1.9-3.11,4.39-1.32.73.52.86,1.93,1.75,2.19,1.23.36,2.5-.62,3.52-.47s1.91,1.19,3.11,1.27c2.02.14,5.74-1.92,8.33-2.03,2.12-.09,3.96.89,6.44.52,1.57-.24,2.69-1.46,4.48-1.49,3.61-.06,6.12,3.43,7.58,3.63.61.08,9.29-2.83,11.87-2.81,2,.02,3.02,1.37,4.42,1.46,2.03.12,3.95-2.62,7.96-1.36,1.13.36,1.65,1.95,3.14,2.11,1.87.2,3.43-1.88,5.86-1.53,1.79.26,4.02,2.77,6.84,2.97,3.12.21,2.91-1.56,4.51-2.06,1.25-.39,21.34,1.53,23.52,2.06.25.06,2.07,4.72,1.96-1.48.86-.92,8.32.93,9.97.75,1.39-.15,2.64-1.51,3.8-1.49,1.41.03,1.91,1.69,3.11,2.07,3.76,1.21,9.6,1.65,9.52-3.59,4.1.39,6.58,2.61,11.04.81l1.21,2.93c2.32.7,1.06-1.86,2.16-2.65,1.63-1.18,5.86,1.32,8.23-.33.61,6.85,6,.94,7.84.72,1.47-.18,2.91.86,4.28.65,1.25-.19,2.18-1.64,3.29-1.93.62-.16,6.82-.82,7.18-.76,1.49.28,1.93,3.15,3.11,3.43s5.07-1.38,6.67-1.27c1.12.07,2.03,1.32,3.66,1.48,2.5.24,5.19-1.17,8.19-.85,1.79.19,3.2,1.43,4.43,1.45,2.79.04,10.63-2.25,13.44-2.09,1.53.09,2.59,2.04,4.47,2.16,1.74.11,2.89-1.27,4.44-1.45,2.18-.25,4.47.23,6.6-.08,3.05-.45,8.58-4.96,8.61.77l8.89.02c.34-1.42-1.03-3.83,1.12-3.74,3.34.15,3.47,2.28,3.72,2.27,1.19-.07,1.79-1.56,3.61-1.51,2.06.06,4.3,2.11,6.07,2.2,1.63.09,3.1-1.15,5-.6,1.33.38,2.09,2.47,3.22,2.69.95.18,2.81-.78,4.38-.65s2.41,1.32,3.55,1.37c1.51.07,3.9-1.32,5.4-1.22,3.43.25.84,1.2,6.1.12,6.96-1.42,15.92-4.99,22.69-3.02,1.29.38,1.96,2.59,3.85,2.08,1.75-.49.34-4.62,2.23-3.71,2.18,1.06-.37,5.25,3.34,6.39,2.66.82,2.53-1.07,3.77-1.53,4.72-1.73,8.51-1.5,13.33-1.89.84,2.56-2.75,2.13-1.1,4.46,1.34.17,5.18-.44,6.26-1.17,1.02-.67,1.46-2.96,2.74-3.21.87-.17,2.65,1.39,4.37,1.46,3.49.13,9.27-1.28,12.67-.87,1.48.18.76,1.68,2.16,1.63,2.72-.09,3.25-2.45,5.34-3.66,2.15-.45,4.81,5.17,7.69,4.33-.81-5.28,1.5-3.48,3.68-4.87,1.04-.66.92-2.59,2.61-2.61.94,0,4.32,2.8,6.93,2.88,1.88.06,2.62-1.54,4.21-1.41,1.38.12,1.95,1.66,3.18,2.11,1.93.7,8.15,1.18,10.29.96s4.18-1.74,5.09-1.6c.68.11.64,1.97,1.58,2.21.82.21,5.53-1.74,8.16-1.47,2.45.26,3.1,2.31,4.42,2.31,1.17,0,4.2-2.89,6.79-2.98s2.82,2.31,4.52,2.82c6.7,2,16.77-4.43,21.6-2.33,1.25.54,1.09,2.47,2.72,2.5,2.42-.57,5.35-3.51,7.86-1.86.51.34.48,1.66,1.25,1.86,1.28.33,8.57.2,10.3.02,5.71-.59,11.82-1.3,17.27-2.04,1.68-.23,4.37-1.03,5.76-1,2.7.06,3.86,2.98,6.54,2.97.87,0,4.84-.74,5.72-1.04,2.3-.8,2.86-3.39,5.52-3.43,4.66-.07,4.18,4.88,6.03,5.24,2.53-2.45,4.08-1.63,6.57-2.26,1.36-.34,2.32-1.62,3.71-1.47,1.92.2,7.32,2.59,9.76,2.96,11.01,1.69,18.12-1.43,28.01-1.25,5.1.09,3.68,3.09,4.29,3.51,1.5,1.04,3.17-1.48,3.7-2.65l.98-.23c1.82.42,3.71,2.66,5.4,2.89,2.49.35,5.31-2.1,7.29-1.43,1.04.35,1,2.12,1.62,2.22,1.98.33,2.56-1.8,3.77-2.08,1.38-.32,5.8.64,7.19.41,1.98-.34,6.18-5.12,5.73.14,1.73.45,2.76-1.31,4.14-1.49,5.07-.67,4.86-.71,9.8-2.03,5.33-1.42,6.39-.7,11.01-.26,3.53.34,6.48-.76,9.59,1.55l.78-2.29c2.6-.46,5.12.53,7.48.72,4.66.37,6.68.05,11.11-.64,5.32-.83,11.44,2.97,13.33,2.91,1.5-.05,3.44-2.32,6.66-2.23,4.05.12,4.7,2.99,5.97,3.09,3.46.27,3.56-2.58,5.96-3.05,2.65-.51,6.69.16,9.65,0,4.5-.26,6.17-2.67,11.13,1.48l1.13-4.47c.34-.36,8.69.67,9.87.91,4.29.89,8.51,2.2,12.85,2.81,1.78.25,3.64-.99,5.81-.74,2.75.32,5.08,4.86,7.53,2.24,1.88-2.01.12-5.22,6.59-4.54l1.7,3.84c1.67,1.13,4.28-.59,6.4.05,1.72.52,1.76,2.83,2.44,2.88,5.31.44,6.4-5.37,10.71-5.97,0,56.48.05,113,0,169.48-6.46,1.1-8.79-2.36-15.77-.54-1.19.31-2.09,1.7-3.33,1.91-1.97.34-3.86-1.68-5.64-1.25-1.13.27-2.42,2.6-4,2.75-1.49.13-2.14-1.98-3.22-2.48-2.72-1.28-4.75.4-7.05.36-3.71-.06-11.45-1.22-14.83-.77-1.64.21-2.17,2.11-3.76,2.27-1.92.19-7.2-1.19-9.78-1.22-2.35-.03-5.12.94-7.67.47l.74,4.45c-3.16,1.44-4.5-2.2-4.95-2.29-1.32-.26-7.04.93-8.82.85-1.67-.08-2.24-1.19-3.13-1.37-1.38-.28-3.76,1-5.65-.12l-.47-3.02c-2.07.11-4.65-.87-5.22,1.85s1.35,1.77,2.98,1.88c-.5,4.13-2.52.88-4.81.66-2.53-.23-4.98,1.13-8.11.76-2.59-.31-5.22-2.54-6.85-2.7-3.34-.33-8.49.61-12.5-.26-2.78-.6-6.19-3.61-9.11-2.4-1.47.61-2.29,2.88-4.16,2.37-1.06-.29-1.61-2.17-2.98-2.05-1.06.09-4.75,3.09-5.71,2.12-.14-.14.41-1.48-.47-2.29-5.19-4.79-7.71,2.81-8.95,3.08-1.99.43-3.7-1.56-5.09-1.53s-1.84,1.81-3.33,1.48c0-5.44-4.87-1.9-7.12-1.55-4.11.65-8.32.99-12.49.75-.75.22-.06,4.18-4.4,3.05-.86-.22-.52-2.1-2.35-2.27-3.95-.36-6,2.01-8.26,2.26s-3.25-1.55-5.11-1.57c-1.73-.02-2.74,1.26-3.89,1.42-3.22.45-9.56-.63-13.13-.52-2.42.07-6.85,1.44-9.04,1.33-1.25-.06-2.37-1.56-3.86-1.97-4-1.1-7.51.09-9.53-3.87-5.33,4-9.94.73-15.51-.8-2.34.24-2.35,2.95-3.07,3.06-1.69.26-2.77-1.64-3.99-1.98-3.15-.88-9.18.32-12.29.29-8.37-.07-16.52-3.34-25.22-2.1l-1.12,4.89c-.86.61-5.01.43-6.4.35-2.55-.14-10.04-.38-11.72-.79-.57-.14-.46-1.33-1.02-1.46-1.91-.44-3.89.48-6.15-.42-.44-.17-5.9-4.46-6.47-5.05-1.29-1.33-3.54-5.67-5.07-7.2-3.43-3.42-16.44-5.38-21.56-5.93-4.74-.51-14.12-1.28-18.61-.8-4.05.43-3.44,1.51-5.78,3.5-3.92,3.32-5.81,5.25-9.17,9.46-1.56,1.96-3.06,4.74-5.26,6.43-1.63,1.24-8.15,2.35-10.17,2.2-1.4-.1-2.55-1.48-3.75-1.45s-2.11,1.61-4.43,1.53c-2-.06-3.96-2.01-5.84-1.61-.84.18-.99,3.06-3.09,3.03-3.69-3.17-6.32-1.35-9.6-1.56-5.8-.37-11.21-1.69-17.12-.63-1.34.24-2.22,1.63-3.7,1.48-1.16-.12-1.97-1.48-3.73-1.56-3.95-.16-6.25,2.65-8.24,3.02-2.41.44-4.54-.97-6.6-.75-1.39.15-2.64,1.51-3.8,1.48-1.51-.03-2.14-1.95-3.06-2.13-1.04-.2-2.05,1.14-2.99,1.24-1.1.11-2.3-1.15-3.63-1.3-5.75-.65-7.97,1.95-12.59,2.19-7.95.42-16.45-2.26-25.3-1.53-3.48.29-7.23,1.64-11.05,1.54-.45-.01-.33-1.34-.93-1.49s-5.96-.76-6.52-.73c-2.97.18-7.9,4.37-10.8,1.79-.64-.57-.85-2.94-2.23-1.81-.16.13-.07,1.84-1.21,2.18s-2.48-.56-3.64-.55c-6.3.08-11.46-1.79-17.21-2.26-.94-.08-1.64,1.21-2.71,1.21-1.38,0-3.87-1.77-5.51-1.91-2.15-.18-5.09.77-7.99.56-3.2-.22-6.47-2.11-8.93-2.27-2.12-.14-3.99.98-5.87.79-.86-.08-10.71-3.23-11.8-3.72-1.78-.81-4.05-6.35-4.8-6.68-3.79-1.65-7.75-1.13-11.71-.73-1.4.14-3-.9-2.59,1.46-.99-.03-1.98.02-2.97,0,.41-2.24-1.14-1.44-2.57-1.49-3.72-.12-8.52.5-11.96.04-2.38-.32-6.01-2.61-8.18-2.97-2.03-.34-4.83.44-6.53-.15-.95-.33-1.2-1.85-2.53-2.67-3.02-1.88-6.92-1.09-10.01-2.65-.36-.18-5.86-4.71-6.11-5.02-.39-.49-.19-1.6-.63-2.02-.37-.36-1.53,0-1.84-.29-.43-.4-.34-2.99-.79-4.07-.38-.9-1.24-1.07-1.32-1.28-1.8-4.81-1.48-10.21-4.69-14.12-.6-.73-1.7-.37-2.03-.69-5.52-5.46-8.9-10.11-13.65-15.96-8.44-10.4-31.67-28.46-43.77-35.59-2.25-1.33-6.2-3.95-8.72-5.32s-7.23-1.49-7.56-1.72c-.3-.22-.32-1.44-.85-1.77-1.08-.67-2.44-.09-3.2-.41-.67-.28-.53-1.3-1.05-1.43-2.36-.59-3.4.53-4.69.72-.7.1-1.54-.12-2.23,0-2.32-.97-8.38-1.27-10.63-.73-.25.06-2.43,1.13-4.39,1.67-9.58,2.66-17.66,7.24-27.73,4.32-1.79-.52-10.44-6.39-12.24-7.85-5.12-4.16-7.32-8.28-11.12-12.46-2.36-2.59-7.67-8.22-10.86-8.71-2.28-.35-3.47.71-4.02.71-3.46.03-8.27-1.36-11.15-.74-2.87-3.54-13.45,3.29-15.67,5.57-.48.5-.03,1.44-.22,1.68-2.53,3.1-5.96,4.94-3.43,9.85l-2.1.1c-.2,1.15-.54,2.32-.68,3.48-.27,2.2-.75,3.81-1.87,6.28-6.79,15-18.03,25.38-32.62,34.27-7.49,4.57-20.11,8.18-25.56,13.84-3.66,3.8-5.62,9.21-7.92,13.65-.55,1.05-1.92,1.15-2.34,2.14-.52,1.26-.28,3.87-.6,4.22-.25.27-1.62-.23-2.18.52-.6.81-.67,3.06-1.39,4.23-7.91,12.84-27.03,21.34-41.44,24.89-1.28.31-2.59.02-3.86.26l-.45,2.2c-2.58.16-5.6-.43-8.1,0-6.74,1.12-15.63,4-21.89,7.09-2.66,1.31-3.92,4.16-7.5,3.28,1.18,2.84.46,2.46-1.13,4.48-1.99-.08-4.7-4.94-6.03-5.18s-2.05,2.25-3.6,2.2c-1.06-.03-1.89-1.46-2.98-1.49-1.19-.04-2.21,1.34-3.59,1.3-1.86-.06-4.08-2.27-6.05-2.08-2.1.21-2.65,3.3-5.2,3.04-1.7-.18-1.98-2.34-5.23-2.35-4.2-.02-8.29,5.36-9.75-.71-2.3-.65-6.19.83-7.97.56-2.35-.35-14.06-3.46-14.99-3.44-1.78.03-3.76,2.37-6.6.74l-1.21,2.93c-2.97-1.74-5.7-1.01-8.5-1.52-1.22-.22-2.04-1.26-3.71-1.49-5.2-.73-7.15,2.22-10.34,2.21-4.19,0-8.62-3.65-12.75-3.53-2.24.06-4.46,2.45-5.88,2.1l-1.54-4.46c-.56,0-4.54,1.44-4.68,1.65-.65.96.56,3.39-2,3.61-2.06.17-6.3-3.02-9.08-3.59-8.11-1.64-22-4.29-30.14-2.38-1.52.36-8.5,5.64-9.22,5.8-1.01.23-2.3-.57-3.94-.33-3.51.53-4.9,3.02-5.63,3.25-4.02,1.26-14.22-1.56-18.61-1.96-4.11-.37-9.36-1.24-10.81,3.49-2.6,1.53-4.99-2.81-6.17-2.91-4.38-.37-5.01,2.3-5.32,2.34-1.59.18-4.09-1.4-5.91-1.46-2.1-.07-4.04,1.29-5.94,1.36-8.93.3-17.83-2.16-26.68-2.23-3.21-.03-7.64,1.84-10.34,1.55-3.99-.43-7.16-1.02-11.6-.45-2.96.38-7.62,3.25-10.06,3.41-1.87.12-3.39-1.35-5.04-1.26-1.5.08-3.13,1.39-5.34,1.36-3.24-.04-10.34-2.94-15.57-3.11-6.78-.22-11.62-.01-18.48-.92s-18.07.24-23.67-2.07c-1.75-.72-2.28-2.39-6.24-2.83-16.35-1.81-23.04,3.47-38.53-6.79-8.92-5.91-19.97-16.2-25.42-24.74-.65-1.02-.49-2.62-1.35-3.52-.98-1.02-1.91-.47-2.61-.71.91-6.83-1.66-7.05-4.39-11.76-5.71-9.84-12.87-18.58-17.24-29.27-.28-.69-1.41-.64-1.41-1.03,0-.79.85-1.78.79-2.79-.02-.37-3.37-2.34-3.66-3.21-.49-1.51.63-3.14.14-4.53-.27-.77-1.38-.78-1.67-1.5-.58-1.46-.34-3.48-1.07-5.12-.25-.56-2.56-1.69-2.67-2.27-.3-1.59.33-3.51-.02-4.89-.16-.66-1.56-.78-2.1-1.74-.63-1.11-.47-2.74-1.3-3.93-.47-.67-11.82-9.36-13.04-10-1.02-.54-4.42-1.88-5.48-2-1.95-.23-3.18.79-3.36.8-1.73.1-4.57-.35-5.94,0-.02-1.79.68-2.61-1.71-2.09-4.93,1.06-10.59,6.94-14.82,9.71-10.84,7.1-23.96,14.07-33.03,23.08-1.18,1.17-2.44,3.34-4.57,5.46-9.26,9.21-20.92,22.38-30.6,30.32s-14.43,11.35-26.35,3.4c-3.16-2.11-2.55-3.34-3.55-4.29-.4-.38-1.61.06-2.08-.61-.55-.78-.34-2.23-1.47-3.6-2.01-2.45-5.47-3.21-8.47-3.42-11.02-.77-17.79,5.71-25.85,12.11-5.81,4.61-7.64,6.94-11.64,12.74-.17.24-4.55,2.37-5.08,2.91-2.58,2.67-4.42,6.93-7.32,9.68-3.1,2.94-8.64,10.42-11.95,12.44-.27.16-5.47,2.08-5.85,2.15-4.26.75-8.56-1.2-11.85-3.7-1.59-1.21-5.01-5.38-6.54-6.4-.78-.52-2.13-.09-3.12-.99-.62-.57-.74-2.17-1.52-2.94-5.18-5.17-12.51-4.83-18.31-7.51-1.37-.64-3.66-2.11-5.92-3.18-4.76-2.26-10.18-5.08-13.92-8.38-9.5-8.37-13.83-22.76-29.81-18.54-2.69.71-5.88,4.05-8.19,5.18-11.04,5.39-22.64,9.95-34.28,14.02-7.1,2.48-14.15,5.22-21.4,7.21v-139.74Z"/>
  <path class="cls-1" d="M1266.87,318.88c-.41-2.36,1.19-1.32,2.59-1.46,3.96-.41,7.92-.93,11.71.73.75.33,3.01,5.87,4.8,6.68,1.09.49,10.94,3.64,11.8,3.72,1.88.18,3.75-.93,5.87-.79,2.46.16,5.74,2.05,8.93,2.27,2.9.2,5.84-.75,7.99-.56,1.64.14,4.13,1.92,5.51,1.91,1.07,0,1.76-1.29,2.71-1.21,5.75.47,10.91,2.33,17.21,2.26,1.16-.01,2.47.9,3.64.55s1.05-2.05,1.21-2.18c1.38-1.12,1.59,1.24,2.23,1.81,2.89,2.58,7.83-1.61,10.8-1.79.56-.04,5.94.58,6.52.73s.47,1.48.93,1.49c3.82.1,7.57-1.25,11.05-1.54,8.85-.73,17.35,1.95,25.3,1.53,4.62-.24,6.85-2.84,12.59-2.19,1.33.15,2.53,1.42,3.63,1.3.94-.1,1.95-1.44,2.99-1.24.92.17,1.55,2.1,3.06,2.13,1.16.02,2.41-1.34,3.8-1.48,2.06-.22,4.18,1.19,6.6.75,2-.37,4.29-3.18,8.24-3.02,1.76.07,2.56,1.43,3.73,1.56,1.48.15,2.36-1.24,3.7-1.48,5.91-1.05,11.32.26,17.12.63,3.28.21,5.91-1.61,9.6,1.56,2.09.03,2.24-2.85,3.09-3.03,1.88-.4,3.84,1.55,5.84,1.61,2.32.07,3.29-1.5,4.43-1.53,1.2-.04,2.36,1.34,3.75,1.45,2.02.15,8.55-.95,10.17-2.2,2.2-1.69,3.69-4.46,5.26-6.43,3.35-4.21,5.24-6.14,9.17-9.46,2.35-1.99,1.73-3.07,5.78-3.5,4.49-.48,13.87.29,18.61.8,5.12.55,18.14,2.5,21.56,5.93,1.53,1.52,3.78,5.86,5.07,7.2.57.59,6.03,4.87,6.47,5.05,2.26.9,4.24-.02,6.15.42.55.13.45,1.32,1.02,1.46,1.68.41,9.16.65,11.72.79,1.39.07,5.53.26,6.4-.35l1.12-4.89c8.7-1.24,16.85,2.03,25.22,2.1,3.11.03,9.14-1.17,12.29-.29,1.22.34,2.3,2.23,3.99,1.98.71-.11.73-2.82,3.07-3.06,5.57,1.54,10.18,4.8,15.51.8,2.02,3.96,5.53,2.77,9.53,3.87,1.5.41,2.62,1.91,3.86,1.97,2.19.11,6.62-1.26,9.04-1.33,3.57-.1,9.91.97,13.13.52,1.15-.16,2.17-1.44,3.89-1.42,1.86.03,2.77,1.82,5.11,1.57s4.31-2.62,8.26-2.26c1.83.17,1.49,2.04,2.35,2.27,4.34,1.13,3.65-2.83,4.4-3.05,4.18.24,8.38-.1,12.49-.75,2.25-.36,7.13-3.89,7.12,1.55,1.49.33,1.98-1.45,3.33-1.48s3.09,1.96,5.09,1.53c1.24-.27,3.76-7.87,8.95-3.08.88.81.33,2.14.47,2.29.96.97,4.64-2.02,5.71-2.12,1.37-.12,1.92,1.76,2.98,2.05,1.87.51,2.69-1.76,4.16-2.37,2.92-1.21,6.33,1.8,9.11,2.4,4,.87,9.16-.07,12.5.26,1.63.16,4.26,2.4,6.85,2.7,3.13.37,5.58-.99,8.11-.76,2.3.21,4.32,3.47,4.81-.66-1.63-.11-3.57.91-2.98-1.88s3.15-1.74,5.22-1.85l.47,3.02c1.88,1.12,4.26-.16,5.65.12.89.18,1.45,1.29,3.13,1.37,1.78.08,7.5-1.11,8.82-.85.45.09,1.79,3.73,4.95,2.29l-.74-4.45c2.55.47,5.32-.49,7.67-.47,2.57.03,7.86,1.41,9.78,1.22,1.58-.16,2.12-2.06,3.76-2.27,3.37-.44,11.12.71,14.83.77,2.3.04,4.33-1.63,7.05-.36,1.08.51,1.73,2.61,3.22,2.48,1.57-.16,2.87-2.48,4-2.75,1.78-.43,3.66,1.59,5.64,1.25,1.24-.21,2.14-1.6,3.33-1.91,6.98-1.82,9.32,1.64,15.77.54-.03,29.57-.02,59.16.05,88.74l-3.02,1.94h-.74c-3.67-5.42-7.48-3.63-12.23-4.49-2.51-.46-7.1-2.62-9.65-2.98-4.12-.57-10.05.86-13.98-.14-2.48-.64-5.93-5.28-8.37-5.75-5.62-1.07-14.2.82-20.1.04-1.36-.18-.94-1.35-1.59-1.52-11.07-2.8-23.02-10.48-32.83-16.84-5.23-3.39-14.99-13.1-21.27-12.99-1.59.03-14.3,5.54-16.35,6.74-9.1,5.31-17.57,15.37-26.92,22.13-10.49,7.58-24.04,16.06-37.67,14.27-1.07-.14-1.9-1.2-3.05-1.41-7.09-1.3-11.54-1.18-17.46-6.33-4.33-3.76-8.93-13.05-13.9-14.32-4.36-1.11-8.9-1.71-13.23-3.86-1.22-.61-15.4-11.44-15.98-12.26-1.11-1.58-.35-3.04-.81-4.42-.35-1.05-1.92-.95-2.12-1.73-.41-1.56-1.13-9-1.51-11.71-.46-3.25.8-9.07.05-11.77-.2-.71-1.41-.76-1.76-1.34-.74-1.22-1.06-2.73-1.95-3.83-2.3-2.87-19-9.66-22.72-10.19-12.58-1.79-23.9.87-37.33-2.79-4.09-1.11-4.5-.87-7.97-3.96-8.88-7.88-4.72-9.75-19.11-12.82-5.03-1.07-10.71-1.98-15.84-2.73-7.74-1.14-12.85,1.79-17.69,7.47s-10.52,13.1-14.06,19.05c-1.61,2.71-12.86,8.73-15.42,11.91-2.88,3.56-6.85,11.42-9.45,14.33-12.67,14.19-40.07,22.55-58.56,20.08-3.47-.46-9.66-4.63-12.27-7.05-1.23-1.14-1.14-2.67-1.98-3.42-1.02-.91-9.07-7.07-9.64-7.24-3.89-1.15-5.14.96-7.98,1.36-6.32.89-16.39.54-21.77-2.83-9.18-5.73-11.63-13.84-23.8-16.33-6.68-1.37-15.93.75-22.79-.25-4.07-.59-14.93-3.46-18.91-4.87-6.36-2.26-14.06-6.85-18.95-11.52-2.06-1.97-7.85-10.39-9.65-11.12-3.12-1.27-6.74-.61-10.11-.69Z"/>
  <path class="cls-1" d="M0,295.1c7.25-1.99,14.31-4.73,21.4-7.21,11.64-4.07,23.24-8.63,34.28-14.02,2.32-1.13,5.51-4.47,8.19-5.18,15.98-4.22,20.32,10.17,29.81,18.54,3.74,3.3,9.15,6.12,13.92,8.38,2.26,1.07,4.54,2.55,5.92,3.18,5.8,2.68,13.13,2.35,18.31,7.51.78.78.9,2.38,1.52,2.94.99.9,2.34.47,3.12.99,1.53,1.02,4.95,5.2,6.54,6.4,3.29,2.5,7.59,4.45,11.85,3.7.38-.07,5.59-1.98,5.85-2.15,3.31-2.01,8.85-9.5,11.95-12.44,2.9-2.75,4.74-7.01,7.32-9.68.52-.54,4.91-2.67,5.08-2.91,4-5.8,5.83-8.12,11.64-12.74,8.07-6.4,14.83-12.88,25.85-12.11,2.99.21,6.45.97,8.47,3.42,1.13,1.37.92,2.82,1.47,3.6.47.67,1.68.24,2.08.61,1.01.96.39,2.18,3.55,4.29,11.92,7.96,16.48,4.69,26.35-3.4s21.34-21.11,30.6-30.32c2.13-2.12,3.39-4.29,4.57-5.46,9.07-9.01,22.19-15.98,33.03-23.08,4.23-2.77,9.89-8.65,14.82-9.71,2.39-.51,1.69.3,1.71,2.09-5.41,1.38-13.19,9.23-18.23,12.61-2.07,1.38-4.59,1.72-6.22,2.7-21.44,12.93-38.05,36.33-56.49,52.73-1.23,1.09-8.85,7.07-9.74,7.38-4.68,1.58-17.3.51-21.78-1.93-6.6-3.59-10.09-16.67-19.1-13.69-1.27.42-1.96,1.69-3,2.2-17.06,8.35-27.57,21.68-39.43,35.67-2.91,3.43-13.02,14.18-16.78,15.14-3.11.79-12.16.27-14.84-1.52-.51-.34-.66-1.53-1.3-2.01-6.18-4.52-13.94-14.6-21.03-16.9-7.56-2.46-16.42-4.22-23.45-8.5-8.47-5.16-14.49-15.99-21.98-21.85-.87-.68-4.02-2.43-4.96-2.56-3-.38-17.18,8.06-21.21,9.92-9.73,4.49-19.24,7.54-29.03,11.1-6.66,2.42-13.68,6.62-20.64,7.22v-2.97Z"/>
  <path class="cls-4" d="M1919.26,0h.74v417h-3.72l3.02-1.94c-.07-29.58-.08-59.17-.05-88.74.05-56.48,0-113,0-169.48V0Z"/>
  <path class="cls-1" d="M1026.87,196.24c-2.04.44-13.64,7.56-14.65,9.13-.47.73-.39,2.31-1.18,3.65-.73,1.24-2.64,2.15-2.75,2.61-1.43,5.6.1,6.28-3.3,12.11-1.52,2.61-1.22,6.46-1.89,9.13-.12.46-5.34,6.07-6.17,7.01-7.09,7.99-21.15,18.55-30.81,23.8-6.65,3.62-15.98,5.52-20.52,12.18-2.78,4.08-6.02,9.58-8.37,13.96-3.3,6.16-7,13.28-12.85,18.31-4.49,3.87-15.95,9.82-21.59,11.87-17.06,6.19-45.56,6.07-55.25,23.16-6.53,11.51-13.01,23.71-25.51,30.59-6.26,3.44-17.94,4.3-24.91,2.91-5.68-1.14-17.55-11.32-21.84-11.69-2.21-.19-3.07,1.25-5.08,1.53-5.88.83-13.22.23-18.27-1.87-.7-.29-14.35-1.27-15.11-1.18-.5.06-.4,1.4-.96,1.53-3.44.85-11.11-5.3-14.46-6.99-5.2-2.61-10.84-3.03-15.07-7.96-3.23-3.76-1.98-8.06-4.41-11.57-1.23-1.78-7.1-6.44-9.18-7.54-4.81-2.54-7.03-2.12-11.62.72-6.47,3.99-7.81,8.24-12.48,12.79s-10.19,6.32-14.75,9.79c-7.7,5.86-9.05,10.89-20.07,14.84-4.95,1.78-11.26,2.23-15.83,3.49-2.73.75-12.14,10.28-15.87,12.37-7.16,3.99-10.78,2.71-17.67,3.88s-14.66,9.07-22.38,10.32c-8.86,1.43-9.81-2.87-16.04-6.91-1.08-.7-4.73-1.91-4.94-2.17-.46-.56,0-1.71-.16-2.03-.11-.22-1.73.66-2.46.52-4.99-.96-33.27-18.38-36.86-22.5-1.31-1.51-1.55-3.73-2.57-5.24-.53-.79-4.1-4.22-4.18-4.52-.98-3.56.74-8.86-1.9-13.57-.26-.47-1.27-.6-1.54-1.02-3.65-5.61-10.03-9.99-16.94-10.94-9.95-1.37-19.72,1.7-30.1-1.85-1.38-.47-21.72-16.26-23.08-17.8-2.96-3.34-6.12-8.91-8.42-12.77-.29-.48-1.6-.61-1.89-1.48-.52-1.52.55-2.39.67-3.24-5.4-1.89-2.86-3.66-4.88-7.41-.58-1.07-4.91-4.82-5.14-5.23-2.23-3.89-5.14-11.65-8.06-15.35-6.62-8.4-6.27-10.64-9.52-20.61-.29-.88-5.54-8.57-5.72-9.1-.73-2.15-.31-7.64-1.81-10.49-.46-.87-11.67-9.95-13.22-10.92-2.76-1.72-5.86-2.1-8.12-4.14.17-.01,1.41-1.03,3.36-.8,1.06.12,4.46,1.46,5.48,2,1.22.64,12.57,9.33,13.04,10,.83,1.19.67,2.82,1.3,3.93.55.97,1.94,1.09,2.1,1.74.34,1.38-.29,3.3.02,4.89.11.58,2.42,1.71,2.67,2.27.73,1.64.49,3.67,1.07,5.12.29.72,1.4.73,1.67,1.5.49,1.39-.64,3.02-.14,4.53.28.87,3.63,2.84,3.66,3.21.06,1.01-.8,2.01-.79,2.79,0,.39,1.13.34,1.41,1.03,4.37,10.69,11.53,19.43,17.24,29.27,2.73,4.71,5.3,4.93,4.39,11.76.7.24,1.63-.31,2.61.71.86.9.7,2.5,1.35,3.52,5.44,8.54,16.5,18.83,25.42,24.74,15.49,10.26,22.19,4.98,38.53,6.79,3.96.44,4.49,2.11,6.24,2.83,5.6,2.3,16.78,1.16,23.67,2.07s11.7.69,18.48.92c5.23.17,12.34,3.06,15.57,3.11,2.2.03,3.83-1.28,5.34-1.36,1.65-.09,3.17,1.38,5.04,1.26,2.44-.16,7.1-3.03,10.06-3.41,4.43-.57,7.6.02,11.6.45,2.69.29,7.12-1.58,10.34-1.55,8.86.07,17.75,2.53,26.68,2.23,1.9-.06,3.85-1.42,5.94-1.36,1.82.06,4.32,1.63,5.91,1.46.31-.03.94-2.7,5.32-2.34,1.18.1,3.58,4.44,6.17,2.91,1.44-4.72,6.69-3.86,10.81-3.49,4.39.4,14.59,3.22,18.61,1.96.73-.23,2.12-2.72,5.63-3.25,1.64-.25,2.93.55,3.94.33.72-.16,7.7-5.44,9.22-5.8,8.14-1.91,22.03.74,30.14,2.38,2.78.56,7.02,3.76,9.08,3.59,2.57-.22,1.36-2.65,2-3.61.14-.21,4.12-1.64,4.68-1.65l1.54,4.46c1.43.36,3.64-2.03,5.88-2.1,4.14-.11,8.57,3.53,12.75,3.53,3.19,0,5.14-2.94,10.34-2.21,1.67.23,2.48,1.27,3.71,1.49,2.8.51,5.53-.22,8.5,1.52l1.21-2.93c2.84,1.63,4.82-.71,6.6-.74.93-.01,12.64,3.09,14.99,3.44,1.78.27,5.66-1.21,7.97-.56,1.46,6.07,5.55.69,9.75.71,3.24.01,3.53,2.18,5.23,2.35,2.55.26,3.1-2.83,5.2-3.04,1.97-.19,4.19,2.02,6.05,2.08,1.37.04,2.39-1.34,3.59-1.3,1.09.04,1.92,1.46,2.98,1.49,1.55.04,2.28-2.43,3.6-2.2s4.05,5.1,6.03,5.18c1.58-2.02,2.3-1.64,1.13-4.48,3.58.88,4.84-1.96,7.5-3.28,6.26-3.09,15.15-5.97,21.89-7.09,2.5-.42,5.52.17,8.1,0l.45-2.2c1.27-.24,2.59.05,3.86-.26,14.41-3.55,33.53-12.05,41.44-24.89.72-1.17.79-3.42,1.39-4.23.56-.75,1.93-.24,2.18-.52.33-.35.08-2.96.6-4.22.41-.99,1.79-1.09,2.34-2.14,2.3-4.44,4.26-9.85,7.92-13.65,5.45-5.66,18.06-9.27,25.56-13.84,14.59-8.89,25.83-19.27,32.62-34.27,1.12-2.47,1.6-4.08,1.87-6.28.14-1.15.48-2.33.68-3.48l2.1-.1c-2.54-4.91.89-6.75,3.43-9.85.19-.23-.26-1.18.22-1.68,2.22-2.28,12.8-9.11,15.67-5.57Z"/>
  <path class="cls-1" d="M1121.24,220.02c1.29-.19,2.33-1.31,4.69-.72.52.13.38,1.14,1.05,1.43.76.32,2.11-.26,3.2.41.52.32.54,1.55.85,1.77.32.23,5.03.35,7.56,1.72s6.47,3.99,8.72,5.32c12.1,7.14,35.33,25.2,43.77,35.59,4.75,5.85,8.13,10.51,13.65,15.96.33.33,1.43-.04,2.03.69,3.2,3.91,2.89,9.3,4.69,14.12.08.21.94.38,1.32,1.28.45,1.08.36,3.67.79,4.07.31.29,1.47-.07,1.84.29.44.42.23,1.53.63,2.02.25.31,5.75,4.84,6.11,5.02,3.09,1.56,6.99.77,10.01,2.65,1.33.82,1.58,2.34,2.53,2.67,1.7.6,4.5-.18,6.53.15,2.17.36,5.79,2.65,8.18,2.97,3.44.46,8.24-.16,11.96-.04,1.43.05,2.98-.76,2.57,1.49-5.71-.09-14.46.82-19.64-.05-4.13-.69-19.15-5.91-23.44-7.77-.61-.26-9.89-7.79-10.2-8.38-.9-1.72-.72-3.49-1.37-4.61-.32-.55-1.64-.53-1.83-1.27-.47-1.75.28-4.67-.2-7.08-1.47-7.42-12.34-11.81-14.43-16.79-.36-.85.03-2.1-.41-2.93-1.22-2.29-9.01-7.18-11.44-9.36-12.29-11-27.24-25.15-42.08-32.61-5.75-2.89-12.16-4.52-17.62-8.02Z"/>
  <path class="cls-1" d="M1038.02,196.98c.55,0,1.74-1.06,4.02-.71,3.19.49,8.5,6.12,10.86,8.71,3.8,4.17,6,8.3,11.12,12.46,1.8,1.47,10.45,7.33,12.24,7.85,10.07,2.92,18.15-1.66,27.73-4.32,1.96-.54,4.14-1.61,4.39-1.67,2.25-.54,8.32-.24,10.63.73-11.88,2.02-32.14,11.33-43.31,8.02-.86-.25-9.55-4.72-10.85-5.5-8.35-4.99-12.43-13.97-18.71-20.68-2.43-2.6-5.93-2.49-8.12-4.88Z"/>
</svg>