<?xml version="1.0" encoding="UTF-8"?>
<svg id="Sky" xmlns="http://www.w3.org/2000/svg" xmlns:xlink="http://www.w3.org/1999/xlink" viewBox="0 0 310.46 215.71">
  <defs>
    <style>
      .cls-1 {
        fill: url(#linear-gradient-2);
      }

      .cls-2 {
        opacity: .2;
      }

      .cls-3 {
        fill: none;
      }

      .cls-4 {
        fill: url(#linear-gradient-4);
      }

      .cls-5 {
        fill: url(#linear-gradient-3);
      }

      .cls-6 {
        fill: url(#linear-gradient-5);
      }

      .cls-7 {
        fill: url(#linear-gradient-8);
      }

      .cls-8 {
        fill: url(#linear-gradient-7);
      }

      .cls-9 {
        fill: url(#linear-gradient-6);
      }

      .cls-10 {
        fill: url(#linear-gradient);
      }

      .cls-11 {
        clip-path: url(#clippath);
      }
    </style>
    <clipPath id="clippath">
      <rect class="cls-3" x="22.05" y="16.04" width="261.76" height="169.12"/>
    </clipPath>
    <linearGradient id="linear-gradient" x1="244.33" y1="172.14" x2="244.33" y2="94.95" gradientTransform="translate(0 204.08) scale(1 -1)" gradientUnits="userSpaceOnUse">
      <stop offset="0" stop-color="#56889b"/>
      <stop offset=".24" stop-color="#749da8"/>
      <stop offset=".75" stop-color="#c1d3c9"/>
      <stop offset="1" stop-color="#e9efdb"/>
    </linearGradient>
    <linearGradient id="linear-gradient-2" x1="157.73" y1="172.14" x2="157.73" y2="94.95" gradientTransform="translate(0 204.08) scale(1 -1)" gradientUnits="userSpaceOnUse">
      <stop offset="0" stop-color="#56889b"/>
      <stop offset=".24" stop-color="#749da8"/>
      <stop offset=".75" stop-color="#c1d3c9"/>
      <stop offset="1" stop-color="#e9efdb"/>
    </linearGradient>
    <linearGradient id="linear-gradient-3" x1="169.99" y1="172.14" x2="169.99" y2="94.95" gradientTransform="translate(0 204.08) scale(1 -1)" gradientUnits="userSpaceOnUse">
      <stop offset="0" stop-color="#56889b"/>
      <stop offset=".24" stop-color="#749da8"/>
      <stop offset=".75" stop-color="#c1d3c9"/>
      <stop offset="1" stop-color="#e9efdb"/>
    </linearGradient>
    <linearGradient id="linear-gradient-4" x1="111.12" y1="172.14" x2="111.12" y2="94.95" gradientTransform="translate(0 204.08) scale(1 -1)" gradientUnits="userSpaceOnUse">
      <stop offset="0" stop-color="#56889b"/>
      <stop offset=".24" stop-color="#749da8"/>
      <stop offset=".75" stop-color="#c1d3c9"/>
      <stop offset="1" stop-color="#e9efdb"/>
    </linearGradient>
    <linearGradient id="linear-gradient-5" x1="64.82" y1="172.14" x2="64.82" y2="94.95" gradientTransform="translate(0 204.08) scale(1 -1)" gradientUnits="userSpaceOnUse">
      <stop offset="0" stop-color="#56889b"/>
      <stop offset=".24" stop-color="#749da8"/>
      <stop offset=".75" stop-color="#c1d3c9"/>
      <stop offset="1" stop-color="#e9efdb"/>
    </linearGradient>
    <linearGradient id="linear-gradient-6" x1="78.78" y1="172.14" x2="78.78" y2="94.95" gradientTransform="translate(0 204.08) scale(1 -1)" gradientUnits="userSpaceOnUse">
      <stop offset="0" stop-color="#56889b"/>
      <stop offset=".24" stop-color="#749da8"/>
      <stop offset=".75" stop-color="#c1d3c9"/>
      <stop offset="1" stop-color="#e9efdb"/>
    </linearGradient>
    <linearGradient id="linear-gradient-7" x1="153.59" y1="188.99" x2="153.59" y2="93" gradientTransform="translate(0 204.08) scale(1 -1)" gradientUnits="userSpaceOnUse">
      <stop offset="0" stop-color="#56889b"/>
      <stop offset=".24" stop-color="#749da8"/>
      <stop offset=".75" stop-color="#c1d3c9"/>
      <stop offset="1" stop-color="#e9efdb"/>
    </linearGradient>
    <linearGradient id="linear-gradient-8" x1="201.71" y1="135.28" x2="201.71" y2="110.14" gradientTransform="translate(0 204.08) scale(1 -1)" gradientUnits="userSpaceOnUse">
      <stop offset=".18" stop-color="#fffdd9"/>
      <stop offset="1" stop-color="#6f99a6"/>
    </linearGradient>
  </defs>
  <g class="cls-11">
    <g>
      <g class="cls-2">
        <path class="cls-10" d="M283.88,36.43c-2.89-.49-6.29-.46-9.33-.1.02-.01.03-.03.04-.05.65-.8-.52-1.37-1.61-1.85-1.83-.81-5.11-.73-7.3-.06,1.71-1.71,1.62-3.91-1.31-5.27-2.83-1.31-7.35-1.11-10.77-.91-4.82.28-9.37,1.22-13.05,3-.71.34-1.38.72-1.98,1.12-.51-.08-1.05-.12-1.56-.14-2.42-.09-4.85.42-6.9,1.07-1.57.5-2.53,1.23-2.7,2.15-.09-.02-.18-.02-.26-.03-1.32-.11-2.68-.14-4.01-.12-3.25.03-6.48.3-9.67.64-2.91.31-5.66.68-8.42,1.32-1.05.25-3.24,1-2.68,1.79.64.92,4.19.73,5.45.71,2.81-.06,5.37-.61,8.01-1.03-.26.25-.34.54-.18.89.41.91,2.92,1.03,4.22,1.1.78.04,1.54-.02,2.31-.06l2.34.51c.76.39,2.15.55,2.95.65,4.2.53,9.23.5,13.42,0,2.18-.26,4.48-.48,6.55-.96,1.41-.33,2.37-1.07,3.17-1.77.9.53,1.25,1.08,2.58,1.38,1.52.35,3.44.39,5.07.45,3.19.13,6.23-.06,9.21-.7.52-.11,1.18-.28,1.8-.5,1.33.03,2.68-.01,3.92-.06,2.12-.08,4.25-.08,6.38-.17,1.69-.07,3.61-.05,5.09-.57.68-.24,1.53-.59,1.68-1.06.24-.82-1.31-1.17-2.48-1.37Z"/>
        <path class="cls-1" d="M186.14,56.04c-2.08-.35-4.52-.33-6.71-.07.01-.01.02-.02.03-.03.47-.58-.37-.98-1.16-1.33-1.32-.58-3.67-.52-5.24-.04,1.23-1.23,1.16-2.81-.94-3.79-2.04-.94-5.28-.8-7.74-.65-3.47.2-6.73.88-9.38,2.15-.51.24-.99.51-1.43.81-.37-.06-.75-.08-1.12-.1-1.74-.07-3.48.3-4.96.77-1.13.36-1.82.88-1.94,1.55-.07-.01-.13-.02-.19-.02-.94-.08-1.93-.1-2.88-.09-2.34.02-4.66.21-6.95.46-2.09.22-4.07.49-6.05.95-.76.18-2.33.72-1.92,1.29.46.66,3.01.53,3.91.51,2.01-.04,3.86-.44,5.76-.74-.19.18-.24.39-.13.64.29.65,2.1.74,3.04.79.56.03,1.11-.02,1.66-.04l1.68.37c.54.28,1.54.39,2.12.47,3.01.38,6.63.36,9.64,0,1.57-.19,3.22-.34,4.71-.69,1.01-.24,1.7-.77,2.28-1.27.65.38.9.77,1.85.99,1.1.25,2.48.28,3.64.33,2.29.09,4.47-.04,6.62-.5.37-.08.84-.2,1.29-.36.95.02,1.92,0,2.82-.04,1.53-.06,3.06-.06,4.59-.12,1.21-.05,2.59-.04,3.66-.41.49-.17,1.1-.43,1.21-.77.17-.59-.94-.84-1.78-.99Z"/>
        <path class="cls-5" d="M184.86,41.28c-1.1-.16-2.38-.12-3.52.04,0,0,.01-.01.02-.02.22-.31-.23-.51-.66-.68-.71-.29-1.94-.23-2.75.04.6-.66.5-1.49-.64-1.98-1.1-.47-2.8-.36-4.09-.25-1.81.15-3.5.54-4.84,1.24-.26.13-.5.28-.71.44-.2-.02-.4-.03-.59-.04-.91-.01-1.82.2-2.57.46-.58.2-.92.49-.96.83-.04,0-.07,0-.1,0-.5-.03-1.01-.03-1.51-.01-1.23.04-2.43.17-3.63.32-1.1.14-2.12.31-3.14.57-.39.1-1.2.4-.96.7.26.34,1.6.24,2.07.22,1.06-.05,2.01-.28,2.99-.45-.1.1-.12.21-.05.33.18.34,1.13.37,1.62.38.29,0,.58-.02.87-.04l.89.17c.3.14.83.19,1.14.22,1.6.17,3.49.11,5.06-.11.82-.12,1.68-.22,2.44-.42.52-.14.87-.42,1.15-.69.35.19.5.39,1.01.5.59.12,1.31.12,1.92.13,1.21.02,2.35-.07,3.46-.34.19-.05.43-.11.66-.2.5,0,1.01-.03,1.48-.06.8-.05,1.6-.06,2.4-.11.64-.04,1.36-.05,1.9-.26.25-.09.56-.24.6-.42.06-.31-.52-.43-.97-.49Z"/>
        <path class="cls-4" d="M130.28,47.1c-1.4-.28-3.05-.27-4.52-.06,0,0,.01-.02.02-.03.31-.47-.25-.8-.78-1.08-.89-.47-2.48-.42-3.54-.03.83-.99.78-2.27-.63-3.06-1.37-.76-3.56-.65-5.22-.53-2.34.16-4.54.71-6.32,1.74-.34.2-.67.42-.96.65-.25-.04-.51-.07-.75-.08-1.17-.06-2.35.24-3.35.62-.76.29-1.23.71-1.31,1.25-.05,0-.09-.01-.13-.02-.64-.06-1.3-.08-1.94-.07-1.58.02-3.14.17-4.69.37-1.41.18-2.74.4-4.08.76-.51.14-1.57.58-1.3,1.04.31.53,2.03.43,2.64.41,1.36-.03,2.6-.36,3.88-.6-.13.15-.16.31-.09.51.2.53,1.42.6,2.05.64.38.02.75-.01,1.12-.03l1.14.3c.37.22,1.04.32,1.43.38,2.03.31,4.47.29,6.5,0,1.06-.15,2.17-.28,3.17-.56.68-.19,1.15-.62,1.54-1.02.44.31.61.62,1.25.8.74.2,1.67.22,2.46.26,1.55.08,3.02-.03,4.46-.41.25-.06.57-.17.87-.29.64.02,1.3,0,1.9-.03,1.03-.05,2.06-.05,3.09-.1.82-.04,1.75-.03,2.47-.33.33-.14.74-.35.81-.62.12-.47-.63-.68-1.2-.79Z"/>
        <path class="cls-6" d="M99.88,36.34c-2.57-.44-5.58-.43-8.28-.13.01-.01.03-.03.04-.04.57-.7-.47-1.2-1.45-1.63-1.64-.71-4.54-.66-6.47-.09,1.49-1.48,1.39-3.41-1.21-4.61-2.53-1.16-6.54-1-9.56-.84-4.28.22-8.3,1.02-11.55,2.56-.63.29-1.22.62-1.75.97-.46-.07-.93-.11-1.38-.13-2.15-.09-4.29.34-6.11.9-1.39.43-2.23,1.06-2.37,1.87-.08-.01-.16-.02-.23-.03-1.17-.1-2.38-.13-3.56-.13-2.88.01-5.75.23-8.57.51-2.58.26-5.01.57-7.45,1.11-.93.21-2.86.86-2.36,1.55.58.81,3.72.66,4.84.64,2.49-.04,4.75-.51,7.09-.86-.23.22-.29.47-.15.77.37.8,2.6.92,3.76.98.69.04,1.37-.01,2.05-.04l2.08.46c.67.34,1.91.49,2.63.58,3.73.48,8.19.48,11.91.06,1.93-.21,3.97-.39,5.8-.81,1.24-.28,2.09-.92,2.8-1.53.81.46,1.12.94,2.3,1.22,1.36.31,3.06.35,4.5.42,2.83.13,5.52-.02,8.16-.57.46-.09,1.04-.24,1.59-.43,1.18.04,2.37,0,3.48-.03,1.89-.06,3.77-.05,5.66-.12,1.5-.05,3.2-.03,4.51-.48.6-.2,1.35-.51,1.47-.92.2-.71-1.17-1.03-2.21-1.21Z"/>
        <path class="cls-9" d="M82.52,48.97c-.28-.05-.6-.04-.89.01,0,0,0,0,0,0,.06-.09-.06-.15-.17-.21-.18-.09-.49-.07-.69.01.15-.2.13-.45-.16-.6-.28-.14-.71-.11-1.03-.08-.46.04-.88.16-1.22.37-.07.04-.13.08-.18.13-.05,0-.1,0-.15-.01-.23,0-.46.06-.65.14-.15.06-.23.15-.24.25,0,0-.02,0-.03,0-.12,0-.26,0-.38,0-.31.01-.61.05-.91.1-.28.04-.53.09-.79.17-.1.03-.3.12-.24.21.07.1.4.07.52.07.27-.01.51-.08.76-.14-.02.03-.03.06-.01.1.04.1.28.11.41.12.07,0,.15,0,.22-.01l.22.05c.07.04.21.06.29.07.4.05.88.03,1.28-.03.21-.03.42-.06.62-.12.13-.04.22-.13.29-.21.09.06.13.12.25.15.15.04.33.04.48.04.31,0,.59-.02.87-.1.05-.01.11-.03.17-.06.13,0,.25,0,.37-.02.2-.01.4-.02.6-.03.16-.01.34-.01.48-.08.06-.03.14-.07.15-.13.02-.09-.13-.13-.25-.15Z"/>
      </g>
      <g>
        <rect class="cls-8" x="19.13" y="12.46" width="268.91" height="118.24"/>
        <path class="cls-7" d="M214.86,75.98c0,7.26-5.88,13.15-13.15,13.15s-13.15-5.89-13.15-13.15,5.89-13.15,13.15-13.15,13.15,5.89,13.15,13.15Z"/>
      </g>
    </g>
  </g>
</svg>