<?xml version="1.0" encoding="UTF-8"?>
<svg id="Layer_1" data-name="Layer 1" xmlns="http://www.w3.org/2000/svg" viewBox="0 0 1503 366">
  <defs>
    <style>
      .cls-1 {
        fill: #2f3c6b;
      }

      .cls-2 {
        fill: #fefefe;
      }
    </style>
  </defs>
  <path class="cls-1" d="M0,102.75c9.9-5.46,20.59-9.43,30.5-14.87,5.82-3.19,15.59-11.09,20.7-13.04,9.42-3.6,14.64,9.65,19.75,15.84,10.99,13.32,18.83,10.85,29.48,19.27,5.98,4.72,12.12,19.93,21.08,17.26.51-.15,7.44-6.16,8.15-6.9,2.58-2.68,5.59-6.6,7.39-9.86,4-7.2,8.75-15.19,14.03-21.97,2.07-2.66,5.18-3.57,6.75-5.25,2.82-3.02,3.91-6.25,8.69-8.56,2.75-1.33,9.27-1.58,11.94,0s2.02,5.87,2.48,6.95c.19.45,6.45,5.91,7.34,6.47,2.95,1.87,5.66,3.21,9.28,2.63,2.8-.44,12.66-10.71,15.05-13.45,10.81-12.39,21.7-31.34,33.72-42.03,2.5-2.22,5.79-3.8,8.26-5.99,5.46-4.85,9.62-13.17,17.14-15.11,11.4-2.95,16.12,5.43,23.34,12.15,4.64,11.75,6.32,27.74,11.29,38.96,3.72,8.41,9.77,18.01,13.98,26.52,2.52,5.09,3.99,10.57,6.85,15.65,4.08,7.24,13.4,16.13,19.24,22.76,6.5,7.37,15.4,4.12,23.66,4.84,1.94.17,9.33,1.59,10.68,2.44,1.1.69,5.21,7.25,5.82,8.8,1.83,4.63,1.75,9.6,2.98,14.27,1.97,7.51,6.94,13.58,12.8,18.7,6.92,6.05,15.38,10.49,22.67,15.58,9.35,6.53,9.23,13.45,21.58,5.46,2.31-1.49,4.07-3.86,6.35-4.9,4.01-1.82,8.6-.93,13.26-3.24,5.06-2.49,6.66-6.45,10.34-9.91,7.2-6.75,16.14-6.49,23.89-12.11,3.75-2.72,17.26-16.3,20.39-20.11,3.95-4.81,8.39-15.11,15.17-16.33,4.1-.74,7.71.37,10.73,3.17,4.99,4.62,4.72,8.29,6.32,13.93,2.16,7.63,7.2,7.45,12.32,10.93,4.13,2.8,8.31,6.02,12.08,9.29-1.75.58-4.64-.95-5.98-.39-.66.28-9.62,9.24-10.19,10.1-1.28,1.93-.83,3.32-1.78,4.97-1.34,2.31-9.01,7.66-9.62,8.75-.45.81,0,2.33-.56,3.56-.23.52-5.5,8.16-6.37,9.39s-11.49,11.96-12.32,12.43c-1.86,1.04-3.47.37-4.94,1.07-1.15.55-11,7.58-13.89,9.35-6.35,3.9-25.6,20.71-29.41,21.59-4.14.95-5.07-.18-9.56,2.44-4.07,2.38-17.09,13.41-19.67,14.08-1.94.5-3.92-.12-5.79.21-1.22.22-2.06,1.27-3.74,1.51-5.54.77-13.38-1-18.75,0-1.29.24-10.14,5.8-12.49,7.01-7.39,3.84-12.5,8.35-19.5,12-1.06.56-2.58.34-3.62.88-11.35,5.98-19.18,18.38-33.49,18.26-5.24,2.6-19.26,21.01-23.21,21.79-2.95.59-6.79-1.16-9.55-2.41-11.14-5.03-21.43-14.54-32.11-19.64-5.16-2.46-9.01-2.58-14.23-6.77-6.85-5.51-10.64-16.67-18.02-20.23-1.08-.52-2.51-.35-3.62-.88-4.51-2.17-7.57-5.13-13-3.84-1.68.4-3.6,2.41-5.49,2.75-3.64.65-9.28-.77-12.55.2-2.33.69-7.39,8.23-9.86,9.64-2.99,1.71-8.84,3.48-12.59,5.41-6.04,3.11-3.49,1.68-9.91,2.84-3.96.71-10.12,3.88-13.58,4.42-13.89,2.17-33.22-1.94-47.25,0-2.22.31-2.98,1.65-5.95,1.6-3.69-.06-29.92-13.55-33.75-16.57-2.71-2.13-3.98-3.86-3.37-7.5-4.53,1.24-5.52-2.25-8.57-3.8-.65-.33-5.5-2.06-6.1-2.15-4.16-.65-11.91.98-15.32-.43s-4.78-11.68-8.6-13.9c-2.73-1.58-7.01-1.59-9.58-2.42-5.1-1.66-9.17-6.42-14.84-5.79,1.04,9.9-7.6,7.82-14.48,6.86-3.6,2.74-4.49,9.25-10.26,8.14V102.75Z"/>
  <path class="cls-1" d="M1434.75,366c-3.14-.77-2.06-2.72-3.17-4.7-1.39-2.5-5.7-8.7-8.11-9.89-4.08-2.01-10.83-2.31-15.13-3.62-4.71-1.44-9.24-3.95-13.88-5.66l-26.85,20.86c-4.2-.4-9.5.62-13.52.06-1.75-.25-2.67-1.33-4.42-1.58-3.79-.53-9.13.73-12.78.03-2.7-.52-6.97-5.4-8.42-5.83-4.11-1.22-12.97.45-17.86-.14-5.49-.66-10.85-7.51-12.16-12.58-.45-1.74.08-3.37-.22-4.9s-14.16-15.33-16.48-18.9c-1.78-2.74-1.18-5.9-2.68-8.57-5.17-9.26-22.8-10.76-31.98-13.77-5.82-1.91-6.56-4.89-10.96-7.79-13.07-8.61-22.73-10.77-37.45-14.3-3.39-.81-7.54-2.8-9.59-3.16-6.3-1.12-8.05-.66-13.77-4.98-5.2-3.93-6.36-5.56-12.47-9.28-15.83-9.64-30.55-19.45-45.4-30.35-6.71-4.93-13.02-9.89-19.5-15-2.35-1.86-9.16-5.03-9.67-7.57-2-10.02,3.24-6.86,8.6-7.87,1.44-.27,2.18-1.66,3.77-2.23,5.47-1.94,12.24,1.84,13.04-6.66-3.19-2.04-8.34-5.91-8.92-9.86l9.39,8.23c5.65,4.38,11.38,1.36,17.42.19,1.16-.22,2.32.65,3.94.26,18.01-4.32,23.46-20.46,32.69-32.63,2.86-3.77,7.54-6.87,10.37-10.63,4.63-6.15,8.15-15.26,12.71-21.79,1.62-2.32,4.12-6.15,6.9-6.6,5.27-.84,22.5,1.59,27.11,4.3,6.92,4.08,7.73,11.97,15.24,14.76,12.79,4.76,25,.74,36.27,5.73,4.9,2.17,11.47,6.52,12.74,12.01,1.4,6.05.88,15.43,2.03,21.97,2,11.35,12.59,20.15,22.66,24.59,1.53.67,3.23.38,4.71,1.29,2.43,1.5,6.66,11.2,9.68,14.32,3.88,4,16.83,8.82,22.1,7.06,2.53-.84,13.49-7.11,15.8-8.95,11.14-8.83,15.81-21.09,26.31-28.44,5.14-3.6,9.56-5.87,16.1-4.98,2.06.28,3.93,2.06,5.59,3.41,11.1,8.94,27.09,27.7,42.41,28.16,3.24.1,6-1.43,9.55-.61,3.11.72,5.06,5.25,8.76,6.24,3.39.91,5.71-.84,9.21-.23,1.37.24,13.01,3.71,13.84,4.17,2.28,1.27,2.25,3.57,4.72,3.9v122.25l-35.47-.6c-7.82,6.49-13.92,15.15-22.28,20.85h-10.5Z"/>
  <path class="cls-2" d="M1503,345.75v20.25h-57.75c8.36-5.7,14.46-14.36,22.28-20.85l35.47.6Z"/>
  <path class="cls-1" d="M801,0l.59.52.91-.52h13.5c-.12,2.56,2.63,2,3.79,3.33,2.97,3.42,5.46,10.06,8.33,14.17,4.78,6.84,12.49,14.13,21.27,14.04,1.79-.02,6.2-2.22,5.6.71-6.72.01-9.67,1.56-15.92-1.7-12.03-6.28-12.76-15.3-20.08-24.17-4.09-4.96-7.47-5.51-13.86-4.86-4.7.47-8.93,4.09-11.63,7.87-4.32,6.04-5.98,19.94-8.46,27.54-1.95,5.95-15.89,22.4-21.14,26.12-1.1.78-2.44.44-3.2.91-.51.32-1.61,2.66-3.3,3.83-2.3,1.59-4.42,1.33-5.91,1.97-1.37,3.65-2.32,2.15-4.53,4.09-12.38,10.84-12.95,27.33-22.47,39.03-2.67,3.28-3.65,2.26-5.79,3.58-1.22.75-4.11,6.14-7.7,5.79-.38-1.63.91-1.66,1.71-2.41,2.78-2.57,5.95-3.93,8.8-6.95,13.09-13.81,10.34-34.72,29.98-43.14,1.06-2.82,1.18-.91,3.27-2.34,9.38-6.42,23-20.14,28.06-30.45,4.18-8.5,4.2-21.75,9.37-29.63l7.3-7.33h1.5Z"/>
  <polygon class="cls-2" points="802.5 0 801.59 .52 801 0 802.5 0"/>
  <path class="cls-1" d="M959.25,116.24c-3.29.95-8-3.86-9.74-6.38-4.79-6.94-2.36-14.96-7.22-22.03-1.64-2.39-4.74-4.23-6.28-6.47-1.78-2.58-1.65-5-2.67-7.08-.84-1.72-5.19-4.89-6.75-6.75-13.83-16.51-26.74-30.63-45.98-41.05-.99-.53-2.04.39-1.61-1.73,1.4-.32,2.25.25,3.42.7,16.01,6.11,34.43,27.35,45.69,40.56,1.41,1.66,5.36,4.35,5.97,5.28.91,1.41,1.16,4.68,2.36,6.64,1.41,2.29,4.71,4.23,6.3,6.45,5.22,7.31,3.39,15.43,7.49,22.51,2.32,4.02,6.21,5.89,9.02,9.35Z"/>
  <path class="cls-1" d="M676.5,134.25c.54,2.59-1.68.93-2.83,1.65-.57.36-8.69,9.23-9.16,9.98-4.24,6.74-6.89,18.17-11.72,25.03-.77,1.09-1.73,2.53-3.28,2.33l14.67-29.94c3.5-3.57,7.01-8.23,12.32-9.05Z"/>
  <path class="cls-1" d="M999.38,123c4.37.77,4.82,5.2,6.94,8.06,3.15,4.27,7.97,10.7,12.94,12.2-.19,3.86-2.31.35-2.48.27-1.25-.57-2.17-.29-3.57-1.35-5.51-4.16-9.54-12.73-13.45-18.43h-26.25v-1.5c1.24-.58,2.85.75,3.38.75,6.12,0,17.1-.95,22.5,0Z"/>
  <path class="cls-1" d="M1076.25,170.25c-1.39,1.27-8.22-6.15-9.4-7.46-4.16-4.59-2.39-5.17-9.23-8.8-1.01-.53-2.03.38-1.61-1.73,1.43-.32,2.23.22,3.41.71,3.4,1.42,12.61,11.35,15.34,14.66.7.85,1.82,1.21,1.5,2.62Z"/>
  <path class="cls-1" d="M624,179.26l-1.14,1.53-16.85-11.28c7.39,0,10.64,8.7,18,9.75Z"/>
  <path class="cls-1" d="M605.25,170.25c1.23.94-.07,1.37-1.11,1.5-7.9,1.01-16.5-.85-24.4-1.13,8.55-1.46,16.97,1.56,25.5-.37Z"/>
  <path class="cls-1" d="M1053,151.5v.75h-16.5v-1.5c1.24-.58,2.85.75,3.38.75h13.12Z"/>
  <path class="cls-1" d="M699,126.75c.69,1.46-3.01,2.67-3.58,2.79-1.82.37-3.59.23-5.42.2l8.99-2.99Z"/>
  <path class="cls-1" d="M867,26.25c.63,1.5-2.24,2.32-3.06,2.54-1.27.34-2.32.69-3.69.45,1.34-1.85,4.52-3.14,6.75-2.99Z"/>
  <path class="cls-1" d="M969.75,120.01c-.1,1.42-3.98.81-4.72.59-1.08-.32-2.26-1.58-2.03-2.84l6.74,2.25Z"/>
  <path class="cls-1" d="M1099.5,171.75c-.1-.12-1.08.1-1.5,0-.21-1.57-.07-1.7,1.49-1.49.11.42-.12,1.39,0,1.5.33.28,6.76,3.73,5.25,5.25-2.98.02-4.14-3.93-5.25-5.25Z"/>
  <path class="cls-1" d="M684,131.25c.63,1.5-2.24,2.32-3.06,2.54-1.27.34-2.32.69-3.69.45,1.23-1.86,4.62-2.78,6.75-2.99Z"/>
  <path class="cls-1" d="M1025.24,147.01c-.98,2.62-6.62-.96-5.24-2.26l5.24,2.26Z"/>
  <path class="cls-1" d="M709.5,122.25c-.04,2.9-2.91,3.3-5.24,2.99l5.24-2.99Z"/>
  <path class="cls-1" d="M1035.74,150.01c.1.1-.04.49,0,.73h-4.49s0-1.49,0-1.49c.31-.28,4.14.43,4.49.76Z"/>
  <path class="cls-1" d="M871.5,24.75v1.49s-3.75,0-3.75,0c.46-1.69,2.32-1.6,3.75-1.49Z"/>
  <path class="cls-1" d="M859.5,29.25v1.49s-3.75,0-3.75,0c.46-1.69,2.32-1.6,3.75-1.49Z"/>
  <path class="cls-1" d="M1029.74,148.51c.1.1-.04.49,0,.73h-3.74s0-1.49,0-1.49c.23-.22,3.49.51,3.74.76Z"/>
  <path class="cls-1" d="M878.25,24.01c-.66,1.7-4.51.32-5.99.73.66-1.7,4.51-.32,5.99-.73Z"/>
  <path class="cls-1" d="M1080.74,171.01c.1.1-.04.49,0,.73h-3.74s0-1.49,0-1.49c.23-.22,3.49.51,3.74.76Z"/>
  <rect class="cls-1" x="970.5" y="120.75" width="2.24" height="1.49"/>
  <rect class="cls-1" x="960" y="116.25" width="2.24" height="1.49"/>
</svg>