<?xml version="1.0" encoding="UTF-8"?>
<svg id="Trees" xmlns="http://www.w3.org/2000/svg" xmlns:xlink="http://www.w3.org/1999/xlink" viewBox="0 0 310.46 215.71">
  <defs>
    <style>
      .cls-1 {
        fill: none;
      }

      .cls-2 {
        clip-path: url(#clippath-1);
      }

      .cls-3 {
        fill: #0e202d;
      }

      .cls-4 {
        clip-path: url(#clippath);
      }
    </style>
    <clipPath id="clippath">
      <rect class="cls-1" x="22.05" y="16.04" width="261.76" height="169.12"/>
    </clipPath>
    <clipPath id="clippath-1">
      <rect class="cls-1" x="22.05" y="16.04" width="261.76" height="169.12"/>
    </clipPath>
  </defs>
  <g class="cls-4">
    <g>
      <path class="cls-3" d="M86.78,121.5s-.07-.06-.11-.09c0,0,.01,0,.02,0-.02-.01-.04-.02-.06-.03-.04-.02-.07-.04-.11-.06-.04-.02-.09-.03-.14-.04-.04-.01-.08-.02-.13-.03-.05,0-.11,0-.16,0-.05,0-.09,0-.14,0-.06,0-.12.01-.18.02-.05,0-.1.01-.15.02-.06.01-.13.02-.19.04-.04,0-.09.02-.13.03-.07.02-.15.03-.22.05-.03,0-.07.02-.1.03-.1.02-.18.05-.27.07-.09.02-.17.04-.24.06-.35.07-.69.15-1.03.24.58-.28.9-.75.03-1.11-.96-.4-2.22-.28-3.21-.23-.84.04-1.65.19-2.44.39.16-.19.26-.4.25-.64,0-.39-.71-.38-1.55-.23.01-.02.03-.04.04-.06.15-.22.35-.53.56-.88,1.4,1.8,5.89-.65,7.15-2.1,1.17-1.33.28-2.42-1.01-2.95.09-.07.18-.15.27-.23.71-.66,1.32-1.52.73-2.46-.4-.63-1.46-.36-2.35-.12.28-.42.46-.87.34-1.33-.24-.92-.93-1.3-1.85-1.22-.83.07-1.94.71-2.8,1.56-.16-.45-.52-.7-1.21-.43-.84.33-1.21,1.14-1.66,1.85-.06.1-.12.2-.19.31,0,0-.02.01-.03.02-.06-.93.13-2-.15-2.78-.06-.18-.15-.39-.26-.6.26-.41.52-.81.79-1.21.07-.04.13-.09.2-.13.07-.04.14-.08.2-.13.18-.14.36-.3.52-.48.06-.07.16-.3,0-.34-.06-.01-.12-.02-.18-.03.03-.09-.07-.12-.14-.04,0,0,0,.01-.01.01-.52-.06-1.06,0-1.59,0-.26,0-.51.01-.77.02,0,0,0,0,0,0,.11-.03.22-.06.32-.08,1.31-.29,2.91-.41,3.93-1.36.33-.3.51-.89.01-1.14-.23-.11-.47-.19-.73-.25h0c-.3-.07-.61-.1-.93-.11.92-.31,1.82-.67,2.62-1.1.42-.22.64-.51.59-.75,0,0,0,0,.01,0,0-.01-.01-.03-.02-.04,0-.02-.01-.04-.03-.06-.02-.03-.04-.05-.06-.08-.02-.02-.03-.04-.06-.05-.03-.03-.08-.05-.13-.07-.03-.01-.04-.02-.07-.04-.08-.03-.18-.06-.29-.08-1.24-.21-2.57-.18-3.9.03.3-.49.53-1.03.63-1.56.91-.29,1.77-.74,2.54-1.31.57-.43,1.47-1.22,1.32-2.02.33-.26.64-.54.94-.81.52-.46,1.41-1.32,1.14-2.11-.21-.6-.91-.56-1.62-.36.16-.28.26-.56.25-.85-.06-1.01-1-1.15-1.85-1.2-2.02-.13-3.7.85-4.68,2.43-.25-.28-.62-.49-1.07-.59-1.22-.28-2.07.41-2.92,1.08.06-.6-.07-1.19-.49-1.39.57-.03,1.14-.12,1.5-.57.45-.56-.59-.77-1.78-.83.44-.16.87-.33,1.29-.48.68-.25,1.72-.56,2-1.32.01-.03.02-.07.02-.1.04,0,.08,0,.12,0,.94.01,1.88,0,2.83,0,.52,0,.94-.04,1.23-.46.07-.1.17-.28.05-.39-.56-.51-1.59-.54-2.42-.58.3-.09.58-.18.85-.25,1.07-.3,2.89-.47,3.66-1.37.05-.06.16-.28.05-.34-.13-.07-.27-.11-.42-.14-.03,0-.07-.01-.1-.02-.14-.02-.29-.03-.44-.04-.03,0-.06,0-.09,0-.06,0-.12,0-.18,0,0,0,0,0,0,0-.26.01-.52.03-.76.04-.19,0-.38.02-.58.04h-.09c-.64,0-1.26,0-1.91.19-.31.09-.63.19-.94.3-.03,0-.06-.01-.09-.02h0s-.07-.02-.11-.02c.82-.68,1.51-1.62,1.56-2.35.01-.18-.13-.22-.27-.14-1.03.57-2.03,1.16-3.04,1.73.14-.18.19-.33.06-.43-.66-.5-1.96,0-2.66.2-.99.27-1.8.85-2.67,1.31,0,0-.02,0-.03,0,.12-.13.25-.26.36-.4.01,0,.02,0,.03-.01.14-.04.28-.08.42-.11.03-.01.08-.06.11-.12.19-.1.34-.23.4-.4.03-.08-.07-.06-.09,0-.05.1-.35.2-.57.27.28-.4.47-.81.38-1.19,0,0,0,0,0,0,.5-.17.9-.57,1.1-1.29,0,0,0-.01,0-.02.03-.03.05-.05.08-.08.42.11.83.19,1.18.27,1.79.4,3.39.07,5.04-.75.78-.39,1.81-1.04,1.94-1.99.03-.24-.04-.42-.18-.55.33-.2.64-.4.92-.62.53-.4,1.26-.69,1.15-1.51-.04-.32-.3-.44-.65-.44,1.45-1.1,2.67-2.4,3.14-4.31.22-.9-.85-.55-1.19-.25-.74.64-1.51,1.21-2.29,1.77.03-.16,0-.32-.11-.45-.52-.65-1.52-.14-2.33.36.53-1.11,1.21-2.77.17-2.8-.85-.03-1.53.75-2.05,1.35-.11.13-.22.25-.33.38.03-1.19-.28-2.42-1.28-2.78-.6-.21-1.21.57-1.41,1.01-.02.04-.03.09-.05.14-.29-.55-.67-.92-1.17-.75-.81.29-.98,1.25-1.01,2.24-.3-.29-.69-.45-1.27-.32-.2.04-.4.13-.6.23.11-.28.18-.53.21-.76.4.11.83.16,1.14-.02.09-.06.18-.18.17-.29-.08-.66-.96-1.31-1.42-1.67-.04-.03-.08-.05-.12-.08.11-.09.23-.17.33-.27.88-.03,1.82-.08,2.52-.54.1-.06.32-.33.16-.44-.29-.2-.63-.29-.99-.35,1-.17,1.99-.49,2.83-.86.66-.29,2.38-.94,2.42-1.86,0-.07,0-.15-.09-.17-.4-.12-.81.02-1.2.15.04-.08.06-.16.08-.23.35-.27.69-.54,1-.84.08-.07.27-.46,0-.42-.51.09-.98.29-1.44.49-.07-.02-.13-.03-.2-.04.22-.18.42-.38.62-.59.03-.04.06-.07.1-.11.18-.21.35-.43.5-.67,0,0,.01-.01.01-.02,0,0,0,0,0,0,.15-.24.28-.5.4-.78.06-.16-.07-.28-.22-.17-.89.64-1.72,1.15-2.77,1.51-.38.13-1.49.48-2.4.52,0-.14-.03-.26-.12-.37-.3-.36-.75-.34-1.2-.21.31-.28.58-.6.6-.95,0-.09-.03-.21-.15-.19-.52.11-1.02.39-1.49.68.54-.78,1.11-1.78.8-1.94-.4-.21-.75.07-1.04.36-.17.18-.37.34-.56.49-.03-.11-.06-.23-.09-.34h0c-.41-1.49-.77-2.99-1.1-4.49-.23-1.05-.42-2.1-.57-3.16-.03-.18-.08-.41-.14-.64-.03-.49-.07-.98-.1-1.47.47.64.87,1.59,1.08,2.15.02.06.07.06.12.04,0,0,0,0,0,0,.03-.01.06-.03.09-.06.01-.01.02-.02.03-.03.03-.03.05-.06.06-.09,0-.01.01-.02.02-.04.02-.05.03-.09.02-.13-.28-.83-.55-1.66-.85-2.48,0-.02-.02-.05-.02-.07,0,0,0,0,0,0-.03-.07-.05-.13-.07-.2-.06-.14-.16-.35-.26-.56.22.31.44.63.65.94.25.37.55.88,1,1,.09.02.19-.04.26-.12,0,0,0-.01.01-.02.03-.03.05-.06.06-.1.02-.04.03-.09.01-.13-.28-1.05-.8-2.04-1.15-3.07-.52-1.53-.93-3.06-1.25-4.64-.21-1.03-.39-2.06-.57-3.09-.08-.45-.15-.89-.23-1.34-.26-1.46-.3-2.95-.63-4.39-.01-.06-.06-.04-.1,0-.01-.06-.01-.11-.03-.17-.12.15-.22.33-.31.52,0,0,0,0,0-.01,0,.02-.01.04-.02.06-.05.11-.1.22-.14.33-.04.11-.08.21-.12.32-.04.12-.08.24-.11.36-.03.12-.06.23-.09.34-.03.12-.06.23-.08.34-.04.19-.08.37-.12.54-.24,1.12-.41,2.25-.69,3.36-.12.48-.24.95-.37,1.42-.14.75-.28,1.51-.4,2.27-.12.47-.24.93-.35,1.4-.34,1.54-.63,3.1-.88,4.66-.26,1.56-.89,3.01-1.22,4.54-.11.54-.59,1.37-.63,1.89-.02.29-.06.57-.13.85-.3.03-.9-.06-1.1-.12-.44-.11-.72-.44-1.06-.69-.19-.14-.4.07-.5.21-.44.6-.04,1.4.38,2.06-.41-.17-.82-.32-1.26-.43-.18-.04-.4.21-.36.38.07.36.2.6.37.81-.33-.12-.64-.25-.91-.39-.26-.13-.32-.15-.55-.06-.14.06-.26.21-.25.36.07,1.64,1.03,2.74,2.28,3.25-.68.21-1.37.36-2.12.31-.13,0-.32.23-.24.35.13.2.27.38.42.56.03.03.06.07.09.1.16.18.33.34.5.49,0,0,0,0,0,0h0c.62.51,1.34.84,2.12.86-.36.28-.61.62-.57.98,0,.05.03.08.08.1.42.15.92.04,1.39-.15-.08.17-.14.35-.16.51-.04.31.27.4.71.39-.31.19-.58.42-.77.72-.04.06-.08.21,0,.25.93.53,2.44.53,3.5.49.39-.01.79-.03,1.18-.07,0,0,0,0,0,0-.26.15-1.08.28-1.09.28-.73.03-1.5.19-2.22.34-.13.03-.33.23-.21.37.18.19,1.64.86,1.42,1-.24.15-.57.28-.68.58-.06.16-.07.31-.04.47-.11-.02-.21-.05-.31-.07-.68-.14-1.36-.31-2.02-.49-.86-.23-1.66-.6-2.44-1.02-.39-.21-.7-.59-1.14-.66-.18-.02-.38.2-.36.38.09.66.43,1.28.9,1.81-1.08-.14-2.17-.26-3.24-.42-2.42-.35-4.42-1.23-6.65-2.13-.04-.02-.09,0-.13.02,0,0-.01,0-.02.01-.04.03-.07.06-.1.1,0,0,0,0,0,0h0c-.04.06-.06.12-.05.17.32,1.84,2.23,3.8,3.53,5.05.74.71,1.7,1.28,2.56,1.82.1.06.2.11.3.16-.76.04-1.62.08-2.24-.21-.12-.06-.26.14-.3.22-.28.76,1.27,1.86,1.75,2.12.58.31,1.25.43,1.95.44.18.04.39.07.6.09-.49.2-.99.45-1.4.76-.09.07-.22.31-.05.38.64.24,1.46.11,2.28-.14-.06.04-.1.07-.13.1-.04.04-.08.07-.12.11-.74.39-1.75.94-2,1.65-.1.29.13.42.48.47-.35.06-.55.36-.63.76-.08,0-.19.14-.12.21.03.03.06.05.08.07,0,.01,0,.03,0,.04-.72-.61-1.56-.94-1.98.24-.17.47.11.91.45,1.25-.39.52-.13,1.18.34,1.78-.24.04-.47.09-.68.18-.34.14-.57.47-.58.84-.01,1.08,2.01,1.4,2.79,1.45.81.05,1.58,0,2.34-.14-.26.54-.3,1.14.04,1.7.1.17.23.3.36.41-.32-.03-.64-.06-.95-.11-.02,0-.05-.01-.07-.01-1.1-.19-2.19-.47-3.29-.64-.14-.02-.27-.05-.41-.07,0,0,0,0,.01,0-.06,0-.11-.02-.17-.03-.09,0-.23.09-.28.19,0,0,0,0,0,0,0,0,0,.02,0,.03,0,.01,0,.02-.01.04,0,.04,0,.07.02.11.69.97,1.54,1.77,2.4,2.59.65.62,1.5,1.19,2.19,1.82-.44-.07-.86-.14-1.2-.19-1.15-.16-2.02-.89-3.1-1.22-.16-.05-.34.18-.35.32-.1.94.4,1.98.94,2.71.23.32.54.53.88.66-.33.07-.64.17-.9.32-.44-.77-.89-1.54-1.29-2.33-.07-.13-.28.09-.24.2.35.84.73,1.66,1.11,2.48-.06.09-.09.2-.02.28.07.08.16.15.25.21.33.69.65,1.38.96,2.08.15.34.3.67.44,1-.07.03-.14.05-.21.08-.06,0-.12.01-.17.02-.25-.28-.5-.55-.74-.83-.06-.07-.2.07-.16.13.17.26.37.49.55.74-.17.02-.34.04-.51.05-1.22.1-2.48.11-3.69-.07-.69-.1-1.59-.55-2.28-.48-.86.09-.8.87-.35,1.44.48.63,1.23,1,2.04,1.2-1.14.36-2.25.95-3.19,1.53-.15.09-2,1.61-.86,1.74.12.01.25.01.37.02h0c1.77.08,3.67-.62,5.33-1.16.13.15.31.25.5.34-.68.73-1.09,1.81-.82,2.67-1.21.15-2.37.64-2.63,1.37-.53,1.49,1,2.25,2.13,2.57.08.02.16.03.24.04-.39-.02-.79-.04-1.18-.05-.59,0-1.26.03-1.9.12-1.43-.41-2.76-.93-4.16-1.6-.06-.03-.16.05-.2.1-.62.81.54,2.26,1.1,2.82.68.67,1.65,1.03,2.65,1.18-.18.06-.36.12-.53.17-.6.16-1.68.28-2.08.85-.04.06-.12.19-.06.26.35.46,1.25.35,1.76.34.65-.01,1.3-.12,1.95-.28-2.06,1.21-5.02,3.15-4.75,4.24,0,0,0,.01,0,.02.02.08.06.16.13.24.09.09.19.16.28.22-.2.24-.3.57-.24,1.02.08.52.61,1.21.94,1.6.03.04.07.07.1.11-.18-.04-.37-.07-.55-.1-.93-.15-1.99-.21-2.93-.26-.35-.02-.83.56-.73.91.2.72.84,1.17,1.35,1.68.46.46.89.81,1.37,1.11-.78.32-1.44.82-1.62,1.71-.04.21,0,.39.11.53-.63.16-1.26.32-1.88.51-.92.27-2.56,1.18-2.42,2.36.17,1.38,2.58,1.49,3.58,1.5.69.01,1.4-.18,2.06-.48-.36,1.18-.21,2.36.98,2.43.67.04,1.37-.17,2.01-.51.48.12.97.19,1.29.24.12.02.21.03.27.04,1.01.15,2.07.17,3.11.06-.56.26-1.14.53-1.57.9-.07.06-.23.33-.05.36.92.18,1.9-.21,2.77-.48.31-.1.62-.19.91-.28-.85.64-2.05,1.61-2.3,2.25h0c-.03.09-.05.17-.04.24h0c0,.08.03.14.08.2,0,0,0,0,0,0,.05.05.12.08.2.12.02,0,.04.01.06.02.1.03.22.05.37.06,1.16.06,2.4-.13,3.53-.58-.03.05-.05.1-.07.15-.02.07-.02.13.02.18.58.61,2.44-.49,2.97-.73.37-.17.77-.34,1.18-.54,0,0,0,0,.01,0-.12.17-.24.34-.37.5-.42.53-.55,1.11.32,1.08.55-.02,1.11-.18,1.68-.41.11.07.21.14.31.21,0,0,.02.01.03.02.72.63,1.44,1.26,2.18,1.87,1,.82,2.11,1.6,2.84,2.66.26.37.47.77.67,1.19-.13,15.46.23,30.93-.79,46.37,2.32,1.03,4.87,1.16,7.33.46,0-7.66-1.12-15.33-1.34-23-.2-6.92-.43-13.85-.48-20.77.06-.06.12-.12.17-.18.84-.64,1.6-1.38,2.41-2.05,1.19-.38,2.33-.52,3.62-.68,1.48-.19,2.88-.76,4.33-1.07,1.25-.27,2.45-.69,3.64-1.13,1.15-.42,2.4-.68,3.49-1.24.1-.05.16-.31,0-.24-1.07.48-2.29.67-3.42,1-1.55.46-3.1.79-4.69,1.1-1.31.26-2.57.66-3.89.89-.53.09-1.04.2-1.54.34.17-.12.34-.24.5-.36.95-.59,1.83-1.27,2.72-1.93.89-.57,1.74-1.21,2.62-1.8.11-.06.22-.13.31-.21.05-.03.1-.06.15-.1.03,0,.07,0,.1-.01,1.37-.17,3.24-.39,4.38-1.22,0,0,0,0,0,0,.5,0,.95-.02,1.26-.02,1.03,0,3.72.21,4.3-1.01.04-.09.06-.18.04-.26,0-.02-.02-.03-.02-.04-.02-.06-.04-.12-.08-.17-.01-.02-.04-.03-.06-.05-.05-.04-.1-.09-.16-.12-.03-.02-.06-.03-.09-.04-.06-.03-.13-.06-.2-.09-.04-.01-.08-.02-.12-.04-.07-.02-.14-.05-.21-.07-.04-.01-.08-.02-.12-.03-.07-.02-.14-.04-.21-.05-.04,0-.07-.01-.11-.02-.1-.02-.19-.04-.27-.05-.04,0-.09-.02-.12-.02-.13-.03-.26-.05-.39-.07.43-.11.86-.23,1.28-.35.17-.05.37-.1.56-.16.1-.03.19-.05.29-.08.25-.07.5-.15.76-.24,0,0,.02,0,.03-.01.24-.09.48-.19.71-.31.05-.02.09-.05.14-.07.24-.13.47-.27.66-.44,0,0,0,0,0,0,0,0,0,0,0,0,.27-.23.49-.5.63-.81.62-1.4-2.83-.69-3.1-.64-1.54.3-3.08.78-4.58,1.34.17-.15.33-.3.48-.45.6-.62,1.54-1.58,1.6-2.5.02-.2-.18-.2-.3-.09-1.31,1.25-3.51,1.99-5.36,2.5.47-.34.8-.73.75-1.13-.09-.73-1.7-.42-3.14.01-.01-.02-.03-.04-.04-.06.29-.17.58-.35.87-.52.72-.42,1.66-.81,2.18-1.48.06-.07.12-.19.07-.28-.35-.66-1.92-.06-2.44.07-.89.22-1.76.51-2.63.81-.05.01-.09.04-.14.05-.29-.03-.61-.03-.99-.03h-2.68c-.48,0-1.1.16-1.58.03-.09-.03-.17-.06-.25-.11t0,0c-.08-.05-.15-.11-.22-.18.51-.31,1.12-.52,1.72-.71.95.31,2.06.31,2.97.24.79-.06,2.43-.15,2.74-1.08.02-.06.03-.14-.03-.19-.21-.19-.44-.25-.72-.26-.11,0-.22-.01-.33-.03.03,0,.06,0,.09,0,2.11-.03,4.1-.63,6.12-1.17.33-.08,1.81-.72,1.26-1.33-.34-.38-.79-.63-1.29-.79.58-.09,1.18-.26,1.4-.63.17-.27.11-.47-.06-.65.34.03.69.05,1.04.07,1.68.09,3.71.38,5.37.1.15-.03.44-.29.31-.46.21.28-.22.47.44.23.13-.05.27-.14.36-.25.12-.16.14-.36.22-.54.02-.04.04-.14,0-.18-.1-.14-.22-.26-.35-.37-.03-.03-.07-.05-.11-.08-.1-.08-.21-.16-.33-.23-.04-.02-.07-.04-.11-.06-.13-.07-.26-.13-.4-.19-.03-.01-.05-.02-.08-.03-.16-.06-.32-.12-.49-.16h-.02s0,0,0,0c-.56-.16-1.17-.25-1.76-.31.92-.27,1.82-.62,2.68-.94.57-.21,1.25-.49,1.83-.86,0,0,0,0,0,0h0c.46-.3.85-.67,1.07-1.13.05-.07.04-.15-.01-.21ZM38.53,135.39s-.01,0-.02,0c0,0,0,0,0,0,0,0,0,0,.01,0ZM55.58,130.33c-.09,0-.18-.01-.26-.03-.57-.13-1.11-.33-1.65-.56-.22-.09-.39-.22-.56-.32.36-.26.69-.55.97-.88.26.18.68.02.99-.14-.14.46-.39,1.04,0,1.33.07.05.15.02.22-.02.05-.03.1-.07.14-.1,0,0,0,0,0,0,.05-.03.09-.07.14-.11.06-.04.11-.08.17-.13.12-.1.23-.22.34-.35,0,.38-.05.76-.05.89,0,.15,0,.3.03.45-.17-.02-.34-.03-.49-.04,0,0,0,0,0,0ZM67.27,111.61c-.23-.18-.49-.29-.76-.39.37.05.74.09,1.11.1.23,0,.45.06.65.1-.29.11-.55.31-.75.64-.45.74-.27,1.77.23,2.61-.67.16-1.3.48-1.83.93.04-.09.07-.19,0-.27-.59-.69-2.02-.09-2.74.14-.48.15-.93.36-1.36.62.08-.11.16-.23.24-.33.41-.57.99-1.11,1.22-1.79.03-.1.02-.23-.12-.22-.63.05-1.26.58-1.8,1.02.07-.45.15-.91.25-1.36.11-.13.22-.26.35-.38.07-.01.14-.03.21-.04.14-.03.28-.05.41-.07.19-.03.38-.07.56-.09,1.15-.15,2.99-.11,3.99-.78.09-.07.3-.3.15-.42ZM63.2,121.55c-.27.06-.53.15-.79.24,0,0,0,0,0,0,.12-.24.19-.48.26-.73.22-.19.43-.39.65-.58.04,0,.1-.01.15-.06.35-.25.69-.51,1.03-.76.13-.04.27-.07.41-.11.21.11.43.17.66.19-.25.2-.47.38-.61.49-.24.18-.47.36-.69.55.02-.01.03-.02.05-.03-.31.25-.6.5-.9.76-.08.02-.15.03-.23.04ZM69.29,111.2c0,.06,0,.13,0,.19-.07-.02-.14-.02-.21-.03.07-.04.14-.09.21-.16ZM64.56,117.4s-.02.05-.03.07c-.58-.03-1.16-.06-1.74-.09.15-.06.3-.11.44-.16.57-.2,1.33-.43,1.92-.82-.23.3-.43.63-.59.99ZM63.58,119.32s-.03.02-.05.03c-.21.13-.4.27-.59.42.01-.14.01-.28,0-.43.24,0,.45-.01.63-.02ZM62.06,103.93c-.06.21-.1.46-.1.71-.06-.01-.12,0-.17-.02-.31-.08-.7-.1-1.09-.14.06-1.33.11-2.61.11-2.95.02.01.03.02.05.03.47.23,1.02.44,1.56.41.34-.02.7-.12,1.06-.21-.59.65-1.14,1.29-1.42,2.18ZM56.95,113.6s0-.04,0-.06c.01.01.02.03.03.04,0,0-.01.01-.02.01ZM69.31,110.76c-.18-.43-.45-.79-.75-1.14.31.18.59.38.87.6-.06.17-.1.35-.12.53ZM62.36,122.48c-.03-.09-.03-.2-.03-.31.14-.05.29-.11.43-.16.05-.02.11-.03.16-.04-.15.14-.35.32-.56.51ZM52.35,108.8c.25.11.49.23.7.36.18.11.33.23.49.35.01.07.03.15.05.22-.17-.05-.34-.1-.5-.13-.44-.08-.96-.03-1.46.14-.12-.11-.24-.22-.35-.33-.01-.05-.02-.09-.03-.14.36-.07.74-.25,1.11-.47ZM42.03,134.2s-.05,0-.07-.01c.01-.01.03-.03.04-.04.01.02.02.04.03.05ZM48.25,130.47c1.28.36,2.77.11,4.04-.54-.05.64.33,1.27.79,1.79-.9-.29-1.81-.57-2.74-.82-.56-.14-1.21-.18-1.61.26-.39.43.13.96.84,1.41-.67-.07-1.33-.14-2-.2.36-.6.61-1.25.68-1.91ZM72.26,107.96c-.37.32-.61.79-.77,1.33-.03-.07-.07-.15-.11-.22-.04-.07-.08-.14-.12-.21-.04-.07-.09-.13-.13-.2-.05-.07-.1-.15-.16-.22-.04-.05-.08-.1-.13-.15-.07-.08-.13-.16-.2-.24,0,0,0-.01-.01-.02h0c-.09-.1-.18-.2-.28-.29.24.05.48.09.72.12,0,0,0,0,0,0,.24.03.47.06.71.07.06,0,.13,0,.2,0,.1,0,.19.01.29.01ZM66.05,103.58s-.01,0-.02.01c.2-.29.4-.6.57-.92.04.08.09.15.13.23-.23.22-.46.44-.68.68ZM62.97,95.13s-.07,0-.1-.01c-.09-.08-.18-.15-.29-.21,0,0,0,0,0-.01.12.01.23.04.35.05.01.06.03.12.04.18ZM50.98,108.04c.09.07.18.14.28.19-.09.13-.18.26-.25.4-.08-.17-.17-.34-.27-.5.08-.03.16-.06.24-.09ZM63.55,72.29c-.18-.17-.34-.34-.49-.53.1-.05.18-.1.25-.14.25.12.51.24.77.35-.18.09-.36.2-.53.31ZM62.93,71.54s-.02,0-.03.01c-.05-.07-.11-.14-.17-.22.1.06.2.1.29.15-.03.02-.07.04-.1.06ZM54.31,87.23c-.06-.14-.14-.27-.23-.39.14.11.29.22.45.34-.07.02-.14.03-.21.05ZM41.05,121.34s-.02.02-.03.03c-.18.18-.71.69-.54,1.04.17.35.75.32,1.44.15-.48.32-1.03.54-1.28,1.08-.04.08-.1.28.04.31.64.14,1.38-.03,2.07-.2-.25.16-.45.37-.59.6-.43-.1-.85-.2-1.28-.31-1.11-.27-2.22-.63-3.34-.87.16-.06.31-.12.44-.18,1.03-.42,2.09-.98,3.06-1.65ZM53.1,140.19c-.1-.14-.18-.27-.27-.41.73-.21,1.45-.43,2.15-.71-.58.46-1.18.97-1.66,1.42-.07-.1-.14-.2-.22-.3ZM73.55,107.83c.09-.02.17-.04.25-.07.1-.03.19-.05.28-.08.11-.04.21-.08.32-.12-.17.22-.34.43-.51.65-.1-.15-.22-.28-.35-.38ZM67.65,92.46c-.91.4-1.52,1.1-2.01,1.9,0-.51-.39-1.13-.85-1.68-.07-.18-.15-.37-.24-.54,1.06.21,2.09.3,3.21.25.03,0,.06,0,.09,0-.07.02-.13.03-.2.07ZM64.99,70.32c-.09-.06-.18-.12-.28-.18.17-.01.36-.02.55-.02-.09.07-.17.14-.27.2ZM47.78,84.06c1-.15,2.12-.34,3.14-.69-.08.06-.16.13-.24.19-.42.29-.84.6-1.14,1.02-.05.07-.18.29-.05.36.55.29,1.25-.06,1.88-.45.05.08.1.17.17.25.35.4.78.75,1.22,1.09.26.2.52.39.77.59-.2-.1-.43-.17-.71-.18-1.18-.04-2,.58-2.66,1.41.01-.69-.15-1.31-.76-1.39-.63-.08-1.05.18-1.36.57-.02-.02-.05-.04-.07-.06-.12-1.1-.45-2.37-1.41-2.59.53,0,1.12-.11,1.22-.12ZM45.61,101.92c-.2-.43-.42-.86-.65-1.28.66.14,1.42.11,1.96.05.5-.06,1.01-.17,1.5-.33-.23.11-.46.21-.69.33-.42.21-1.09.39-1.39.78-.05.07-.15.24-.04.31.85.56,1.91.41,2.93.03.37.35,1.03.56,1.67.72-.86,0-1.72-.07-2.59.07-.74.11-1.46.32-2.17.56-.17-.42-.34-.83-.53-1.24ZM43.58,114.6c-.06.1-.11.19-.16.29-.35-.02-.69-.04-1.03-.06.4-.04.8-.11,1.2-.23ZM51.69,140.32c.12-.08.24-.16.36-.25.15.29.3.57.46.85-.09-.04-.18-.09-.26-.13-.18-.16-.37-.31-.55-.47ZM55.1,142.27c-.26-.16-.53-.3-.8-.45-.04-.05-.08-.11-.12-.16.33-.1.65-.21.9-.29.54-.16,1.08-.37,1.61-.6,0,.23,0,.45,0,.68,0,.21,0,.41,0,.62-.05.27-.07.53-.01.77,0,.08,0,.17,0,.25-.53-.27-1.07-.53-1.56-.83ZM64.81,145.53c-.18.21-.38.41-.59.61-.71.5-1.41,1-2.11,1.5-.26.18-.53.38-.79.58,0-2.32.01-4.64.06-6.95.15-.09.31-.19.45-.28.07-.04.15-.09.22-.13-.02.29.09.58.33.97.36.59,1.24,1.45,2.01,1.39.37-.03.69-.3.74-.68.04-.31.06-.66.05-1.03.09,0,.19,0,.29,0,.47.55,1.06.94,1.75,1.24-.82.92-1.64,1.84-2.43,2.76ZM65.65,145.39s.03-.04.05-.05c.08-.08.17-.16.25-.24.02-.02.03-.04.03-.07.33-.36.65-.74.98-1.14.24-.3.51-.61.77-.93.39.13.81.25,1.25.34-1.14.64-2.24,1.32-3.33,2.08ZM69.74,142.79c-.14-.18-.29-.36-.46-.52.33.07.7.09,1.07.09-.2.14-.4.29-.61.43Z"/>
      <path class="cls-3" d="M54.95,131.05s-.06-.05-.09-.07c0,0,0,0,.01,0-.01-.01-.03-.02-.05-.03-.03-.02-.06-.03-.08-.04-.03-.01-.07-.02-.11-.03-.03,0-.07-.01-.1-.02-.04,0-.08,0-.12,0-.04,0-.07,0-.11,0-.04,0-.09,0-.14.01-.04,0-.08,0-.11.01-.05,0-.1.02-.15.03-.03,0-.07.01-.1.02-.06.01-.11.03-.17.04-.03,0-.05.01-.08.02-.07.02-.14.04-.21.05-.07.02-.14.03-.19.04-.27.05-.54.12-.8.19.45-.22.7-.58.02-.87-.75-.31-1.74-.22-2.51-.18-.66.03-1.29.15-1.91.31.13-.15.2-.31.19-.5,0-.31-.56-.3-1.21-.18.01-.01.02-.03.03-.04.12-.18.28-.42.44-.69,1.1,1.41,4.61-.51,5.59-1.64.91-1.04.22-1.89-.79-2.31.07-.06.14-.12.21-.18.55-.52,1.03-1.19.57-1.93-.31-.5-1.14-.28-1.84-.1.22-.32.36-.68.26-1.04-.18-.72-.73-1.01-1.45-.95-.65.05-1.52.56-2.19,1.22-.12-.35-.41-.55-.95-.34-.65.26-.95.9-1.3,1.45-.05.07-.1.16-.15.24,0,0-.01,0-.02.01-.05-.72.1-1.56-.11-2.17-.05-.14-.12-.31-.21-.47.2-.32.41-.63.62-.95.05-.03.1-.07.16-.1.05-.04.11-.07.16-.1.14-.11.28-.23.41-.38.05-.06.12-.24,0-.26-.05-.01-.1-.01-.14-.02.03-.07-.06-.09-.11-.03,0,0,0,0,0,.01-.41-.05-.83,0-1.24,0-.2,0-.4.01-.6.02,0,0,0,0,0,0,.08-.02.17-.04.25-.06,1.02-.23,2.27-.32,3.08-1.07.26-.24.4-.69.01-.89-.18-.09-.37-.15-.57-.19h0c-.24-.05-.48-.08-.73-.08.72-.24,1.42-.52,2.05-.86.32-.18.5-.4.46-.59,0,0,0,0,0,0,0-.01-.01-.02-.01-.03,0-.02-.01-.03-.02-.05-.01-.02-.03-.04-.05-.06-.01-.01-.03-.03-.04-.04-.03-.02-.06-.04-.1-.06-.02,0-.03-.02-.06-.03-.06-.02-.14-.04-.23-.06-.97-.17-2.01-.14-3.05.03.23-.39.42-.8.5-1.22.71-.22,1.38-.58,1.99-1.02.45-.33,1.15-.95,1.03-1.58.26-.21.5-.42.74-.63.41-.36,1.11-1.03.89-1.65-.16-.47-.71-.44-1.27-.28.13-.21.21-.44.19-.67-.05-.79-.78-.9-1.44-.94-1.58-.1-2.9.66-3.66,1.9-.2-.22-.49-.38-.84-.46-.96-.21-1.62.32-2.28.85.05-.47-.05-.93-.39-1.08.44-.02.89-.1,1.17-.44.35-.44-.46-.61-1.39-.65.34-.12.68-.25,1.01-.38.53-.19,1.35-.44,1.57-1.04.01-.03.01-.05.02-.08.03,0,.06,0,.09,0,.74,0,1.47,0,2.21,0,.41,0,.73-.03.96-.36.06-.08.14-.22.04-.31-.44-.4-1.24-.43-1.89-.45.23-.07.46-.14.66-.2.83-.24,2.26-.37,2.86-1.07.04-.05.13-.21.04-.26-.1-.05-.21-.09-.33-.11-.03,0-.05-.01-.08-.02-.11-.02-.23-.03-.34-.03-.02,0-.05,0-.07,0-.05,0-.1,0-.14,0,0,0,0,0,0,0-.2,0-.41.02-.59.03-.15,0-.3.02-.45.03h-.07c-.5,0-.99,0-1.49.15-.25.07-.49.15-.74.24-.02,0-.05-.01-.07-.02h0s-.06-.01-.08-.02c.64-.53,1.18-1.27,1.22-1.84.01-.14-.1-.17-.21-.11-.81.45-1.58.91-2.38,1.35.11-.14.15-.26.04-.34-.52-.39-1.53,0-2.08.15-.77.21-1.41.67-2.09,1.02,0,0-.01,0-.02,0,.1-.1.19-.21.28-.32.01,0,.02,0,.03-.01.11-.03.22-.06.33-.09.02,0,.06-.05.08-.09.15-.08.27-.18.32-.32.02-.07-.05-.05-.07,0-.04.08-.27.16-.44.21.22-.31.36-.64.3-.93,0,0,0,0,0,0,.39-.14.71-.45.86-1.01,0,0,0-.01,0-.01.02-.02.04-.04.06-.06.33.08.65.15.92.21,1.4.32,2.65.06,3.94-.58.61-.3,1.42-.81,1.52-1.55.03-.19-.03-.33-.14-.43.25-.15.5-.32.72-.48.42-.31.98-.54.9-1.18-.03-.25-.23-.34-.51-.34,1.13-.86,2.09-1.88,2.46-3.37.17-.7-.66-.43-.93-.2-.58.5-1.18.95-1.79,1.38.02-.13,0-.25-.09-.35-.41-.51-1.19-.11-1.82.28.42-.87.95-2.17.14-2.19-.67-.02-1.2.59-1.6,1.05-.09.1-.17.2-.26.3.03-.93-.22-1.89-1-2.17-.47-.17-.95.44-1.1.79-.02.04-.03.07-.04.11-.22-.43-.52-.72-.91-.58-.64.23-.77.98-.79,1.75-.23-.23-.54-.35-1-.25-.16.03-.31.1-.47.18.09-.22.14-.42.16-.6.32.09.65.12.9-.02.07-.04.14-.14.13-.23-.06-.51-.75-1.03-1.11-1.3-.03-.02-.06-.04-.09-.06.09-.07.18-.13.26-.21.69-.02,1.43-.06,1.97-.42.08-.05.25-.26.12-.34-.22-.16-.49-.23-.77-.27.78-.13,1.56-.38,2.21-.67.51-.22,1.86-.74,1.9-1.46,0-.06,0-.11-.07-.13-.31-.1-.63.02-.94.12.03-.06.05-.12.06-.18.27-.21.54-.43.78-.65.06-.06.21-.36,0-.33-.4.07-.76.22-1.13.39-.05-.02-.1-.03-.16-.03.17-.14.33-.3.48-.46.02-.03.05-.06.08-.09.14-.16.27-.33.39-.53,0,0,0-.01.01-.02,0,0,0,0,0,0,.11-.19.22-.39.31-.61.05-.12-.06-.22-.17-.14-.7.5-1.35.9-2.17,1.18-.3.1-1.16.38-1.88.41,0-.11-.03-.21-.09-.29-.24-.28-.59-.27-.94-.17.24-.22.45-.46.47-.75,0-.07-.03-.17-.12-.15-.41.09-.8.31-1.17.54.42-.61.87-1.39.63-1.51-.32-.17-.59.06-.82.28-.14.14-.29.26-.44.39-.02-.09-.05-.18-.07-.27h0c-.32-1.16-.6-2.34-.86-3.51-.18-.82-.33-1.64-.44-2.47-.02-.14-.06-.32-.11-.5-.02-.38-.05-.76-.08-1.15.37.5.68,1.24.85,1.68.02.04.05.05.09.03,0,0,0,0,0,0,.02,0,.05-.03.07-.04,0,0,.02-.02.02-.03.02-.02.04-.04.05-.07,0,0,.01-.02.01-.03.02-.04.02-.07.01-.1-.22-.65-.43-1.3-.67-1.94,0-.02-.01-.04-.02-.06,0,0,0,0,0,0-.02-.05-.04-.1-.06-.16-.04-.11-.12-.27-.21-.44.17.24.34.49.51.74.19.29.43.69.78.78.07.02.15-.03.21-.1,0,0,0-.01.01-.02.02-.03.04-.05.05-.08.01-.03.02-.07.01-.1-.22-.82-.62-1.59-.9-2.4-.41-1.19-.73-2.39-.98-3.63-.16-.8-.3-1.61-.44-2.42-.06-.35-.12-.7-.18-1.04-.2-1.14-.23-2.31-.49-3.43-.01-.04-.05-.03-.08,0,0-.04-.01-.09-.02-.13-.1.12-.17.26-.25.4,0,0,0,0,0,0,0,.01-.01.03-.02.04-.04.08-.08.17-.11.26-.03.08-.07.17-.1.25-.03.1-.06.19-.09.28-.03.09-.05.18-.07.27-.02.09-.05.18-.06.26-.03.15-.06.29-.09.42-.19.87-.32,1.76-.54,2.62-.09.37-.19.74-.29,1.11-.11.59-.22,1.18-.31,1.78-.1.37-.19.73-.27,1.1-.27,1.21-.49,2.42-.69,3.64-.2,1.22-.7,2.35-.95,3.55-.09.42-.46,1.07-.49,1.48-.01.22-.05.45-.1.67-.24.03-.7-.05-.86-.09-.35-.09-.56-.35-.83-.54-.15-.11-.31.06-.39.16-.34.47-.03,1.1.3,1.61-.32-.13-.64-.25-.99-.33-.14-.03-.31.17-.28.3.06.28.15.47.29.63-.26-.09-.5-.2-.71-.31-.2-.1-.25-.12-.43-.04-.11.05-.2.16-.19.29.05,1.28.8,2.14,1.79,2.54-.53.16-1.07.28-1.66.25-.1,0-.25.18-.19.27.1.15.21.3.33.44.02.03.05.05.07.08.12.14.25.27.39.38,0,0,0,0,0,0h0c.48.4,1.05.65,1.66.67-.28.22-.48.49-.44.76,0,.04.02.06.06.08.33.11.72.04,1.09-.11-.06.14-.11.27-.13.4-.03.24.21.32.55.31-.24.15-.46.33-.6.56-.03.04-.06.16,0,.2.73.42,1.91.41,2.74.39.31-.01.62-.03.92-.05,0,0,0,0,0,0-.2.12-.85.22-.86.22-.57.03-1.17.15-1.73.27-.1.02-.26.18-.16.29.14.14,1.28.67,1.11.78-.19.12-.45.21-.53.45-.04.12-.05.25-.03.36-.08-.01-.16-.04-.25-.05-.53-.11-1.07-.24-1.58-.38-.67-.18-1.3-.47-1.91-.8-.3-.16-.55-.46-.89-.51-.14-.02-.3.15-.28.3.07.51.34,1,.7,1.42-.85-.11-1.7-.2-2.54-.33-1.89-.28-3.45-.96-5.2-1.67-.03-.01-.07,0-.1.02,0,0,0,0-.01.01-.03.02-.06.05-.08.08h0s0,0,0,0c-.03.05-.05.1-.04.13.25,1.44,1.74,2.97,2.76,3.95.58.56,1.33,1,2,1.43.08.05.15.09.23.12-.59.03-1.27.06-1.75-.17-.09-.04-.21.11-.23.18-.22.6.99,1.45,1.37,1.65.45.24.98.33,1.53.35.14.03.3.06.47.07-.39.16-.77.35-1.09.6-.07.06-.17.25-.04.29.5.19,1.14.09,1.78-.11-.05.03-.08.06-.1.07-.04.03-.06.06-.09.09-.58.3-1.37.74-1.56,1.29-.08.23.1.33.37.37-.28.05-.43.29-.49.59-.07,0-.15.11-.1.16.02.02.04.04.06.06,0,.01,0,.02,0,.03-.56-.47-1.22-.73-1.55.19-.13.37.09.71.35.98-.31.41-.1.92.27,1.39-.19.03-.37.07-.53.14-.27.11-.45.36-.45.65-.01.85,1.57,1.09,2.18,1.13.63.04,1.24,0,1.83-.11-.2.42-.24.89.03,1.33.08.13.18.24.29.32-.25-.02-.5-.05-.74-.09-.02,0-.04,0-.05-.01-.86-.15-1.72-.37-2.57-.5-.11-.02-.21-.04-.32-.05,0,0,0,0,.01,0-.04,0-.09-.02-.13-.02-.07,0-.18.07-.22.15,0,0,0,0,0,0,0,0,0,.01,0,.02,0,.01,0,.02,0,.03,0,.03,0,.06.01.08.54.76,1.21,1.38,1.88,2.03.51.49,1.17.93,1.71,1.42-.34-.05-.68-.11-.94-.15-.9-.12-1.58-.69-2.43-.95-.13-.04-.26.14-.27.25-.08.74.31,1.55.73,2.12.18.25.42.41.69.52-.26.05-.5.14-.7.25-.35-.6-.7-1.2-1.01-1.82-.05-.1-.22.07-.18.16.27.65.57,1.3.87,1.94-.05.07-.07.16-.02.22.06.06.12.11.19.16.25.54.51,1.08.75,1.62.12.26.23.53.35.79-.06.02-.11.04-.16.06-.05,0-.09,0-.14.01-.19-.22-.4-.43-.58-.65-.05-.06-.16.05-.12.1.14.2.29.38.43.58-.13.01-.26.03-.4.04-.95.08-1.94.08-2.89-.05-.54-.08-1.24-.43-1.78-.37-.68.07-.62.68-.28,1.13.38.49.97.78,1.6.94-.89.28-1.76.74-2.49,1.19-.12.07-1.57,1.26-.67,1.36.09.01.19.01.29.01h0c1.38.07,2.87-.48,4.17-.9.1.12.24.2.39.27-.53.57-.85,1.41-.64,2.09-.95.12-1.86.5-2.06,1.07-.41,1.17.78,1.76,1.67,2.01.06.02.12.02.19.04-.31-.01-.62-.03-.93-.04-.46,0-.99.02-1.49.09-1.11-.32-2.16-.72-3.25-1.25-.05-.03-.13.04-.16.07-.48.63.42,1.77.86,2.2.53.52,1.29.81,2.07.93-.14.05-.28.09-.41.13-.47.13-1.31.22-1.63.67-.03.04-.09.14-.05.2.28.36.98.27,1.37.26.51-.01,1.02-.09,1.52-.22-1.61.94-3.92,2.46-3.71,3.31,0,0,0,0,0,.01.02.07.05.13.1.18.07.07.15.12.22.18-.16.19-.24.45-.19.8.06.41.48.95.74,1.25.03.03.05.06.08.09-.14-.03-.29-.06-.43-.08-.73-.11-1.56-.16-2.29-.2-.27-.01-.65.44-.57.71.16.56.65.91,1.06,1.32.36.36.7.63,1.07.86-.61.25-1.12.64-1.27,1.34-.03.17,0,.3.09.42-.49.12-.99.25-1.47.4-.72.21-2.01.92-1.89,1.85.13,1.08,2.01,1.16,2.8,1.17.54,0,1.09-.14,1.61-.37-.29.92-.17,1.85.76,1.9.52.03,1.07-.13,1.57-.4.38.09.76.15,1.01.19.09.01.16.02.21.03.79.11,1.62.13,2.43.05-.44.2-.89.41-1.23.7-.05.04-.18.26-.04.29.72.14,1.49-.16,2.17-.37.24-.08.48-.15.71-.22-.67.5-1.61,1.26-1.8,1.76h0c-.03.07-.04.13-.03.19h0c0,.06.03.11.07.15,0,0,0,0,0,0,.04.04.09.07.16.09.02,0,.03.01.05.02.08.02.17.04.29.05.91.05,1.88-.1,2.76-.45-.02.04-.04.07-.06.11-.02.05-.02.1.02.14.45.48,1.91-.38,2.32-.57.29-.13.61-.27.92-.42,0,0,0,0,0,0-.1.13-.19.27-.29.39-.33.41-.43.87.25.84.43-.02.87-.14,1.31-.32.08.05.16.11.25.17,0,0,.01,0,.02.01.57.49,1.13.98,1.71,1.46.78.64,1.65,1.25,2.22,2.08.2.29.37.6.53.93-.1,12.09.18,24.19-.62,36.26,1.81.81,3.81.91,5.73.36,0-5.99-.88-11.99-1.05-17.98-.16-5.41-.33-10.83-.38-16.24.05-.05.09-.09.14-.14.66-.5,1.25-1.08,1.88-1.6.93-.29,1.82-.41,2.83-.54,1.15-.15,2.25-.59,3.38-.84.98-.21,1.92-.54,2.85-.88.9-.33,1.87-.54,2.73-.97.08-.04.13-.24,0-.19-.84.38-1.79.52-2.68.78-1.21.36-2.42.62-3.67.86-1.02.2-2.01.52-3.04.69-.42.07-.82.16-1.2.26.13-.09.26-.19.39-.28.74-.46,1.43-1,2.13-1.51.7-.45,1.36-.95,2.05-1.41.09-.05.17-.1.24-.16.04-.02.08-.05.12-.07.02,0,.06,0,.08,0,1.07-.13,2.53-.31,3.43-.96,0,0,0,0,0,0,.39,0,.75-.02.99-.02.81,0,2.91.16,3.36-.79.03-.07.05-.14.03-.2,0-.01-.01-.02-.02-.03-.01-.05-.03-.09-.07-.13-.01-.01-.03-.02-.05-.04-.04-.03-.08-.07-.12-.1-.02-.01-.05-.02-.07-.04-.05-.02-.1-.05-.16-.07-.03-.01-.06-.02-.09-.03-.06-.02-.11-.04-.17-.05-.03,0-.06-.01-.09-.02-.06-.01-.11-.03-.16-.04-.03,0-.06-.01-.08-.02-.08-.02-.15-.03-.21-.04-.03,0-.07-.01-.09-.02-.1-.02-.21-.04-.31-.05.34-.09.67-.18,1-.27.14-.04.29-.08.44-.12.08-.02.15-.04.22-.07.19-.06.39-.12.59-.19,0,0,.02,0,.02,0,.19-.07.38-.15.56-.24.04-.02.07-.04.11-.06.19-.1.36-.21.52-.34,0,0,0,0,0,0,0,0,0,0,0,0,.21-.18.39-.39.5-.64.49-1.1-2.21-.54-2.42-.5-1.2.24-2.41.61-3.58,1.04.13-.11.26-.23.38-.35.47-.49,1.2-1.24,1.25-1.96.01-.16-.14-.15-.24-.07-1.02.98-2.74,1.56-4.19,1.96.37-.27.62-.57.59-.89-.07-.57-1.33-.33-2.46,0,0-.01-.02-.03-.03-.04.23-.14.45-.27.68-.41.56-.33,1.3-.63,1.7-1.16.04-.05.09-.15.06-.22-.27-.52-1.5-.05-1.9.06-.7.17-1.38.4-2.06.63-.04.01-.07.03-.11.04-.23-.02-.48-.02-.77-.02h-2.1c-.37,0-.86.13-1.24.02-.07-.02-.13-.05-.19-.08,0,0,0,0,0,0-.06-.04-.12-.08-.17-.14.4-.25.88-.4,1.35-.55.74.24,1.61.24,2.33.19.62-.05,1.9-.12,2.14-.85.02-.05.02-.11-.02-.15-.16-.14-.34-.19-.56-.21-.09,0-.17-.01-.26-.02.02,0,.05,0,.07,0,1.65-.02,3.21-.5,4.79-.91.25-.07,1.41-.56.99-1.04-.26-.3-.62-.49-1.01-.62.45-.07.92-.2,1.1-.49.13-.21.08-.37-.05-.51.27.02.54.04.81.05,1.32.07,2.9.3,4.2.08.11-.02.35-.22.25-.36.16.21-.17.36.34.18.1-.04.21-.11.28-.2.1-.12.11-.28.17-.42.01-.04.03-.11,0-.14-.08-.11-.17-.2-.28-.29-.03-.02-.06-.04-.08-.06-.08-.06-.16-.12-.25-.18-.03-.02-.06-.03-.09-.05-.1-.05-.2-.1-.31-.15-.02,0-.04-.02-.06-.03-.12-.05-.25-.09-.38-.13,0,0,0,0-.01,0h0c-.44-.12-.91-.19-1.38-.24.72-.21,1.42-.49,2.09-.74.44-.17.98-.38,1.43-.68,0,0,0,0,0,0h0c.36-.24.67-.52.83-.88.03-.05.02-.11-.02-.16ZM17.22,141.91s-.01,0-.02,0c0,0,0,0,0,0,0,0,0,0,.01,0ZM30.55,137.96c-.07,0-.14-.01-.2-.03-.45-.1-.87-.26-1.29-.44-.17-.07-.3-.17-.44-.25.28-.2.54-.43.76-.68.2.14.53.01.78-.11-.11.36-.31.82,0,1.04.06.04.12.01.17-.01.04-.02.07-.05.11-.08,0,0,0,0,0,0,.04-.02.07-.06.11-.08.04-.03.09-.06.13-.1.09-.08.18-.17.27-.27,0,.29-.04.59-.04.7,0,.12,0,.24.02.35-.13-.01-.26-.02-.38-.03,0,0,0,0,0,0ZM39.7,123.32c-.18-.14-.39-.23-.6-.3.29.04.58.07.87.08.18,0,.35.04.51.07-.23.08-.43.24-.59.5-.35.58-.21,1.39.18,2.04-.53.13-1.01.38-1.43.73.03-.07.06-.15,0-.21-.46-.54-1.58-.07-2.14.11-.38.11-.73.29-1.06.48.06-.09.12-.18.18-.26.32-.45.78-.87.95-1.4.03-.07.01-.18-.09-.17-.49.04-.99.46-1.41.8.06-.36.12-.71.19-1.07.08-.1.18-.2.27-.3.06-.01.11-.02.16-.03.11-.02.22-.04.32-.06.15-.03.3-.05.43-.07.9-.12,2.34-.08,3.12-.61.07-.05.23-.24.11-.32ZM36.51,131.09c-.21.05-.42.12-.62.19,0,0,0,0,0,0,.09-.19.15-.37.21-.57.17-.15.34-.31.51-.46.03,0,.07-.01.12-.04.27-.2.54-.4.81-.6.1-.03.21-.06.32-.08.16.09.34.13.52.15-.19.15-.36.3-.48.38-.19.14-.36.28-.54.43.01,0,.02-.02.04-.03-.24.19-.47.39-.7.6-.06.01-.12.02-.18.03ZM41.28,123c0,.05,0,.1,0,.15-.05-.01-.11-.01-.16-.02.05-.03.11-.07.16-.13ZM37.57,127.85s-.02.04-.02.06c-.45-.02-.9-.05-1.36-.07.12-.04.24-.09.35-.12.44-.15,1.04-.34,1.5-.64-.18.24-.33.49-.46.78ZM36.81,129.34s-.02.01-.04.02c-.16.1-.31.21-.46.32,0-.11.01-.22,0-.33.19,0,.35-.01.49-.01ZM35.62,117.31c-.05.17-.08.36-.08.55-.05,0-.09,0-.14-.02-.25-.06-.55-.08-.85-.11.04-1.04.08-2.04.09-2.31.02,0,.02.02.04.03.37.18.8.35,1.22.32.26-.02.55-.1.83-.16-.46.51-.89,1.01-1.11,1.7ZM31.63,124.87s0-.03,0-.04c0,.01.02.02.02.03,0,0-.01,0-.02.01ZM41.29,122.65c-.14-.33-.35-.62-.58-.89.24.14.46.3.68.47-.05.13-.08.27-.1.42ZM35.85,131.82c-.02-.07-.03-.16-.02-.24.11-.04.23-.09.34-.12.04-.01.09-.02.13-.03-.12.11-.27.25-.44.4ZM28.02,121.12c.2.09.38.18.54.28.14.09.26.18.39.28.01.06.03.12.04.18-.13-.04-.26-.08-.39-.1-.34-.07-.75-.02-1.14.11-.09-.08-.18-.17-.28-.26,0-.04-.01-.07-.02-.11.28-.06.57-.2.86-.37ZM19.95,140.99s-.04,0-.06,0c0-.01.02-.02.03-.04,0,.01.02.03.03.04ZM24.82,138.06c1,.28,2.16.08,3.16-.42-.04.5.25.99.62,1.4-.71-.23-1.41-.45-2.14-.64-.43-.11-.94-.14-1.26.21-.3.33.1.75.66,1.11-.52-.06-1.04-.11-1.57-.16.28-.47.48-.98.53-1.49ZM43.6,120.46c-.29.25-.48.61-.6,1.04-.03-.06-.06-.12-.09-.17-.03-.05-.06-.11-.09-.16-.03-.05-.07-.1-.1-.15-.04-.06-.08-.11-.12-.17-.03-.04-.07-.08-.1-.12-.05-.06-.1-.12-.16-.18,0,0,0,0-.01-.01h0c-.07-.08-.14-.15-.22-.23.18.04.37.07.56.1,0,0,0,0,0,0,.18.03.37.04.56.06.05,0,.1,0,.15,0,.07,0,.15,0,.23,0ZM38.74,117.04s-.01,0-.02,0c.16-.23.31-.47.45-.71.03.06.07.12.1.18-.18.17-.36.34-.53.53ZM36.33,110.43s-.05,0-.08,0c-.07-.06-.14-.12-.23-.17,0,0,0,0,0-.01.09.01.18.03.27.04.01.05.02.1.03.15ZM26.95,120.52c.07.05.14.11.22.15-.07.1-.14.21-.2.31-.06-.14-.13-.26-.21-.39.07-.03.12-.05.19-.07ZM36.79,92.57c-.14-.13-.26-.27-.38-.41.07-.04.14-.08.19-.11.2.1.4.19.6.27-.14.07-.28.16-.41.25ZM36.3,91.98s-.01,0-.02.01c-.04-.06-.09-.11-.13-.17.07.04.15.08.23.12-.03.01-.05.03-.08.04ZM29.56,104.25c-.05-.11-.11-.21-.18-.31.11.08.23.17.35.27-.06.01-.11.02-.17.04ZM19.19,130.92s-.01.02-.02.03c-.14.14-.56.54-.42.81.14.27.59.25,1.13.11-.37.25-.8.42-1,.85-.03.07-.08.22.03.24.5.11,1.08-.02,1.62-.16-.2.12-.35.29-.46.47-.33-.08-.67-.16-1-.24-.87-.21-1.74-.49-2.61-.68.12-.05.24-.1.34-.14.8-.33,1.63-.77,2.39-1.29ZM28.61,145.67c-.08-.1-.14-.21-.21-.32.57-.16,1.13-.34,1.68-.56-.45.36-.92.76-1.3,1.11-.06-.08-.11-.15-.17-.23ZM44.6,120.36c.07-.01.13-.03.2-.05.07-.02.15-.04.22-.07.08-.03.17-.06.25-.1-.13.17-.27.34-.4.51-.08-.11-.17-.22-.27-.3ZM39.99,108.34c-.71.31-1.19.86-1.57,1.49,0-.4-.31-.88-.66-1.31-.05-.14-.11-.29-.19-.42.83.17,1.64.24,2.51.2.02,0,.05,0,.07,0-.05.02-.1.03-.16.05ZM37.91,91.03c-.07-.05-.14-.1-.22-.14.14,0,.28-.01.43-.02-.07.05-.14.11-.21.16ZM24.45,101.77c.79-.11,1.65-.26,2.45-.54-.06.05-.12.1-.18.15-.33.23-.66.47-.89.8-.04.05-.14.23-.04.28.43.22.98-.04,1.47-.35.03.07.08.13.13.19.27.31.61.59.95.85.2.15.41.31.6.46-.16-.08-.34-.13-.55-.14-.92-.03-1.57.46-2.08,1.1,0-.54-.12-1.03-.6-1.09-.5-.07-.82.14-1.07.45-.02-.01-.04-.03-.05-.04-.1-.86-.36-1.85-1.1-2.03.41,0,.87-.08.96-.09ZM22.76,115.73c-.16-.34-.33-.67-.51-1,.52.11,1.11.08,1.53.04.39-.04.79-.13,1.17-.25-.18.08-.36.17-.54.26-.33.16-.85.3-1.08.61-.04.05-.12.19-.03.25.66.44,1.49.32,2.29.02.29.27.81.44,1.31.56-.67,0-1.35-.05-2.02.05-.58.09-1.14.25-1.7.43-.13-.33-.26-.65-.41-.97ZM21.17,125.66c-.05.07-.08.15-.13.23-.27-.01-.54-.03-.81-.05.31-.03.63-.09.93-.18ZM27.51,145.76c.1-.06.19-.13.28-.19.12.22.23.45.36.67-.07-.03-.14-.07-.21-.1-.14-.13-.29-.25-.43-.37ZM30.18,147.3c-.2-.12-.41-.24-.63-.35-.03-.04-.06-.08-.09-.12.26-.08.51-.17.7-.23.42-.12.84-.29,1.26-.47,0,.18,0,.35,0,.53,0,.16,0,.32,0,.48-.04.21-.05.41,0,.6,0,.07,0,.13,0,.2-.41-.21-.83-.41-1.22-.65ZM37.77,149.84c-.14.16-.3.32-.46.48-.55.39-1.1.79-1.65,1.17-.2.14-.41.3-.61.45,0-1.81.01-3.62.05-5.44.12-.07.24-.15.35-.21.06-.03.11-.07.17-.1-.01.23.07.46.25.76.28.46.97,1.14,1.57,1.09.29-.02.54-.24.58-.53.03-.24.04-.52.04-.8.07,0,.15,0,.23,0,.37.43.83.74,1.37.97-.65.72-1.28,1.44-1.9,2.16ZM38.42,149.73s.03-.03.04-.04c.07-.06.13-.12.19-.19.02-.02.02-.04.02-.05.26-.29.51-.58.76-.89.19-.23.4-.48.6-.73.31.1.63.19.98.27-.89.5-1.75,1.03-2.61,1.63ZM41.62,147.7c-.11-.14-.23-.28-.36-.4.26.06.55.07.83.07-.16.11-.32.22-.48.34Z"/>
      <path class="cls-3" d="M103.71,143.89s-.06-.05-.09-.07c0,0,0,0,.01,0-.01-.01-.03-.02-.05-.03-.03-.02-.06-.03-.08-.04-.03-.01-.07-.02-.11-.03-.03,0-.07-.01-.1-.02-.04,0-.08,0-.12,0-.04,0-.07,0-.11,0-.04,0-.09,0-.14.01-.04,0-.07,0-.11.01-.05,0-.1.02-.15.03-.04,0-.07.01-.1.02-.06.01-.11.03-.17.04-.03,0-.05.01-.08.02-.07.02-.14.04-.21.05-.07.02-.14.03-.19.04-.27.05-.54.12-.8.19.45-.22.71-.58.02-.87-.75-.31-1.74-.22-2.51-.18-.66.03-1.29.15-1.91.31.13-.15.2-.31.19-.5,0-.31-.56-.3-1.21-.18.01-.01.02-.03.03-.04.12-.18.28-.42.44-.69,1.1,1.41,4.61-.51,5.59-1.64.91-1.04.22-1.89-.79-2.31.07-.06.14-.12.21-.18.55-.52,1.03-1.19.57-1.93-.31-.5-1.14-.28-1.84-.1.22-.32.36-.68.26-1.04-.18-.72-.73-1.01-1.45-.95-.65.05-1.52.56-2.19,1.22-.12-.35-.41-.55-.95-.34-.65.26-.95.9-1.3,1.45-.05.07-.1.16-.14.24,0,0-.01,0-.02.01-.05-.72.11-1.56-.11-2.17-.05-.14-.12-.31-.21-.47.2-.32.41-.63.62-.95.05-.03.1-.07.15-.1.05-.04.11-.07.16-.1.14-.11.28-.23.41-.38.05-.06.12-.24,0-.26-.05-.01-.1-.01-.14-.02.03-.07-.06-.09-.11-.03,0,0,0,0,0,.01-.41-.05-.83,0-1.24,0-.2,0-.4.01-.6.02h0c.08-.02.17-.05.25-.06,1.02-.23,2.27-.32,3.07-1.07.26-.24.4-.69.01-.89-.18-.09-.37-.15-.57-.19h0c-.24-.05-.48-.08-.72-.08.72-.24,1.42-.52,2.05-.86.32-.18.5-.4.46-.59,0,0,0,0,0,0,0-.01-.01-.02-.01-.03,0-.02-.01-.03-.02-.05-.01-.02-.03-.04-.05-.06-.01-.01-.03-.03-.04-.04-.03-.02-.06-.04-.1-.06-.02,0-.04-.02-.06-.03-.06-.02-.14-.04-.23-.06-.97-.17-2.01-.14-3.05.03.23-.39.42-.8.5-1.22.71-.22,1.38-.58,1.99-1.02.45-.33,1.15-.95,1.04-1.58.26-.21.5-.42.74-.63.41-.36,1.11-1.03.89-1.65-.16-.47-.71-.44-1.27-.28.13-.21.21-.44.19-.67-.05-.79-.78-.9-1.44-.94-1.58-.1-2.9.66-3.66,1.9-.2-.22-.49-.38-.84-.46-.96-.21-1.62.32-2.28.85.05-.47-.05-.93-.39-1.08.44-.02.89-.1,1.17-.44.35-.44-.46-.61-1.39-.65.34-.12.68-.25,1.01-.38.53-.19,1.35-.44,1.57-1.04.01-.03.01-.05.02-.08.03,0,.06,0,.09,0,.74,0,1.47,0,2.21,0,.41,0,.73-.03.96-.36.06-.08.14-.22.04-.31-.44-.4-1.24-.43-1.89-.45.23-.07.46-.14.66-.2.83-.24,2.26-.37,2.86-1.07.04-.05.13-.21.04-.26-.1-.05-.21-.09-.33-.11-.03,0-.05-.01-.08-.02-.11-.02-.23-.03-.34-.03-.02,0-.05,0-.07,0-.05,0-.1,0-.14,0,0,0,0,0,0,0-.21,0-.41.02-.59.03-.15,0-.3.02-.45.03h-.07c-.5,0-.99,0-1.49.15-.25.07-.49.15-.74.24-.02,0-.05-.01-.07-.02h0s-.06-.01-.08-.02c.64-.53,1.18-1.27,1.22-1.84.01-.14-.1-.17-.21-.11-.81.45-1.58.91-2.38,1.35.11-.14.15-.26.04-.34-.52-.39-1.53,0-2.08.15-.78.21-1.41.67-2.09,1.02,0,0-.01,0-.02,0,.1-.1.19-.21.29-.32.01,0,.02,0,.03-.01.11-.03.22-.06.33-.09.02,0,.06-.05.08-.09.14-.08.27-.18.32-.32.02-.07-.05-.05-.07,0-.04.08-.28.16-.44.21.22-.31.36-.64.3-.93,0,0,0,0,0,0,.39-.14.71-.45.86-1.01,0,0,0-.01,0-.01l.06-.06c.33.08.65.15.92.21,1.4.32,2.65.06,3.94-.58.61-.3,1.42-.81,1.52-1.55.03-.19-.03-.33-.14-.43.25-.15.5-.32.72-.48.42-.31.98-.54.9-1.18-.03-.25-.23-.34-.51-.34,1.13-.86,2.09-1.88,2.46-3.37.17-.7-.66-.43-.93-.2-.58.5-1.18.95-1.79,1.38.02-.13,0-.25-.09-.35-.41-.51-1.19-.11-1.82.28.42-.87.95-2.17.14-2.19-.67-.02-1.2.59-1.61,1.05-.09.1-.17.2-.26.3.03-.93-.22-1.89-1-2.17-.46-.17-.95.44-1.1.79-.02.04-.03.07-.04.11-.22-.43-.52-.72-.91-.58-.64.23-.77.98-.79,1.75-.23-.23-.54-.35-1-.25-.16.03-.31.1-.47.18.08-.22.14-.42.16-.6.32.09.65.12.89-.02.07-.04.14-.14.13-.23-.06-.51-.75-1.03-1.11-1.3-.03-.02-.06-.04-.09-.06.09-.07.18-.13.26-.21.69-.02,1.43-.06,1.97-.42.08-.05.25-.26.12-.34-.22-.16-.49-.23-.77-.27.78-.13,1.56-.38,2.21-.67.51-.22,1.86-.74,1.89-1.46,0-.06,0-.11-.07-.13-.31-.1-.63.02-.94.12.03-.06.05-.12.06-.18.27-.21.54-.43.78-.65.06-.06.21-.36,0-.33-.4.07-.76.22-1.13.39-.05-.02-.1-.03-.16-.03.17-.14.33-.3.48-.46.03-.03.05-.06.07-.09.14-.16.27-.33.39-.53,0,0,0-.01.01-.02,0,0,0,0,0,0,.11-.19.22-.39.31-.61.05-.12-.06-.22-.17-.14-.7.5-1.35.9-2.17,1.18-.29.1-1.16.38-1.88.41,0-.11-.03-.21-.09-.29-.24-.28-.59-.27-.94-.17.24-.22.45-.46.47-.75,0-.07-.03-.17-.12-.15-.41.09-.79.31-1.17.54.42-.61.87-1.39.63-1.51-.32-.17-.59.06-.82.28-.14.14-.29.26-.44.39-.03-.09-.05-.18-.07-.27h0c-.32-1.16-.6-2.34-.86-3.51-.18-.82-.33-1.64-.44-2.47-.02-.14-.06-.32-.11-.5-.03-.38-.05-.76-.08-1.15.37.5.68,1.24.85,1.68.02.05.05.05.09.03,0,0,0,0,0,0,.02,0,.05-.02.07-.04,0,0,.01-.02.02-.03.02-.02.04-.04.05-.07,0-.01,0-.02.01-.03.01-.04.02-.07.01-.1-.22-.65-.43-1.3-.67-1.94,0-.02-.01-.04-.02-.06,0,0,0,0,0,0-.02-.05-.04-.11-.06-.16-.04-.11-.12-.27-.21-.44.17.24.34.49.51.74.19.29.43.69.78.79.07.02.15-.03.21-.1,0,0,0-.01,0-.02.02-.03.04-.05.05-.08.01-.04.02-.07.01-.1-.22-.82-.62-1.59-.9-2.4-.41-1.19-.72-2.39-.98-3.63-.16-.8-.3-1.61-.44-2.42-.06-.35-.12-.7-.18-1.04-.2-1.14-.23-2.31-.49-3.43,0-.04-.05-.03-.08,0,0-.04-.01-.09-.02-.13-.1.12-.17.26-.25.4,0,0,0,0,0,0,0,.01-.01.03-.02.04-.04.08-.08.17-.11.26-.03.08-.07.17-.1.25-.03.1-.06.19-.09.28-.03.09-.05.18-.07.27-.02.09-.04.18-.06.26-.03.15-.06.29-.09.42-.19.87-.32,1.76-.54,2.62-.09.37-.19.74-.29,1.11-.11.59-.22,1.18-.31,1.78-.1.36-.19.73-.27,1.1-.27,1.21-.49,2.42-.69,3.64-.2,1.22-.7,2.35-.95,3.55-.09.42-.46,1.07-.49,1.48-.01.22-.05.45-.1.67-.24.03-.7-.05-.86-.09-.35-.09-.56-.35-.83-.54-.15-.11-.31.06-.39.16-.34.47-.03,1.1.3,1.61-.32-.13-.64-.25-.99-.33-.14-.03-.31.17-.28.3.06.28.15.47.29.63-.26-.09-.5-.2-.71-.31-.2-.1-.25-.12-.43-.04-.11.05-.2.16-.19.29.05,1.28.8,2.14,1.79,2.54-.53.16-1.07.28-1.66.25-.1,0-.25.18-.19.27.1.15.21.3.33.44.02.03.04.05.07.08.12.14.25.27.39.38,0,0,0,0,0,0h0c.48.4,1.05.65,1.66.67-.28.22-.48.49-.44.76,0,.04.02.06.06.08.33.11.72.04,1.09-.11-.06.14-.11.27-.13.4-.03.24.21.32.55.31-.24.15-.46.33-.6.56-.03.04-.06.16,0,.2.73.42,1.91.41,2.74.39.31-.01.62-.03.92-.05,0,0,0,0,0,0-.21.12-.85.22-.85.22-.57.03-1.17.15-1.73.27-.1.02-.26.18-.16.29.14.15,1.28.68,1.11.79-.19.12-.44.21-.53.45-.04.12-.05.25-.03.36-.08-.01-.16-.04-.25-.05-.53-.11-1.07-.24-1.58-.38-.67-.18-1.29-.47-1.91-.8-.3-.16-.54-.46-.89-.51-.14-.02-.3.15-.28.3.07.51.34,1,.7,1.42-.85-.11-1.7-.2-2.53-.33-1.89-.28-3.45-.96-5.2-1.67-.03-.01-.07,0-.1.02,0,0,0,0-.01.01-.03.02-.06.05-.08.08,0,0,0,0,0,0h0s-.05.1-.04.13c.25,1.44,1.74,2.97,2.76,3.95.58.56,1.33,1,2,1.43.08.05.15.09.23.12-.59.03-1.27.06-1.75-.17-.09-.04-.21.11-.23.18-.22.6.99,1.45,1.37,1.65.45.24.98.33,1.53.35.15.03.3.06.47.07-.39.16-.77.35-1.09.6-.07.06-.17.25-.04.29.5.19,1.14.09,1.78-.11-.04.03-.08.06-.1.07-.03.03-.06.06-.09.09-.58.3-1.37.74-1.56,1.29-.08.23.1.33.37.37-.28.05-.43.29-.49.59-.07,0-.15.11-.1.16.02.02.04.04.06.06,0,.01,0,.02,0,.03-.56-.47-1.22-.73-1.55.19-.13.37.09.71.35.98-.31.41-.1.92.27,1.39-.19.03-.36.07-.53.14-.27.11-.44.36-.45.65-.01.85,1.57,1.09,2.18,1.13.63.04,1.24,0,1.83-.11-.2.42-.24.89.03,1.33.08.13.18.24.28.32-.25-.02-.5-.05-.74-.09-.02,0-.04,0-.05-.01-.86-.15-1.72-.37-2.57-.5-.11-.02-.21-.04-.32-.05,0,0,0,0,.01,0-.04,0-.09-.02-.13-.02-.07,0-.18.07-.22.15,0,0,0,0,0,0,0,0,0,.01,0,.02,0,.01,0,.02,0,.03,0,.03,0,.06.01.08.54.76,1.21,1.38,1.88,2.03.51.49,1.17.93,1.72,1.42-.34-.05-.68-.11-.94-.15-.9-.12-1.58-.69-2.43-.95-.13-.04-.26.14-.27.25-.08.74.31,1.55.73,2.12.18.25.42.41.69.52-.26.05-.5.14-.7.25-.35-.6-.7-1.2-1.01-1.82-.05-.1-.22.07-.18.16.27.65.57,1.3.87,1.94-.05.07-.07.16-.02.22.06.06.12.11.19.16.25.54.51,1.08.75,1.62.12.26.23.53.35.79-.06.02-.11.04-.16.06-.04,0-.09,0-.14.01-.19-.22-.4-.43-.58-.65-.05-.06-.16.05-.12.1.13.2.29.38.43.58-.13.01-.26.03-.4.04-.96.08-1.94.08-2.89-.05-.54-.08-1.24-.43-1.78-.37-.68.07-.62.68-.28,1.13.38.49.97.78,1.6.94-.89.28-1.76.74-2.49,1.19-.12.07-1.57,1.26-.67,1.36.1.01.19.01.29.01h0c1.38.07,2.87-.48,4.17-.9.1.12.24.2.39.27-.53.57-.85,1.41-.64,2.09-.94.12-1.86.5-2.06,1.07-.41,1.17.78,1.76,1.67,2.01.06.02.12.02.19.04-.31-.01-.62-.03-.93-.04-.46,0-.99.02-1.49.09-1.12-.32-2.16-.72-3.25-1.25-.05-.03-.13.04-.16.07-.48.63.42,1.77.86,2.2.53.52,1.29.81,2.07.93-.14.05-.28.09-.42.13-.47.13-1.31.22-1.63.67-.03.04-.1.14-.05.2.28.36.98.27,1.37.26.51-.01,1.02-.09,1.52-.22-1.61.94-3.92,2.46-3.71,3.31,0,0,0,0,0,.01.02.07.05.13.1.18.07.07.15.12.22.18-.16.19-.24.45-.19.8.06.41.48.95.74,1.25.03.03.05.06.08.09-.14-.03-.29-.06-.43-.08-.72-.12-1.56-.16-2.29-.2-.28-.01-.65.44-.57.71.16.56.65.91,1.06,1.32.36.36.7.63,1.07.86-.61.25-1.12.64-1.27,1.34-.03.16,0,.3.09.41-.49.12-.99.25-1.47.4-.72.21-2.01.92-1.89,1.85.13,1.08,2.01,1.16,2.8,1.17.54,0,1.09-.14,1.61-.37-.29.92-.17,1.85.76,1.9.52.03,1.07-.13,1.57-.4.38.09.76.15,1.01.19.09.01.16.02.21.03.79.11,1.62.13,2.43.05-.44.2-.89.41-1.23.7-.05.04-.18.26-.04.29.72.14,1.49-.16,2.17-.37.24-.08.48-.15.71-.22-.67.5-1.6,1.26-1.8,1.76h0c-.03.07-.04.13-.03.19h0c0,.06.03.11.06.15,0,0,0,0,0,0,.04.04.09.07.16.09.02,0,.03.01.05.02.08.02.17.04.29.05.91.05,1.88-.1,2.76-.45-.02.04-.04.07-.06.11-.02.05-.02.1.02.14.45.48,1.91-.38,2.32-.57.29-.13.61-.27.92-.42,0,0,0,0,0,0-.1.13-.19.27-.29.39-.33.41-.43.87.25.84.43-.02.87-.14,1.31-.32.08.05.16.11.25.17,0,0,.01,0,.02.01.56.49,1.13.98,1.71,1.46.78.64,1.65,1.25,2.22,2.08.2.29.37.6.53.93-.1,12.09.18,24.19-.62,36.26,1.81.81,3.81.91,5.73.36,0-5.99-.88-11.99-1.05-17.98-.16-5.41-.33-10.83-.38-16.24.05-.05.09-.09.14-.14.66-.5,1.25-1.08,1.88-1.6.93-.29,1.82-.41,2.83-.54,1.15-.15,2.25-.59,3.38-.84.97-.21,1.92-.54,2.85-.88.9-.33,1.87-.54,2.73-.97.07-.04.13-.24,0-.19-.84.38-1.79.52-2.68.78-1.21.36-2.42.62-3.67.86-1.02.2-2.01.52-3.04.69-.42.07-.82.16-1.21.26.13-.09.26-.19.39-.28.74-.46,1.43-1,2.13-1.51.7-.45,1.36-.95,2.05-1.41.09-.05.17-.1.24-.16.04-.02.08-.05.12-.07.02,0,.06,0,.08,0,1.07-.13,2.53-.31,3.43-.96,0,0,0,0,0,0,.39,0,.75-.02.99-.02.81,0,2.91.16,3.36-.79.04-.07.04-.14.04-.2,0-.01-.01-.02-.02-.03-.01-.05-.03-.09-.07-.13-.01-.01-.03-.02-.05-.04-.04-.03-.07-.07-.12-.1-.02-.01-.05-.02-.07-.04-.05-.02-.1-.05-.15-.07-.03-.01-.06-.02-.09-.03-.06-.02-.11-.04-.17-.05-.03,0-.06-.01-.09-.02-.06-.01-.11-.03-.16-.04-.03,0-.06-.01-.08-.02-.08-.02-.15-.03-.21-.04-.03,0-.07-.01-.09-.02-.1-.02-.21-.04-.31-.05.34-.09.68-.18,1-.27.14-.04.29-.08.44-.12.08-.02.15-.04.22-.07.19-.06.39-.12.59-.19,0,0,.02,0,.02,0,.19-.07.38-.15.56-.24.04-.02.07-.04.11-.06.19-.1.36-.21.52-.34,0,0,0,0,0,0,0,0,0,0,0,0,.21-.18.39-.39.5-.64.49-1.1-2.21-.54-2.43-.5-1.21.24-2.41.61-3.58,1.04.13-.12.26-.23.38-.35.47-.49,1.2-1.24,1.25-1.96.01-.16-.14-.15-.24-.07-1.02.98-2.74,1.56-4.19,1.96.37-.27.62-.57.59-.89-.07-.57-1.33-.33-2.46,0,0-.01-.02-.03-.03-.04.23-.14.45-.27.68-.41.56-.33,1.3-.63,1.71-1.16.04-.05.09-.15.06-.22-.28-.52-1.5-.05-1.9.06-.7.17-1.38.4-2.06.63-.04,0-.07.03-.11.04-.23-.02-.48-.02-.77-.02h-2.1c-.37,0-.86.13-1.24.02-.07-.02-.13-.05-.19-.08,0,0,0,0,0,0-.06-.04-.12-.09-.17-.15.4-.24.88-.4,1.35-.55.75.24,1.61.24,2.33.19.62-.05,1.9-.12,2.14-.85.02-.05.02-.11-.02-.15-.16-.15-.34-.19-.56-.21-.09,0-.17-.01-.26-.02.02,0,.05,0,.07,0,1.65-.02,3.21-.49,4.79-.91.25-.07,1.41-.56.99-1.04-.26-.3-.62-.49-1.01-.62.45-.07.92-.2,1.1-.49.13-.21.08-.37-.05-.51.27.02.54.04.81.05,1.32.07,2.9.3,4.2.08.11-.02.35-.22.25-.36.16.21-.17.37.34.18.1-.04.21-.11.28-.2.1-.12.11-.28.17-.42.01-.04.03-.11,0-.15-.08-.11-.18-.2-.28-.29-.03-.02-.06-.04-.08-.06-.08-.06-.16-.12-.25-.18-.03-.02-.06-.03-.09-.05-.1-.05-.2-.1-.31-.15-.02,0-.04-.02-.06-.02-.12-.05-.25-.09-.38-.13,0,0,0,0-.01,0h0c-.44-.12-.91-.2-1.38-.24.72-.21,1.42-.49,2.1-.74.44-.17.98-.38,1.43-.68,0,0,0,0,0,0h0c.36-.24.67-.52.83-.88.02-.06,0-.12-.03-.17ZM65.98,154.74s0,0-.02,0c0,0,0,0,0,0,0,0,0,0,.01,0ZM79.31,150.79c-.07,0-.14-.01-.2-.02-.45-.1-.87-.26-1.29-.44-.17-.07-.3-.17-.44-.25.28-.2.54-.43.76-.68.2.14.53.01.78-.11-.11.36-.31.82,0,1.04.06.04.12.01.17-.01.04-.02.07-.05.11-.08,0,0,0,0,0,0,.04-.02.07-.06.11-.08.04-.03.09-.06.13-.1.09-.08.18-.17.27-.27,0,.29-.04.59-.04.7,0,.12,0,.24.02.35-.13-.01-.26-.02-.38-.03,0,0,0,0,0,0ZM88.45,136.15c-.18-.14-.39-.23-.6-.3.29.04.58.07.87.08.18,0,.35.04.51.07-.22.08-.43.24-.59.5-.35.58-.21,1.39.18,2.04-.53.13-1.01.38-1.43.73.03-.07.06-.15,0-.21-.46-.54-1.58-.07-2.14.11-.38.11-.73.29-1.06.48.06-.09.12-.18.18-.26.32-.45.78-.87.95-1.4.03-.07.01-.18-.09-.17-.49.04-.99.46-1.41.8.06-.36.12-.71.19-1.07.08-.1.18-.2.27-.3.06-.01.11-.02.17-.03.11-.02.22-.04.32-.06.15-.03.3-.05.43-.07.9-.12,2.34-.08,3.12-.61.07-.05.23-.24.11-.32ZM85.27,143.93c-.21.05-.42.12-.62.19,0,0,0,0,0,0,.09-.19.15-.37.21-.57.17-.15.34-.31.51-.46.03,0,.07-.01.12-.04.27-.2.54-.4.81-.6.11-.03.21-.06.32-.08.16.09.34.13.52.15-.19.15-.36.3-.47.38-.18.14-.36.28-.54.43.01,0,.03-.02.04-.03-.24.19-.47.39-.7.6-.06.01-.12.02-.18.03ZM90.03,135.83c0,.05,0,.1,0,.15-.05-.01-.11-.01-.16-.02.05-.03.11-.07.16-.13ZM86.33,140.68s-.01.04-.02.06c-.45-.02-.9-.05-1.36-.07.12-.04.24-.09.35-.12.44-.15,1.04-.34,1.5-.64-.18.24-.33.49-.46.78ZM85.57,142.18s-.03.01-.04.02c-.16.1-.31.21-.46.32,0-.11.01-.22,0-.33.19,0,.35-.01.49-.01ZM84.38,130.15c-.05.16-.08.36-.08.55-.04,0-.09,0-.13-.02-.25-.06-.55-.08-.85-.11.04-1.04.08-2.04.09-2.31.02,0,.02.02.04.03.37.18.8.35,1.22.32.26-.02.55-.1.83-.16-.46.51-.9,1.01-1.11,1.7ZM80.38,137.7s0-.03,0-.04c0,.01.01.02.02.03,0,0-.01,0-.02.01ZM90.05,135.49c-.14-.33-.35-.62-.58-.89.24.14.46.3.68.47-.05.13-.08.27-.1.42ZM84.61,144.65c-.02-.07-.03-.16-.03-.24.11-.04.22-.09.34-.12.04-.01.08-.02.13-.03-.12.11-.27.25-.44.4ZM76.78,133.95c.19.09.38.18.54.28.14.09.26.18.39.28.01.06.03.12.04.18-.13-.04-.26-.08-.39-.1-.34-.07-.75-.02-1.14.11-.09-.08-.19-.17-.28-.26,0-.04-.01-.07-.02-.11.28-.06.58-.2.87-.37ZM68.71,153.82s-.04,0-.06,0c0-.01.02-.02.03-.04,0,.01.02.03.03.04ZM73.58,150.9c1,.28,2.17.09,3.16-.42-.04.5.25.99.62,1.4-.71-.23-1.41-.45-2.14-.64-.43-.11-.94-.14-1.26.21-.3.33.1.75.66,1.1-.52-.06-1.04-.11-1.56-.16.28-.47.48-.98.53-1.49ZM92.35,133.29c-.29.25-.48.61-.6,1.04-.03-.06-.06-.12-.09-.17-.03-.05-.06-.11-.09-.16-.03-.05-.07-.1-.1-.15-.04-.06-.08-.11-.12-.17-.03-.04-.07-.08-.1-.12-.05-.06-.1-.12-.16-.18,0,0,0,0-.01-.01h0c-.07-.08-.14-.15-.22-.23.18.04.37.07.56.1,0,0,0,0,0,0,.18.03.37.04.56.06.05,0,.1,0,.15,0,.07,0,.15,0,.23,0ZM87.5,129.87s-.01,0-.02,0c.16-.23.31-.47.45-.71.03.06.07.12.1.18-.18.17-.36.34-.53.53ZM85.09,123.26s-.05,0-.08,0c-.07-.06-.14-.12-.22-.17,0,0,0,0,0-.01.09.01.18.03.27.04.01.05.02.1.03.15ZM75.71,133.36c.07.05.14.11.22.15-.07.1-.14.21-.2.31-.06-.14-.13-.26-.21-.39.06-.03.12-.05.19-.07ZM85.54,105.4c-.14-.13-.26-.27-.38-.41.07-.04.14-.08.19-.11.2.1.4.19.6.27-.14.07-.28.16-.41.25ZM85.06,104.81s-.01,0-.02.01c-.04-.06-.09-.11-.13-.17.07.04.15.08.23.12-.03.01-.05.03-.08.04ZM78.32,117.09c-.05-.11-.11-.21-.18-.31.11.08.23.17.35.27-.06.01-.11.02-.17.04ZM67.95,143.76s-.01.02-.02.03c-.14.14-.56.54-.42.81.14.27.59.26,1.13.11-.37.25-.81.42-1,.85-.03.07-.08.22.03.24.5.11,1.08-.02,1.62-.16-.19.12-.35.29-.46.47-.33-.08-.67-.16-1-.24-.87-.21-1.74-.49-2.61-.68.12-.05.24-.1.34-.14.8-.33,1.63-.77,2.39-1.29ZM77.37,158.5c-.08-.1-.14-.21-.21-.32.57-.16,1.13-.34,1.68-.56-.45.36-.92.76-1.3,1.11-.06-.08-.11-.15-.17-.23ZM93.36,133.2c.07-.01.13-.03.2-.05.07-.02.15-.04.22-.07.08-.03.17-.06.25-.1-.13.17-.27.34-.4.51-.08-.11-.17-.22-.27-.3ZM88.75,121.17c-.71.31-1.19.86-1.57,1.49,0-.4-.31-.88-.66-1.31-.05-.14-.11-.29-.19-.42.83.17,1.64.24,2.51.2.02,0,.05,0,.07,0-.05.02-.1.03-.16.05ZM86.67,103.86c-.07-.05-.14-.1-.22-.14.14,0,.28-.01.43-.02-.07.05-.14.11-.21.16ZM73.21,114.6c.78-.11,1.65-.26,2.45-.54-.06.05-.12.1-.19.15-.33.23-.66.47-.89.8-.03.05-.14.23-.04.28.43.22.98-.04,1.47-.35.03.07.08.13.13.19.27.31.61.59.96.85.2.15.4.31.6.46-.16-.08-.34-.13-.55-.14-.92-.03-1.57.46-2.08,1.1,0-.54-.12-1.03-.6-1.09-.5-.07-.82.14-1.06.45-.02-.01-.04-.03-.05-.04-.1-.86-.35-1.85-1.1-2.03.41,0,.87-.08.96-.1ZM71.51,128.57c-.16-.34-.33-.67-.51-1,.52.11,1.11.08,1.53.04.39-.04.79-.13,1.17-.25-.18.08-.36.17-.54.26-.33.16-.85.3-1.08.61-.04.05-.12.19-.03.25.66.44,1.49.32,2.29.02.29.27.81.44,1.31.56-.67,0-1.35-.05-2.02.05-.58.09-1.14.25-1.69.43-.13-.33-.26-.65-.41-.97ZM69.92,138.49c-.04.07-.08.15-.12.23-.27-.01-.54-.03-.81-.05.31-.03.63-.09.93-.18ZM76.27,158.6c.1-.06.19-.13.28-.19.12.22.23.45.36.67-.07-.03-.14-.07-.21-.1-.14-.13-.29-.25-.43-.37ZM78.94,160.13c-.2-.12-.41-.24-.63-.35-.03-.04-.06-.08-.09-.12.26-.08.51-.17.7-.23.42-.12.85-.29,1.26-.47,0,.18,0,.35,0,.53,0,.16,0,.32,0,.48-.04.21-.05.41,0,.6,0,.07,0,.13,0,.2-.41-.21-.83-.41-1.22-.65ZM86.52,162.68c-.14.16-.3.32-.46.48-.55.39-1.1.79-1.65,1.17-.2.14-.41.3-.61.45,0-1.81.01-3.62.04-5.44.12-.07.24-.15.35-.21.06-.03.12-.07.17-.1-.01.23.07.46.25.76.28.46.97,1.14,1.57,1.09.29-.02.54-.24.58-.53.03-.24.04-.52.04-.8.07,0,.15,0,.23,0,.37.43.83.74,1.37.97-.65.71-1.28,1.43-1.9,2.16ZM87.18,162.56s.03-.03.04-.04c.07-.06.13-.12.19-.19.02-.02.02-.04.03-.05.26-.29.51-.58.76-.89.19-.23.4-.48.61-.73.31.1.63.19.98.27-.89.5-1.75,1.03-2.61,1.63ZM90.38,160.53c-.11-.14-.23-.28-.36-.4.26.06.55.07.83.07-.16.11-.32.23-.47.34Z"/>
    </g>
  </g>
  <g class="cls-2">
    <g>
      <path class="cls-3" d="M310.4,116.71c-.04-.05-.1-.08-.15-.12,0,0,.02,0,.02,0-.02-.02-.06-.03-.09-.05-.05-.03-.1-.06-.15-.08-.06-.02-.12-.04-.18-.06-.06-.01-.11-.03-.18-.03-.07,0-.14-.01-.22-.01-.07,0-.13,0-.19,0-.08,0-.16.01-.24.02-.07,0-.13.01-.2.03-.09.01-.17.03-.26.05-.06.01-.12.02-.18.04-.1.02-.2.05-.29.07-.05.01-.09.02-.14.04-.13.03-.25.07-.37.1-.12.03-.24.06-.33.08-.47.09-.94.21-1.4.33.79-.38,1.23-1.02.04-1.51-1.3-.54-3.03-.39-4.38-.32-1.14.06-2.25.26-3.33.53.22-.25.35-.54.34-.88-.01-.54-.97-.52-2.11-.31.02-.03.04-.05.06-.08.2-.31.48-.72.77-1.2,1.92,2.45,8.03-.89,9.75-2.86,1.59-1.82.38-3.3-1.38-4.02.12-.1.25-.21.37-.32.96-.9,1.8-2.07,1-3.36-.54-.86-1.99-.49-3.2-.17.38-.57.62-1.18.46-1.82-.32-1.25-1.27-1.77-2.53-1.66-1.13.1-2.65.97-3.82,2.13-.22-.62-.71-.95-1.65-.59-1.14.45-1.66,1.56-2.27,2.52-.08.13-.17.27-.25.42-.01,0-.02.01-.04.02-.09-1.26.18-2.73-.2-3.79-.09-.24-.21-.53-.36-.81.35-.56.71-1.11,1.07-1.66.09-.06.18-.12.27-.18.09-.06.18-.11.27-.18.25-.19.49-.41.71-.66.09-.1.21-.41,0-.46-.08-.02-.17-.02-.25-.04.05-.12-.1-.16-.18-.05,0,0-.01.01-.02.02-.71-.08-1.45,0-2.17,0-.35,0-.7.02-1.05.03,0,0,0,0,0,0,.14-.04.3-.08.44-.11,1.78-.39,3.96-.56,5.36-1.86.45-.42.7-1.21.02-1.55-.32-.15-.65-.26-.99-.34t0,0h0c-.41-.09-.83-.14-1.26-.15,1.25-.42,2.48-.91,3.57-1.5.57-.31.88-.7.81-1.03,0,0,.01,0,.02,0,0-.02-.02-.04-.02-.05,0-.03-.02-.06-.04-.08-.02-.04-.05-.07-.09-.11-.02-.02-.05-.05-.07-.07-.05-.04-.11-.07-.17-.1-.03-.02-.06-.03-.1-.05-.11-.04-.24-.08-.39-.11-1.69-.29-3.5-.24-5.32.05.4-.67.72-1.4.87-2.13,1.24-.39,2.41-1.01,3.46-1.79.78-.58,2-1.66,1.8-2.76.45-.36.88-.74,1.29-1.1.71-.62,1.93-1.8,1.56-2.87-.28-.82-1.24-.77-2.21-.49.22-.38.36-.77.34-1.16-.08-1.38-1.37-1.56-2.52-1.64-2.75-.18-5.05,1.15-6.38,3.32-.35-.39-.85-.67-1.46-.8-1.67-.38-2.82.56-3.98,1.47.08-.82-.09-1.63-.67-1.89.78-.04,1.56-.17,2.05-.77.61-.76-.81-1.06-2.42-1.14.59-.21,1.18-.44,1.76-.65.93-.34,2.35-.77,2.73-1.8.02-.05.02-.09.03-.13.05,0,.11,0,.16,0,1.29.02,2.57,0,3.86,0,.71,0,1.28-.05,1.68-.62.1-.14.24-.39.07-.54-.77-.7-2.17-.74-3.3-.79.4-.12.8-.24,1.15-.35,1.46-.41,3.95-.64,4.99-1.87.07-.09.22-.38.06-.46-.18-.1-.37-.15-.57-.19-.05,0-.09-.02-.14-.03-.2-.03-.4-.05-.6-.05-.04,0-.08,0-.12,0-.08,0-.17,0-.25,0,0,0,0,0,0,0-.36.01-.71.04-1.04.05-.26,0-.52.03-.78.06h-.13c-.87,0-1.72,0-2.6.27-.43.13-.86.26-1.29.41-.04-.01-.08-.02-.13-.03h0s-.1-.03-.15-.03c1.12-.93,2.07-2.21,2.12-3.2.02-.25-.18-.3-.37-.19-1.41.78-2.76,1.59-4.15,2.35.2-.25.26-.46.08-.59-.9-.67-2.67,0-3.63.27-1.35.37-2.45,1.16-3.64,1.79-.01,0-.02,0-.04,0,.17-.18.33-.36.5-.55.02,0,.03-.01.05-.02.19-.05.38-.11.57-.16.04-.01.11-.09.15-.16.25-.14.47-.31.55-.55.04-.12-.1-.08-.13,0-.07.14-.48.28-.78.37.38-.54.64-1.11.52-1.62,0,0,0,0,0,0,.68-.24,1.23-.78,1.51-1.76,0,0,0-.02,0-.03.04-.04.07-.07.11-.11.58.15,1.13.26,1.61.37,2.45.55,4.62.1,6.87-1.02,1.07-.53,2.48-1.42,2.65-2.71.05-.33-.06-.57-.24-.75.44-.27.87-.55,1.26-.84.73-.54,1.71-.94,1.57-2.06-.05-.44-.41-.6-.89-.6,1.97-1.49,3.65-3.27,4.29-5.87.3-1.23-1.15-.74-1.62-.35-1.01.87-2.06,1.65-3.12,2.41.03-.22,0-.43-.15-.61-.71-.88-2.07-.19-3.18.49.73-1.51,1.65-3.78.23-3.82-1.17-.04-2.09,1.03-2.8,1.83-.15.17-.3.35-.45.52.04-1.63-.38-3.29-1.75-3.78-.81-.29-1.65.77-1.92,1.38-.03.06-.05.12-.07.19-.39-.74-.91-1.26-1.59-1.02-1.11.4-1.34,1.7-1.37,3.05-.41-.4-.94-.61-1.74-.43-.27.06-.55.17-.81.32.15-.38.24-.73.28-1.04.55.15,1.13.22,1.56-.03.13-.08.24-.24.23-.4-.11-.9-1.3-1.79-1.94-2.27-.05-.04-.11-.07-.16-.1.15-.12.31-.23.45-.36,1.2-.04,2.49-.11,3.43-.74.13-.09.44-.45.22-.6-.39-.27-.86-.4-1.35-.48,1.36-.23,2.71-.67,3.86-1.17.89-.39,3.25-1.28,3.3-2.54,0-.1-.01-.2-.12-.23-.55-.17-1.1.03-1.64.2.05-.11.08-.21.11-.32.47-.36.93-.74,1.36-1.14.1-.1.37-.63,0-.57-.69.12-1.33.39-1.96.68-.09-.03-.18-.05-.28-.06.3-.25.58-.52.84-.8.04-.05.09-.1.13-.15.25-.28.47-.58.68-.92,0-.01.01-.02.02-.03,0,0,0,0-.01.01.2-.33.39-.68.54-1.07.08-.21-.1-.38-.3-.24-1.21.87-2.35,1.57-3.78,2.06-.51.18-2.02.65-3.27.72,0-.19-.05-.36-.16-.5-.41-.49-1.03-.46-1.64-.29.43-.39.79-.81.82-1.3,0-.12-.05-.29-.21-.26-.71.15-1.39.53-2.04.93.73-1.06,1.51-2.42,1.1-2.64-.55-.29-1.03.1-1.42.49-.24.24-.5.46-.76.67-.04-.16-.08-.31-.12-.47h0c-.56-2.03-1.05-4.08-1.5-6.13-.32-1.43-.58-2.86-.78-4.3-.04-.25-.11-.56-.2-.88-.04-.67-.09-1.33-.14-2,.65.88,1.18,2.17,1.48,2.93.03.08.09.08.16.06,0,0,0,0,0,0,.04-.02.08-.04.12-.08.02-.01.03-.03.04-.05.04-.04.06-.08.09-.12,0-.02.02-.03.02-.05.02-.06.04-.12.02-.18-.38-1.13-.75-2.26-1.16-3.38-.01-.03-.02-.07-.03-.1,0,0,0,0,0,.01-.03-.09-.06-.18-.1-.27-.08-.2-.21-.47-.36-.76.3.43.59.85.88,1.29.34.51.75,1.2,1.36,1.37.12.03.26-.05.36-.17,0,0,.01-.02.02-.03.03-.04.07-.09.09-.14.02-.06.03-.12.02-.17-.39-1.43-1.09-2.78-1.56-4.18-.71-2.08-1.26-4.17-1.71-6.33-.28-1.4-.53-2.81-.77-4.22-.1-.61-.21-1.21-.32-1.82-.35-1.99-.41-4.02-.85-5.98-.02-.08-.08-.06-.14,0-.01-.08-.02-.15-.04-.23-.17.21-.3.45-.43.7,0,0,0-.01,0-.02-.01.02-.02.05-.03.07-.07.15-.13.3-.19.46-.06.15-.12.29-.17.44-.05.17-.1.32-.15.49-.04.16-.08.31-.12.47-.04.16-.08.31-.11.46-.06.26-.11.51-.16.73-.33,1.52-.56,3.06-.93,4.58-.16.65-.32,1.29-.5,1.94-.19,1.03-.38,2.06-.55,3.1-.17.64-.33,1.27-.47,1.91-.47,2.11-.86,4.23-1.2,6.35-.35,2.12-1.22,4.1-1.66,6.2-.15.74-.81,1.86-.85,2.58-.02.39-.09.78-.18,1.16-.41.05-1.22-.09-1.5-.16-.6-.15-.98-.61-1.45-.94-.26-.19-.54.1-.68.29-.6.81-.05,1.91.52,2.81-.56-.23-1.11-.44-1.72-.58-.24-.06-.54.29-.49.52.1.49.27.83.5,1.1-.44-.16-.87-.34-1.24-.54-.35-.18-.44-.21-.76-.07-.19.08-.35.28-.34.5.09,2.23,1.4,3.74,3.12,4.43-.93.28-1.87.49-2.89.43-.18-.01-.43.31-.33.48.17.27.37.52.58.77.04.05.08.09.12.14.21.24.44.47.69.67,0,0,0,0,0,0h0c.84.69,1.83,1.14,2.89,1.17-.49.39-.84.85-.77,1.33,0,.07.04.11.11.13.57.2,1.26.06,1.9-.2-.11.24-.19.48-.22.69-.06.42.37.55.96.53-.42.26-.8.57-1.05.98-.05.08-.11.28,0,.34,1.27.73,3.33.72,4.77.67.54-.02,1.07-.04,1.61-.09,0,0,0,0,0,0-.36.2-1.48.38-1.49.38-.99.04-2.04.26-3.02.46-.18.04-.45.32-.28.5.24.26,2.23,1.18,1.93,1.37-.33.21-.78.38-.93.79-.08.22-.09.43-.06.64-.14-.03-.29-.06-.43-.09-.93-.19-1.86-.43-2.75-.67-1.18-.32-2.26-.82-3.33-1.4-.53-.28-.95-.81-1.55-.89-.25-.03-.52.27-.49.52.12.9.59,1.74,1.23,2.47-1.48-.2-2.96-.36-4.42-.57-3.3-.48-6.02-1.68-9.07-2.91-.06-.02-.12,0-.18.03,0,0-.01.01-.02.02-.05.04-.1.08-.13.14,0,0,0,0,0,0h0c-.05.08-.08.17-.07.23.43,2.5,3.04,5.18,4.81,6.89,1,.97,2.32,1.74,3.49,2.48.13.08.27.15.41.22-1.03.06-2.21.1-3.05-.29-.16-.08-.36.19-.41.31-.38,1.04,1.73,2.53,2.39,2.89.78.42,1.71.58,2.66.6.25.06.53.1.81.12-.67.28-1.35.62-1.9,1.04-.13.1-.3.43-.07.51.87.33,1.99.15,3.1-.19-.08.05-.14.1-.18.13-.06.05-.11.1-.16.15-1,.53-2.39,1.28-2.73,2.25-.14.4.18.58.65.64-.48.09-.74.5-.86,1.03-.12,0-.26.19-.17.28.04.03.08.06.11.1,0,.02,0,.04,0,.06-.98-.83-2.13-1.28-2.7.33-.23.64.15,1.24.61,1.7-.54.71-.18,1.61.47,2.43-.32.05-.64.13-.93.25-.46.2-.78.64-.78,1.14-.02,1.47,2.74,1.9,3.8,1.97,1.1.07,2.16,0,3.2-.2-.35.73-.41,1.55.05,2.32.14.24.31.41.5.56-.43-.04-.87-.08-1.3-.15-.03,0-.06-.01-.09-.02-1.5-.26-2.99-.64-4.49-.88-.18-.03-.37-.07-.55-.09,0,0,.01,0,.02,0-.08,0-.15-.03-.23-.04-.12-.01-.31.12-.39.27,0,0,0,0,0,0,0,.01,0,.02,0,.04,0,.02-.01.03-.01.05,0,.05,0,.1.02.14.94,1.32,2.11,2.41,3.27,3.54.89.85,2.04,1.62,2.99,2.48-.6-.09-1.18-.2-1.64-.26-1.57-.21-2.76-1.21-4.23-1.66-.22-.07-.46.24-.48.43-.13,1.29.54,2.7,1.28,3.7.32.44.74.72,1.21.9-.45.09-.87.24-1.22.44-.6-1.05-1.21-2.1-1.76-3.17-.09-.17-.38.12-.32.27.47,1.14.99,2.26,1.52,3.38-.08.12-.13.27-.03.38.1.11.21.2.34.28.44.94.89,1.88,1.32,2.83.21.46.4.92.61,1.37-.1.04-.19.07-.29.11-.08.01-.16.01-.24.03-.34-.38-.69-.75-1.01-1.14-.08-.1-.27.09-.21.18.24.35.51.67.75,1.01-.23.02-.46.05-.69.07-1.66.14-3.38.14-5.04-.09-.95-.14-2.17-.74-3.11-.65-1.18.12-1.09,1.18-.48,1.97.66.85,1.68,1.36,2.79,1.64-1.56.49-3.07,1.29-4.34,2.08-.21.13-2.73,2.19-1.17,2.37.17.02.34.02.5.03h0c2.41.11,5.01-.84,7.27-1.58.18.21.42.35.68.46-.92,1-1.49,2.46-1.12,3.64-1.65.21-3.24.86-3.59,1.86-.72,2.04,1.37,3.06,2.91,3.5.1.03.22.04.33.06-.54-.03-1.07-.06-1.61-.06-.8,0-1.72.04-2.6.16-1.95-.56-3.76-1.26-5.67-2.18-.09-.04-.22.07-.27.13-.84,1.11.74,3.09,1.51,3.84.93.91,2.25,1.4,3.62,1.61-.25.08-.5.16-.72.22-.83.22-2.29.38-2.84,1.16-.05.08-.17.25-.09.35.48.63,1.71.48,2.4.46.88-.02,1.78-.16,2.65-.38-2.8,1.64-6.84,4.3-6.47,5.78,0,0,0,.01,0,.02.03.11.08.22.17.32.12.13.26.21.39.31-.28.32-.41.78-.32,1.39.1.71.83,1.65,1.28,2.18.04.05.09.1.14.15-.25-.05-.5-.1-.75-.14-1.26-.2-2.71-.28-3.99-.35-.48-.03-1.13.77-1,1.24.28.98,1.14,1.59,1.84,2.29.63.62,1.22,1.1,1.87,1.51-1.06.43-1.96,1.12-2.21,2.33-.06.29,0,.53.15.72-.86.22-1.72.44-2.57.69-1.25.36-3.5,1.61-3.3,3.22.23,1.88,3.51,2.03,4.88,2.04.95.01,1.91-.24,2.81-.65-.5,1.61-.29,3.22,1.33,3.32.91.06,1.86-.23,2.74-.69.65.16,1.32.26,1.76.32.16.02.29.04.37.05,1.38.2,2.82.23,4.23.08-.76.35-1.55.72-2.15,1.22-.09.08-.31.45-.07.5,1.25.25,2.6-.28,3.78-.65.42-.13.84-.25,1.25-.38-1.16.87-2.8,2.2-3.14,3.07h0c-.05.12-.07.23-.06.33h0c0,.1.04.19.11.27,0,0,0,0,0,0,.06.06.16.12.27.16.03.01.05.02.09.03.14.04.3.07.51.08,1.58.09,3.27-.18,4.81-.79-.04.07-.07.13-.1.2-.03.09-.03.18.03.25.78.84,3.32-.66,4.05-.99.5-.23,1.06-.47,1.61-.73,0,0,0,0,.01.01-.17.23-.33.46-.5.68-.57.72-.75,1.51.43,1.47.74-.03,1.52-.24,2.29-.56.14.1.28.19.43.29.01,0,.02.02.04.02.99.85,1.97,1.71,2.98,2.54,1.36,1.12,2.87,2.18,3.88,3.62.35.5.64,1.05.92,1.62-.18,21.08.31,42.18-1.08,63.22,3.16,1.41,6.64,1.58,9.99.63.01-10.45-1.52-20.9-1.83-31.36-.27-9.43-.58-18.88-.66-28.32.08-.08.16-.16.24-.24,1.15-.87,2.18-1.88,3.29-2.79,1.63-.51,3.17-.71,4.93-.93,2.01-.25,3.92-1.03,5.9-1.46,1.7-.37,3.34-.95,4.97-1.54,1.57-.57,3.27-.93,4.75-1.69.13-.07.22-.42,0-.32-1.46.66-3.13.91-4.67,1.37-2.11.63-4.23,1.07-6.39,1.5-1.78.35-3.5.9-5.31,1.21-.73.12-1.42.27-2.1.46.23-.16.46-.33.69-.49,1.29-.81,2.5-1.74,3.71-2.62,1.22-.78,2.37-1.65,3.57-2.45.15-.08.3-.18.43-.28.07-.04.14-.09.2-.13.04,0,.1-.01.14-.02,1.86-.23,4.41-.54,5.98-1.67,0,0,0,0,0,0,.68,0,1.3-.03,1.72-.03,1.41,0,5.08.29,5.87-1.38.06-.13.08-.25.06-.35,0-.02-.02-.04-.03-.06-.02-.08-.05-.16-.11-.23-.02-.02-.05-.04-.08-.06-.07-.06-.13-.12-.22-.17-.04-.02-.08-.04-.13-.06-.09-.04-.17-.09-.27-.12-.05-.02-.1-.03-.16-.05-.1-.03-.19-.07-.29-.09-.06-.01-.11-.03-.16-.04-.1-.02-.19-.05-.28-.07-.05-.01-.1-.02-.15-.03-.14-.03-.26-.05-.36-.07-.06-.01-.12-.02-.16-.03-.18-.04-.36-.06-.54-.09.59-.15,1.18-.31,1.75-.47.24-.07.5-.14.77-.21.13-.04.26-.07.39-.11.34-.1.68-.21,1.03-.33.01,0,.03-.01.04-.02.33-.12.65-.26.97-.42.07-.03.13-.07.19-.1.33-.18.63-.37.9-.6,0,0,0,0,.01,0,0,0,0,0,0,0,.37-.31.67-.68.87-1.11.85-1.91-3.86-.94-4.23-.87-2.1.42-4.2,1.07-6.24,1.82.23-.2.45-.4.65-.61.82-.85,2.1-2.15,2.18-3.41.02-.28-.25-.27-.41-.12-1.78,1.71-4.78,2.72-7.31,3.41.64-.46,1.09-.99,1.02-1.54-.12-1-2.31-.57-4.29.01-.02-.03-.04-.05-.05-.07.39-.24.79-.48,1.19-.71.98-.57,2.27-1.1,2.97-2.02.08-.1.16-.25.1-.38-.48-.9-2.62-.08-3.32.1-1.22.3-2.4.69-3.59,1.1-.06.02-.13.05-.19.07-.4-.04-.84-.04-1.35-.04h-3.65c-.65,0-1.49.22-2.15.04-.12-.03-.23-.08-.34-.14,0,0,0,0,0,0-.11-.07-.21-.15-.29-.25.7-.43,1.53-.71,2.35-.96,1.3.42,2.8.42,4.05.32,1.08-.09,3.32-.21,3.73-1.47.03-.09.04-.19-.04-.26-.28-.25-.59-.33-.98-.36-.15,0-.3-.02-.45-.03.04,0,.08,0,.12,0,2.88-.04,5.6-.86,8.35-1.59.44-.12,2.46-.98,1.73-1.82-.46-.52-1.08-.86-1.77-1.08.79-.12,1.61-.35,1.92-.86.23-.37.15-.64-.09-.89.47.04.94.07,1.41.09,2.3.12,5.05.52,7.32.14.2-.03.6-.39.43-.62.28.38-.3.64.6.32.17-.06.37-.2.49-.34.17-.21.19-.49.3-.74.03-.06.05-.19,0-.25-.14-.19-.3-.36-.48-.51-.05-.04-.1-.07-.15-.11-.14-.11-.29-.22-.44-.31-.05-.03-.1-.06-.15-.08-.17-.1-.35-.18-.54-.26-.04-.01-.07-.03-.11-.04-.21-.08-.44-.16-.67-.22,0,0-.02,0-.02,0h0c-.77-.21-1.59-.34-2.4-.42,1.25-.36,2.48-.85,3.65-1.29.77-.29,1.7-.66,2.49-1.18,0,0,0,0,0,0h0c.62-.41,1.16-.91,1.45-1.54.04-.1.02-.2-.04-.28ZM244.61,135.64s-.02,0-.03,0c0,0,0,0,0-.01,0,0,.01,0,.02.01ZM267.85,128.75c-.13-.01-.25-.02-.35-.04-.78-.18-1.52-.45-2.25-.76-.29-.12-.52-.3-.77-.44.49-.35.94-.75,1.33-1.19.35.25.92.02,1.35-.2-.19.62-.54,1.43.01,1.81.1.07.2.03.3-.02.07-.04.13-.09.19-.14,0,0,0,0,0,0,.07-.04.12-.1.19-.15.07-.06.15-.11.23-.18.16-.14.31-.3.46-.47,0,.51-.06,1.03-.06,1.21,0,.21.01.41.04.61-.23-.02-.46-.04-.67-.06,0,0,0,0,0,0ZM283.8,103.22c-.32-.24-.67-.4-1.04-.53.5.07,1.01.12,1.52.14.32,0,.61.08.89.13-.39.15-.75.42-1.02.87-.61,1-.37,2.41.32,3.55-.92.22-1.77.66-2.5,1.27.06-.13.1-.26,0-.37-.8-.94-2.75-.12-3.73.18-.65.2-1.27.5-1.85.84.11-.15.21-.31.32-.46.56-.78,1.35-1.51,1.66-2.43.05-.13.02-.32-.16-.3-.86.07-1.73.8-2.46,1.39.1-.62.21-1.24.34-1.86.14-.18.31-.35.47-.52.1-.02.19-.04.29-.05.19-.04.38-.07.56-.1.26-.05.52-.09.76-.12,1.57-.21,4.08-.15,5.45-1.06.13-.09.41-.41.21-.57ZM278.24,116.78c-.37.08-.73.21-1.08.33,0,0,0,0,0,0,.16-.33.26-.65.36-1,.3-.27.59-.53.89-.79.06,0,.13-.02.21-.08.48-.34.94-.69,1.41-1.04.18-.06.37-.1.56-.14.28.15.59.23.9.25-.34.27-.64.52-.83.67-.32.24-.64.49-.95.75.02-.02.04-.03.07-.04-.42.34-.83.69-1.23,1.04-.11.02-.21.03-.32.06ZM286.55,102.66c0,.09,0,.17,0,.26-.1-.03-.19-.03-.29-.04.1-.05.19-.12.28-.22ZM280.09,111.11s-.03.07-.04.1c-.79-.04-1.58-.08-2.37-.13.21-.08.41-.15.6-.21.77-.27,1.81-.59,2.62-1.11-.31.41-.58.86-.81,1.35ZM278.77,113.73s-.04.03-.07.04c-.28.17-.54.37-.8.57.01-.19.02-.38,0-.58.33-.01.62-.02.86-.02ZM276.69,92.75c-.09.29-.14.63-.14.97-.08-.01-.16,0-.24-.03-.43-.1-.96-.14-1.48-.19.08-1.82.15-3.57.15-4.03.03.01.04.03.07.05.64.32,1.39.6,2.12.56.46-.03.96-.17,1.45-.29-.8.88-1.56,1.76-1.93,2.97ZM269.72,105.93s0-.05,0-.08c.01.02.03.04.04.06-.01,0-.02.01-.03.02ZM286.58,102.06c-.24-.58-.61-1.08-1.02-1.55.42.24.81.52,1.19.82-.08.23-.14.47-.17.72ZM277.09,118.04c-.04-.12-.05-.27-.04-.42.2-.07.39-.15.59-.22.07-.02.15-.04.22-.06-.21.19-.48.44-.77.7ZM263.44,99.38c.34.15.67.31.95.49.24.15.45.32.67.48.02.1.04.21.07.31-.23-.07-.46-.14-.69-.18-.59-.11-1.3-.03-1.99.19-.16-.15-.32-.3-.48-.45-.01-.06-.02-.13-.04-.19.49-.1,1-.35,1.51-.64ZM249.38,134.03s-.06,0-.1-.01c.02-.02.04-.04.05-.06.02.02.03.05.04.07ZM257.86,128.93c1.75.49,3.77.15,5.5-.74-.07.88.44,1.73,1.08,2.45-1.23-.4-2.46-.78-3.73-1.12-.76-.2-1.65-.25-2.2.36-.53.58.18,1.3,1.14,1.93-.91-.1-1.82-.19-2.73-.27.48-.82.83-1.71.93-2.6ZM290.6,98.23c-.5.43-.83,1.07-1.04,1.81-.05-.1-.1-.2-.15-.3-.05-.1-.11-.19-.16-.28-.06-.09-.12-.18-.18-.27-.07-.1-.14-.2-.21-.3-.06-.07-.11-.14-.17-.21-.09-.11-.18-.22-.28-.32,0,0-.01-.02-.02-.02h0c-.12-.14-.25-.27-.38-.4.32.07.65.12.98.17,0,0,0,0,0,0,.32.04.64.08.97.1.09,0,.18,0,.27,0,.13,0,.26.01.4.01ZM282.13,92.27s-.02.01-.03.02c.27-.4.54-.82.78-1.25.05.11.12.21.18.31-.31.3-.63.6-.92.92ZM277.93,80.74s-.09,0-.14-.01c-.12-.11-.24-.21-.39-.29,0,0,0-.01,0-.02.16.02.32.05.48.07.02.08.03.17.05.25ZM261.57,98.35c.12.09.25.18.38.27-.13.18-.24.36-.35.54-.11-.24-.23-.46-.36-.68.11-.04.22-.08.33-.13ZM278.72,49.6c-.24-.23-.46-.47-.67-.72.13-.07.24-.13.34-.19.34.17.7.33,1.05.48-.25.12-.49.27-.72.43ZM277.88,48.58s-.02.01-.04.02c-.07-.1-.16-.19-.23-.3.13.08.27.13.4.21-.05.02-.1.05-.14.08ZM266.12,69.98c-.09-.19-.19-.37-.32-.53.19.15.4.3.61.47-.1.02-.2.04-.29.07ZM248.04,116.48s-.02.03-.04.04c-.25.25-.97.94-.73,1.42.24.48,1.03.44,1.97.2-.65.44-1.4.74-1.75,1.48-.05.11-.14.38.06.42.87.19,1.88-.04,2.82-.28-.34.21-.61.51-.8.82-.58-.14-1.16-.28-1.75-.42-1.52-.37-3.02-.86-4.56-1.19.21-.08.42-.17.6-.24,1.4-.58,2.84-1.34,4.17-2.24ZM264.46,142.19c-.14-.18-.25-.37-.37-.56.99-.28,1.98-.58,2.93-.97-.79.62-1.61,1.32-2.26,1.94-.1-.14-.19-.27-.29-.4ZM292.35,98.07c.12-.03.23-.06.35-.09.13-.03.26-.07.38-.11.15-.05.29-.11.43-.17-.23.3-.46.59-.69.89-.14-.2-.3-.38-.47-.52ZM284.31,77.1c-1.24.55-2.08,1.5-2.74,2.59,0-.7-.53-1.53-1.15-2.28-.09-.25-.2-.5-.33-.74,1.44.29,2.86.41,4.38.34.04,0,.08,0,.12,0-.09.03-.18.05-.28.09ZM280.68,46.92c-.13-.08-.25-.17-.38-.25.24-.01.49-.02.74-.03-.12.09-.24.19-.37.28ZM257.22,65.65c1.37-.2,2.89-.46,4.27-.94-.11.09-.21.18-.32.26-.58.4-1.15.81-1.56,1.39-.06.09-.24.4-.07.49.75.39,1.71-.08,2.56-.61.06.12.13.23.23.34.47.54,1.06,1.02,1.66,1.48.35.27.71.54,1.05.81-.28-.13-.59-.23-.96-.24-1.61-.05-2.73.8-3.63,1.92.02-.94-.21-1.79-1.04-1.9-.87-.11-1.43.24-1.86.78-.03-.03-.06-.05-.09-.08-.17-1.51-.62-3.23-1.92-3.53.72,0,1.52-.15,1.67-.17ZM254.26,90c-.28-.59-.58-1.17-.89-1.74.9.19,1.94.15,2.67.07.69-.07,1.38-.23,2.05-.44-.32.15-.63.29-.94.45-.57.29-1.49.53-1.89,1.07-.07.09-.2.33-.06.43,1.15.76,2.61.55,3.99.04.51.47,1.41.77,2.27.98-1.17-.01-2.35-.09-3.53.09-1,.16-1.99.43-2.96.76-.23-.57-.46-1.14-.72-1.69ZM251.49,107.3c-.08.13-.15.26-.22.4-.47-.03-.94-.05-1.41-.08.55-.05,1.09-.16,1.63-.32ZM262.55,142.36c.17-.11.33-.22.49-.34.2.39.4.78.62,1.16-.12-.06-.24-.12-.36-.18-.25-.22-.51-.43-.76-.65ZM267.2,145.03c-.35-.21-.72-.41-1.09-.61-.05-.07-.1-.14-.16-.21.45-.13.88-.29,1.23-.39.74-.22,1.47-.5,2.2-.82,0,.31,0,.62-.01.93,0,.28,0,.56-.01.85-.07.36-.09.72-.01,1.05,0,.12,0,.23,0,.35-.72-.37-1.45-.72-2.13-1.14ZM280.43,149.47c-.25.29-.52.57-.8.84-.96.68-1.92,1.37-2.88,2.05-.35.25-.72.52-1.07.79,0-3.16.02-6.32.08-9.48.21-.13.42-.26.62-.37.1-.06.2-.12.3-.17-.02.4.12.79.44,1.32.49.81,1.69,1.98,2.75,1.89.5-.04.94-.41,1.01-.93.05-.42.08-.9.07-1.4.13,0,.26.01.4.01.64.76,1.45,1.28,2.39,1.68-1.12,1.24-2.23,2.5-3.31,3.76ZM281.58,149.27s.05-.05.07-.07c.11-.11.23-.21.34-.32.03-.03.04-.06.04-.09.45-.5.89-1.01,1.33-1.56.33-.4.7-.83,1.05-1.26.53.18,1.1.33,1.7.47-1.55.87-3.06,1.8-4.54,2.84ZM287.15,145.73c-.2-.25-.4-.49-.63-.71.45.1.96.12,1.45.12-.28.19-.55.39-.83.59Z"/>
      <path class="cls-3" d="M269.28,124.19s-.08-.06-.12-.1c0,0,.01,0,.02,0-.02-.02-.05-.02-.07-.04-.04-.02-.07-.04-.12-.06-.05-.02-.09-.03-.15-.04-.04-.01-.09-.02-.14-.03-.05,0-.11,0-.17,0-.05,0-.1,0-.15,0-.06,0-.12.01-.19.02-.05,0-.1.01-.15.02-.07.01-.14.03-.2.04-.05.01-.1.02-.14.03-.08.02-.15.04-.23.06-.04,0-.07.02-.11.03-.1.03-.2.05-.29.07-.1.02-.18.05-.26.06-.37.07-.73.16-1.1.25.61-.3.96-.8.03-1.18-1.02-.42-2.37-.3-3.43-.25-.9.04-1.76.2-2.61.42.17-.2.27-.43.26-.69,0-.42-.76-.41-1.65-.24.01-.02.03-.04.04-.06.16-.24.38-.57.6-.94,1.5,1.92,6.28-.7,7.63-2.24,1.24-1.42.3-2.58-1.08-3.14.1-.08.19-.16.29-.25.75-.71,1.41-1.62.78-2.63-.42-.67-1.56-.39-2.5-.13.29-.44.49-.93.36-1.42-.25-.98-.99-1.38-1.98-1.3-.88.07-2.07.76-2.99,1.67-.17-.48-.56-.75-1.29-.46-.89.35-1.29,1.22-1.77,1.97-.06.1-.13.21-.2.33,0,0-.02.01-.03.02-.07-.99.14-2.13-.16-2.96-.07-.19-.16-.42-.28-.64.28-.43.56-.86.84-1.29.07-.04.14-.09.21-.14.07-.05.14-.09.21-.14.2-.15.38-.32.56-.51.07-.08.17-.32,0-.36-.07-.01-.13-.02-.2-.03.04-.09-.08-.12-.15-.04,0,0,0,.01-.01.02-.56-.06-1.13,0-1.7,0-.27,0-.54.01-.82.02,0,0,0,0,0,0,.11-.03.23-.06.34-.08,1.4-.31,3.1-.44,4.19-1.45.35-.32.55-.95.01-1.21-.25-.12-.51-.2-.77-.26t0,0h0c-.32-.07-.65-.11-.99-.11.98-.33,1.94-.71,2.79-1.18.44-.24.68-.55.63-.8,0,0,0,0,.01,0,0-.01-.01-.03-.02-.04,0-.02-.02-.04-.03-.07-.02-.03-.04-.06-.07-.08-.02-.02-.04-.04-.06-.05-.04-.03-.09-.05-.14-.08-.03-.01-.05-.03-.08-.04-.09-.03-.19-.06-.31-.08-1.32-.23-2.74-.19-4.16.04.32-.53.57-1.1.68-1.67.97-.31,1.89-.79,2.71-1.4.61-.45,1.57-1.3,1.41-2.16.35-.28.68-.58,1.01-.86.56-.49,1.51-1.4,1.22-2.25-.22-.64-.97-.6-1.73-.38.18-.29.28-.6.26-.91-.07-1.08-1.07-1.22-1.97-1.28-2.15-.14-3.95.9-4.99,2.59-.27-.3-.66-.52-1.14-.63-1.3-.29-2.21.43-3.11,1.15.07-.64-.07-1.27-.52-1.48.61-.03,1.22-.13,1.6-.61.48-.6-.63-.82-1.9-.89.46-.17.92-.35,1.38-.51.73-.26,1.84-.6,2.13-1.41.01-.04.02-.07.02-.1.04,0,.09,0,.13,0,1.01.01,2.01,0,3.02,0,.55,0,1-.04,1.32-.49.08-.11.18-.3.06-.42-.6-.54-1.69-.58-2.58-.62.32-.1.62-.19.9-.27,1.14-.32,3.09-.5,3.9-1.46.06-.07.17-.29.05-.36-.14-.07-.29-.12-.45-.15-.04,0-.07-.02-.11-.02-.15-.02-.31-.04-.47-.04-.03,0-.07,0-.1,0-.07,0-.13,0-.2,0,0,0,0,0,0,0-.28.01-.56.03-.81.04-.2,0-.41.03-.61.05h-.1c-.68,0-1.34,0-2.03.21-.34.1-.67.21-1.01.32-.03,0-.07-.01-.1-.02h0s-.08-.02-.12-.03c.88-.73,1.62-1.73,1.66-2.5.02-.19-.14-.23-.29-.15-1.1.61-2.16,1.24-3.24,1.84.15-.19.2-.36.06-.46-.7-.53-2.09,0-2.84.21-1.06.29-1.92.91-2.85,1.4,0,0-.02,0-.03,0,.13-.14.26-.28.39-.43.01,0,.02-.01.04-.01.15-.04.3-.08.45-.12.03-.01.09-.07.11-.13.2-.11.36-.25.43-.43.03-.09-.07-.06-.1,0-.06.11-.37.21-.61.29.3-.43.5-.87.41-1.26,0,0,0,0,0,0,.53-.19.96-.61,1.18-1.38,0,0,0-.01,0-.02.03-.03.06-.06.09-.08.45.11.88.21,1.26.29,1.91.43,3.62.08,5.37-.79.84-.42,1.94-1.11,2.07-2.12.04-.26-.04-.45-.19-.58.35-.21.68-.43.98-.66.57-.42,1.34-.73,1.23-1.61-.04-.34-.32-.47-.69-.47,1.54-1.17,2.85-2.56,3.35-4.59.24-.96-.9-.58-1.26-.27-.79.68-1.61,1.29-2.44,1.89.03-.17,0-.34-.12-.48-.56-.69-1.62-.15-2.48.38.57-1.18,1.29-2.95.18-2.99-.91-.03-1.63.8-2.19,1.43-.12.13-.24.27-.35.41.04-1.27-.3-2.58-1.37-2.96-.63-.23-1.29.6-1.5,1.08-.02.05-.04.1-.06.15-.3-.58-.71-.99-1.24-.8-.87.31-1.05,1.33-1.07,2.38-.32-.31-.74-.48-1.36-.34-.21.05-.43.13-.64.25.12-.3.19-.57.22-.81.43.12.88.17,1.22-.03.1-.06.19-.19.18-.31-.08-.7-1.02-1.4-1.52-1.78-.04-.03-.09-.05-.13-.08.12-.09.24-.18.36-.28.93-.03,1.95-.09,2.69-.58.1-.07.34-.35.17-.47-.31-.21-.67-.31-1.05-.37,1.07-.18,2.12-.52,3.02-.92.7-.31,2.54-1.01,2.58-1.98,0-.08,0-.15-.09-.18-.43-.13-.86.02-1.28.16.04-.08.07-.17.09-.25.37-.28.73-.58,1.06-.89.08-.08.29-.49,0-.44-.54.09-1.04.31-1.54.53-.07-.02-.14-.03-.22-.04.24-.19.45-.4.66-.63.04-.04.07-.08.1-.12.19-.22.37-.46.53-.72,0,0,.01-.01.02-.02,0,0,0,0,0,0,.16-.26.3-.53.42-.84.07-.17-.08-.3-.23-.19-.95.68-1.84,1.22-2.95,1.61-.4.14-1.58.51-2.56.56,0-.15-.04-.28-.12-.39-.32-.38-.8-.36-1.28-.23.33-.3.62-.63.64-1.02,0-.1-.04-.23-.16-.2-.56.12-1.08.42-1.59.73.57-.83,1.18-1.89.86-2.06-.43-.23-.8.08-1.11.38-.19.19-.39.36-.6.53-.04-.12-.06-.24-.1-.37h0c-.44-1.59-.82-3.19-1.18-4.79-.25-1.12-.45-2.24-.61-3.37-.03-.2-.09-.43-.15-.69-.04-.52-.07-1.04-.11-1.56.51.68.93,1.69,1.16,2.3.02.06.07.06.12.05,0,0,0,0,0,0,.03-.01.07-.03.1-.06.01-.01.02-.02.03-.04.03-.03.05-.06.07-.09,0-.01.01-.03.02-.04.02-.05.03-.1.02-.14-.29-.88-.59-1.77-.91-2.64,0-.03-.02-.05-.03-.08,0,0,0,0,0,0-.03-.07-.05-.14-.08-.21-.06-.15-.17-.37-.28-.6.23.33.46.67.69,1.01.26.4.58.94,1.06,1.07.09.03.2-.04.28-.13,0,0,0-.01.01-.02.03-.03.05-.07.07-.11.02-.05.03-.09.01-.14-.3-1.12-.85-2.17-1.22-3.27-.55-1.63-.99-3.26-1.34-4.95-.22-1.1-.41-2.2-.61-3.3-.08-.48-.16-.95-.25-1.42-.27-1.55-.32-3.15-.67-4.68-.01-.06-.07-.05-.11,0-.01-.06-.02-.12-.03-.18-.13.16-.24.35-.34.55,0,0,0,0,0-.01,0,.02-.02.04-.02.06-.06.11-.1.23-.15.36-.05.11-.09.23-.13.34-.04.13-.08.25-.12.39-.04.12-.07.24-.1.37-.03.12-.06.24-.09.36-.04.2-.09.4-.12.57-.26,1.19-.44,2.4-.73,3.58-.12.51-.25,1.01-.39,1.52-.15.8-.29,1.61-.43,2.42-.13.5-.26,1-.37,1.49-.37,1.65-.67,3.3-.94,4.97-.27,1.66-.95,3.21-1.3,4.85-.12.58-.63,1.46-.67,2.01-.02.31-.07.61-.14.91-.32.04-.96-.07-1.17-.12-.47-.12-.76-.47-1.13-.74-.21-.15-.42.08-.53.22-.47.64-.04,1.49.41,2.2-.43-.18-.87-.35-1.35-.46-.19-.04-.43.23-.39.41.08.38.21.65.39.86-.35-.12-.68-.27-.97-.42-.27-.14-.34-.16-.59-.06-.15.06-.27.22-.27.39.07,1.75,1.1,2.92,2.44,3.46-.73.22-1.46.38-2.26.33-.14,0-.34.24-.26.37.14.21.29.41.45.6.03.04.06.07.09.11.17.19.35.36.54.52,0,0,0,0,0,0h0c.66.54,1.43.89,2.26.92-.38.3-.65.66-.6,1.04,0,.05.03.09.08.1.45.15.99.05,1.49-.15-.09.19-.15.37-.17.54-.04.33.29.43.75.42-.33.2-.62.45-.82.76-.04.06-.09.22,0,.27,1,.57,2.6.56,3.73.53.42-.01.84-.03,1.26-.07,0,0,0,0,0,0-.28.16-1.15.3-1.17.3-.78.03-1.6.2-2.37.36-.14.03-.35.25-.22.39.19.2,1.74.92,1.51,1.07-.26.17-.61.29-.72.62-.06.17-.07.34-.05.5-.11-.02-.22-.05-.34-.07-.73-.15-1.45-.33-2.15-.52-.92-.25-1.77-.64-2.6-1.09-.41-.22-.74-.63-1.22-.7-.2-.03-.41.21-.38.4.09.7.46,1.36.96,1.93-1.16-.15-2.32-.28-3.46-.45-2.58-.38-4.71-1.31-7.09-2.27-.05-.02-.09,0-.14.02,0,0-.01,0-.02.01-.04.03-.08.07-.1.11,0,0,0,0,0,0h0c-.04.06-.07.13-.06.18.34,1.96,2.37,4.05,3.76,5.39.79.76,1.82,1.36,2.73,1.94.11.07.21.12.32.17-.81.05-1.73.08-2.38-.22-.13-.06-.28.15-.32.24-.3.81,1.35,1.98,1.87,2.26.61.33,1.33.46,2.08.47.2.05.41.08.63.09-.53.22-1.06.48-1.49.82-.1.08-.23.33-.06.4.68.26,1.56.12,2.43-.15-.06.04-.11.08-.14.1-.05.04-.09.08-.12.12-.79.41-1.87,1-2.13,1.76-.11.31.14.45.51.5-.38.07-.58.39-.67.81-.09,0-.21.15-.13.22.03.03.06.05.09.08,0,.02,0,.03,0,.05-.77-.65-1.66-1-2.11.26-.18.5.12.97.48,1.33-.42.56-.14,1.26.37,1.9-.25.04-.5.1-.73.2-.36.15-.61.5-.61.89-.01,1.15,2.14,1.49,2.98,1.54.86.06,1.69,0,2.5-.15-.28.57-.32,1.21.04,1.81.11.18.24.32.39.43-.34-.03-.68-.06-1.01-.12-.02,0-.05-.01-.07-.01-1.18-.2-2.34-.5-3.51-.68-.15-.02-.29-.05-.43-.07,0,0,0,0,.01,0-.06,0-.12-.02-.18-.03-.1-.01-.24.09-.3.21,0,0,0,0,0,0,0,0,0,.02,0,.03,0,.01,0,.03-.01.04,0,.04,0,.08.02.11.74,1.03,1.65,1.89,2.56,2.76.7.66,1.6,1.27,2.34,1.94-.47-.07-.92-.15-1.28-.2-1.23-.17-2.15-.95-3.31-1.3-.17-.05-.36.19-.37.34-.11,1,.42,2.11,1,2.89.25.34.58.56.94.71-.35.07-.68.18-.95.35-.47-.82-.95-1.64-1.38-2.48-.07-.14-.3.1-.25.21.37.89.77,1.77,1.18,2.64-.06.09-.1.21-.02.3.08.08.17.16.26.22.35.74.7,1.47,1.03,2.21.16.36.32.72.47,1.07-.07.03-.15.05-.22.08-.06,0-.12.01-.19.02-.26-.3-.54-.58-.79-.89-.07-.08-.21.07-.17.14.18.27.4.52.59.79-.18.02-.36.04-.54.06-1.3.11-2.64.11-3.94-.07-.74-.11-1.7-.58-2.43-.51-.92.09-.85.92-.38,1.54.51.67,1.32,1.06,2.18,1.28-1.22.38-2.4,1.01-3.4,1.63-.16.1-2.13,1.71-.92,1.85.13.01.26.01.39.02h0c1.89.09,3.92-.66,5.68-1.23.14.16.33.27.53.36-.72.78-1.16,1.93-.88,2.85-1.29.16-2.53.68-2.8,1.46-.56,1.59,1.07,2.39,2.28,2.74.08.02.17.03.26.05-.42-.02-.84-.05-1.26-.05-.62,0-1.34.03-2.03.13-1.52-.44-2.94-.99-4.43-1.71-.07-.03-.18.05-.21.1-.66.86.58,2.41,1.18,3,.73.71,1.76,1.1,2.83,1.26-.19.07-.39.13-.57.18-.65.17-1.79.3-2.22.91-.04.06-.13.2-.07.28.38.5,1.34.37,1.87.36.69-.01,1.39-.12,2.07-.3-2.19,1.29-5.35,3.36-5.06,4.52,0,0,0,.01,0,.02.02.09.07.18.13.25.09.1.2.17.3.24-.22.25-.32.61-.25,1.09.08.56.65,1.29,1,1.7.04.04.07.08.11.12-.2-.04-.39-.08-.59-.11-.99-.16-2.12-.22-3.12-.27-.37-.02-.88.6-.78.97.22.77.89,1.25,1.44,1.79.49.49.95.86,1.46,1.18-.83.34-1.53.88-1.73,1.83-.05.22,0,.41.12.57-.67.17-1.35.35-2.01.54-.98.29-2.74,1.26-2.58,2.52.18,1.47,2.75,1.58,3.82,1.6.74.01,1.49-.19,2.2-.51-.39,1.26-.23,2.52,1.04,2.59.71.04,1.46-.18,2.15-.54.51.13,1.03.21,1.37.25.12.02.22.03.29.04,1.08.16,2.21.18,3.31.06-.6.28-1.21.56-1.68.96-.07.06-.24.35-.05.39.98.19,2.03-.22,2.96-.51.33-.11.66-.2.97-.3-.91.68-2.19,1.72-2.45,2.4h0c-.04.09-.05.18-.05.26h0c0,.08.03.15.09.21,0,0,0,0,0,0,.05.05.12.09.21.12.02,0,.04.02.07.02.11.03.23.06.4.07,1.24.07,2.56-.14,3.76-.62-.03.05-.06.1-.08.16-.03.07-.02.14.03.2.61.65,2.6-.52,3.17-.78.39-.18.83-.37,1.26-.57,0,0,0,0,.01,0-.13.18-.26.36-.39.53-.45.56-.59,1.18.34,1.15.58-.02,1.19-.19,1.79-.44.11.07.22.15.34.23,0,0,.02.01.03.02.77.67,1.54,1.34,2.33,1.99,1.07.87,2.25,1.7,3.03,2.84.27.39.5.82.72,1.27-.14,16.48.24,32.98-.85,49.44,2.47,1.1,5.19,1.24,7.81.49,0-8.17-1.19-16.35-1.43-24.52-.21-7.38-.46-14.76-.51-22.15.07-.06.12-.13.18-.19.9-.68,1.7-1.47,2.57-2.18,1.27-.4,2.48-.56,3.86-.73,1.57-.2,3.07-.81,4.61-1.14,1.33-.29,2.61-.74,3.88-1.2,1.23-.45,2.55-.73,3.72-1.32.1-.05.17-.33,0-.25-1.15.51-2.45.71-3.65,1.07-1.65.49-3.3.84-5,1.17-1.4.27-2.74.7-4.15.95-.57.1-1.11.21-1.64.36.18-.13.36-.26.54-.39,1.01-.63,1.95-1.36,2.9-2.05.95-.61,1.86-1.29,2.79-1.92.12-.07.24-.14.33-.22.05-.03.11-.07.16-.1.03,0,.08,0,.11-.01,1.46-.18,3.45-.42,4.67-1.3,0,0,0,0,0,0,.53,0,1.02-.03,1.35-.03,1.1,0,3.97.22,4.59-1.08.05-.1.06-.19.05-.28,0-.02-.02-.03-.02-.05-.02-.06-.04-.13-.09-.18-.02-.02-.04-.03-.06-.05-.05-.05-.1-.09-.17-.13-.03-.02-.07-.03-.1-.05-.07-.03-.13-.07-.21-.1-.04-.01-.08-.03-.12-.04-.08-.03-.15-.05-.23-.07-.04-.01-.08-.02-.13-.03-.08-.02-.15-.04-.22-.05-.04,0-.08-.01-.12-.02-.11-.02-.21-.04-.29-.05-.04,0-.1-.02-.13-.02-.14-.03-.28-.05-.42-.07.46-.12.92-.24,1.37-.37.19-.05.39-.11.6-.17.1-.03.2-.06.31-.09.27-.08.54-.16.81-.26.01,0,.02,0,.03-.01.26-.1.51-.21.76-.33.05-.03.1-.05.15-.08.26-.14.49-.29.71-.46,0,0,0,0,0,0,0,0,0,0,0,0,.29-.24.53-.53.68-.87.66-1.5-3.02-.74-3.31-.68-1.64.32-3.28.83-4.88,1.42.18-.16.35-.32.51-.48.64-.66,1.64-1.68,1.7-2.67.02-.22-.2-.21-.32-.09-1.4,1.33-3.74,2.13-5.72,2.67.5-.36.85-.77.8-1.21-.1-.78-1.81-.44-3.35.01-.01-.02-.03-.04-.04-.06.31-.18.62-.37.93-.55.76-.45,1.77-.86,2.32-1.58.06-.07.13-.2.07-.3-.38-.71-2.05-.06-2.6.08-.95.24-1.88.54-2.8.86-.05.01-.1.04-.15.06-.31-.03-.65-.03-1.05-.03h-2.86c-.51,0-1.17.18-1.69.03-.09-.03-.18-.06-.26-.11t0,0c-.08-.05-.16-.11-.23-.2.54-.33,1.19-.55,1.83-.75,1.02.33,2.19.33,3.17.25.85-.07,2.59-.16,2.92-1.15.02-.07.03-.15-.03-.2-.22-.2-.46-.26-.77-.28-.12,0-.24-.02-.35-.03.03,0,.06,0,.09,0,2.25-.03,4.38-.68,6.53-1.24.35-.09,1.93-.77,1.35-1.42-.36-.41-.84-.67-1.38-.84.62-.1,1.26-.28,1.5-.67.18-.29.11-.5-.07-.7.37.03.73.06,1.1.07,1.79.09,3.95.41,5.72.11.16-.03.47-.3.34-.49.22.29-.23.5.47.25.14-.05.29-.15.38-.27.13-.17.15-.39.23-.58.02-.05.04-.15,0-.2-.11-.15-.24-.28-.38-.4-.04-.03-.08-.06-.12-.09-.11-.09-.22-.17-.35-.24-.04-.02-.08-.04-.12-.07-.13-.07-.27-.14-.42-.2-.03-.01-.06-.02-.09-.03-.17-.07-.34-.12-.52-.18,0,0-.01,0-.02,0h0c-.6-.17-1.25-.27-1.88-.33.98-.28,1.94-.66,2.86-1,.61-.23,1.33-.52,1.95-.92,0,0,0,0,0,0h0c.49-.32.91-.71,1.14-1.2.04-.08.02-.16-.03-.23ZM217.83,139s-.01,0-.02,0c0,0,0,0,0,0,0,0,0,0,.01,0ZM236.01,133.6c-.1,0-.2-.02-.27-.03-.61-.14-1.19-.36-1.76-.6-.23-.1-.41-.24-.6-.34.38-.28.73-.59,1.04-.93.27.19.72.02,1.06-.15-.15.49-.42,1.11,0,1.41.08.05.16.02.23-.02.05-.03.1-.07.15-.11,0,0,0,0,0,0,.05-.03.1-.08.15-.11.06-.04.12-.08.18-.14.12-.11.25-.23.36-.37,0,.4-.05.81-.05.95,0,.16,0,.32.03.48-.18-.02-.36-.03-.52-.04,0,0,0,0,0,0ZM248.48,113.64c-.25-.19-.52-.31-.82-.41.39.05.79.1,1.19.11.25,0,.48.06.7.1-.31.11-.59.33-.8.68-.48.79-.29,1.89.25,2.78-.72.18-1.38.51-1.96.99.05-.1.08-.2,0-.29-.63-.74-2.15-.09-2.92.14-.51.15-.99.39-1.45.66.08-.12.17-.24.25-.36.43-.61,1.06-1.18,1.3-1.9.04-.1.02-.25-.12-.24-.67.06-1.35.62-1.92,1.09.08-.48.16-.97.26-1.46.11-.14.24-.28.37-.41.08-.01.15-.03.22-.04.15-.03.29-.05.43-.08.21-.04.4-.07.59-.09,1.23-.16,3.19-.12,4.26-.83.1-.07.32-.32.16-.44ZM244.13,124.24c-.29.07-.57.16-.85.26,0,0,0,0,0,0,.13-.26.2-.51.28-.78.23-.21.46-.42.7-.62.05,0,.1-.01.16-.06.37-.27.74-.54,1.1-.82.14-.04.29-.08.44-.11.22.12.46.18.71.2-.26.21-.5.41-.65.52-.25.19-.5.38-.74.58.02-.01.03-.02.05-.04-.32.27-.65.54-.96.82-.08.02-.16.03-.24.05ZM250.64,113.21c0,.07,0,.14,0,.2-.07-.02-.15-.02-.22-.03.07-.04.15-.1.22-.17ZM245.58,119.82s-.02.05-.03.08c-.62-.03-1.23-.06-1.85-.1.17-.06.32-.12.47-.17.61-.21,1.41-.46,2.05-.87-.24.32-.45.67-.63,1.06ZM244.55,121.86s-.04.02-.05.03c-.22.14-.42.29-.63.44.01-.15.01-.3,0-.45.26,0,.48-.02.67-.02ZM242.92,105.45c-.07.22-.11.49-.11.75-.06-.01-.12,0-.18-.02-.34-.08-.75-.11-1.16-.15.06-1.42.12-2.79.12-3.15.02.01.03.03.05.04.5.25,1.09.47,1.66.43.36-.02.75-.13,1.13-.22-.63.69-1.22,1.38-1.51,2.32ZM237.48,115.76s0-.04,0-.06c.01.01.02.03.03.05,0,0-.02.01-.03.02ZM250.66,112.73c-.19-.46-.48-.85-.8-1.21.32.19.63.41.93.64-.07.18-.11.37-.13.57ZM243.24,125.23c-.03-.1-.04-.21-.03-.33.15-.06.31-.12.46-.17.06-.02.12-.03.17-.05-.16.15-.37.35-.6.54ZM232.56,110.64c.26.12.52.25.74.38.19.12.35.25.53.38.02.08.04.16.05.24-.18-.06-.36-.11-.54-.14-.46-.09-1.02-.03-1.56.15-.13-.12-.25-.23-.38-.35-.01-.05-.02-.1-.03-.15.38-.08.79-.27,1.18-.5ZM221.56,137.73s-.05,0-.08-.01c.01-.02.03-.03.04-.05.02.02.02.04.04.06ZM228.2,133.75c1.37.38,2.95.11,4.3-.58-.06.68.35,1.35.85,1.91-.96-.31-1.93-.61-2.92-.87-.59-.15-1.29-.19-1.72.28-.41.45.14,1.02.89,1.51-.71-.08-1.42-.14-2.13-.21.38-.64.65-1.34.73-2.03ZM253.8,109.74c-.39.34-.65.84-.82,1.42-.04-.08-.08-.16-.12-.24-.04-.07-.08-.15-.13-.22-.04-.07-.09-.14-.14-.21-.05-.08-.11-.15-.17-.23-.04-.06-.09-.11-.13-.17-.07-.08-.14-.17-.22-.25,0,0,0-.01-.02-.02h0c-.1-.11-.2-.21-.3-.31.25.05.51.1.77.13,0,0,0,0,0,0,.25.04.5.06.76.08.07,0,.14,0,.21,0,.1,0,.21,0,.31,0ZM247.18,105.08s-.02,0-.02.01c.21-.32.42-.64.61-.97.04.08.09.16.14.24-.24.24-.49.47-.72.72ZM243.9,96.06s-.07,0-.11-.01c-.09-.08-.19-.16-.31-.23,0,0,0,0,0-.01.12.02.25.04.37.06.01.06.03.13.04.2ZM231.1,109.83c.09.07.19.14.3.21-.1.14-.19.28-.27.42-.09-.18-.18-.36-.28-.53.09-.03.17-.06.26-.1ZM244.51,71.71c-.19-.18-.36-.37-.52-.56.1-.06.19-.1.26-.15.27.13.54.26.82.37-.2.1-.38.21-.56.34ZM243.85,70.91s-.02,0-.03.01c-.06-.08-.12-.15-.18-.24.1.06.21.11.31.16-.04.02-.07.04-.11.06ZM234.66,87.64c-.07-.15-.15-.29-.25-.42.15.11.31.24.48.36-.08.02-.15.03-.23.05ZM220.52,124.01s-.02.02-.03.03c-.2.19-.76.74-.57,1.11.19.37.8.35,1.54.16-.51.34-1.1.58-1.37,1.15-.04.09-.11.3.05.33.68.15,1.47-.03,2.21-.21-.27.17-.48.4-.62.64-.46-.11-.91-.22-1.37-.33-1.19-.29-2.37-.67-3.56-.93.17-.07.33-.13.47-.19,1.09-.45,2.23-1.05,3.26-1.75ZM233.36,144.12c-.11-.14-.2-.29-.29-.44.77-.22,1.54-.46,2.29-.76-.61.49-1.26,1.03-1.77,1.52-.08-.11-.15-.21-.23-.32ZM255.17,109.61c.09-.02.18-.05.27-.07.1-.03.2-.06.3-.09.12-.04.23-.08.34-.13-.18.23-.36.46-.54.69-.11-.16-.23-.29-.37-.4ZM248.88,93.22c-.97.43-1.62,1.17-2.15,2.03,0-.55-.42-1.2-.9-1.79-.07-.19-.16-.39-.26-.58,1.13.22,2.23.32,3.43.27.03,0,.06,0,.09,0-.07.02-.14.04-.22.07ZM246.04,69.61c-.1-.06-.19-.13-.29-.19.19-.01.38-.02.58-.03-.1.07-.19.15-.29.22ZM227.69,84.26c1.07-.16,2.26-.36,3.34-.73-.08.07-.17.14-.25.2-.45.32-.9.64-1.22,1.09-.05.07-.19.31-.05.38.59.3,1.34-.06,2-.48.05.09.11.18.18.26.37.43.83.8,1.3,1.16.28.21.55.42.82.63-.22-.11-.46-.18-.75-.19-1.26-.04-2.14.62-2.84,1.5.01-.73-.16-1.4-.81-1.48-.68-.09-1.12.19-1.45.61-.02-.02-.05-.04-.07-.06-.13-1.18-.48-2.53-1.5-2.76.56,0,1.19-.11,1.31-.13ZM225.38,103.3c-.22-.46-.45-.91-.7-1.36.71.15,1.52.11,2.09.05.54-.06,1.08-.18,1.6-.35-.25.12-.49.23-.74.35-.45.22-1.16.41-1.48.84-.05.07-.16.26-.05.33.9.59,2.04.43,3.12.03.4.37,1.1.6,1.78.76-.92-.01-1.84-.07-2.76.07-.78.12-1.55.34-2.31.59-.18-.44-.36-.89-.56-1.32ZM223.22,116.83c-.06.1-.12.21-.17.31-.37-.02-.74-.04-1.1-.06.43-.04.86-.12,1.27-.25ZM231.86,144.25c.13-.08.26-.17.39-.26.16.3.32.61.49.91-.09-.05-.19-.09-.28-.14-.2-.17-.4-.34-.59-.5ZM235.5,146.34c-.27-.17-.56-.32-.85-.48-.04-.05-.08-.11-.12-.17.35-.1.69-.23.96-.31.58-.17,1.15-.4,1.72-.64,0,.24,0,.48,0,.72,0,.22,0,.44,0,.66-.06.28-.07.56-.01.82,0,.09,0,.18,0,.27-.56-.29-1.14-.57-1.67-.89ZM245.85,149.81c-.19.23-.4.44-.62.65-.75.53-1.5,1.07-2.25,1.6-.28.2-.56.4-.84.62,0-2.47.02-4.94.06-7.41.16-.1.32-.21.48-.29.08-.04.16-.09.24-.13-.02.31.09.62.35,1.04.38.63,1.32,1.55,2.15,1.48.39-.03.73-.32.79-.73.04-.33.06-.71.05-1.09.1,0,.2,0,.31,0,.5.59,1.13,1,1.87,1.32-.88.97-1.75,1.95-2.59,2.94ZM246.75,149.66s.04-.04.05-.06c.09-.08.18-.17.26-.25.02-.02.03-.05.04-.07.35-.39.69-.79,1.04-1.22.26-.32.54-.65.82-.99.42.14.86.26,1.33.37-1.22.68-2.39,1.41-3.55,2.22ZM251.11,146.89c-.15-.2-.31-.38-.49-.55.35.08.75.1,1.14.09-.22.15-.43.31-.65.46Z"/>
    </g>
  </g>
</svg>