<?xml version="1.0" encoding="UTF-8"?>
<svg id="Layer_7" data-name="Layer 7" xmlns="http://www.w3.org/2000/svg" xmlns:xlink="http://www.w3.org/1999/xlink" viewBox="0 0 310.46 218.6">
  <defs>
    <style>
      .cls-1 {
        fill: none;
      }

      .cls-2 {
        clip-path: url(#clippath-1);
      }

      .cls-3 {
        fill: #0e202d;
      }

      .cls-4 {
        clip-path: url(#clippath);
      }
    </style>
    <clipPath id="clippath">
      <rect class="cls-1" x="22.05" y="33.43" width="261.76" height="169.13"/>
    </clipPath>
    <clipPath id="clippath-1">
      <rect class="cls-1" x="22.05" y="33.43" width="261.76" height="169.13"/>
    </clipPath>
  </defs>
  <g class="cls-4">
    <g>
      <path class="cls-3" d="M86.8,96.89c-.21-.46-.61-.83-1.07-1.13h0s0,0,0,0c-.58-.38-1.26-.65-1.83-.86-.86-.32-1.76-.68-2.68-.94.59-.06,1.2-.15,1.76-.31h.02c.17-.05.33-.11.49-.17.03,0,.05-.02.08-.03.14-.06.27-.12.4-.19.04-.02.08-.04.11-.06.12-.07.22-.15.33-.23.04-.03.07-.05.11-.08.13-.11.25-.24.35-.37.04-.04.02-.14,0-.18-.08-.18-.09-.39-.22-.54-.09-.11-.23-.21-.36-.25-.65-.24-.23-.04-.44.23.13-.17-.17-.43-.31-.46-1.66-.28-3.68.01-5.37.1-.35.02-.69.04-1.04.07.17-.18.23-.39.06-.65-.22-.37-.83-.54-1.4-.63.51-.16.96-.41,1.29-.79.54-.61-.94-1.25-1.26-1.33-2.02-.53-4.01-1.14-6.12-1.17-.03,0-.06,0-.09,0,.11-.01.22-.02.33-.03.28-.02.51-.08.72-.26.06-.05.05-.13.03-.19-.3-.93-1.94-1.02-2.74-1.08-.92-.07-2.02-.07-2.97.24-.6-.19-1.21-.39-1.72-.71.06-.08.14-.14.22-.18t0,0c.08-.05.16-.08.25-.11.49-.14,1.1.03,1.58.03h2.68c.38,0,.69,0,.99-.03.05.02.09.04.14.05.87.3,1.74.59,2.63.81.52.13,2.08.74,2.44.07.05-.09-.01-.21-.07-.28-.52-.67-1.46-1.06-2.18-1.48-.29-.17-.58-.34-.87-.52.01-.02.03-.04.04-.06,1.45.43,3.05.74,3.14.01.05-.41-.28-.79-.75-1.13,1.86.51,4.06,1.25,5.36,2.5.12.11.32.12.3-.09-.06-.92-1-1.88-1.6-2.5-.15-.15-.31-.3-.48-.45,1.5.55,3.04,1.03,4.58,1.34.27.05,3.72.76,3.1-.64-.14-.32-.36-.59-.63-.81,0,0,0,0,0,0,0,0,0,0,0,0-.2-.17-.42-.31-.66-.44-.05-.03-.09-.05-.14-.07-.23-.11-.47-.22-.71-.31,0,0-.02,0-.03-.01-.25-.09-.51-.17-.76-.24-.1-.03-.19-.06-.29-.08-.2-.06-.39-.11-.56-.16-.42-.12-.85-.23-1.28-.35.13-.02.26-.04.39-.07.03,0,.08-.01.12-.02.07-.01.16-.03.27-.05.04,0,.07-.01.11-.02.07-.01.14-.03.21-.05.04-.01.08-.02.12-.03.07-.02.14-.04.21-.07.04-.01.08-.02.12-.04.07-.03.13-.06.2-.09.03-.01.06-.03.09-.04.06-.04.11-.08.16-.12.02-.02.04-.03.06-.05.04-.05.07-.11.08-.17,0-.02.02-.03.02-.04.01-.08,0-.16-.04-.26-.58-1.22-3.27-1.02-4.3-1.01-.31,0-.76-.02-1.26-.02,0,0,0,0,0,0-1.15-.83-3.02-1.06-4.38-1.22-.03,0-.07,0-.1-.01-.05-.03-.1-.06-.15-.1-.09-.08-.2-.14-.31-.21-.88-.59-1.73-1.22-2.62-1.8-.89-.65-1.78-1.33-2.72-1.93-.16-.12-.33-.25-.5-.36.5.14,1.01.25,1.54.34,1.32.23,2.58.63,3.89.89,1.59.31,3.14.63,4.69,1.1,1.13.34,2.35.52,3.42,1,.16.07.09-.19,0-.24-1.09-.55-2.33-.82-3.49-1.24-1.19-.43-2.4-.86-3.64-1.13-1.45-.31-2.85-.88-4.33-1.07-1.29-.16-2.42-.31-3.62-.68-.81-.67-1.57-1.41-2.41-2.05-.06-.06-.11-.12-.17-.18.06-6.93.28-13.85.48-20.77.22-7.67,1.35-15.33,1.34-23-2.46-.7-5.01-.57-7.33.46,1.02,15.43.66,30.91.79,46.37-.2.41-.42.82-.67,1.19-.74,1.06-1.85,1.84-2.84,2.66-.74.61-1.46,1.24-2.18,1.87,0,0-.02.01-.03.02-.11.07-.21.14-.31.21-.56-.24-1.13-.39-1.68-.41-.87-.03-.74.55-.32,1.08.12.15.25.32.37.5,0,0,0,0-.01,0-.41-.19-.81-.37-1.18-.54-.53-.24-2.39-1.34-2.97-.73-.05.05-.05.12-.02.18.02.05.05.1.07.15-1.13-.45-2.37-.64-3.53-.58-.15,0-.27.03-.37.06-.02,0-.04.01-.06.02-.09.03-.16.07-.2.12,0,0,0,0,0,0-.05.06-.08.12-.08.19h0c0,.08.01.16.04.24h0c.25.64,1.45,1.61,2.3,2.25-.3-.09-.6-.18-.91-.28-.87-.27-1.85-.66-2.77-.48-.18.04-.02.31.05.36.44.37,1.01.64,1.57.9-1.04-.11-2.09-.09-3.11.06-.06,0-.16.02-.27.04-.32.04-.81.12-1.29.24-.65-.34-1.34-.55-2.01-.51-1.19.07-1.34,1.25-.98,2.43-.66-.3-1.37-.49-2.06-.48-1.01.01-3.41.12-3.58,1.5-.15,1.18,1.5,2.1,2.42,2.36.62.18,1.25.35,1.88.51-.11.14-.15.32-.11.53.18.89.84,1.4,1.62,1.71-.48.3-.91.65-1.37,1.11-.52.51-1.15.96-1.35,1.68-.09.34.38.93.73.91.94-.05,2-.11,2.93-.26.18-.03.37-.06.55-.1-.04.04-.07.07-.1.11-.33.39-.87,1.07-.94,1.6-.07.45.04.78.24,1.02-.1.07-.2.13-.28.22-.06.07-.1.15-.13.24,0,0,0,.01,0,.02-.27,1.08,2.69,3.03,4.75,4.24-.64-.16-1.3-.27-1.95-.28-.51-.01-1.4-.13-1.76.34-.06.07.03.2.06.26.41.57,1.48.69,2.08.85.17.05.35.1.53.17-1,.15-1.97.51-2.65,1.18-.56.55-1.72,2.01-1.1,2.82.04.05.13.13.2.1,1.4-.67,2.73-1.19,4.16-1.6.64.09,1.32.12,1.9.12.4,0,.79-.03,1.18-.05-.08.02-.16.02-.24.04-1.13.32-2.66,1.07-2.13,2.57.26.73,1.42,1.21,2.63,1.37-.27.86.14,1.94.82,2.67-.19.08-.36.19-.5.34-1.66-.54-3.56-1.24-5.33-1.16h0c-.12,0-.25,0-.37.02-1.14.13.71,1.64.86,1.74.94.58,2.04,1.17,3.19,1.53-.81.2-1.56.57-2.04,1.2-.44.58-.51,1.36.35,1.44.69.07,1.59-.38,2.28-.48,1.21-.17,2.47-.17,3.69-.07.17.01.34.04.51.05-.18.25-.38.48-.55.74-.05.07.09.21.16.13.24-.29.49-.56.74-.83.06,0,.12.01.17.02.07.03.14.05.21.08-.15.33-.29.67-.44,1-.31.7-.64,1.39-.96,2.08-.09.06-.18.13-.25.21-.07.08-.04.19.02.28-.38.82-.76,1.64-1.11,2.48-.04.11.17.33.24.2.4-.79.85-1.56,1.29-2.33.26.15.57.25.9.32-.34.14-.65.34-.88.66-.54.74-1.04,1.77-.94,2.71.01.14.19.37.35.32,1.08-.33,1.95-1.06,3.1-1.22.34-.05.76-.12,1.2-.19-.69.63-1.54,1.2-2.19,1.82-.86.82-1.71,1.62-2.4,2.59-.02.03-.02.07-.02.11,0,.01,0,.02.01.04,0,0,0,.02,0,.03,0,0,0,0,0,0,.06.11.19.2.28.19.06,0,.11-.02.17-.03,0,0,0,0-.01,0,.14-.02.27-.05.41-.07,1.1-.17,2.19-.45,3.29-.64.02,0,.05-.01.07-.01.32-.05.63-.08.95-.11-.13.1-.26.24-.36.41-.34.56-.3,1.16-.04,1.7-.76-.15-1.54-.2-2.34-.14-.78.05-2.81.36-2.79,1.45,0,.37.24.69.58.84.21.09.44.15.68.18-.48.6-.74,1.26-.34,1.78-.34.34-.61.78-.45,1.25.41,1.18,1.25.85,1.98.24,0,.01,0,.03,0,.04-.03.03-.06.05-.08.07-.07.07.04.21.12.21.08.39.27.69.63.76-.35.05-.58.18-.48.47.25.71,1.26,1.26,2,1.65.04.04.07.07.12.11.03.02.07.06.13.1-.82-.25-1.64-.38-2.28-.14-.17.06-.04.3.05.38.41.31.9.56,1.4.76-.21.01-.41.04-.6.09-.7.01-1.38.13-1.95.44-.49.26-2.03,1.35-1.75,2.12.03.09.18.28.3.22.61-.29,1.48-.25,2.24-.21-.1.05-.2.1-.3.16-.86.54-1.83,1.11-2.56,1.82-1.3,1.25-3.21,3.22-3.53,5.05,0,.05.02.11.05.17h0s0,0,0,0c.03.04.06.08.1.1,0,0,.01,0,.02.01.04.02.09.04.13.02,2.23-.9,4.23-1.78,6.65-2.13,1.07-.16,2.16-.27,3.24-.42-.47.53-.81,1.15-.9,1.81-.02.18.18.4.36.38.44-.06.75-.45,1.14-.66.78-.42,1.58-.79,2.44-1.02.65-.18,1.33-.35,2.02-.49.11-.02.21-.05.31-.07-.03.15-.01.31.04.47.11.3.44.42.68.58.22.14-1.24.81-1.42,1-.12.13.08.34.21.37.72.15,1.49.31,2.22.34.01,0,.83.13,1.09.28,0,0,0,0,0,0-.39-.04-.79-.06-1.18-.07-1.06-.03-2.57-.04-3.5.49-.08.05-.03.2,0,.25.19.3.46.53.77.72-.43-.01-.75.08-.71.39.02.16.08.34.16.51-.47-.19-.98-.29-1.39-.15-.05.01-.07.05-.08.1-.05.35.21.69.57.98-.78.02-1.5.35-2.12.86h0s0,0,0,0c-.18.15-.34.31-.5.49-.03.03-.06.07-.09.1-.15.18-.3.36-.42.56-.07.12.11.36.24.35.75-.05,1.44.1,2.12.31-1.26.51-2.22,1.61-2.28,3.25,0,.16.11.3.25.36.23.1.3.08.55-.06.27-.14.58-.28.91-.39-.17.2-.3.45-.37.81-.04.17.19.43.36.38.44-.1.85-.26,1.26-.43-.42.66-.82,1.46-.38,2.06.1.14.3.35.5.21.35-.25.62-.58,1.06-.69.2-.05.8-.15,1.1-.12.07.28.11.57.13.85.03.52.51,1.35.63,1.89.32,1.54.96,2.99,1.22,4.54.25,1.56.54,3.11.88,4.66.1.47.22.93.35,1.4.13.76.26,1.52.4,2.27.13.47.25.95.37,1.42.27,1.11.44,2.24.69,3.36.04.17.07.35.12.54.02.11.05.22.08.34.03.11.06.23.09.34.03.12.07.24.11.36.04.11.08.22.12.32.04.11.09.23.14.33,0,.02.01.04.02.06,0,0,0,0,0-.01.09.18.19.37.31.52.01-.06.02-.11.03-.17.04.04.09.05.1,0,.33-1.44.37-2.93.63-4.39.08-.44.16-.89.23-1.34.18-1.03.36-2.07.57-3.09.33-1.58.73-3.11,1.25-4.64.35-1.03.86-2.02,1.15-3.07.01-.04,0-.08-.01-.13-.01-.03-.04-.07-.06-.1,0,0,0-.01-.01-.02-.08-.09-.18-.15-.26-.12-.45.12-.75.63-1,1-.21.32-.43.63-.65.94.11-.22.21-.42.26-.56.02-.07.05-.13.07-.2,0,0,0,0,0,0,0-.02.01-.05.02-.07.3-.82.58-1.65.85-2.48.01-.04,0-.08-.02-.13,0-.01-.01-.02-.02-.04-.02-.03-.04-.06-.06-.09-.01-.01-.02-.02-.03-.03-.03-.03-.06-.05-.09-.06,0,0,0,0,0,0-.05-.02-.1-.01-.12.04-.22.56-.61,1.51-1.08,2.15.03-.49.07-.98.1-1.47.06-.24.12-.46.14-.64.15-1.06.34-2.11.57-3.16.33-1.5.69-3,1.1-4.49h0c.03-.12.06-.23.09-.35.19.16.38.32.56.49.29.29.64.57,1.04.36.31-.16-.27-1.16-.8-1.94.48.29.97.57,1.49.68.12.03.16-.1.15-.19-.03-.36-.29-.67-.6-.95.45.13.9.15,1.2-.21.08-.1.12-.23.12-.37.91.04,2.02.39,2.4.52,1.05.36,1.88.87,2.77,1.51.14.1.28-.02.22-.17-.11-.29-.25-.54-.4-.78,0,0,0,0,0,0,0,0,0-.01-.01-.02-.15-.24-.31-.47-.5-.67-.03-.04-.06-.07-.1-.11-.19-.21-.4-.41-.62-.59.07,0,.14-.02.2-.04.46.21.93.41,1.44.49.27.05.07-.34,0-.42-.31-.29-.65-.57-1-.84-.02-.08-.04-.15-.08-.23.4.13.8.27,1.2.15.08-.02.09-.1.09-.17-.04-.92-1.77-1.57-2.42-1.86-.84-.37-1.83-.69-2.83-.86.36-.06.7-.15.99-.35.16-.11-.06-.38-.16-.44-.69-.46-1.64-.51-2.52-.54-.11-.09-.22-.18-.33-.27.04-.03.08-.05.12-.08.47-.35,1.35-1.01,1.42-1.67.01-.11-.07-.24-.17-.29-.32-.18-.74-.13-1.14-.02-.03-.23-.1-.48-.21-.76.2.11.4.19.6.23.58.13.97-.02,1.27-.32.02.99.19,1.94,1.01,2.24.5.18.88-.2,1.17-.75.02.05.03.09.05.14.2.45.81,1.23,1.41,1.01,1.01-.36,1.32-1.58,1.28-2.78.11.13.22.26.33.38.52.59,1.2,1.37,2.05,1.35,1.04-.03.36-1.69-.17-2.8.81.5,1.81,1,2.33.36.11-.13.13-.28.11-.45.78.56,1.55,1.13,2.29,1.77.34.29,1.41.65,1.19-.25-.47-1.91-1.7-3.21-3.14-4.31.35,0,.61-.12.65-.44.1-.83-.62-1.12-1.15-1.51-.28-.21-.6-.42-.92-.62.14-.13.21-.31.18-.55-.13-.95-1.16-1.6-1.94-1.99-1.65-.82-3.24-1.15-5.04-.75-.35.08-.76.17-1.18.27-.03-.03-.05-.05-.08-.08,0,0,0-.01,0-.02-.2-.72-.61-1.12-1.1-1.29,0,0,0,0,0,0,.08-.37-.1-.79-.38-1.19.22.07.52.17.57.27.03.05.12.08.09,0-.06-.17-.22-.3-.4-.4-.02-.06-.08-.11-.11-.12-.14-.03-.28-.07-.42-.11-.01,0-.02,0-.03-.01-.12-.14-.24-.28-.36-.4,0,0,.02,0,.03,0,.87.46,1.68,1.04,2.67,1.31.7.19,2,.69,2.66.2.13-.1.09-.25-.06-.43,1.01.56,2.01,1.15,3.04,1.73.14.08.28.04.27-.14-.04-.72-.74-1.67-1.56-2.35.04,0,.07-.02.11-.02h0s.06-.01.09-.02c.31.11.63.21.94.3.65.19,1.27.2,1.91.19h.09c.19.02.38.04.58.04.24,0,.5.02.76.04,0,0,0,0,0,0,.06,0,.12,0,.18,0,.03,0,.06,0,.09,0,.15,0,.3-.01.44-.04.03,0,.07-.01.1-.02.15-.03.29-.07.42-.14.12-.06,0-.27-.05-.34-.76-.9-2.59-1.07-3.66-1.37-.26-.07-.55-.17-.85-.25.83-.04,1.86-.07,2.42-.58.12-.11.02-.29-.05-.39-.3-.42-.71-.45-1.23-.46-.94-.01-1.88-.02-2.83,0-.04,0-.08,0-.12,0,0-.03,0-.06-.02-.1-.28-.76-1.32-1.08-2-1.32-.43-.15-.86-.32-1.29-.48,1.19-.06,2.23-.28,1.78-.83-.36-.44-.93-.54-1.5-.57.43-.19.55-.78.49-1.39.85.68,1.69,1.36,2.92,1.08.45-.1.82-.31,1.07-.59.97,1.58,2.66,2.56,4.68,2.43.84-.05,1.78-.19,1.85-1.2.02-.29-.08-.58-.25-.85.72.21,1.42.24,1.62-.36.27-.79-.62-1.65-1.14-2.11-.3-.26-.62-.54-.94-.81.14-.81-.75-1.6-1.32-2.02-.77-.57-1.63-1.02-2.54-1.31-.1-.53-.34-1.07-.63-1.56,1.33.21,2.66.25,3.9.03.11-.02.21-.05.29-.08.03-.01.05-.02.07-.04.05-.02.09-.04.13-.07.02-.02.04-.03.06-.05.02-.03.05-.05.06-.08.01-.02.02-.04.03-.06,0-.01.01-.03.02-.04,0,0,0,0-.01,0,.05-.24-.18-.53-.59-.75-.8-.43-1.7-.79-2.62-1.1.32,0,.63-.04.93-.11h0c.25-.06.49-.13.73-.25.5-.25.32-.83-.01-1.14-1.03-.95-2.62-1.07-3.93-1.36-.1-.02-.21-.05-.32-.08,0,0,0,0,0,0,.26,0,.51.02.77.02.53,0,1.07.06,1.59,0,0,0,0,.01.01.01.06.08.17.05.14-.04.06-.01.12-.01.18-.03.16-.04.06-.27,0-.34-.16-.18-.34-.34-.52-.48-.06-.05-.13-.09-.2-.13-.07-.04-.13-.09-.2-.13-.27-.4-.53-.81-.79-1.21.11-.21.2-.42.26-.6.28-.78.08-1.85.15-2.78,0,0,.02.01.03.02.06.11.12.21.19.31.45.71.83,1.52,1.66,1.85.69.27,1.06.02,1.21-.43.86.85,1.98,1.49,2.8,1.56.92.08,1.62-.3,1.85-1.22.12-.47-.06-.92-.34-1.33.89.24,1.95.51,2.35-.12.59-.94-.02-1.8-.73-2.46-.09-.08-.18-.16-.27-.23,1.29-.53,2.17-1.61,1.01-2.95-1.26-1.44-5.75-3.9-7.15-2.1-.21-.35-.41-.65-.56-.88-.01-.02-.03-.04-.04-.06.84.16,1.54.17,1.55-.23,0-.25-.09-.46-.25-.64.8.2,1.61.35,2.44.39.99.05,2.26.16,3.21-.23.87-.36.55-.83-.03-1.11.34.09.68.17,1.03.24.07.01.15.03.24.06.08.02.17.04.27.07.03,0,.07.02.1.03.07.02.14.04.22.05.04.01.09.02.13.03.06.01.13.03.19.04.05,0,.1.01.15.02.06,0,.12.01.18.02.05,0,.1,0,.14,0,.06,0,.11,0,.16,0,.05,0,.09-.01.13-.03.05-.01.09-.02.14-.04.04-.02.07-.04.11-.06.02-.01.05-.02.06-.03,0,0-.01,0-.02,0,.04-.03.08-.05.11-.09.05-.06.06-.13.01-.21ZM38.52,83.22s0,0,0,0c0,0,.01,0,.02,0,0,0,0,0-.01,0ZM55.59,88.26c.15-.01.32-.02.49-.04-.02.15-.03.3-.03.45,0,.13.05.51.05.89-.11-.13-.22-.24-.34-.35-.05-.05-.11-.08-.17-.13-.05-.04-.09-.08-.14-.11,0,0,0,0,0,0-.05-.03-.09-.07-.14-.1-.07-.03-.15-.07-.22-.02-.4.28-.15.87,0,1.33-.32-.16-.74-.33-.99-.14-.28-.32-.61-.62-.97-.88.18-.1.35-.23.56-.32.54-.23,1.08-.43,1.65-.56.07-.02.16-.02.26-.03,0,0,0,0,0,0ZM67.12,106.57c-1-.67-2.84-.62-3.99-.78-.17-.02-.36-.05-.56-.09-.13-.02-.27-.05-.41-.07-.07-.01-.14-.03-.21-.04-.12-.12-.24-.25-.35-.38-.09-.45-.17-.91-.25-1.36.54.44,1.17.97,1.8,1.02.13,0,.15-.13.12-.22-.22-.68-.81-1.22-1.22-1.79-.08-.11-.16-.22-.24-.33.43.25.88.47,1.36.62.72.22,2.15.83,2.74.14.07-.09.04-.18,0-.27.54.45,1.16.76,1.83.93-.5.84-.68,1.87-.23,2.61.2.33.47.53.75.64-.2.04-.42.09-.65.1-.37.01-.75.05-1.11.1.27-.1.53-.21.76-.39.15-.11-.06-.35-.15-.42ZM63.43,97.09c.3.26.6.52.9.76-.02-.01-.03-.02-.05-.03.23.19.46.37.69.55.14.1.36.29.61.49-.23.02-.45.07-.66.19-.14-.03-.28-.06-.41-.11-.34-.26-.69-.51-1.03-.76-.06-.04-.11-.06-.15-.06-.22-.19-.44-.39-.65-.58-.07-.25-.15-.49-.26-.73,0,0,0,0,0,0,.26.09.52.18.79.24.08.02.15.03.23.04ZM69.09,107.23c.07-.01.14-.01.21-.03,0,.06,0,.13,0,.19-.07-.07-.14-.12-.21-.16ZM65.15,102.19c-.59-.38-1.35-.62-1.92-.82-.14-.05-.29-.1-.44-.16.58-.03,1.16-.06,1.74-.09.01.02.02.05.03.07.17.36.36.69.59.99ZM62.95,99.26c0-.15,0-.29,0-.43.19.14.38.29.59.42.02.01.03.02.05.03-.18,0-.39,0-.63-.02ZM63.48,116.84c-.36-.09-.72-.19-1.06-.21-.53-.03-1.09.18-1.56.41-.02.01-.03.02-.05.03,0-.34-.06-1.62-.11-2.95.39-.04.77-.07,1.09-.14.06-.01.12,0,.17-.02,0,.25.04.5.1.71.27.88.83,1.53,1.42,2.18ZM56.98,105.01s-.02.03-.03.04c0-.02,0-.04,0-.06,0,0,.01.01.02.01ZM69.44,108.37c-.28.22-.57.43-.87.6.3-.34.57-.71.75-1.14.02.19.06.36.12.53ZM62.92,96.63c-.05-.02-.11-.03-.16-.04-.15-.05-.29-.11-.43-.16,0-.11,0-.22.03-.31.21.19.41.37.56.51ZM51.24,109.33s.02-.09.03-.14c.11-.11.23-.22.35-.33.5.16,1.02.22,1.46.14.17-.03.34-.08.5-.13-.01.07-.03.15-.05.22-.16.12-.31.24-.49.35-.2.13-.45.24-.7.36-.37-.22-.75-.39-1.11-.47ZM42,84.45s-.02-.03-.04-.04c.02,0,.05,0,.07-.01-.01.02-.02.04-.03.05ZM47.57,86.22c.67-.06,1.34-.13,2-.2-.71.46-1.23.99-.84,1.41.4.45,1.06.41,1.61.26.93-.24,1.83-.53,2.74-.82-.47.52-.85,1.15-.79,1.79-1.27-.65-2.75-.9-4.04-.54-.07-.65-.33-1.31-.68-1.91ZM71.97,110.65c-.07,0-.13,0-.2,0-.24.01-.47.04-.71.07,0,0,0,0,0,0-.24.03-.48.08-.72.12.1-.09.19-.19.28-.29h0s0-.01.01-.02c.07-.08.14-.15.2-.24.04-.05.09-.1.13-.15.06-.07.11-.14.16-.22.05-.06.09-.13.13-.2.04-.07.08-.14.12-.21.04-.07.08-.15.11-.22.15.54.4,1.01.77,1.33-.1,0-.19,0-.29.01ZM66.73,115.69c-.04.08-.09.15-.13.23-.18-.32-.37-.62-.57-.92,0,0,.01,0,.02.01.22.24.45.45.68.68ZM62.93,123.65c-.12.02-.23.04-.35.05,0,0,0,0,0-.01.11-.06.2-.14.29-.21.03,0,.07,0,.1-.01-.01.06-.03.12-.04.18ZM50.74,110.47c.1-.16.19-.32.27-.5.08.13.16.27.25.4-.1.06-.19.13-.28.19-.08-.03-.16-.06-.24-.09ZM64.08,146.62c-.26.11-.52.23-.77.35-.07-.04-.15-.08-.25-.14.15-.19.31-.36.49-.53.17.12.35.22.53.31ZM63.03,147.11c-.1.05-.2.1-.29.15.05-.08.11-.15.17-.22,0,0,.02,0,.03.01.03.02.07.04.1.06ZM54.52,131.42c-.16.12-.31.24-.45.34.09-.12.17-.25.23-.39.07.02.14.03.21.05ZM37.99,95.61c-.13-.06-.28-.12-.44-.18,1.12-.24,2.23-.61,3.34-.87.43-.1.85-.21,1.28-.31.14.23.34.44.59.6-.69-.17-1.43-.34-2.07-.2-.15.03-.08.23-.04.31.25.54.8.76,1.28,1.08-.69-.18-1.27-.2-1.44.15-.17.35.35.86.54,1.04.01.01.02.02.03.03-.97-.66-2.03-1.22-3.06-1.65ZM53.31,78.11c.48.45,1.08.96,1.66,1.42-.7-.28-1.42-.51-2.15-.71.09-.14.17-.28.27-.41.07-.1.14-.2.22-.3ZM73.89,110.38c.17.22.34.43.51.65-.1-.04-.21-.09-.32-.12-.09-.03-.19-.06-.28-.08-.09-.02-.17-.05-.25-.07.13-.1.24-.23.35-.38ZM67.85,126.21s-.06,0-.09,0c-1.12-.05-2.16.04-3.21.25.09-.18.17-.36.24-.54.45-.55.85-1.16.85-1.68.49.8,1.1,1.5,2.01,1.9.07.03.14.04.2.07ZM65.26,148.48c-.19,0-.37-.01-.55-.02.1-.06.19-.12.28-.18.09.07.18.14.27.2ZM46.56,134.42c.95-.22,1.28-1.49,1.41-2.59.02-.02.05-.04.07-.06.31.4.73.66,1.36.57.61-.08.77-.71.76-1.39.66.83,1.48,1.45,2.66,1.41.28,0,.51-.08.71-.18-.25.2-.51.39-.77.59-.44.34-.87.69-1.22,1.09-.07.08-.12.16-.17.25-.62-.39-1.33-.74-1.88-.45-.13.07,0,.29.05.36.3.42.72.72,1.14,1.02.08.06.16.12.24.19-1.02-.35-2.13-.54-3.14-.69-.11-.01-.7-.12-1.22-.12ZM46.14,115.44c.71.24,1.43.44,2.17.56.86.14,1.73.08,2.59.07-.64.15-1.3.37-1.67.72-1.02-.38-2.08-.53-2.93.03-.11.07,0,.25.04.31.29.4.97.57,1.39.78.23.11.46.22.69.33-.49-.16-1-.27-1.5-.33-.53-.06-1.29-.09-1.96.05.23-.42.45-.84.65-1.28.19-.41.36-.82.53-1.24ZM42.38,103.76c.34-.02.69-.04,1.03-.06.05.1.1.2.16.29-.39-.12-.8-.19-1.2-.23ZM52.24,77.81c.09-.05.18-.09.26-.13-.16.28-.31.57-.46.85-.12-.08-.24-.17-.36-.25.18-.16.37-.31.55-.47ZM56.67,75.49c0,.08,0,.17,0,.25-.06.24-.04.51.01.77,0,.21,0,.41,0,.62,0,.23,0,.45,0,.68-.53-.23-1.07-.44-1.61-.6-.25-.07-.57-.19-.9-.29.04-.05.08-.1.12-.16.27-.14.54-.29.8-.45.5-.3,1.03-.56,1.56-.83ZM67.23,75.83c-.69.29-1.28.68-1.75,1.24-.1,0-.2,0-.29,0,0-.36-.01-.72-.05-1.03-.05-.38-.37-.65-.74-.68-.78-.07-1.65.79-2.01,1.39-.24.39-.34.68-.33.97-.07-.04-.15-.08-.22-.13-.15-.08-.3-.18-.45-.28-.04-2.32-.07-4.63-.06-6.95.26.2.52.4.79.58.7.5,1.4,1,2.11,1.5.21.2.4.4.59.61.79.93,1.6,1.85,2.43,2.76ZM68.98,75.29c-.44.1-.86.21-1.25.34-.26-.32-.53-.63-.77-.93-.33-.4-.65-.78-.98-1.14,0-.02-.01-.04-.03-.07-.08-.08-.17-.16-.25-.24-.02-.02-.03-.04-.05-.05,1.09.76,2.19,1.44,3.33,2.08ZM70.34,76.24c-.36,0-.73.01-1.07.09.17-.16.32-.33.46-.52.2.14.4.29.61.43Z"/>
      <path class="cls-3" d="M54.97,87.38c-.17-.36-.47-.65-.83-.88h0s0,0,0,0c-.45-.3-.98-.51-1.43-.68-.67-.25-1.38-.53-2.09-.74.46-.05.94-.12,1.38-.24h0s0,0,.01,0c.13-.04.26-.08.38-.13.02,0,.04-.02.06-.03.11-.04.21-.09.31-.15.03-.02.06-.03.09-.05.09-.05.17-.11.25-.18.03-.02.06-.04.08-.06.1-.09.19-.18.28-.29.03-.04.01-.11,0-.14-.06-.14-.07-.3-.17-.42-.07-.08-.18-.16-.28-.2-.51-.18-.18-.03-.34.18.1-.14-.13-.34-.25-.36-1.3-.22-2.88,0-4.2.08-.27.01-.54.03-.81.05.14-.14.18-.3.05-.51-.18-.29-.65-.42-1.1-.49.4-.12.75-.32,1.01-.62.42-.48-.74-.98-.99-1.04-1.58-.42-3.14-.89-4.79-.91-.02,0-.05,0-.07,0,.09,0,.17-.02.26-.02.22-.01.4-.06.56-.21.04-.04.04-.1.02-.15-.24-.73-1.52-.8-2.14-.85-.72-.06-1.58-.05-2.33.19-.47-.15-.95-.31-1.35-.55.05-.06.11-.11.17-.14,0,0,0,0,0,0,.06-.04.13-.06.19-.08.38-.11.86.02,1.24.02h2.1c.29,0,.54,0,.77-.02.04.01.07.03.11.04.68.24,1.36.46,2.06.63.4.1,1.63.57,1.9.06.04-.07-.01-.16-.06-.22-.4-.53-1.15-.83-1.7-1.16-.23-.13-.46-.27-.68-.41.01-.01.02-.03.03-.04,1.13.34,2.39.58,2.46,0,.04-.32-.22-.62-.59-.89,1.45.4,3.17.98,4.19,1.96.09.09.25.09.24-.07-.05-.72-.78-1.47-1.25-1.96-.11-.12-.24-.24-.38-.35,1.17.43,2.38.81,3.58,1.04.21.04,2.91.6,2.42-.5-.11-.25-.29-.46-.5-.64,0,0,0,0,0,0,0,0,0,0,0,0-.15-.13-.33-.24-.52-.34-.04-.02-.07-.04-.11-.06-.18-.09-.36-.17-.56-.24,0,0-.02,0-.02,0-.2-.07-.4-.13-.59-.19-.08-.02-.15-.04-.22-.07-.15-.04-.3-.08-.44-.12-.33-.09-.66-.18-1-.27.1-.02.21-.03.31-.05.02,0,.06-.01.09-.02.06,0,.13-.02.21-.04.03,0,.05-.01.08-.02.05-.01.11-.02.16-.04.03,0,.06-.01.09-.02.06-.01.11-.03.17-.05.03-.01.06-.02.09-.03.06-.02.11-.05.16-.07.02-.01.05-.02.07-.04.05-.03.09-.06.12-.1.01-.01.03-.02.05-.04.03-.04.05-.09.07-.13,0-.01.01-.02.02-.03.01-.06,0-.13-.03-.2-.45-.96-2.56-.8-3.36-.79-.24,0-.6-.02-.99-.02,0,0,0,0,0,0-.9-.65-2.36-.83-3.43-.96-.02,0-.06,0-.08,0-.04-.02-.08-.05-.12-.07-.07-.06-.16-.11-.24-.16-.69-.46-1.35-.96-2.05-1.41-.7-.51-1.39-1.04-2.13-1.51-.13-.1-.26-.19-.39-.28.39.11.79.19,1.2.26,1.03.18,2.02.49,3.04.69,1.24.24,2.45.5,3.67.86.88.26,1.84.41,2.68.78.13.06.07-.15,0-.19-.85-.43-1.83-.64-2.73-.97-.93-.34-1.87-.67-2.85-.88-1.13-.24-2.23-.69-3.38-.84-1.01-.13-1.89-.24-2.83-.54-.64-.53-1.22-1.1-1.88-1.6-.05-.05-.09-.09-.14-.14.04-5.42.22-10.83.38-16.24.17-5.99,1.05-11.99,1.05-17.98-1.93-.55-3.92-.45-5.73.36.8,12.07.52,24.17.62,36.26-.16.32-.33.64-.53.93-.58.83-1.44,1.44-2.22,2.08-.58.48-1.14.97-1.71,1.46,0,0-.01.01-.02.01-.09.06-.16.11-.25.17-.44-.19-.88-.31-1.31-.32-.68-.03-.58.43-.25.84.1.12.19.25.29.39,0,0,0,0,0,0-.32-.15-.63-.29-.92-.42-.42-.19-1.87-1.05-2.32-.57-.04.04-.04.09-.02.14.02.04.04.08.06.11-.88-.35-1.85-.5-2.76-.45-.12,0-.21.03-.29.05-.02,0-.03.01-.05.02-.07.02-.12.05-.16.09,0,0,0,0,0,0-.04.04-.06.09-.07.15h0c0,.06,0,.12.03.19h0c.19.5,1.13,1.26,1.8,1.76-.23-.07-.47-.14-.71-.22-.68-.21-1.45-.51-2.17-.37-.14.03-.01.24.04.29.34.29.79.5,1.23.7-.81-.09-1.64-.07-2.43.05-.05,0-.12.02-.21.03-.25.03-.63.09-1.01.19-.51-.26-1.05-.43-1.57-.4-.93.06-1.05.98-.76,1.9-.52-.24-1.07-.38-1.61-.37-.79.01-2.67.09-2.8,1.17-.11.93,1.17,1.64,1.89,1.85.49.14.98.27,1.47.4-.08.11-.12.25-.09.42.15.7.66,1.09,1.27,1.34-.37.24-.71.51-1.07.86-.4.4-.9.75-1.06,1.32-.07.27.3.72.57.71.73-.04,1.56-.09,2.29-.2.14-.02.29-.05.43-.08-.03.03-.06.06-.08.09-.26.3-.68.84-.74,1.25-.05.35.03.61.19.8-.08.05-.16.1-.22.18-.05.06-.08.12-.1.18,0,0,0,0,0,.01-.21.85,2.1,2.37,3.71,3.31-.5-.13-1.02-.21-1.52-.22-.39,0-1.1-.1-1.37.26-.04.06.02.16.05.2.32.45,1.16.54,1.63.67.13.04.27.08.41.13-.78.12-1.54.4-2.07.93-.44.43-1.35,1.57-.86,2.2.03.04.11.1.16.07,1.09-.53,2.14-.93,3.25-1.25.5.07,1.03.09,1.49.09.31,0,.62-.02.93-.04-.06.01-.13.02-.19.04-.89.25-2.08.84-1.67,2.01.2.57,1.11.95,2.06,1.07-.21.67.11,1.51.64,2.09-.15.07-.29.15-.39.27-1.3-.42-2.79-.97-4.17-.9h0c-.09,0-.19,0-.29.01-.89.1.55,1.29.67,1.36.73.45,1.6.92,2.49,1.19-.63.16-1.22.45-1.6.94-.35.45-.4,1.06.28,1.13.54.05,1.24-.29,1.78-.37.95-.14,1.93-.13,2.89-.05.13.01.27.03.4.04-.14.19-.3.38-.43.58-.03.05.07.16.12.1.18-.23.39-.43.58-.65.05,0,.09,0,.14.01.05.02.11.04.16.06-.12.26-.23.52-.35.79-.24.54-.5,1.08-.75,1.62-.07.05-.14.1-.19.16-.06.06-.03.15.02.22-.3.64-.6,1.28-.87,1.94-.03.08.13.25.18.16.32-.62.67-1.22,1.01-1.82.2.12.44.2.7.25-.27.11-.51.27-.69.52-.42.58-.81,1.39-.73,2.12,0,.11.15.29.27.25.85-.26,1.53-.83,2.43-.95.26-.04.6-.1.94-.15-.54.49-1.2.93-1.71,1.42-.67.64-1.34,1.27-1.88,2.03-.02.03-.02.05-.01.08,0,.01,0,.02,0,.03,0,0,0,.01,0,.02,0,0,0,0,0,0,.04.08.15.16.22.15.04,0,.09-.02.13-.02,0,0,0,0-.01,0,.11-.01.21-.04.32-.05.86-.13,1.71-.35,2.57-.5.02,0,.04,0,.05-.01.25-.04.5-.06.74-.09-.11.08-.2.18-.29.32-.27.44-.23.91-.03,1.33-.6-.12-1.2-.16-1.83-.11-.61.04-2.19.29-2.18,1.13,0,.29.18.54.45.65.17.07.35.12.53.14-.37.47-.58.99-.27,1.39-.26.26-.48.61-.35.98.33.92.98.66,1.55.19,0,.01,0,.02,0,.03-.02.02-.04.04-.06.06-.05.05.03.16.1.16.07.31.22.54.49.59-.27.04-.46.14-.37.37.19.55.99.99,1.56,1.29.03.03.06.06.09.09.02.02.06.04.1.07-.64-.2-1.28-.3-1.78-.11-.13.05-.03.24.04.29.32.24.71.44,1.09.6-.16.01-.32.03-.47.07-.55.01-1.08.11-1.53.35-.38.2-1.59,1.06-1.37,1.65.03.07.14.22.23.18.48-.22,1.16-.2,1.75-.17-.08.04-.15.08-.23.12-.67.43-1.43.87-2,1.43-1.02.98-2.51,2.51-2.76,3.95,0,.04.01.08.04.13h0,0s.05.06.08.08c0,0,0,0,.01.01.03.02.07.03.1.02,1.75-.7,3.31-1.39,5.2-1.67.84-.12,1.69-.21,2.54-.33-.37.42-.63.9-.7,1.42-.02.14.14.32.28.3.35-.05.59-.35.89-.51.61-.33,1.23-.62,1.91-.8.51-.14,1.04-.28,1.58-.38.08-.02.16-.04.25-.05-.02.12,0,.24.03.36.08.24.34.33.53.45.17.11-.97.64-1.11.78-.1.11.06.27.16.29.56.12,1.16.24,1.73.27,0,0,.65.1.86.22,0,0,0,0,0,0-.31-.03-.62-.04-.92-.05-.83-.03-2.01-.03-2.74.39-.06.04-.03.15,0,.2.15.23.36.41.6.56-.34-.01-.59.06-.55.31.02.13.06.26.13.4-.37-.15-.76-.23-1.09-.11-.04.01-.06.04-.06.08-.04.28.16.54.44.76-.61.02-1.18.27-1.66.67h0s0,0,0,0c-.14.12-.27.25-.39.38-.02.03-.05.05-.07.08-.12.14-.23.29-.33.44-.06.1.09.28.19.27.59-.04,1.12.08,1.66.25-.98.4-1.74,1.26-1.79,2.54,0,.12.08.24.19.29.18.07.23.06.43-.04.21-.11.46-.22.71-.31-.14.16-.23.35-.29.63-.03.13.14.33.28.3.35-.08.67-.2.99-.33-.33.52-.64,1.14-.3,1.61.08.11.24.27.39.16.27-.19.48-.45.83-.54.16-.04.62-.12.86-.09.05.22.09.44.1.67.03.41.4,1.05.49,1.48.25,1.2.75,2.33.95,3.55.2,1.22.42,2.44.69,3.64.08.37.17.73.27,1.1.1.59.2,1.19.31,1.78.1.37.2.74.29,1.11.21.87.35,1.75.54,2.62.03.13.06.27.09.42.02.09.04.17.06.26.02.09.04.18.07.27.03.1.06.19.09.28.03.09.06.17.1.25.03.09.07.18.11.26,0,.01.01.03.02.04,0,0,0,0,0,0,.07.14.15.29.25.4,0-.04.01-.09.02-.13.03.03.07.04.08,0,.26-1.12.29-2.29.49-3.43.06-.35.12-.7.18-1.04.14-.81.28-1.62.44-2.42.25-1.24.57-2.43.98-3.63.27-.81.68-1.58.9-2.4,0-.03,0-.06-.01-.1-.01-.03-.03-.05-.05-.08,0,0,0-.01-.01-.02-.06-.07-.14-.12-.21-.1-.35.1-.59.49-.78.78-.17.25-.34.49-.51.74.08-.17.16-.33.21-.44.02-.05.04-.11.06-.16,0,0,0,0,0,0,0-.02.01-.04.02-.06.24-.64.45-1.29.67-1.94.01-.03,0-.07-.01-.1,0-.01,0-.02-.01-.03-.01-.03-.03-.05-.05-.07,0,0-.02-.02-.02-.03-.02-.02-.05-.04-.07-.04,0,0,0,0,0,0-.04-.01-.07-.01-.09.03-.17.44-.48,1.18-.85,1.68.03-.38.06-.76.08-1.15.05-.18.09-.36.11-.5.11-.83.26-1.65.44-2.47.26-1.17.54-2.35.86-3.51h0c.02-.09.05-.18.07-.27.15.12.3.25.44.39.23.22.5.45.82.28.24-.12-.21-.91-.63-1.51.37.23.76.45,1.17.54.09.02.12-.08.12-.15-.02-.28-.23-.53-.47-.75.35.1.71.11.94-.17.07-.08.09-.18.09-.29.72.04,1.58.31,1.88.41.82.28,1.47.68,2.17,1.18.11.08.22-.01.17-.14-.09-.22-.19-.42-.31-.61,0,0,0,0,0,0,0,0,0-.01-.01-.02-.12-.19-.25-.36-.39-.53-.03-.03-.05-.06-.08-.09-.15-.16-.31-.32-.48-.46.06,0,.11-.01.16-.03.36.16.73.32,1.13.39.21.04.06-.27,0-.33-.24-.23-.51-.45-.78-.65-.01-.06-.03-.12-.06-.18.31.1.63.21.94.12.06-.02.07-.08.07-.13-.03-.72-1.38-1.23-1.9-1.46-.66-.29-1.43-.54-2.21-.67.28-.04.55-.12.77-.27.13-.09-.05-.29-.12-.34-.54-.36-1.28-.4-1.97-.42-.08-.07-.17-.14-.26-.21.03-.02.06-.04.09-.06.37-.28,1.05-.79,1.11-1.3.01-.09-.06-.18-.13-.23-.25-.14-.58-.1-.9-.02-.02-.18-.08-.38-.16-.6.15.08.31.15.47.18.45.1.76-.02,1-.25.02.77.15,1.52.79,1.75.39.14.69-.16.91-.58.01.04.03.07.04.11.15.35.64.96,1.1.79.79-.28,1.03-1.24,1-2.17.08.1.17.2.26.3.41.46.94,1.08,1.6,1.05.81-.03.28-1.32-.14-2.19.63.39,1.41.79,1.82.28.08-.1.11-.22.09-.35.61.44,1.21.89,1.79,1.38.27.23,1.1.51.93-.2-.37-1.49-1.33-2.51-2.46-3.37.28,0,.48-.09.51-.34.08-.65-.49-.87-.9-1.18-.22-.17-.47-.33-.72-.48.11-.1.16-.24.14-.43-.1-.74-.91-1.25-1.52-1.55-1.29-.64-2.54-.9-3.94-.58-.27.06-.59.13-.92.21-.02-.02-.04-.04-.06-.06,0,0,0,0,0-.01-.16-.56-.48-.88-.86-1.01,0,0,0,0,0,0,.07-.29-.08-.61-.3-.93.17.06.4.13.44.21.02.04.1.06.07,0-.05-.14-.17-.24-.32-.32-.02-.04-.06-.09-.08-.09-.11-.03-.22-.06-.33-.09-.01,0-.02,0-.03-.01-.09-.11-.19-.22-.28-.32,0,0,.01,0,.02,0,.68.36,1.31.81,2.09,1.02.55.15,1.57.54,2.08.15.1-.08.07-.2-.04-.34.79.44,1.57.9,2.38,1.35.11.06.22.03.21-.11-.03-.57-.58-1.3-1.22-1.84.03,0,.06-.01.08-.02h0s.05,0,.07-.02c.24.08.49.16.74.24.5.15.99.15,1.49.15h.07c.15.01.3.03.45.03.19,0,.39.02.59.03,0,0,0,0,0,0,.05,0,.1,0,.14,0,.02,0,.05,0,.07,0,.12,0,.23,0,.34-.03.03,0,.05-.01.08-.02.11-.02.23-.06.33-.11.09-.05,0-.21-.04-.26-.6-.71-2.03-.83-2.86-1.07-.2-.06-.43-.13-.66-.2.65-.03,1.45-.05,1.89-.45.09-.08.01-.23-.04-.31-.23-.33-.56-.36-.96-.36-.74,0-1.47-.01-2.21,0-.03,0-.06,0-.09,0,0-.02,0-.05-.02-.08-.22-.6-1.03-.84-1.57-1.04-.33-.12-.67-.25-1.01-.38.93-.05,1.74-.22,1.39-.65-.28-.35-.73-.42-1.17-.44.33-.15.43-.61.39-1.08.66.53,1.32,1.06,2.28.85.35-.08.64-.24.84-.46.76,1.24,2.08,2,3.66,1.9.66-.04,1.4-.15,1.44-.94.01-.23-.07-.45-.19-.67.56.16,1.11.19,1.27-.28.21-.62-.48-1.29-.89-1.65-.23-.2-.48-.42-.74-.63.11-.63-.59-1.25-1.03-1.58-.6-.45-1.27-.8-1.99-1.02-.08-.42-.27-.84-.5-1.22,1.05.16,2.08.19,3.05.03.09-.01.16-.04.23-.06.02,0,.04-.02.06-.03.04-.02.07-.04.1-.06.02-.01.03-.03.04-.04.02-.02.04-.04.05-.06,0-.01.02-.03.02-.05,0-.01.01-.02.01-.03,0,0,0,0,0,0,.04-.19-.14-.41-.46-.59-.63-.34-1.33-.62-2.05-.86.25,0,.49-.03.73-.08h0c.2-.04.39-.11.57-.19.39-.19.25-.65-.01-.89-.8-.74-2.05-.84-3.08-1.07-.08-.02-.17-.04-.25-.06,0,0,0,0,0,0,.2,0,.4.01.6.02.41,0,.83.05,1.24,0,0,0,0,0,0,.01.05.06.13.04.11-.03.05,0,.1-.01.14-.02.12-.03.05-.21,0-.26-.13-.14-.27-.27-.41-.38-.05-.04-.1-.07-.16-.1-.05-.03-.1-.07-.16-.1-.21-.32-.41-.63-.62-.95.09-.16.16-.33.21-.47.22-.61.06-1.45.11-2.17,0,0,.01,0,.02.01.05.08.1.17.15.24.35.55.65,1.19,1.3,1.45.54.21.83.02.95-.34.67.66,1.55,1.17,2.19,1.22.72.06,1.27-.24,1.45-.95.09-.36-.05-.72-.26-1.04.69.19,1.53.4,1.84-.1.46-.74-.02-1.41-.57-1.93-.07-.06-.14-.12-.21-.18,1.01-.41,1.7-1.26.79-2.31-.99-1.13-4.49-3.05-5.59-1.64-.16-.27-.32-.51-.44-.69,0-.01-.02-.03-.03-.04.66.12,1.21.13,1.21-.18,0-.19-.07-.36-.19-.5.62.16,1.26.27,1.91.31.77.04,1.77.13,2.51-.18.68-.29.43-.65-.02-.87.26.07.53.13.8.19.06.01.12.03.19.04.07.02.14.04.21.05.03,0,.05.01.08.02.06.01.11.03.17.04.03,0,.07.01.1.02.05.01.1.02.15.03.04,0,.08,0,.11.01.05,0,.09.01.14.01.04,0,.07,0,.11,0,.04,0,.08,0,.12,0,.03,0,.07-.01.1-.02.04,0,.07-.02.11-.03.03-.01.06-.03.08-.04.02-.01.04-.01.05-.03,0,0,0,0-.01,0,.03-.02.06-.04.09-.07.04-.05.05-.11.02-.16ZM17.21,76.69s0,0,0,0c0,0,.01,0,.02,0,0,0,0,0-.01,0ZM30.56,80.64c.12,0,.25-.02.38-.03-.02.11-.02.23-.02.35,0,.1.04.4.04.7-.09-.1-.17-.19-.27-.27-.04-.04-.09-.07-.13-.1-.04-.03-.07-.06-.11-.08,0,0,0,0,0,0-.04-.02-.07-.06-.11-.08-.05-.03-.11-.05-.17-.01-.32.22-.12.68,0,1.04-.25-.13-.58-.26-.78-.11-.22-.25-.48-.48-.76-.68.14-.08.27-.18.44-.25.42-.18.84-.33,1.29-.44.06-.01.13-.02.2-.03,0,0,0,0,0,0ZM39.58,94.95c-.78-.52-2.22-.49-3.12-.61-.14-.02-.28-.04-.43-.07-.1-.02-.21-.04-.32-.06-.05-.01-.11-.02-.16-.03-.1-.1-.19-.19-.27-.3-.07-.36-.14-.71-.19-1.07.42.34.91.76,1.41.8.1,0,.12-.1.09-.17-.18-.53-.63-.95-.95-1.4-.06-.08-.12-.17-.18-.26.34.2.69.37,1.06.48.56.17,1.68.65,2.14.11.06-.07.03-.14,0-.21.42.35.91.6,1.43.73-.39.65-.53,1.46-.18,2.04.16.26.36.42.59.5-.16.03-.33.07-.51.07-.29,0-.58.04-.87.08.21-.07.42-.16.6-.3.11-.09-.04-.28-.11-.32ZM36.69,87.54c.23.2.47.4.7.6-.01,0-.03-.02-.04-.03.18.15.36.29.54.43.11.08.28.23.48.38-.18.02-.36.06-.52.15-.11-.03-.22-.05-.32-.08-.27-.2-.54-.4-.81-.6-.05-.03-.09-.04-.12-.04-.17-.15-.34-.3-.51-.46-.06-.2-.11-.38-.21-.57,0,0,0,0,0,0,.2.07.41.14.62.19.06.01.12.02.18.03ZM41.12,95.47c.05,0,.11,0,.16-.02,0,.05,0,.1,0,.15-.05-.06-.11-.1-.16-.13ZM38.03,91.53c-.46-.3-1.06-.49-1.5-.64-.11-.04-.22-.08-.35-.12.45-.03.91-.05,1.36-.07,0,.02.02.04.02.06.13.28.29.54.46.78ZM36.32,89.24c0-.11,0-.22,0-.33.15.11.3.22.46.32.01,0,.03.01.04.02-.14,0-.3,0-.49-.01ZM36.73,102.99c-.28-.07-.56-.15-.83-.16-.42-.03-.85.14-1.22.32-.02,0-.02.02-.04.03,0-.26-.05-1.27-.09-2.31.3-.03.6-.05.85-.11.05-.01.09,0,.14-.02,0,.19.03.39.08.55.21.69.65,1.2,1.11,1.7ZM31.64,93.74s-.02.02-.02.03c0-.01,0-.03,0-.04,0,0,.01,0,.02.01ZM41.39,96.36c-.22.17-.44.33-.68.47.23-.27.44-.55.58-.89.02.15.05.28.1.42ZM36.29,87.18s-.09-.02-.13-.03c-.11-.04-.23-.08-.34-.12,0-.08,0-.17.02-.24.17.15.32.29.44.4ZM27.16,97.11s.01-.07.02-.11c.09-.09.18-.17.28-.26.39.13.8.17,1.14.11.13-.02.26-.06.39-.1-.01.06-.03.12-.04.18-.13.09-.25.19-.39.28-.16.1-.35.19-.54.28-.29-.17-.58-.31-.86-.37ZM19.93,77.65s-.02-.02-.03-.04c.02,0,.04,0,.06,0,0,.01-.02.03-.03.04ZM24.29,79.04c.52-.05,1.04-.1,1.57-.16-.55.36-.96.77-.66,1.11.32.35.83.32,1.26.21.72-.19,1.43-.41,2.14-.64-.37.41-.66.9-.62,1.4-.99-.51-2.15-.7-3.16-.42-.05-.51-.25-1.02-.53-1.49ZM43.37,98.14c-.05,0-.1,0-.15,0-.18.01-.37.03-.56.06,0,0,0,0,0,0-.19.03-.38.06-.56.1.07-.07.15-.15.22-.23h0s0-.01.01-.01c.06-.06.11-.12.16-.18.03-.04.07-.08.1-.12.04-.06.08-.11.12-.17.04-.05.07-.1.1-.15.03-.05.06-.11.09-.16.03-.06.06-.12.09-.17.12.42.31.79.6,1.04-.08,0-.15,0-.23,0ZM39.27,102.09c-.03.06-.07.12-.1.18-.14-.25-.29-.48-.45-.71,0,0,.01,0,.02,0,.17.18.35.35.53.53ZM36.3,108.32c-.09.01-.18.03-.27.04,0,0,0,0,0-.01.08-.05.16-.11.23-.17.03,0,.05,0,.08,0-.01.05-.02.1-.03.15ZM26.76,98c.08-.12.15-.25.21-.39.06.1.13.21.2.31-.08.05-.15.1-.22.15-.06-.03-.12-.05-.19-.07ZM37.2,126.28c-.21.08-.41.18-.6.27-.05-.03-.12-.07-.19-.11.12-.15.25-.28.38-.41.13.09.27.18.41.25ZM36.38,126.66c-.08.04-.16.07-.23.12.04-.06.09-.11.13-.17,0,0,.02,0,.02.01.03.01.05.03.08.04ZM29.73,114.38c-.12.1-.24.18-.35.27.07-.09.13-.2.18-.31.06.02.11.03.17.04ZM16.8,86.39c-.1-.04-.22-.09-.34-.14.88-.19,1.74-.47,2.61-.68.34-.08.67-.16,1-.24.11.18.26.34.46.47-.54-.14-1.12-.27-1.62-.16-.12.02-.07.18-.03.24.2.42.63.59,1,.85-.54-.14-.99-.16-1.13.11-.14.27.28.67.42.81,0,0,.01.02.02.03-.76-.52-1.59-.96-2.39-1.29ZM28.78,72.7c.38.35.85.75,1.3,1.11-.55-.22-1.11-.4-1.68-.56.07-.11.13-.22.21-.32.06-.08.11-.15.17-.23ZM44.87,97.94c.13.17.26.34.4.51-.08-.04-.16-.07-.25-.1-.07-.02-.15-.05-.22-.07-.07-.02-.13-.04-.2-.05.1-.08.19-.18.27-.3ZM40.15,110.31s-.05,0-.07,0c-.87-.04-1.69.03-2.51.2.07-.14.13-.28.19-.42.36-.43.67-.91.66-1.31.38.63.86,1.17,1.57,1.49.06.03.11.04.16.05ZM38.12,127.73c-.15,0-.29,0-.43-.02.07-.04.14-.09.22-.14.07.05.14.11.21.16ZM23.49,116.73c.75-.17,1-1.17,1.1-2.03.02-.01.04-.03.05-.04.25.31.57.51,1.07.45.48-.06.61-.55.6-1.09.51.65,1.16,1.13,2.08,1.1.22,0,.39-.06.55-.14-.2.15-.4.31-.6.46-.34.26-.68.54-.95.85-.05.06-.1.13-.13.19-.49-.31-1.04-.57-1.47-.35-.1.05,0,.23.04.28.23.33.56.57.89.8.06.05.12.1.18.15-.8-.27-1.67-.42-2.45-.54-.08-.01-.55-.09-.96-.09ZM23.17,101.89c.56.19,1.12.35,1.7.43.67.11,1.35.06,2.02.05-.5.12-1.01.29-1.31.56-.8-.29-1.63-.41-2.29.02-.08.06,0,.19.03.25.23.31.76.45,1.08.61.18.09.36.17.54.26-.38-.12-.78-.21-1.17-.25-.42-.04-1.01-.07-1.53.04.18-.33.35-.66.51-1,.15-.32.28-.65.41-.97ZM20.23,92.76c.27-.02.54-.03.81-.05.04.08.08.15.13.23-.31-.09-.62-.15-.93-.18ZM27.94,72.46c.07-.04.14-.07.21-.1-.12.22-.24.44-.36.67-.09-.06-.19-.13-.28-.19.14-.12.29-.24.43-.37ZM31.4,70.65c0,.07,0,.13,0,.2-.04.19-.03.4,0,.6,0,.16,0,.32,0,.48,0,.18,0,.35,0,.53-.42-.18-.84-.35-1.26-.47-.2-.06-.44-.15-.7-.23.03-.04.06-.08.09-.12.21-.11.42-.23.63-.35.39-.24.81-.44,1.22-.65ZM39.66,70.91c-.54.23-1,.53-1.37.97-.08,0-.15,0-.23,0,0-.28,0-.56-.04-.8-.04-.3-.29-.51-.58-.53-.61-.05-1.29.62-1.57,1.09-.19.3-.27.53-.25.76-.06-.03-.12-.07-.17-.1-.12-.06-.24-.14-.35-.21-.03-1.81-.05-3.62-.05-5.44.2.16.41.31.61.45.55.39,1.1.78,1.65,1.17.16.16.32.32.46.48.62.73,1.25,1.45,1.9,2.16ZM41.03,70.5c-.34.08-.67.16-.98.27-.2-.25-.42-.49-.6-.73-.26-.32-.51-.61-.76-.89,0-.02,0-.03-.02-.05-.06-.06-.13-.12-.19-.19-.01-.01-.03-.03-.04-.04.85.6,1.71,1.13,2.61,1.63ZM42.1,71.23c-.28,0-.57,0-.83.07.13-.12.25-.26.36-.4.16.11.32.23.48.34Z"/>
      <path class="cls-3" d="M103.74,74.55c-.17-.36-.47-.65-.83-.88h0s0,0,0,0c-.45-.29-.98-.51-1.43-.68-.67-.25-1.38-.53-2.1-.74.46-.05.94-.12,1.38-.24h0s0,0,.01,0c.13-.04.26-.08.38-.13.02,0,.04-.02.06-.02.11-.04.21-.09.31-.15.03-.02.06-.03.09-.05.09-.05.17-.11.25-.18.03-.02.06-.04.08-.06.1-.09.19-.18.28-.29.03-.04.01-.11,0-.15-.06-.14-.07-.3-.17-.42-.07-.08-.18-.16-.28-.2-.51-.18-.18-.03-.34.18.1-.13-.13-.34-.25-.36-1.3-.22-2.88,0-4.2.08-.27.01-.54.03-.81.05.14-.14.18-.3.05-.51-.17-.29-.65-.42-1.1-.49.4-.12.75-.32,1.01-.62.42-.48-.74-.98-.99-1.04-1.58-.42-3.14-.89-4.79-.91-.02,0-.05,0-.07,0,.09,0,.17-.01.26-.02.22-.01.4-.06.56-.21.04-.04.04-.1.02-.15-.24-.73-1.52-.8-2.14-.85-.72-.06-1.58-.05-2.33.19-.47-.15-.95-.31-1.35-.55.05-.06.11-.11.17-.15,0,0,0,0,0,0,.06-.04.12-.06.19-.08.38-.11.86.02,1.24.02h2.1c.29,0,.54,0,.77-.02.04.01.07.03.11.04.68.24,1.36.46,2.06.63.4.1,1.63.57,1.9.06.04-.07-.01-.16-.06-.22-.4-.53-1.15-.83-1.71-1.16-.23-.13-.46-.27-.68-.41.01-.01.02-.03.03-.04,1.13.34,2.39.58,2.46,0,.04-.32-.22-.62-.59-.89,1.45.4,3.17.98,4.19,1.96.09.09.25.09.24-.07-.05-.72-.78-1.47-1.25-1.96-.12-.12-.24-.24-.38-.35,1.17.43,2.38.81,3.58,1.04.21.04,2.91.6,2.43-.5-.11-.25-.29-.46-.5-.64,0,0,0,0,0,0,0,0,0,0,0,0-.15-.13-.33-.24-.52-.34-.04-.02-.07-.04-.11-.06-.18-.09-.36-.17-.56-.24,0,0-.01,0-.02,0-.2-.07-.4-.13-.59-.19-.08-.02-.15-.04-.22-.07-.15-.04-.3-.08-.44-.12-.33-.09-.67-.18-1-.27.1-.02.21-.03.31-.05.02,0,.06-.01.09-.02.06,0,.13-.02.21-.04.03,0,.05-.01.08-.02.05-.01.11-.02.16-.04.03,0,.06-.01.09-.02.06-.01.11-.03.17-.05.03-.01.06-.02.09-.03.06-.02.1-.05.15-.07.02-.01.05-.02.07-.04.05-.03.09-.06.12-.1.01-.01.03-.02.05-.04.04-.04.05-.09.07-.13,0-.01.01-.02.02-.03,0-.06,0-.13-.04-.2-.45-.96-2.56-.8-3.36-.79-.24,0-.6-.02-.99-.02,0,0,0,0,0,0-.9-.65-2.36-.83-3.43-.96-.02,0-.06,0-.08,0-.04-.02-.08-.05-.12-.07-.07-.06-.16-.11-.24-.16-.69-.46-1.35-.96-2.05-1.41-.7-.51-1.39-1.04-2.13-1.51-.13-.1-.26-.19-.39-.28.39.11.79.19,1.21.26,1.03.18,2.02.49,3.04.69,1.24.24,2.45.5,3.67.86.88.26,1.84.41,2.68.78.12.06.07-.15,0-.19-.85-.43-1.83-.64-2.73-.97-.93-.34-1.87-.67-2.85-.88-1.13-.24-2.23-.69-3.38-.84-1.01-.13-1.89-.24-2.83-.54-.64-.53-1.22-1.1-1.88-1.6-.05-.05-.09-.09-.14-.14.04-5.42.22-10.83.38-16.24.17-5.99,1.05-11.99,1.05-17.98-1.92-.55-3.92-.45-5.73.36.8,12.07.52,24.17.62,36.26-.16.32-.33.64-.53.93-.58.83-1.44,1.44-2.22,2.08-.58.48-1.14.97-1.71,1.46,0,0-.01.01-.02.01-.08.06-.16.11-.25.17-.44-.19-.88-.31-1.31-.32-.68-.03-.58.43-.25.84.1.12.19.25.29.39,0,0,0,0,0,0-.32-.15-.64-.29-.92-.42-.42-.19-1.87-1.05-2.32-.57-.04.04-.04.09-.02.14.02.04.04.08.06.11-.88-.35-1.85-.5-2.76-.45-.12,0-.21.03-.29.05-.02,0-.03.01-.05.02-.07.02-.12.05-.16.09,0,0,0,0,0,0-.04.04-.06.09-.06.15h0c0,.06,0,.12.03.19h0c.19.5,1.13,1.26,1.8,1.76-.23-.07-.47-.14-.71-.22-.68-.21-1.45-.51-2.17-.37-.14.03-.01.24.04.29.34.29.79.5,1.23.7-.81-.09-1.64-.07-2.43.05-.05,0-.12.02-.21.03-.25.03-.63.09-1.01.19-.51-.26-1.05-.43-1.57-.4-.93.06-1.05.98-.76,1.9-.52-.24-1.07-.38-1.61-.37-.79.01-2.67.09-2.8,1.17-.11.93,1.17,1.64,1.89,1.85.49.14.98.27,1.47.4-.09.11-.12.25-.09.41.15.7.66,1.09,1.27,1.34-.37.24-.71.51-1.07.86-.4.4-.9.75-1.06,1.32-.07.27.3.72.57.71.73-.04,1.56-.09,2.29-.2.14-.02.29-.05.43-.08-.03.03-.06.06-.08.09-.26.3-.68.84-.74,1.25-.05.35.03.61.19.8-.08.05-.16.1-.22.18-.05.06-.08.12-.1.18,0,0,0,0,0,.01-.21.85,2.1,2.37,3.71,3.31-.5-.13-1.02-.21-1.52-.22-.4,0-1.1-.1-1.37.26-.05.06.02.16.05.2.32.45,1.16.54,1.63.67.13.04.27.08.42.13-.78.12-1.54.4-2.07.93-.44.43-1.34,1.57-.86,2.2.03.04.1.1.16.07,1.09-.53,2.14-.93,3.25-1.25.5.07,1.03.09,1.49.09.31,0,.62-.02.93-.04-.06.01-.13.02-.19.04-.88.25-2.08.84-1.67,2.01.2.57,1.11.95,2.06,1.07-.21.67.11,1.51.64,2.09-.15.07-.29.15-.39.27-1.3-.42-2.78-.97-4.17-.9h0c-.1,0-.19,0-.29.01-.89.1.55,1.29.67,1.36.73.45,1.6.92,2.49,1.19-.63.16-1.22.45-1.6.94-.35.45-.4,1.06.28,1.13.54.06,1.24-.29,1.78-.37.95-.14,1.93-.13,2.89-.05.13.01.26.03.4.04-.14.19-.3.38-.43.58-.03.05.07.16.12.1.19-.23.39-.43.58-.65.05,0,.09,0,.14.01.05.02.11.04.16.06-.12.26-.23.52-.35.79-.24.54-.5,1.08-.75,1.62-.07.05-.14.1-.19.16-.06.06-.03.15.02.22-.3.64-.6,1.28-.87,1.94-.03.08.13.25.18.16.32-.62.67-1.22,1.01-1.82.2.12.44.2.7.25-.27.11-.51.27-.69.52-.42.58-.81,1.39-.73,2.12,0,.11.15.29.27.25.85-.26,1.52-.83,2.43-.95.26-.04.6-.1.94-.15-.54.49-1.21.93-1.72,1.42-.67.64-1.34,1.27-1.88,2.03-.02.03-.02.05-.01.08,0,.01,0,.02,0,.03,0,0,0,.01,0,.02,0,0,0,0,0,0,.04.08.15.16.22.15.04,0,.09-.02.13-.02,0,0,0,0-.01,0,.11-.01.21-.04.32-.05.86-.13,1.71-.35,2.57-.5.02,0,.04,0,.05-.01.25-.04.5-.06.74-.09-.1.08-.2.18-.28.32-.27.44-.23.91-.03,1.33-.6-.12-1.2-.16-1.83-.11-.61.04-2.19.29-2.18,1.13,0,.29.18.54.45.65.17.07.35.12.53.14-.37.47-.58.99-.27,1.39-.26.26-.48.61-.35.98.33.92.98.66,1.55.19,0,.01,0,.02,0,.03-.02.02-.04.04-.06.06-.05.05.03.16.1.16.07.31.22.54.49.59-.27.04-.46.14-.37.37.19.55.99.99,1.56,1.29.03.03.06.06.09.09.02.02.06.04.1.07-.64-.2-1.28-.3-1.78-.11-.13.05-.03.24.04.29.32.24.71.44,1.09.6-.16.01-.32.03-.47.07-.55.01-1.08.11-1.53.35-.38.2-1.59,1.06-1.37,1.65.03.07.14.22.23.18.48-.22,1.16-.2,1.75-.17-.08.04-.16.08-.23.12-.67.43-1.43.87-2,1.43-1.02.98-2.51,2.51-2.76,3.95,0,.04.01.08.04.13h0s0,0,0,0c.02.03.05.06.08.08,0,0,0,0,.01.01.03.02.07.03.1.02,1.75-.7,3.31-1.39,5.2-1.67.83-.12,1.69-.21,2.53-.33-.36.42-.63.9-.7,1.42-.02.14.14.32.28.3.35-.05.59-.35.89-.51.61-.33,1.23-.62,1.91-.8.51-.14,1.04-.28,1.58-.38.08-.02.16-.04.25-.05-.02.12,0,.24.03.36.08.24.34.33.53.45.17.11-.97.64-1.11.79-.1.11.06.27.16.29.56.12,1.16.24,1.73.27,0,0,.65.1.85.22,0,0,0,0,0,0-.31-.03-.62-.04-.92-.05-.83-.03-2.01-.03-2.74.39-.06.04-.03.15,0,.2.15.23.36.41.6.56-.34-.01-.59.06-.55.31.02.13.06.26.13.4-.37-.15-.76-.23-1.09-.11-.04.01-.06.04-.06.08-.04.28.16.54.44.76-.61.02-1.18.27-1.66.67h0s0,0,0,0c-.14.12-.27.25-.39.38-.02.03-.05.05-.07.08-.12.14-.23.29-.33.44-.06.1.09.28.19.27.59-.04,1.12.08,1.66.25-.98.4-1.74,1.26-1.79,2.54,0,.12.08.24.19.29.18.07.23.06.43-.04.21-.11.46-.22.71-.31-.14.16-.23.35-.29.63-.03.13.15.33.28.3.35-.08.67-.2.99-.33-.33.52-.64,1.14-.3,1.61.08.11.24.27.39.16.27-.19.48-.45.83-.54.16-.04.62-.12.86-.09.05.22.09.44.1.67.03.41.4,1.05.49,1.48.25,1.2.75,2.33.95,3.55.2,1.22.42,2.44.69,3.64.08.37.17.73.27,1.1.1.59.2,1.19.31,1.78.1.37.2.74.29,1.11.21.87.34,1.75.54,2.62.03.13.06.27.09.42.02.09.04.17.06.26.02.09.04.18.07.27.03.1.06.19.09.28.03.09.06.17.1.25.03.09.07.18.11.26,0,.01.01.03.02.04,0,0,0,0,0,0,.07.14.15.29.25.4,0-.04.01-.09.02-.13.03.03.07.04.08,0,.26-1.13.29-2.29.49-3.43.06-.35.12-.7.18-1.04.14-.81.28-1.62.44-2.42.25-1.24.57-2.43.98-3.63.27-.81.67-1.58.9-2.4,0-.03,0-.06-.01-.1-.01-.03-.03-.05-.05-.08,0,0,0-.01,0-.02-.06-.07-.14-.11-.21-.1-.35.1-.59.49-.78.79-.17.25-.33.49-.51.74.08-.17.16-.33.21-.44.02-.05.04-.1.06-.16,0,0,0,0,0,0,0-.02.01-.04.02-.06.24-.64.45-1.29.67-1.94.01-.03,0-.06-.01-.1,0-.01,0-.02-.01-.03-.01-.03-.03-.05-.05-.07,0,0-.01-.02-.02-.03-.02-.02-.05-.04-.07-.04,0,0,0,0,0,0-.04-.01-.08-.01-.09.03-.17.44-.48,1.18-.85,1.68.03-.38.06-.76.08-1.15.05-.18.09-.36.11-.5.11-.83.26-1.65.44-2.47.26-1.17.54-2.35.86-3.51h0c.02-.09.04-.18.07-.27.15.12.3.25.44.39.23.22.5.45.82.28.24-.12-.21-.91-.63-1.51.37.23.76.45,1.17.54.09.02.12-.08.12-.15-.02-.28-.23-.53-.47-.75.35.1.71.11.94-.17.07-.08.09-.18.09-.29.71.04,1.58.31,1.88.41.82.28,1.47.68,2.17,1.18.11.08.22-.01.17-.14-.09-.22-.19-.42-.31-.61,0,0,0,0,0,0,0,0,0-.01-.01-.02-.12-.19-.25-.36-.39-.53-.02-.03-.05-.06-.07-.09-.15-.16-.31-.32-.48-.46.06,0,.11-.01.16-.03.36.16.73.32,1.13.39.21.04.06-.27,0-.33-.24-.23-.51-.45-.78-.65-.01-.06-.03-.12-.06-.18.31.1.63.21.94.12.06-.02.07-.08.07-.13-.03-.72-1.38-1.23-1.89-1.46-.66-.29-1.43-.54-2.21-.67.28-.04.55-.12.77-.27.13-.09-.05-.29-.12-.34-.54-.36-1.28-.4-1.97-.42-.08-.07-.17-.14-.26-.21.03-.02.06-.04.09-.06.37-.28,1.05-.79,1.11-1.3.01-.09-.06-.18-.13-.23-.25-.14-.58-.1-.89-.02-.02-.18-.08-.38-.16-.6.15.08.31.15.47.18.46.1.76-.02,1-.25.02.77.15,1.52.79,1.75.39.14.69-.16.91-.58.01.04.03.07.04.11.15.35.64.96,1.1.79.79-.28,1.03-1.24,1-2.17.09.1.17.2.26.3.41.46.94,1.07,1.61,1.05.81-.03.28-1.32-.14-2.19.63.39,1.41.79,1.82.28.08-.1.11-.22.09-.35.61.44,1.21.89,1.79,1.38.27.23,1.1.51.93-.2-.37-1.49-1.33-2.51-2.46-3.37.28,0,.48-.09.51-.34.08-.65-.49-.87-.9-1.18-.22-.17-.47-.33-.72-.48.11-.1.16-.24.14-.43-.1-.74-.91-1.25-1.52-1.55-1.29-.64-2.54-.9-3.94-.58-.28.06-.59.13-.92.21l-.06-.06s0,0,0-.01c-.16-.57-.47-.88-.86-1.01,0,0,0,0,0,0,.06-.29-.08-.61-.3-.93.17.06.4.13.44.21.02.04.1.06.07,0-.05-.14-.17-.24-.32-.32-.02-.04-.06-.09-.08-.09-.11-.03-.22-.06-.33-.09-.01,0-.02,0-.03-.01-.09-.11-.19-.22-.29-.32,0,0,.01,0,.02,0,.68.36,1.31.81,2.09,1.02.55.15,1.57.54,2.08.15.1-.08.07-.2-.04-.34.79.44,1.57.9,2.38,1.35.11.06.22.03.21-.11-.03-.57-.58-1.3-1.22-1.84.03,0,.06-.01.08-.02h0s.05,0,.07-.02c.25.08.49.16.74.24.5.15.99.15,1.49.15h.07c.15.01.3.03.45.03.19,0,.39.02.59.03,0,0,0,0,0,0,.05,0,.1,0,.14,0,.02,0,.05,0,.07,0,.12,0,.23,0,.34-.03.03,0,.05-.01.08-.02.12-.02.23-.06.33-.11.09-.05,0-.21-.04-.26-.6-.71-2.03-.83-2.86-1.07-.21-.06-.43-.13-.66-.2.65-.03,1.45-.05,1.89-.45.1-.08.01-.23-.04-.31-.23-.33-.56-.36-.96-.36-.74,0-1.47-.01-2.21,0-.03,0-.06,0-.09,0,0-.02,0-.05-.02-.08-.22-.6-1.03-.84-1.57-1.04-.33-.12-.67-.25-1.01-.38.93-.05,1.74-.22,1.39-.65-.28-.35-.73-.42-1.17-.44.33-.15.43-.61.39-1.08.66.53,1.32,1.06,2.28.85.35-.08.64-.24.84-.46.76,1.24,2.08,2,3.66,1.9.66-.04,1.4-.15,1.44-.94.01-.23-.07-.45-.19-.67.56.16,1.11.19,1.27-.28.21-.62-.48-1.29-.89-1.65-.24-.2-.48-.42-.74-.63.11-.63-.59-1.25-1.04-1.58-.6-.45-1.27-.8-1.99-1.02-.08-.42-.27-.84-.5-1.22,1.05.16,2.08.19,3.05.03.09-.01.16-.04.23-.06.02,0,.04-.02.06-.03.04-.02.07-.04.1-.06.02-.01.03-.03.04-.04.02-.02.04-.04.05-.06,0-.01.02-.03.02-.05,0-.01.01-.02.01-.03,0,0,0,0,0,0,.04-.19-.14-.41-.46-.59-.63-.34-1.33-.62-2.05-.86.25,0,.49-.03.72-.08h0c.2-.04.39-.11.57-.19.39-.19.25-.65-.01-.89-.8-.74-2.05-.84-3.07-1.07-.08-.02-.17-.04-.25-.06h0c.2,0,.4.01.6.01.41,0,.83.05,1.24,0,0,0,0,0,0,.01.05.06.13.04.11-.03.05,0,.1-.01.14-.02.12-.03.05-.21,0-.26-.13-.14-.27-.27-.41-.38-.05-.04-.1-.07-.16-.1-.05-.03-.1-.07-.15-.1-.21-.32-.41-.63-.62-.95.09-.16.16-.33.21-.47.22-.61.06-1.45.11-2.17,0,0,.01,0,.02.01.05.08.1.17.14.24.35.55.65,1.19,1.3,1.45.54.21.82.02.95-.34.67.66,1.54,1.17,2.19,1.22.72.06,1.27-.24,1.45-.95.09-.36-.05-.72-.26-1.04.69.19,1.53.4,1.84-.1.46-.74-.02-1.41-.57-1.93-.07-.06-.14-.12-.21-.18,1.01-.41,1.7-1.26.79-2.31-.98-1.13-4.49-3.05-5.59-1.64-.16-.27-.32-.51-.44-.69,0-.01-.02-.03-.03-.04.66.12,1.21.13,1.21-.18,0-.19-.07-.36-.19-.5.62.16,1.26.27,1.91.31.77.04,1.77.13,2.51-.18.68-.29.43-.65-.02-.87.26.07.53.13.8.19.06.01.12.03.19.04.07.02.14.04.21.05.03,0,.05.01.08.02.06.01.11.03.17.04.03,0,.07.01.1.02.05.01.1.02.15.03.04,0,.08,0,.11.01.05,0,.09.01.14.01.04,0,.07,0,.11,0,.04,0,.08,0,.12,0,.03,0,.07-.01.1-.02.04,0,.07-.02.11-.03.03-.01.06-.03.08-.04.02-.01.04-.01.05-.03,0,0,0,0-.01,0,.03-.02.06-.04.09-.07.04-.05.05-.11.03-.17ZM65.97,63.86s0,0,0,0c0,0,.01,0,.02,0,0,0,0,0-.01,0ZM79.32,67.8c.12-.01.25-.02.38-.03-.01.12-.02.23-.02.35,0,.1.04.4.04.7-.09-.1-.17-.19-.27-.27-.04-.04-.09-.07-.13-.1-.04-.03-.07-.06-.11-.08,0,0,0,0,0,0-.04-.03-.07-.06-.11-.08-.06-.03-.12-.05-.17-.01-.32.22-.12.68,0,1.04-.25-.13-.58-.26-.78-.11-.22-.25-.48-.48-.76-.68.14-.08.27-.18.44-.25.42-.18.85-.33,1.29-.44.06-.01.13-.02.2-.02,0,0,0,0,0,0ZM88.34,82.12c-.78-.52-2.22-.49-3.12-.61-.14-.02-.28-.04-.43-.07-.1-.02-.21-.04-.32-.06-.06-.01-.11-.02-.17-.03-.1-.1-.19-.19-.27-.3-.07-.36-.14-.71-.19-1.07.42.34.91.76,1.41.8.1,0,.12-.1.09-.17-.18-.53-.63-.95-.95-1.4-.06-.08-.12-.17-.18-.26.33.2.69.37,1.06.48.56.17,1.68.65,2.14.11.06-.07.03-.14,0-.21.42.35.91.6,1.43.73-.39.65-.53,1.46-.18,2.04.16.26.36.42.59.5-.16.03-.33.07-.51.07-.29,0-.58.04-.87.08.21-.07.42-.16.6-.3.11-.09-.04-.28-.11-.32ZM85.45,74.7c.23.2.47.4.7.6-.01,0-.03-.02-.04-.03.18.15.36.29.54.43.11.08.28.23.47.38-.18.02-.36.06-.52.15-.11-.03-.22-.05-.32-.08-.27-.2-.54-.4-.81-.6-.04-.03-.08-.04-.12-.04-.17-.15-.34-.3-.51-.46-.06-.2-.11-.38-.21-.57,0,0,0,0,0,0,.2.07.41.14.62.19.06.01.12.02.18.03ZM89.87,82.64c.05,0,.11,0,.16-.02,0,.05,0,.1,0,.15-.05-.06-.11-.1-.16-.13ZM86.79,78.7c-.46-.3-1.06-.49-1.5-.64-.11-.04-.22-.08-.35-.12.46-.03.91-.05,1.36-.07,0,.02.01.04.02.06.13.28.29.54.46.78ZM85.08,76.41c0-.11,0-.22,0-.33.15.11.3.22.46.32.01,0,.02.01.04.02-.14,0-.31,0-.49-.01ZM85.48,90.15c-.28-.07-.56-.15-.83-.16-.42-.03-.85.14-1.22.32-.02,0-.02.02-.04.03,0-.26-.05-1.27-.09-2.31.3-.03.6-.05.85-.11.04-.01.09,0,.13-.02,0,.19.03.39.08.55.21.69.65,1.2,1.11,1.7ZM80.4,80.9s-.01.02-.02.03c0-.01,0-.03,0-.04,0,0,.01,0,.02.01ZM90.15,83.53c-.22.17-.44.33-.68.47.24-.27.44-.55.58-.89.02.15.05.28.1.42ZM85.05,74.35s-.09-.02-.13-.03c-.11-.04-.23-.08-.34-.12,0-.09,0-.17.03-.24.17.15.32.29.44.4ZM75.91,84.28s.01-.07.02-.11c.09-.09.18-.17.28-.26.39.13.8.17,1.14.11.13-.02.26-.06.39-.1-.01.06-.03.12-.04.18-.13.09-.25.19-.39.28-.16.1-.35.19-.54.28-.29-.17-.58-.31-.87-.37ZM68.69,64.82s-.02-.02-.03-.04c.02,0,.04,0,.06,0,0,.01-.02.03-.03.04ZM73.05,66.21c.52-.05,1.04-.1,1.56-.16-.55.36-.96.77-.66,1.1.32.35.83.32,1.26.21.72-.19,1.43-.41,2.14-.64-.37.41-.66.9-.62,1.4-.99-.51-2.15-.7-3.16-.42-.05-.51-.25-1.02-.53-1.49ZM92.13,85.31c-.05,0-.1,0-.15,0-.18.01-.37.03-.56.06,0,0,0,0,0,0-.19.03-.38.06-.56.1.07-.07.15-.15.22-.23h0s0-.01.01-.01c.06-.06.11-.12.16-.18.03-.04.07-.08.1-.12.04-.06.08-.11.12-.17.04-.05.07-.1.1-.15.03-.05.06-.11.09-.16.03-.06.06-.12.09-.17.12.42.31.79.6,1.04-.08,0-.15,0-.23,0ZM88.03,89.26c-.03.06-.07.12-.1.18-.14-.25-.29-.48-.45-.71,0,0,.01,0,.02,0,.17.18.35.35.53.53ZM85.06,95.48c-.09.01-.18.03-.27.04,0,0,0,0,0-.01.08-.05.16-.11.22-.17.03,0,.05,0,.08,0-.01.05-.02.1-.03.15ZM75.52,85.17c.08-.12.15-.25.21-.39.06.1.13.21.2.31-.08.05-.15.1-.22.15-.07-.03-.12-.05-.19-.07ZM85.96,113.44c-.21.08-.41.18-.6.27-.05-.03-.12-.07-.19-.11.12-.15.24-.28.38-.41.13.09.27.18.41.25ZM85.14,113.83c-.08.04-.16.07-.23.12.04-.06.09-.11.13-.17,0,0,.01,0,.02.01.03.01.05.03.08.04ZM78.48,101.55c-.12.1-.24.18-.35.27.07-.09.13-.2.18-.31.06.02.11.03.17.04ZM65.56,73.56c-.1-.04-.22-.09-.34-.14.88-.19,1.74-.47,2.61-.68.33-.08.67-.16,1-.24.11.18.26.34.46.47-.54-.14-1.12-.27-1.62-.16-.12.02-.07.18-.03.24.2.42.63.59,1,.85-.54-.14-.99-.16-1.13.11-.14.27.28.67.42.81,0,0,.01.02.02.03-.76-.52-1.59-.96-2.39-1.29ZM77.53,59.87c.38.35.85.75,1.3,1.11-.55-.22-1.11-.4-1.68-.56.07-.11.13-.22.21-.32.06-.08.11-.15.17-.23ZM93.63,85.1c.13.17.26.34.4.51-.08-.04-.16-.07-.25-.1-.07-.02-.15-.05-.22-.07-.07-.02-.13-.04-.2-.05.1-.08.19-.18.27-.3ZM88.91,97.48s-.05,0-.07,0c-.87-.04-1.69.03-2.51.2.07-.14.13-.28.19-.42.36-.43.67-.91.66-1.31.38.63.86,1.17,1.57,1.49.06.03.11.03.16.05ZM86.88,114.89c-.15,0-.29,0-.43-.02.07-.04.14-.09.22-.14.07.05.14.11.21.16ZM72.25,103.9c.75-.17,1.01-1.17,1.1-2.03.02-.01.04-.03.05-.04.24.31.57.51,1.06.45.48-.06.61-.55.6-1.09.51.65,1.16,1.13,2.08,1.1.22,0,.39-.06.55-.14-.2.15-.4.31-.6.46-.35.26-.68.54-.96.85-.06.06-.1.13-.13.19-.49-.31-1.04-.57-1.47-.35-.1.05,0,.23.04.28.23.33.56.57.89.8.06.05.12.1.19.15-.8-.27-1.67-.42-2.45-.54-.08-.01-.55-.09-.96-.1ZM71.93,89.06c.56.19,1.12.35,1.69.43.67.11,1.35.06,2.02.05-.5.12-1.01.29-1.31.56-.8-.29-1.63-.41-2.29.02-.08.06,0,.19.03.25.23.31.76.45,1.08.61.18.09.36.17.54.26-.39-.12-.78-.21-1.17-.25-.42-.04-1.01-.07-1.53.04.18-.33.35-.66.51-1,.15-.32.28-.65.41-.97ZM68.99,79.92c.27-.02.54-.03.81-.05.04.08.08.15.12.23-.31-.09-.62-.15-.93-.18ZM76.7,59.63c.07-.04.14-.07.21-.1-.12.22-.24.44-.36.67-.09-.06-.19-.13-.28-.19.14-.12.29-.25.43-.37ZM80.16,57.82c0,.07,0,.13,0,.2-.04.19-.03.4,0,.6,0,.16,0,.32,0,.48,0,.18,0,.35,0,.53-.42-.18-.84-.35-1.26-.47-.2-.06-.44-.15-.7-.23.03-.04.06-.08.09-.12.22-.11.42-.23.63-.35.39-.24.81-.44,1.22-.65ZM88.42,58.08c-.54.23-1,.53-1.37.97-.08,0-.15,0-.23,0,0-.28,0-.56-.04-.8-.04-.3-.29-.51-.58-.53-.61-.05-1.29.62-1.57,1.09-.19.3-.27.53-.25.76-.06-.03-.12-.07-.17-.1-.12-.06-.24-.14-.35-.21-.03-1.81-.05-3.62-.04-5.44.2.16.41.31.61.45.55.39,1.1.78,1.65,1.17.16.16.32.32.46.48.62.73,1.25,1.45,1.9,2.16ZM89.79,57.66c-.34.08-.67.16-.98.27-.21-.25-.42-.49-.61-.73-.26-.32-.51-.61-.76-.89,0-.02,0-.03-.03-.05-.06-.06-.13-.12-.19-.19-.01-.01-.03-.03-.04-.04.85.6,1.71,1.13,2.61,1.63ZM90.85,58.4c-.28,0-.57,0-.83.07.13-.12.25-.26.36-.4.16.11.32.23.47.34Z"/>
    </g>
  </g>
  <g class="cls-2">
    <g>
      <path class="cls-3" d="M310.44,101.61c-.29-.63-.83-1.13-1.45-1.54h0s0,0,0,0c-.79-.51-1.71-.89-2.49-1.18-1.17-.44-2.4-.92-3.65-1.29.81-.08,1.63-.21,2.4-.42h0s.02,0,.02,0c.23-.07.45-.14.67-.22.04-.01.07-.03.11-.04.19-.08.37-.16.54-.26.05-.03.1-.05.15-.08.16-.09.3-.2.44-.31.05-.04.1-.07.15-.11.18-.15.34-.32.48-.51.05-.06.03-.19,0-.25-.11-.24-.13-.53-.3-.74-.12-.15-.32-.28-.49-.34-.89-.32-.32-.06-.6.32.18-.23-.23-.59-.43-.62-2.26-.39-5.02.02-7.32.14-.47.02-.94.05-1.41.09.23-.25.32-.53.09-.89-.3-.5-1.13-.73-1.92-.86.69-.22,1.31-.56,1.77-1.08.74-.83-1.28-1.7-1.73-1.82-2.76-.73-5.47-1.55-8.35-1.59-.04,0-.08,0-.12,0,.15-.01.3-.03.45-.03.39-.02.7-.1.98-.36.08-.07.06-.17.04-.26-.41-1.27-2.65-1.39-3.73-1.47-1.25-.1-2.76-.09-4.05.32-.82-.26-1.65-.54-2.35-.96.09-.1.19-.19.29-.25,0,0,0,0,0,0,.11-.06.22-.11.34-.14.66-.19,1.5.04,2.15.04h3.65c.51,0,.94,0,1.35-.04.06.02.13.06.19.07,1.19.41,2.37.8,3.59,1.1.7.18,2.84,1,3.32.1.07-.12-.02-.28-.1-.38-.7-.92-1.99-1.44-2.97-2.02-.4-.23-.79-.47-1.19-.71.02-.02.04-.05.05-.07,1.97.58,4.16,1.01,4.29.01.07-.55-.38-1.08-1.02-1.54,2.53.69,5.53,1.71,7.31,3.41.16.15.44.16.41-.12-.08-1.26-1.36-2.57-2.18-3.41-.2-.21-.42-.42-.65-.61,2.05.75,4.14,1.41,6.24,1.82.37.07,5.07,1.04,4.23-.87-.19-.43-.5-.8-.87-1.11,0,0,0,0,0,0,0,0,0,0-.01,0-.27-.23-.58-.42-.9-.6-.06-.03-.13-.07-.19-.1-.31-.16-.64-.3-.97-.42-.01,0-.03-.01-.04-.02-.35-.13-.69-.23-1.03-.33-.14-.04-.26-.08-.39-.11-.27-.07-.53-.15-.77-.21-.57-.16-1.16-.32-1.75-.47.18-.03.36-.06.54-.09.04,0,.1-.02.16-.03.1-.02.22-.04.36-.07.05-.01.09-.02.15-.03.09-.02.19-.04.28-.07.05-.01.11-.02.16-.04.1-.03.19-.06.29-.09.05-.02.11-.03.16-.05.1-.04.18-.08.27-.12.04-.02.09-.04.13-.06.09-.05.15-.11.22-.17.02-.02.06-.04.08-.06.06-.07.09-.15.11-.23,0-.02.03-.04.03-.06.02-.11,0-.22-.06-.35-.79-1.67-4.46-1.39-5.87-1.38-.42,0-1.04-.03-1.72-.03,0,0,0,0,0,0-1.56-1.13-4.11-1.44-5.98-1.67-.04,0-.1-.01-.14-.02-.07-.04-.14-.09-.2-.13-.12-.11-.27-.2-.43-.28-1.2-.8-2.35-1.67-3.57-2.45-1.21-.89-2.42-1.82-3.71-2.62-.23-.17-.45-.33-.69-.49.68.19,1.38.34,2.1.46,1.8.31,3.52.86,5.31,1.21,2.17.42,4.28.87,6.39,1.5,1.54.46,3.2.71,4.67,1.37.22.1.12-.26,0-.32-1.49-.75-3.18-1.11-4.75-1.69-1.62-.59-3.27-1.17-4.97-1.54-1.98-.43-3.89-1.2-5.9-1.46-1.76-.22-3.3-.42-4.93-.93-1.11-.91-2.14-1.92-3.29-2.79-.08-.08-.15-.16-.24-.24.08-9.44.39-18.89.66-28.32.3-10.45,1.84-20.91,1.83-31.36-3.36-.95-6.83-.78-9.99.63,1.39,21.04.9,42.14,1.08,63.22-.27.56-.57,1.12-.92,1.62-1.01,1.45-2.52,2.51-3.88,3.62-1.01.83-1.99,1.69-2.98,2.54-.01,0-.02.01-.04.02-.15.1-.29.19-.43.29-.77-.32-1.54-.53-2.29-.56-1.18-.04-1.01.75-.43,1.47.17.21.33.44.5.68,0,0,0,0-.01.01-.55-.26-1.11-.5-1.61-.73-.73-.33-3.26-1.83-4.05-.99-.07.07-.07.16-.03.25.03.07.06.13.1.2-1.54-.61-3.23-.87-4.81-.79-.21.01-.37.04-.51.08-.03,0-.06.02-.09.03-.12.04-.21.1-.27.16,0,0,0,0,0,0-.07.08-.11.16-.11.26h0c0,.11.01.22.06.33h0c.34.87,1.98,2.2,3.14,3.07-.4-.13-.82-.25-1.25-.38-1.18-.37-2.53-.9-3.78-.65-.24.05-.03.42.07.5.6.51,1.38.87,2.15,1.22-1.41-.15-2.85-.12-4.23.08-.09.01-.21.03-.37.05-.44.06-1.1.16-1.76.32-.88-.46-1.83-.75-2.74-.69-1.62.1-1.83,1.71-1.33,3.32-.9-.41-1.86-.67-2.81-.65-1.37.02-4.65.16-4.88,2.04-.2,1.61,2.04,2.86,3.3,3.22.85.25,1.71.47,2.57.69-.15.2-.21.44-.15.72.25,1.22,1.15,1.9,2.21,2.33-.65.41-1.24.88-1.87,1.51-.7.7-1.57,1.31-1.84,2.29-.13.47.52,1.26,1,1.24,1.28-.07,2.73-.15,3.99-.35.25-.04.5-.09.75-.14-.05.05-.1.1-.14.15-.45.53-1.18,1.47-1.28,2.18-.09.62.05,1.07.32,1.39-.13.09-.27.18-.39.31-.09.1-.14.21-.17.32,0,0,0,.01,0,.02-.37,1.48,3.67,4.13,6.47,5.78-.87-.22-1.77-.36-2.65-.38-.69-.01-1.91-.17-2.4.46-.08.1.04.27.09.35.55.78,2.01.94,2.84,1.16.23.06.48.14.72.22-1.37.21-2.68.7-3.62,1.61-.77.75-2.35,2.74-1.51,3.84.05.06.18.17.27.13,1.91-.92,3.73-1.62,5.67-2.18.88.13,1.8.16,2.6.16.54,0,1.08-.04,1.61-.06-.11.02-.22.03-.33.06-1.54.44-3.63,1.46-2.91,3.5.35,1,1.94,1.66,3.59,1.86-.37,1.17.2,2.64,1.12,3.64-.26.11-.5.26-.68.46-2.26-.74-4.86-1.69-7.27-1.58h0c-.17,0-.34,0-.5.03-1.56.18.97,2.24,1.17,2.37,1.28.79,2.79,1.6,4.34,2.08-1.1.28-2.13.78-2.79,1.64-.6.79-.7,1.85.48,1.97.94.09,2.16-.51,3.11-.65,1.65-.24,3.37-.23,5.04-.09.23.02.46.05.69.07-.25.34-.52.66-.75,1.01-.06.09.13.28.21.18.32-.39.68-.76,1.01-1.14.08.01.16.01.24.03.1.04.19.07.29.11-.2.45-.4.91-.61,1.37-.43.95-.87,1.89-1.32,2.83-.12.08-.24.18-.34.28-.1.11-.05.26.03.38-.53,1.12-1.04,2.24-1.52,3.38-.06.15.23.44.32.27.55-1.08,1.16-2.12,1.76-3.17.35.21.77.35,1.22.44-.47.18-.89.47-1.21.9-.74,1.01-1.41,2.42-1.28,3.7.01.19.26.5.48.43,1.47-.45,2.66-1.45,4.23-1.66.46-.06,1.04-.17,1.64-.26-.95.86-2.1,1.63-2.99,2.48-1.17,1.12-2.33,2.21-3.27,3.54-.03.05-.03.09-.02.14,0,.02,0,.03.01.05,0,.01,0,.02,0,.04,0,0,0,0,0,0,.08.15.26.28.39.27.08,0,.15-.03.23-.04,0,0-.01,0-.02,0,.18-.02.37-.06.55-.09,1.5-.23,2.98-.61,4.49-.88.03,0,.06-.01.09-.02.43-.07.86-.11,1.3-.15-.18.14-.35.32-.5.56-.47.76-.4,1.58-.05,2.32-1.04-.2-2.1-.27-3.2-.2-1.07.07-3.82.5-3.8,1.97,0,.5.32.94.78,1.14.29.12.6.2.93.25-.65.82-1.01,1.72-.47,2.43-.46.46-.84,1.06-.61,1.7.57,1.61,1.71,1.16,2.7.33,0,.02,0,.04,0,.06-.04.03-.08.06-.11.1-.09.09.05.28.17.28.11.54.38.95.86,1.03-.47.06-.79.24-.65.64.34.96,1.72,1.72,2.73,2.25.05.05.1.1.16.15.04.03.1.08.18.13-1.11-.34-2.24-.52-3.1-.19-.22.08-.05.42.07.51.55.42,1.23.76,1.9,1.04-.28.02-.56.06-.81.12-.96.02-1.88.18-2.66.6-.67.36-2.77,1.85-2.39,2.89.05.12.24.38.41.31.83-.39,2.02-.35,3.05-.29-.14.06-.27.13-.41.22-1.17.74-2.49,1.51-3.49,2.48-1.78,1.71-4.38,4.39-4.81,6.89-.01.06.02.15.07.23h0s0,0,0,0c.04.06.08.11.13.14,0,0,.01.01.02.02.06.03.12.05.18.03,3.05-1.23,5.77-2.43,9.07-2.91,1.46-.22,2.94-.38,4.42-.57-.64.73-1.11,1.57-1.23,2.47-.03.25.24.55.49.52.6-.08,1.03-.61,1.55-.89,1.07-.57,2.15-1.08,3.33-1.4.89-.24,1.82-.48,2.75-.67.14-.03.29-.07.43-.09-.03.21-.02.42.06.64.15.41.6.57.93.79.3.19-1.69,1.11-1.93,1.37-.17.18.11.46.28.5.98.2,2.03.42,3.02.46.01,0,1.13.18,1.49.38,0,0,0,0,0,0-.54-.05-1.08-.07-1.61-.09-1.44-.05-3.5-.06-4.77.67-.11.06-.05.27,0,.34.26.41.63.72,1.05.98-.59-.02-1.02.11-.96.53.03.22.11.46.22.69-.64-.26-1.33-.4-1.9-.2-.06.02-.1.07-.11.13-.07.48.28.94.77,1.33-1.06.03-2.05.48-2.89,1.17h0s0,0,0,0c-.24.2-.47.43-.69.67-.04.05-.08.09-.12.14-.21.24-.4.5-.58.77-.1.16.16.49.33.48,1.02-.07,1.96.14,2.89.43-1.71.69-3.03,2.19-3.12,4.43-.01.22.15.42.34.5.32.13.4.11.76-.07.37-.19.79-.38,1.24-.54-.24.28-.41.62-.5,1.1-.05.24.25.58.49.52.61-.14,1.16-.35,1.72-.58-.58.9-1.12,2-.52,2.81.13.19.41.47.68.29.47-.34.85-.79,1.45-.94.28-.07,1.09-.2,1.5-.16.09.38.15.77.18,1.16.04.72.7,1.84.85,2.58.44,2.09,1.3,4.07,1.66,6.2.35,2.12.73,4.25,1.2,6.35.14.64.3,1.27.47,1.91.17,1.04.36,2.07.55,3.1.18.65.34,1.29.5,1.94.37,1.51.6,3.06.93,4.58.05.22.1.47.16.73.03.15.07.3.11.46.04.16.08.31.12.47.05.17.1.33.15.49.05.15.11.3.17.44.06.16.12.31.19.46.01.02.02.05.03.07,0,0,0-.01,0-.02.13.25.26.5.43.7.02-.08.02-.15.04-.23.05.05.12.07.14,0,.45-1.96.5-4,.85-5.98.11-.61.21-1.22.32-1.82.25-1.41.49-2.82.77-4.22.44-2.16,1-4.24,1.71-6.33.48-1.4,1.18-2.76,1.56-4.18.01-.05,0-.11-.02-.17-.02-.05-.05-.09-.09-.14,0,0-.01-.02-.02-.03-.1-.12-.24-.2-.36-.17-.61.16-1.02.86-1.36,1.37-.29.43-.58.86-.88,1.29.15-.29.28-.57.36-.76.04-.09.06-.18.1-.27,0,0,0,0,0,.01.01-.03.02-.06.03-.1.41-1.12.79-2.25,1.16-3.38.02-.05,0-.11-.02-.18,0-.02-.01-.03-.02-.05-.02-.04-.05-.08-.09-.12-.02-.02-.03-.03-.04-.05-.04-.03-.08-.06-.12-.08,0,0,0,0,0,0-.07-.02-.13-.02-.16.06-.29.77-.83,2.06-1.48,2.93.05-.66.1-1.33.14-2,.09-.32.16-.62.2-.88.2-1.45.46-2.88.78-4.3.45-2.05.94-4.1,1.5-6.12h0c.04-.16.08-.32.12-.47.26.21.52.43.76.67.4.39.87.78,1.42.49.42-.22-.36-1.58-1.1-2.64.65.4,1.32.78,2.04.93.16.03.22-.14.21-.26-.04-.49-.4-.92-.82-1.3.61.17,1.23.2,1.64-.29.11-.14.16-.31.16-.5,1.25.06,2.76.53,3.27.72,1.42.49,2.56,1.19,3.78,2.06.2.14.38-.03.3-.24-.15-.39-.34-.74-.54-1.07,0,0,0,0,.01.01,0-.01-.01-.02-.02-.03-.2-.33-.43-.64-.68-.92-.04-.05-.09-.1-.13-.15-.26-.28-.54-.56-.84-.8.1-.01.19-.03.28-.06.63.29,1.27.56,1.96.68.36.06.1-.47,0-.57-.42-.4-.88-.78-1.36-1.14-.02-.1-.06-.21-.11-.32.54.17,1.09.37,1.64.2.11-.03.12-.13.12-.23-.05-1.25-2.41-2.15-3.3-2.54-1.15-.5-2.49-.94-3.86-1.17.49-.08.96-.2,1.35-.48.22-.15-.08-.51-.22-.6-.95-.63-2.24-.7-3.43-.74-.14-.13-.3-.24-.45-.36.05-.04.11-.07.16-.1.64-.48,1.84-1.38,1.94-2.27.02-.16-.1-.32-.23-.4-.43-.25-1.01-.18-1.56-.03-.04-.31-.13-.66-.28-1.04.27.15.54.26.81.32.79.18,1.33-.03,1.74-.43.03,1.34.26,2.65,1.37,3.05.68.24,1.2-.27,1.59-1.02.02.06.04.13.07.19.27.61,1.11,1.67,1.92,1.38,1.37-.49,1.8-2.16,1.75-3.78.15.18.3.35.45.52.71.81,1.63,1.87,2.8,1.83,1.42-.05.5-2.31-.23-3.82,1.1.68,2.46,1.37,3.18.49.14-.18.18-.39.15-.61,1.06.76,2.11,1.55,3.12,2.41.46.4,1.92.88,1.62-.35-.64-2.6-2.31-4.38-4.29-5.87.48,0,.83-.16.89-.6.14-1.13-.85-1.52-1.57-2.06-.39-.29-.81-.58-1.26-.84.18-.17.29-.42.24-.75-.18-1.29-1.58-2.18-2.65-2.71-2.24-1.11-4.42-1.57-6.87-1.02-.48.11-1.04.23-1.61.37-.04-.04-.07-.07-.11-.11,0,0,0-.02,0-.03-.27-.99-.83-1.53-1.51-1.76,0,0,0,0,0,0,.11-.51-.14-1.07-.52-1.62.3.1.71.23.78.37.03.07.17.11.13,0-.08-.24-.3-.41-.55-.55-.03-.08-.11-.15-.15-.16-.19-.05-.38-.1-.57-.16-.02,0-.03-.01-.05-.02-.16-.19-.33-.38-.5-.55.01,0,.02,0,.04,0,1.19.63,2.29,1.42,3.64,1.79.96.26,2.73.94,3.63.27.18-.13.12-.34-.08-.59,1.39.77,2.74,1.57,4.15,2.35.19.11.39.06.37-.19-.06-.99-1.01-2.27-2.12-3.2.05,0,.1-.02.15-.03h0s.09-.02.13-.03c.43.15.86.28,1.29.41.88.26,1.73.27,2.6.27h.13c.26.03.52.06.78.06.32,0,.68.03,1.04.05,0,0,0,0,0,0,.08,0,.17,0,.25,0,.04,0,.08,0,.12,0,.2,0,.4-.02.6-.05.05,0,.09-.02.14-.03.2-.04.4-.1.57-.19.16-.09,0-.38-.06-.46-1.04-1.23-3.53-1.46-4.99-1.87-.36-.1-.75-.22-1.15-.35,1.13-.05,2.53-.09,3.3-.79.17-.15.02-.4-.07-.54-.4-.57-.97-.62-1.68-.62-1.29-.02-2.57-.02-3.86,0-.05,0-.11,0-.16,0,0-.04-.01-.08-.03-.13-.38-1.04-1.8-1.47-2.73-1.8-.58-.21-1.17-.44-1.76-.65,1.62-.08,3.04-.38,2.42-1.14-.49-.6-1.27-.74-2.05-.77.58-.26.75-1.07.67-1.89,1.15.92,2.31,1.85,3.98,1.47.62-.14,1.12-.42,1.46-.8,1.33,2.16,3.63,3.49,6.38,3.32,1.15-.07,2.43-.26,2.52-1.64.02-.4-.11-.79-.34-1.16.98.28,1.93.33,2.21-.49.37-1.08-.84-2.25-1.56-2.87-.41-.36-.84-.74-1.29-1.1.2-1.1-1.02-2.18-1.8-2.76-1.05-.78-2.22-1.39-3.46-1.79-.14-.73-.46-1.46-.87-2.13,1.82.28,3.63.34,5.32.05.15-.03.28-.06.39-.11.04-.01.07-.03.1-.05.07-.03.13-.06.17-.1.03-.02.05-.04.07-.07.03-.04.07-.07.09-.11.02-.03.03-.06.04-.08,0-.02.02-.04.02-.05,0,0-.01,0-.02,0,.07-.33-.24-.72-.81-1.03-1.09-.59-2.32-1.08-3.57-1.5.43,0,.85-.06,1.26-.15h0s0,0,0,0c.34-.08.67-.18.99-.34.68-.34.43-1.13-.02-1.55-1.4-1.3-3.58-1.46-5.36-1.86-.14-.03-.29-.07-.44-.11,0,0,0,0,0,0,.35.01.7.03,1.05.03.72,0,1.45.09,2.17,0,0,0,.01.01.02.02.08.11.23.07.18-.05.08-.01.17-.02.25-.04.21-.05.09-.36,0-.46-.22-.25-.46-.46-.71-.66-.09-.07-.18-.12-.27-.18-.09-.06-.18-.12-.27-.18-.36-.55-.72-1.1-1.07-1.66.15-.28.27-.57.36-.81.38-1.06.11-2.53.2-3.79.01,0,.02.01.04.02.08.15.17.29.25.42.61.96,1.13,2.08,2.27,2.52.94.37,1.44.03,1.65-.59,1.17,1.16,2.69,2.04,3.82,2.13,1.26.1,2.21-.41,2.53-1.66.16-.64-.08-1.25-.46-1.82,1.21.32,2.66.69,3.2-.17.8-1.29-.04-2.46-1-3.36-.12-.11-.24-.21-.37-.32,1.76-.72,2.96-2.2,1.38-4.02-1.72-1.97-7.84-5.31-9.75-2.86-.28-.47-.56-.89-.77-1.2-.02-.02-.04-.05-.06-.08,1.14.21,2.1.23,2.11-.31.01-.34-.12-.62-.34-.88,1.09.28,2.19.48,3.33.53,1.35.07,3.08.22,4.38-.32,1.19-.5.75-1.14-.04-1.51.46.12.93.23,1.4.33.1.02.21.05.33.08.11.03.24.06.37.1.05.01.09.02.14.04.1.02.19.05.29.07.06.01.12.02.18.04.09.02.17.04.26.05.07.01.13.02.2.03.08.01.16.02.24.02.07,0,.13,0,.19,0,.07,0,.15,0,.22-.01.06,0,.12-.02.18-.03.07-.01.13-.03.18-.06.05-.02.1-.05.15-.08.03-.02.06-.03.09-.05,0,0-.02,0-.02,0,.05-.04.11-.07.15-.12.07-.08.08-.18.04-.28ZM244.59,82.97s0,0,0-.01c0,0,.02,0,.03,0,0,0-.01,0-.02.01ZM267.86,89.85c.21-.02.43-.03.67-.06-.02.2-.04.4-.04.61,0,.18.07.7.06,1.21-.15-.17-.3-.33-.46-.47-.07-.07-.15-.12-.23-.18-.06-.05-.12-.11-.19-.15,0,0,0,0,0,0-.07-.04-.13-.1-.19-.14-.1-.05-.2-.09-.3-.02-.55.38-.21,1.19-.01,1.81-.43-.22-1.01-.45-1.35-.2-.39-.44-.84-.84-1.33-1.19.24-.14.48-.32.77-.44.74-.31,1.47-.58,2.25-.76.1-.02.22-.03.35-.04,0,0,0,0,0,0ZM283.59,114.81c-1.37-.91-3.88-.85-5.45-1.06-.24-.03-.49-.07-.76-.12-.18-.03-.37-.07-.56-.1-.1-.02-.19-.04-.29-.05-.17-.17-.33-.34-.47-.52-.13-.62-.24-1.24-.34-1.86.73.6,1.59,1.32,2.46,1.39.18.01.2-.17.16-.3-.31-.92-1.1-1.66-1.66-2.43-.11-.15-.21-.3-.32-.46.59.35,1.2.65,1.85.84.98.3,2.93,1.12,3.73.18.1-.12.06-.25,0-.37.73.61,1.58,1.04,2.5,1.27-.69,1.14-.93,2.55-.32,3.55.27.45.63.72,1.02.87-.28.05-.57.12-.89.13-.51.01-1.02.07-1.52.14.37-.13.73-.29,1.04-.53.2-.15-.07-.48-.21-.57ZM278.56,101.88c.4.36.81.7,1.23,1.04-.02-.01-.04-.03-.07-.04.31.26.62.51.95.75.19.14.49.4.83.67-.32.03-.62.1-.9.25-.19-.05-.38-.09-.56-.14-.47-.35-.94-.7-1.41-1.04-.08-.06-.15-.08-.21-.08-.3-.26-.6-.53-.89-.79-.1-.34-.2-.66-.36-1,0,0,0,0,0,0,.35.13.71.25,1.08.33.1.02.21.03.32.06ZM286.27,115.72c.1-.02.19-.01.29-.04,0,.09,0,.17,0,.26-.09-.1-.19-.17-.28-.22ZM280.9,108.84c-.81-.52-1.84-.85-2.62-1.11-.19-.06-.39-.14-.6-.21.79-.05,1.58-.08,2.37-.13.01.03.03.07.04.1.23.49.5.95.81,1.35ZM277.91,104.85c.01-.2,0-.39,0-.58.26.2.52.39.8.57.02.01.04.03.07.04-.24,0-.53-.01-.86-.02ZM278.62,128.82c-.49-.12-.98-.26-1.45-.29-.73-.04-1.48.24-2.12.56-.03.01-.04.03-.07.05,0-.46-.08-2.21-.15-4.03.53-.05,1.05-.09,1.48-.19.08-.02.16-.01.24-.03,0,.34.05.68.14.97.37,1.21,1.13,2.08,1.93,2.97ZM269.76,112.69s-.03.04-.04.06c0-.03,0-.05,0-.08.01,0,.02.01.03.02ZM286.75,117.26c-.38.3-.78.58-1.19.82.41-.47.77-.96,1.02-1.55.03.25.09.5.17.72ZM277.86,101.25c-.07-.02-.15-.03-.22-.06-.2-.07-.39-.14-.59-.22,0-.15,0-.3.04-.42.29.25.56.51.77.7ZM261.93,118.58c.02-.06.02-.13.04-.19.16-.15.32-.3.48-.45.69.22,1.4.3,1.99.19.23-.04.46-.11.69-.18-.02.1-.04.21-.07.31-.22.16-.43.33-.67.48-.28.17-.61.33-.95.49-.51-.29-1.02-.53-1.51-.64ZM249.33,84.65s-.03-.04-.05-.06c.03,0,.06,0,.1-.01-.02.02-.03.05-.04.07ZM256.93,87.06c.91-.09,1.82-.17,2.73-.27-.96.62-1.67,1.35-1.14,1.93.55.61,1.44.55,2.2.36,1.26-.33,2.5-.72,3.73-1.12-.64.72-1.15,1.57-1.08,2.45-1.73-.89-3.76-1.22-5.5-.74-.09-.89-.44-1.78-.93-2.6ZM290.2,120.38c-.09,0-.18,0-.27,0-.32.02-.65.05-.97.1,0,0,0,0,0,0-.33.05-.66.1-.98.17.13-.13.26-.26.38-.4h0s.01-.02.02-.02c.1-.1.18-.21.28-.32.06-.07.12-.14.17-.21.07-.1.14-.2.21-.3.06-.09.12-.18.18-.27.06-.09.11-.19.16-.28.06-.1.11-.2.15-.3.21.74.54,1.38,1.04,1.81-.13,0-.26,0-.4.01ZM283.06,127.25c-.06.1-.12.2-.18.31-.24-.43-.51-.85-.78-1.25.01,0,.02.01.03.02.3.32.61.62.92.92ZM277.88,138.11c-.16.02-.32.05-.48.07,0,0,0,0,0-.02.15-.09.27-.19.39-.29.05,0,.09,0,.14-.01-.02.08-.04.17-.05.25ZM261.24,120.12c.13-.22.26-.44.36-.68.1.18.22.36.35.54-.13.08-.26.17-.38.27-.11-.05-.22-.08-.33-.13ZM279.44,169.42c-.36.15-.71.31-1.05.48-.09-.05-.21-.12-.34-.19.21-.25.43-.49.67-.72.23.16.47.31.72.43ZM278.02,170.09c-.13.07-.27.13-.4.21.07-.11.15-.2.23-.3.01,0,.02.01.04.02.04.02.09.05.14.08ZM266.41,148.69c-.21.17-.42.32-.61.47.13-.16.23-.34.32-.53.1.03.19.04.29.07ZM243.87,99.87c-.18-.07-.38-.16-.6-.24,1.53-.33,3.04-.82,4.56-1.19.58-.14,1.16-.28,1.75-.42.19.31.46.6.8.82-.94-.24-1.96-.47-2.82-.28-.2.04-.11.31-.06.42.34.74,1.1,1.04,1.75,1.48-.94-.24-1.73-.28-1.97.2-.24.47.48,1.17.73,1.42.01.01.03.03.04.04-1.32-.91-2.77-1.67-4.17-2.24ZM264.76,76c.65.62,1.48,1.31,2.26,1.94-.95-.39-1.94-.69-2.93-.97.12-.19.23-.38.37-.56.1-.13.2-.27.29-.4ZM292.82,120.01c.23.3.46.59.69.89-.14-.06-.29-.12-.43-.17-.13-.04-.25-.08-.38-.11-.12-.03-.23-.06-.35-.09.17-.14.33-.32.47-.52ZM284.58,141.59s-.08,0-.12,0c-1.52-.07-2.94.06-4.38.34.13-.24.23-.49.33-.74.62-.75,1.16-1.59,1.15-2.28.67,1.09,1.51,2.04,2.74,2.59.1.04.18.06.28.09ZM281.05,171.96c-.26,0-.51-.02-.74-.03.13-.08.25-.16.38-.25.13.09.25.19.37.28ZM255.54,152.78c1.3-.3,1.75-2.03,1.92-3.53.03-.03.06-.05.09-.08.43.54.99.9,1.86.78.83-.11,1.06-.96,1.04-1.9.9,1.13,2.02,1.97,3.63,1.92.38-.01.69-.11.96-.24-.34.27-.69.53-1.05.81-.6.46-1.19.94-1.66,1.48-.1.11-.17.22-.23.34-.85-.54-1.81-1-2.56-.61-.18.09,0,.4.07.49.4.58.98.99,1.56,1.39.11.08.22.17.32.26-1.39-.47-2.91-.74-4.27-.94-.15-.02-.95-.16-1.67-.17ZM254.98,126.91c.97.33,1.95.6,2.96.76,1.18.19,2.35.1,3.53.09-.87.21-1.77.5-2.27.98-1.39-.51-2.84-.72-3.99.04-.14.1,0,.34.06.43.4.54,1.32.78,1.89,1.07.31.15.63.3.94.45-.67-.21-1.36-.37-2.05-.44-.73-.08-1.76-.12-2.67.07.31-.57.61-1.15.89-1.74.26-.56.49-1.12.72-1.69ZM249.86,110.98c.47-.03.94-.06,1.41-.08.07.13.14.27.22.4-.54-.16-1.08-.26-1.63-.32ZM263.3,75.59c.12-.06.24-.12.36-.18-.22.38-.42.77-.62,1.16-.16-.11-.33-.23-.49-.34.25-.22.51-.43.76-.65ZM269.33,72.43c0,.12,0,.23,0,.35-.07.33-.06.69.01,1.05,0,.28,0,.56.01.85,0,.31,0,.62.01.93-.73-.31-1.47-.6-2.2-.82-.34-.1-.77-.26-1.23-.39.06-.07.11-.14.16-.21.38-.2.74-.4,1.09-.61.68-.41,1.41-.77,2.13-1.14ZM283.74,72.89c-.94.4-1.75.93-2.39,1.68-.14,0-.27,0-.4.01,0-.49-.02-.97-.07-1.4-.07-.52-.51-.89-1.01-.93-1.06-.09-2.26,1.08-2.75,1.89-.32.53-.47.93-.44,1.32-.1-.05-.2-.12-.3-.17-.2-.11-.41-.25-.62-.37-.06-3.16-.09-6.32-.08-9.48.35.28.72.54,1.07.79.96.68,1.92,1.37,2.88,2.05.28.27.55.55.8.84,1.08,1.26,2.18,2.52,3.31,3.76ZM286.12,72.16c-.6.13-1.17.29-1.7.47-.36-.44-.73-.86-1.05-1.26-.45-.55-.88-1.06-1.33-1.56,0-.03-.02-.06-.04-.09-.11-.11-.22-.22-.34-.32-.02-.02-.05-.05-.07-.07,1.49,1.04,2.99,1.96,4.54,2.84ZM287.98,73.45c-.5,0-1,.02-1.45.12.23-.22.43-.46.63-.71.27.2.55.39.83.59Z"/>
      <path class="cls-3" d="M269.31,94.18c-.23-.5-.65-.88-1.14-1.2h0s0,0,0,0c-.62-.4-1.34-.69-1.95-.92-.92-.34-1.88-.72-2.86-1,.63-.07,1.28-.16,1.88-.33h0s.01,0,.02,0c.18-.05.35-.11.52-.18.03-.01.06-.02.09-.03.15-.06.29-.13.42-.2.04-.02.08-.04.12-.07.12-.07.24-.15.35-.24.04-.03.08-.06.12-.09.14-.12.27-.25.38-.4.04-.05.02-.15,0-.2-.08-.19-.1-.41-.23-.58-.09-.11-.25-.22-.38-.27-.7-.25-.25-.05-.47.25.14-.18-.18-.46-.34-.49-1.77-.3-3.93.01-5.72.11-.37.02-.74.04-1.1.07.18-.19.25-.41.07-.7-.24-.39-.88-.57-1.5-.67.54-.17,1.02-.44,1.38-.84.58-.65-1-1.33-1.35-1.42-2.15-.57-4.28-1.21-6.53-1.24-.03,0-.06,0-.09,0,.12-.01.24-.02.35-.03.3-.02.55-.08.77-.28.06-.05.05-.14.03-.2-.32-.99-2.07-1.09-2.92-1.15-.98-.08-2.15-.07-3.17.25-.64-.2-1.29-.42-1.83-.75.07-.08.15-.15.23-.2t0,0c.08-.05.17-.09.26-.11.52-.15,1.18.03,1.69.03h2.86c.4,0,.74,0,1.05-.03.05.02.1.04.15.06.93.32,1.85.63,2.8.86.55.14,2.22.78,2.6.08.05-.1-.02-.22-.07-.3-.55-.72-1.56-1.13-2.32-1.58-.31-.18-.62-.37-.93-.55.01-.02.03-.04.04-.06,1.54.46,3.25.79,3.35.01.05-.43-.3-.85-.8-1.21,1.98.54,4.32,1.33,5.72,2.67.13.12.34.12.32-.09-.06-.98-1.06-2.01-1.7-2.67-.16-.16-.33-.33-.51-.48,1.6.59,3.24,1.1,4.88,1.42.29.06,3.97.81,3.31-.68-.15-.34-.39-.62-.68-.87,0,0,0,0,0,0,0,0,0,0,0,0-.21-.18-.45-.33-.71-.46-.05-.03-.1-.05-.15-.08-.25-.12-.5-.23-.76-.33-.01,0-.02,0-.03-.01-.27-.1-.54-.18-.81-.26-.11-.03-.2-.06-.31-.09-.21-.06-.41-.11-.6-.17-.45-.13-.91-.25-1.37-.37.14-.02.28-.04.42-.07.03,0,.08-.01.13-.02.08-.01.17-.03.29-.05.04,0,.07-.01.12-.02.07-.01.14-.03.22-.05.04-.01.08-.02.13-.03.08-.02.15-.05.23-.07.04-.01.08-.03.12-.04.08-.03.14-.06.21-.1.03-.02.07-.03.1-.05.07-.04.12-.09.17-.13.02-.02.05-.03.06-.05.05-.06.07-.12.09-.18,0-.02.02-.03.02-.05.01-.08,0-.17-.05-.28-.62-1.3-3.49-1.08-4.59-1.08-.33,0-.82-.02-1.35-.03,0,0,0,0,0,0-1.22-.88-3.22-1.12-4.67-1.3-.03,0-.08,0-.11-.01-.05-.03-.11-.07-.16-.1-.1-.08-.21-.15-.33-.22-.94-.63-1.84-1.3-2.79-1.92-.95-.69-1.89-1.42-2.9-2.05-.18-.13-.35-.26-.54-.39.53.15,1.08.26,1.64.36,1.41.24,2.75.67,4.15.95,1.69.33,3.34.68,5,1.17,1.2.36,2.5.55,3.65,1.07.17.08.1-.2,0-.25-1.16-.59-2.49-.87-3.72-1.32-1.27-.46-2.56-.91-3.88-1.2-1.54-.33-3.04-.94-4.61-1.14-1.38-.17-2.58-.33-3.86-.73-.87-.72-1.67-1.5-2.57-2.18-.06-.06-.12-.13-.18-.19.06-7.39.3-14.77.51-22.15.24-8.18,1.44-16.35,1.43-24.52-2.62-.75-5.34-.61-7.81.49,1.09,16.46.7,32.96.85,49.44-.21.44-.45.87-.72,1.27-.79,1.13-1.97,1.96-3.03,2.84-.79.65-1.56,1.32-2.33,1.99-.01,0-.02.01-.03.02-.12.07-.22.15-.34.23-.6-.25-1.21-.42-1.79-.44-.93-.04-.79.59-.34,1.15.13.17.26.35.39.53,0,0,0,0-.01,0-.43-.21-.87-.39-1.26-.57-.57-.26-2.55-1.43-3.17-.78-.05.05-.05.13-.03.2.02.05.05.11.08.16-1.2-.48-2.53-.68-3.76-.62-.16,0-.29.03-.4.07-.02,0-.05.01-.07.02-.09.03-.16.07-.21.12,0,0,0,0,0,0-.06.06-.08.13-.09.21h0c0,.08.01.17.05.26h0c.26.68,1.54,1.72,2.45,2.4-.32-.1-.64-.19-.97-.3-.93-.29-1.98-.7-2.96-.51-.19.04-.02.33.05.39.46.4,1.08.68,1.68.96-1.11-.12-2.23-.09-3.31.06-.07,0-.17.02-.29.04-.34.05-.86.12-1.37.25-.69-.36-1.43-.58-2.15-.54-1.27.08-1.43,1.34-1.04,2.59-.71-.32-1.46-.52-2.2-.51-1.07.02-3.63.13-3.82,1.6-.16,1.26,1.6,2.24,2.58,2.52.66.19,1.33.37,2.01.54-.11.15-.16.34-.12.57.2.95.9,1.49,1.73,1.83-.51.32-.97.69-1.46,1.18-.55.55-1.23,1.03-1.44,1.79-.1.36.41.99.78.97,1-.06,2.13-.12,3.12-.27.2-.03.39-.07.59-.11-.04.04-.08.08-.11.12-.35.41-.92,1.15-1,1.7-.07.48.04.83.25,1.09-.1.07-.21.14-.3.24-.07.08-.11.16-.13.25,0,0,0,.01,0,.02-.29,1.16,2.87,3.23,5.06,4.52-.68-.17-1.39-.28-2.07-.3-.54-.01-1.5-.14-1.87.36-.06.08.03.22.07.28.43.61,1.57.74,2.22.91.18.05.37.11.57.18-1.07.17-2.1.55-2.83,1.26-.6.59-1.83,2.14-1.18,3,.04.05.14.14.21.1,1.49-.72,2.91-1.27,4.43-1.71.69.1,1.41.13,2.03.13.42,0,.84-.03,1.26-.05-.08.02-.17.02-.26.05-1.21.35-2.84,1.15-2.28,2.74.27.78,1.52,1.3,2.8,1.46-.29.92.15,2.07.88,2.85-.2.09-.39.2-.53.36-1.77-.58-3.8-1.32-5.68-1.23h0c-.13,0-.26,0-.39.02-1.22.14.76,1.75.92,1.85,1,.61,2.18,1.25,3.4,1.63-.86.21-1.67.61-2.18,1.28-.47.61-.55,1.45.38,1.54.74.07,1.69-.4,2.43-.51,1.29-.18,2.64-.18,3.94-.07.18.01.36.04.54.06-.19.27-.4.51-.59.79-.05.07.1.22.17.14.25-.31.53-.59.79-.89.06,0,.12.01.19.02.07.03.15.05.22.08-.16.35-.31.71-.47,1.07-.33.74-.68,1.48-1.03,2.21-.1.07-.19.14-.26.22-.08.09-.04.21.02.3-.41.88-.81,1.75-1.18,2.64-.05.11.18.35.25.21.43-.84.91-1.66,1.38-2.48.28.16.6.27.95.35-.37.15-.69.36-.94.71-.58.79-1.1,1.89-1,2.89.01.15.2.39.37.34,1.15-.35,2.08-1.14,3.31-1.3.36-.05.81-.13,1.28-.2-.74.67-1.64,1.28-2.34,1.94-.91.88-1.82,1.73-2.56,2.76-.02.03-.02.07-.02.11,0,.01,0,.03.01.04,0,0,0,.02,0,.03,0,0,0,0,0,0,.06.11.21.22.3.21.06,0,.12-.02.18-.03,0,0,0,0-.01,0,.15-.02.29-.05.43-.07,1.17-.18,2.33-.48,3.51-.68.03,0,.05-.01.07-.01.34-.06.68-.09,1.01-.12-.14.11-.28.25-.39.43-.37.6-.32,1.24-.04,1.81-.81-.16-1.64-.21-2.5-.15-.84.05-2.99.39-2.98,1.54,0,.39.25.74.61.89.23.1.47.16.73.2-.51.64-.79,1.34-.37,1.9-.36.36-.65.83-.48,1.33.44,1.26,1.34.91,2.11.26,0,.02,0,.03,0,.05-.03.03-.06.05-.09.08-.07.07.04.22.13.22.09.42.29.74.67.81-.37.05-.62.19-.51.5.26.75,1.35,1.34,2.13,1.76.04.04.08.08.12.12.03.03.08.06.14.1-.87-.27-1.75-.4-2.43-.15-.18.07-.04.33.06.4.43.33.96.6,1.49.82-.22.01-.44.05-.63.09-.75.01-1.47.14-2.08.47-.52.28-2.17,1.44-1.87,2.26.04.09.19.3.32.24.65-.31,1.58-.27,2.38-.22-.11.05-.21.1-.32.17-.92.58-1.95,1.19-2.73,1.94-1.39,1.34-3.43,3.43-3.76,5.39,0,.05.02.12.06.18h0s0,0,0,0c.03.05.06.08.1.11,0,0,.01,0,.02.01.04.03.09.04.14.02,2.38-.96,4.51-1.9,7.09-2.27,1.14-.17,2.3-.29,3.46-.45-.5.57-.87,1.23-.96,1.93-.02.19.19.43.38.4.47-.07.81-.48,1.22-.7.83-.45,1.68-.84,2.6-1.09.7-.19,1.42-.38,2.15-.52.11-.02.22-.05.34-.07-.03.16-.01.33.05.5.12.32.47.45.72.62.23.15-1.32.87-1.51,1.07-.13.14.08.36.22.39.76.16,1.59.33,2.37.36.01,0,.89.14,1.17.3,0,0,0,0,0,0-.42-.04-.84-.06-1.26-.07-1.13-.04-2.74-.04-3.73.53-.09.05-.04.21,0,.27.2.32.49.56.82.76-.46-.01-.8.09-.75.42.02.17.09.36.17.54-.5-.2-1.04-.31-1.49-.15-.05.02-.08.05-.08.1-.05.38.22.74.6,1.04-.83.03-1.6.37-2.26.92h0s0,0,0,0c-.19.16-.37.33-.54.52-.03.03-.06.07-.09.11-.16.19-.32.39-.45.6-.08.13.12.38.26.37.8-.05,1.53.11,2.26.33-1.34.54-2.37,1.72-2.44,3.46,0,.17.11.33.27.39.25.1.32.08.59-.06.28-.15.62-.29.97-.42-.18.22-.32.48-.39.86-.04.18.2.45.39.41.47-.11.91-.28,1.35-.46-.45.7-.88,1.56-.41,2.2.1.15.32.37.53.22.37-.26.66-.62,1.13-.74.22-.06.85-.16,1.17-.12.07.3.12.6.14.91.03.56.55,1.44.67,2.01.34,1.64,1.02,3.18,1.3,4.85.27,1.66.57,3.32.94,4.97.11.5.24,1,.37,1.49.13.81.28,1.62.43,2.42.14.51.27,1.01.39,1.52.29,1.18.47,2.39.73,3.58.04.18.08.37.12.57.03.12.06.23.09.36.03.12.06.24.1.37.04.13.08.26.12.39.04.12.08.23.13.34.05.12.09.24.15.36,0,.02.01.04.02.06,0,0,0,0,0-.01.1.2.2.39.34.55.01-.06.02-.12.03-.18.04.04.09.06.11,0,.35-1.53.39-3.13.67-4.68.08-.47.17-.95.25-1.42.19-1.1.38-2.2.61-3.3.35-1.69.78-3.32,1.34-4.95.37-1.1.92-2.16,1.22-3.27.01-.04,0-.09-.01-.14-.01-.04-.04-.07-.07-.11,0,0,0-.01-.01-.02-.08-.09-.19-.16-.28-.13-.48.13-.8.67-1.06,1.07-.23.34-.46.68-.69,1.01.11-.23.22-.44.28-.6.03-.07.05-.14.08-.21,0,0,0,0,0,0,0-.03.02-.05.03-.08.32-.87.62-1.76.91-2.64.01-.04,0-.09-.02-.14,0-.01-.01-.03-.02-.04-.02-.03-.04-.07-.07-.09-.01-.01-.02-.03-.03-.04-.03-.03-.06-.05-.1-.06,0,0,0,0,0,0-.05-.02-.1-.01-.12.05-.23.6-.65,1.61-1.16,2.3.04-.52.07-1.04.11-1.56.07-.25.12-.49.15-.69.15-1.13.36-2.25.61-3.37.35-1.6.74-3.2,1.18-4.79h0c.03-.13.06-.25.1-.37.21.17.41.34.6.53.31.31.68.61,1.11.38.33-.17-.28-1.24-.86-2.06.51.31,1.03.61,1.59.73.13.03.17-.11.16-.2-.03-.38-.31-.72-.64-1.02.48.14.96.16,1.28-.23.09-.11.12-.24.12-.39.97.05,2.16.42,2.56.56,1.11.39,2,.93,2.95,1.61.15.11.3-.02.23-.19-.12-.31-.27-.58-.42-.84,0,0,0,0,0,0,0,0-.01-.01-.02-.02-.16-.26-.34-.5-.53-.72-.03-.04-.07-.08-.1-.12-.21-.22-.42-.43-.66-.63.08,0,.15-.02.22-.04.49.22,1,.44,1.54.53.28.05.07-.37,0-.44-.33-.31-.69-.61-1.06-.89-.02-.08-.04-.16-.09-.25.42.14.85.29,1.28.16.08-.03.1-.1.09-.18-.04-.98-1.88-1.68-2.58-1.98-.9-.39-1.95-.74-3.02-.92.38-.06.75-.16,1.05-.37.17-.12-.07-.4-.17-.47-.74-.49-1.75-.54-2.69-.58-.11-.1-.24-.19-.36-.28.04-.03.09-.05.13-.08.5-.38,1.44-1.08,1.52-1.78.01-.12-.08-.25-.18-.31-.34-.19-.79-.14-1.22-.03-.03-.24-.1-.51-.22-.81.21.11.42.2.64.25.62.14,1.04-.03,1.36-.34.03,1.05.2,2.07,1.07,2.38.53.19.94-.21,1.24-.8.02.05.04.1.06.15.21.47.87,1.31,1.5,1.08,1.07-.38,1.4-1.69,1.37-2.96.12.14.23.28.35.41.56.63,1.28,1.47,2.19,1.43,1.11-.04.39-1.81-.18-2.99.86.53,1.93,1.07,2.48.38.11-.14.14-.3.12-.48.83.6,1.65,1.21,2.44,1.89.36.31,1.5.69,1.26-.27-.5-2.03-1.81-3.42-3.35-4.59.38,0,.65-.13.69-.47.11-.88-.66-1.19-1.23-1.61-.3-.23-.64-.45-.98-.66.14-.13.22-.32.19-.58-.14-1.01-1.24-1.7-2.07-2.12-1.75-.87-3.46-1.23-5.37-.79-.38.08-.81.18-1.26.29-.03-.03-.06-.06-.09-.08,0,0,0-.01,0-.02-.21-.77-.65-1.19-1.18-1.38,0,0,0,0,0,0,.09-.4-.11-.84-.41-1.26.23.08.55.18.61.29.03.05.13.08.1,0-.07-.19-.23-.32-.43-.43-.03-.06-.08-.12-.11-.13-.15-.04-.3-.08-.45-.12-.01,0-.02-.01-.04-.01-.13-.15-.26-.29-.39-.43.01,0,.02,0,.03,0,.93.49,1.79,1.11,2.85,1.4.75.21,2.14.74,2.84.21.14-.1.09-.27-.06-.46,1.08.6,2.14,1.23,3.24,1.84.15.08.31.05.29-.15-.05-.77-.79-1.78-1.66-2.5.04,0,.08-.02.12-.03h0s.07-.01.1-.02c.33.11.67.22,1.01.32.69.21,1.35.21,2.03.21h.1c.2.02.41.04.61.05.25,0,.53.03.81.04,0,0,0,0,0,0,.07,0,.13,0,.2,0,.03,0,.06,0,.1,0,.16,0,.32-.01.47-.04.04,0,.07-.01.11-.02.16-.03.31-.08.45-.15.12-.07,0-.29-.05-.36-.81-.96-2.76-1.14-3.9-1.46-.28-.08-.59-.18-.9-.27.89-.04,1.98-.07,2.58-.62.13-.12.02-.31-.06-.42-.31-.45-.76-.48-1.32-.49-1.01-.01-2.01-.02-3.02,0-.04,0-.09,0-.13,0,0-.03,0-.07-.02-.1-.3-.81-1.41-1.15-2.13-1.41-.45-.16-.91-.35-1.38-.51,1.26-.06,2.38-.29,1.9-.89-.38-.47-.99-.58-1.6-.61.45-.21.59-.83.52-1.48.9.72,1.8,1.45,3.11,1.15.48-.11.87-.33,1.14-.63,1.04,1.69,2.84,2.73,4.99,2.59.9-.06,1.9-.2,1.97-1.28.02-.31-.09-.62-.26-.91.76.22,1.51.26,1.73-.38.29-.84-.66-1.76-1.22-2.25-.32-.28-.65-.58-1.01-.86.15-.86-.8-1.71-1.41-2.16-.82-.61-1.74-1.09-2.71-1.4-.11-.57-.36-1.14-.68-1.67,1.42.22,2.84.26,4.16.04.12-.02.22-.05.31-.08.03-.01.05-.03.08-.04.05-.02.1-.05.14-.08.02-.02.04-.04.06-.05.03-.03.05-.06.07-.08.01-.02.02-.04.03-.07,0-.01.01-.03.02-.04,0,0,0,0-.01,0,.05-.26-.19-.57-.63-.8-.86-.46-1.81-.85-2.79-1.18.34,0,.67-.04.99-.11h0s0,0,0,0c.27-.06.53-.14.77-.26.53-.26.34-.89-.01-1.21-1.09-1.02-2.8-1.14-4.19-1.45-.11-.02-.23-.06-.34-.08,0,0,0,0,0,0,.27,0,.54.02.82.02.56,0,1.14.07,1.7,0,0,0,0,.01.01.02.07.08.18.05.15-.04.07-.01.13-.01.2-.03.17-.04.07-.28,0-.36-.17-.19-.36-.36-.56-.51-.07-.05-.14-.09-.21-.14-.07-.05-.14-.1-.21-.14-.28-.43-.56-.86-.84-1.29.12-.22.21-.45.28-.64.3-.83.09-1.98.16-2.96,0,0,.02.01.03.02.07.11.13.23.2.33.48.75.88,1.62,1.77,1.97.74.29,1.12.03,1.29-.46.92.9,2.11,1.59,2.99,1.67.99.08,1.73-.32,1.98-1.3.13-.5-.07-.98-.36-1.42.95.25,2.08.54,2.5-.13.63-1-.03-1.92-.78-2.63-.09-.08-.19-.17-.29-.25,1.37-.56,2.32-1.72,1.08-3.14-1.34-1.54-6.13-4.15-7.63-2.24-.22-.37-.44-.7-.6-.94-.01-.02-.03-.04-.04-.06.9.17,1.64.18,1.65-.24,0-.26-.09-.49-.26-.69.85.22,1.71.38,2.61.42,1.06.05,2.41.17,3.43-.25.93-.39.58-.89-.03-1.18.36.09.73.18,1.1.25.08.01.17.04.26.06.09.02.18.05.29.07.04,0,.07.02.11.03.08.02.15.04.23.06.05.01.1.02.14.03.07.01.14.03.2.04.05,0,.1.01.15.02.06,0,.13.01.19.02.05,0,.1,0,.15,0,.06,0,.12,0,.17,0,.05,0,.09-.02.14-.03.05-.01.1-.03.15-.04.04-.02.08-.04.12-.06.02-.01.05-.02.07-.04,0,0-.01,0-.02,0,.04-.03.09-.05.12-.1.05-.06.07-.14.03-.23ZM217.82,79.61s0,0,0,0c0,0,.01,0,.02,0,0,0,0,0-.01,0ZM236.02,84.99c.16-.01.34-.03.52-.04-.02.16-.03.32-.03.48,0,.14.05.55.05.95-.12-.14-.24-.26-.36-.37-.06-.05-.12-.09-.18-.14-.05-.04-.1-.08-.15-.11,0,0,0,0,0,0-.05-.03-.1-.08-.15-.11-.07-.04-.16-.07-.23-.02-.43.3-.16.93,0,1.41-.34-.17-.79-.35-1.06-.15-.3-.35-.65-.66-1.04-.93.19-.11.37-.25.6-.34.57-.24,1.15-.46,1.76-.6.08-.02.18-.02.27-.03,0,0,0,0,0,0ZM248.32,104.51c-1.07-.71-3.03-.67-4.26-.83-.19-.03-.39-.06-.59-.09-.14-.03-.29-.05-.43-.08-.07-.01-.15-.03-.22-.04-.13-.13-.26-.26-.37-.41-.1-.48-.18-.97-.26-1.46.57.47,1.25,1.03,1.92,1.09.14,0,.16-.14.12-.24-.24-.72-.86-1.29-1.3-1.9-.08-.12-.17-.24-.25-.36.46.27.94.51,1.45.66.77.24,2.29.88,2.92.14.08-.09.05-.19,0-.29.57.48,1.24.81,1.96.99-.54.89-.72,1.99-.25,2.78.21.36.49.57.8.68-.22.04-.45.1-.7.1-.4.01-.79.05-1.19.11.29-.1.57-.22.82-.41.16-.12-.06-.38-.16-.44ZM244.38,94.4c.32.28.64.55.96.82-.02-.01-.03-.02-.05-.04.24.2.49.4.74.58.15.11.38.31.65.52-.25.02-.49.08-.71.2-.15-.04-.29-.07-.44-.11-.37-.27-.73-.55-1.1-.82-.06-.04-.12-.06-.16-.06-.24-.2-.46-.41-.7-.62-.08-.27-.15-.52-.28-.78,0,0,0,0,0,0,.28.1.56.19.85.26.08.02.16.03.24.05ZM250.42,105.22c.08-.01.15-.01.22-.03,0,.07,0,.14,0,.2-.07-.07-.15-.13-.22-.17ZM246.21,99.84c-.63-.41-1.44-.66-2.05-.87-.15-.05-.31-.11-.47-.17.62-.03,1.24-.07,1.85-.1.01.03.02.05.03.08.18.39.39.74.63,1.06ZM243.88,96.72c0-.15,0-.31,0-.45.2.15.41.31.63.44.02.01.04.02.05.03-.19,0-.42,0-.67-.02ZM244.43,115.46c-.38-.09-.77-.2-1.13-.22-.57-.04-1.16.19-1.66.43-.02.01-.03.03-.05.04,0-.36-.06-1.73-.12-3.15.41-.04.82-.07,1.16-.15.06-.01.12-.01.18-.02,0,.26.04.53.11.75.29.94.89,1.63,1.51,2.32ZM237.5,102.85s-.02.03-.03.05c0-.02,0-.04,0-.06,0,0,.02.01.03.02ZM250.79,106.43c-.3.24-.61.46-.93.64.32-.36.6-.75.8-1.21.02.2.07.39.13.57ZM243.84,93.91c-.06-.02-.12-.03-.17-.05-.15-.05-.31-.11-.46-.17,0-.12,0-.23.03-.33.23.2.44.4.6.54ZM231.38,107.46s.02-.1.03-.15c.12-.12.25-.24.38-.35.54.17,1.09.24,1.56.15.18-.03.36-.09.54-.14-.02.08-.04.16-.05.24-.18.12-.34.26-.53.38-.22.13-.48.26-.74.38-.39-.23-.8-.42-1.18-.5ZM221.53,80.92s-.03-.03-.04-.05c.03,0,.05,0,.08-.01-.01.02-.02.04-.04.06ZM227.47,82.81c.71-.07,1.42-.14,2.13-.21-.75.49-1.31,1.05-.89,1.51.43.47,1.13.43,1.72.28.99-.26,1.95-.56,2.92-.87-.5.56-.9,1.23-.85,1.91-1.35-.69-2.94-.96-4.3-.58-.07-.7-.35-1.4-.73-2.03ZM253.49,108.86c-.07,0-.14,0-.21,0-.25.02-.51.04-.76.08,0,0,0,0,0,0-.26.04-.51.08-.77.13.1-.1.2-.2.3-.31h0s.01-.01.02-.02c.07-.08.15-.17.22-.25.04-.06.09-.11.13-.17.06-.08.11-.15.17-.23.05-.07.1-.14.14-.21.05-.07.09-.15.13-.22.04-.08.08-.16.12-.24.16.58.42,1.08.82,1.42-.1,0-.21,0-.31,0ZM247.9,114.24c-.04.08-.1.16-.14.24-.19-.34-.4-.66-.61-.97,0,0,.02,0,.02.01.23.25.48.48.72.72ZM243.85,122.73c-.12.02-.25.04-.37.06,0,0,0,0,0-.01.12-.07.22-.14.31-.23.04,0,.07,0,.11-.01-.02.07-.03.13-.04.2ZM230.84,108.67c.1-.17.2-.35.28-.53.08.14.17.28.27.42-.1.06-.2.13-.3.21-.09-.04-.17-.06-.26-.1ZM245.08,147.22c-.28.12-.56.24-.82.37-.07-.04-.16-.09-.26-.15.16-.2.33-.39.52-.56.18.12.37.24.56.34ZM243.96,147.74c-.1.06-.21.1-.31.16.05-.08.12-.16.18-.24,0,0,.02,0,.03.01.04.02.07.04.11.06ZM234.89,131.01c-.17.13-.33.25-.48.36.1-.13.18-.27.25-.42.08.02.15.03.23.05ZM217.26,92.83c-.14-.06-.3-.12-.47-.19,1.2-.26,2.38-.64,3.56-.93.46-.11.91-.22,1.37-.33.15.24.36.47.62.64-.74-.18-1.53-.36-2.21-.21-.16.03-.09.24-.05.33.27.58.86.81,1.37,1.15-.74-.19-1.35-.22-1.54.16-.19.37.38.91.57,1.11.01.01.02.02.03.03-1.03-.71-2.17-1.3-3.26-1.75ZM233.59,74.16c.51.48,1.16,1.03,1.77,1.52-.74-.3-1.51-.54-2.29-.76.09-.15.18-.3.29-.44.08-.11.15-.21.23-.32ZM255.54,108.58c.18.23.36.46.54.69-.11-.05-.22-.09-.34-.13-.1-.03-.2-.06-.3-.09-.09-.02-.18-.05-.27-.07.14-.11.26-.25.37-.4ZM249.1,125.45s-.06,0-.09,0c-1.19-.05-2.3.04-3.43.27.1-.19.18-.39.26-.58.48-.59.91-1.24.9-1.79.52.85,1.18,1.6,2.15,2.03.08.04.14.05.22.07ZM246.33,149.2c-.2,0-.4-.01-.58-.03.1-.06.2-.13.29-.19.1.07.19.15.29.22ZM226.39,134.21c1.02-.24,1.37-1.59,1.5-2.76.03-.02.05-.04.07-.06.33.42.78.7,1.45.61.65-.09.83-.75.81-1.48.7.88,1.58,1.54,2.84,1.5.3,0,.54-.09.75-.19-.27.21-.54.42-.82.63-.47.36-.93.73-1.3,1.16-.07.08-.13.17-.18.26-.67-.42-1.42-.78-2-.48-.14.07,0,.31.05.38.32.45.76.77,1.22,1.09.09.06.17.13.25.2-1.09-.37-2.27-.58-3.34-.73-.11-.02-.74-.13-1.31-.13ZM225.95,113.97c.76.26,1.53.47,2.31.59.92.14,1.84.08,2.76.07-.68.16-1.38.39-1.78.76-1.09-.4-2.22-.56-3.12.03-.11.07,0,.26.05.33.31.42,1.03.61,1.48.84.24.12.49.23.74.35-.52-.17-1.06-.29-1.6-.35-.57-.06-1.38-.09-2.09.05.24-.45.48-.9.7-1.36.21-.43.38-.88.56-1.32ZM221.94,101.52c.37-.02.73-.04,1.1-.06.06.1.11.21.17.31-.42-.13-.85-.21-1.27-.25ZM232.45,73.84c.09-.05.19-.1.28-.14-.17.3-.33.6-.49.91-.13-.09-.26-.18-.39-.26.19-.17.39-.33.59-.5ZM237.17,71.37c0,.09,0,.18,0,.27-.06.26-.04.54.01.82,0,.22,0,.44,0,.66,0,.24,0,.48,0,.72-.57-.24-1.14-.47-1.72-.64-.27-.08-.61-.2-.96-.31.04-.06.08-.11.12-.17.29-.15.58-.31.85-.48.53-.32,1.1-.6,1.67-.89ZM248.44,71.73c-.74.31-1.37.73-1.87,1.32-.11,0-.21,0-.31,0,0-.39-.01-.76-.05-1.09-.06-.4-.4-.69-.79-.73-.83-.07-1.76.85-2.15,1.48-.26.42-.37.72-.35,1.04-.08-.04-.16-.09-.24-.13-.16-.09-.32-.19-.48-.29-.04-2.47-.07-4.94-.06-7.41.28.22.56.42.84.62.75.53,1.5,1.07,2.25,1.6.22.21.43.43.62.65.84.99,1.71,1.97,2.59,2.94ZM250.3,71.16c-.47.11-.92.22-1.33.37-.28-.34-.57-.67-.82-.99-.35-.43-.69-.83-1.04-1.22,0-.02-.01-.05-.04-.07-.09-.09-.18-.17-.26-.25-.02-.02-.04-.04-.05-.06,1.16.81,2.34,1.54,3.55,2.22ZM251.75,72.17c-.39,0-.78.01-1.14.09.18-.17.34-.36.49-.55.21.15.43.31.65.46Z"/>
    </g>
  </g>
  <rect class="cls-3" x="22.05" y="16.04" width="261.76" height="17.39"/>
</svg>